<?xml version="1.0" encoding="utf-8"?>
<!-- Generator: Adobe Illustrator 21.0.0, SVG Export Plug-In . SVG Version: 6.00 Build 0)  -->
<svg version="1.1" id="Layer_1" xmlns="http://www.w3.org/2000/svg" xmlns:xlink="http://www.w3.org/1999/xlink" x="0px" y="0px"
	 width="100px" height="100px" viewBox="0 0 100 100" enable-background="new 0 0 100 100" xml:space="preserve">
<g>
	<path fill="#F2ECE7" d="M74.2901459,88.8425293H26.8176785c-4.2940674,0-7.7750969-3.4810181-7.7750969-7.7750854V18.9842968
		c0-4.2940722,3.4810295-7.7750959,7.7750969-7.7750959h47.4724655c4.2940674,0,7.7750931,3.4810238,7.7750931,7.7750959v62.0831451
		C82.065239,85.3615112,78.5842133,88.8425293,74.2901459,88.8425293z"/>
	<path fill="#334A5E" d="M75.5646591,10.025856H25.5423336c-4.2361431,0-7.683485,3.4466801-7.683485,7.6834812v64.6330414
		c0,4.2367859,3.4473419,7.6834793,7.683485,7.6834793h50.0223236c4.2374725,0,7.6848145-3.4466934,7.6848145-7.6834793V17.7093372
		C83.2494736,13.4725361,79.8021317,10.025856,75.5646591,10.025856z M25.5423336,12.3929186h50.0223236
		c2.9320908,0,5.3170853,2.3849859,5.3170853,5.3164186v64.6330414c0,2.931427-2.3849945,5.3164063-5.3170853,5.3164063H25.5423336
		c-2.9307747,0-5.3157616-2.3849792-5.3157616-5.3164063V17.7093372
		C20.226572,14.7779045,22.6115589,12.3929186,25.5423336,12.3929186z"/>
	<g>
		<path fill="#BFBFBF" d="M74.9237976,36.8647995H26.6859932c-0.3609657,0-0.6538258-0.2926483-0.6538258-0.65382
			c0-0.3611755,0.29286-0.65382,0.6538258-0.65382h48.2378044c0.3609619,0,0.6538239,0.2926445,0.6538239,0.65382
			C75.5776215,36.5721512,75.2847595,36.8647995,74.9237976,36.8647995z"/>
		<path fill="#BFBFBF" d="M64.5862427,54.0688171H26.5477524c-0.2846432,0-0.5155849-0.2926445-0.5155849-0.6538315
			c0-0.3611717,0.2309418-0.65382,0.5155849-0.65382h38.0384903c0.2846451,0,0.5155792,0.2926483,0.5155792,0.65382
			C65.1018219,53.7761726,64.8708878,54.0688171,64.5862427,54.0688171z"/>
		<path fill="#BFBFBF" d="M69.5632553,45.1804504H26.6143074c-0.3213882,0-0.58214-0.2926445-0.58214-0.6538315
			c0-0.3611717,0.2607517-0.65382,0.58214-0.65382h42.9489479c0.3213882,0,0.5821304,0.2926483,0.5821304,0.65382
			C70.1453857,44.8878059,69.8846436,45.1804504,69.5632553,45.1804504z"/>
		<path fill="#BFBFBF" d="M54.2755432,63.4530563H26.4098644c-0.208519,0-0.377697-0.2926445-0.377697-0.6538315
			c0-0.3611717,0.169178-0.65382,0.377697-0.65382h27.8656788c0.208519,0,0.3777008,0.2926483,0.3777008,0.65382
			C54.653244,63.1604118,54.4840622,63.4530563,54.2755432,63.4530563z"/>
	</g>
	<g>
		
			<ellipse transform="matrix(0.9980606 -0.0622499 0.0622499 0.9980606 -4.3655219 4.4024358)" fill="#95D600" cx="68.4706345" cy="72.2621994" rx="9.0411282" ry="9.0411224"/>
		<path fill="#00752C" d="M70.2771225,70.7006912c0,0.2878418,0.2331848,0.5205078,0.5204926,0.5205078
			c0.287323,0,0.5205078-0.232666,0.5205078-0.5205078c0-1.2564926-0.8957825-2.3078995-2.0820084-2.549942v-0.5730667
			c0-0.2878494-0.2331848-0.5205078-0.5205078-0.5205078c-0.2873154,0-0.5205002,0.2326584-0.5205002,0.5205078v0.5746307
			c-0.5678711,0.1155472-1.0852509,0.4169235-1.466774,0.8681946c-0.3180237,0.3758087-0.465332,0.8567505-0.4132843,1.354866
			c0.053093,0.5095749,0.3154297,0.9821854,0.7198563,1.2965775l1.160202,0.9025421v2.8304977
			c-0.6043015-0.2154922-1.041008-0.7880478-1.041008-1.4657364c0-0.2878342-0.2331848-0.5205078-0.5204926-0.5205078
			c-0.287323,0-0.5205154,0.2326736-0.5205154,0.5205078c0,1.2564926,0.8957901,2.3078995,2.082016,2.549942v0.4575195
			c0,0.2878342,0.2331848,0.5205078,0.5205002,0.5205078c0.287323,0,0.5205078-0.2326736,0.5205078-0.5205078v-0.4590759
			c0.5678711-0.1155472,1.0852432-0.4169312,1.4672928-0.8681946c0.3180313-0.3768387,0.4648056-0.8577881,0.4127579-1.3559113
			c-0.0536118-0.5090485-0.3154221-0.9811401-0.7198486-1.2950058l-1.160202-0.902565v-2.8304901
			C69.840416,69.4504471,70.2771225,70.0230026,70.2771225,70.7006912z M69.7571335,73.7898636
			c0.1816559,0.1410675,0.2998047,0.3539429,0.323761,0.5819473c0.0223694,0.2134018-0.0390396,0.4179535-0.172287,0.5751343
			c-0.1811447,0.2139359-0.4153671,0.3638382-0.672493,0.4554443v-2.0185089L69.7571335,73.7898636z M67.6740875,70.8505936
			c-0.1821747-0.141571-0.2998199-0.354454-0.323761-0.5829544c-0.0218582-0.2128983,0.0390396-0.4169235,0.172287-0.5746384
			c0.1811295-0.2139282,0.4153671-0.3638306,0.672493-0.4554443v2.0179977L67.6740875,70.8505936z"/>
	</g>
	<path fill="#F97046" d="M48.1805801,26.9453697c0,0.3746815-0.3065414,0.6813583-0.6813583,0.6813583h-20.785696
		c-0.3746872,0-0.6813583-0.3065491-0.6813583-0.6813583v-5.5026493c0-0.3746815,0.3065491-0.6813583,0.6813583-0.6813583
		h20.7858257c0.3746796,0,0.6813583,0.3065491,0.6813583,0.6813583v5.5026493H48.1805801z"/>
	<path opacity="0.1" fill="#9E9E9E" enable-background="new    " d="M23.4043388,11.4609623v77.1297989
		c0,0-4.9707508-0.0021744-4.8650513-8.8938828c0.1056995-8.8916931,1.0070686-61.9874954,1.0070686-61.9874954
		S19.0425816,14.7166529,23.4043388,11.4609623z"/>
	<path opacity="0.1" enable-background="new    " d="M62.5159035,72.2621384c0-4.4742279,3.2506828-8.1872559,7.518856-8.9112587
		c-0.4951096-0.0840416-1.0028687-0.1301117-1.5219879-0.1301117c-4.9933434,0-9.040966,4.0480156-9.040966,9.0413628
		c0,4.9934845,4.0476227,9.0414886,9.040966,9.0414886c0.5191193,0,1.0268784-0.046051,1.5219879-0.1300964
		C65.7665863,80.4495316,62.5159035,76.7364883,62.5159035,72.2621384z"/>
</g>
<g>
</g>
<g>
</g>
<g>
</g>
<g>
</g>
<g>
</g>
</svg>
