<?xml version="1.0" encoding="utf-8"?>
<!-- Generator: Adobe Illustrator 21.0.0, SVG Export Plug-In . SVG Version: 6.00 Build 0)  -->
<svg version="1.1" id="Layer_1" xmlns="http://www.w3.org/2000/svg" xmlns:xlink="http://www.w3.org/1999/xlink" x="0px" y="0px"
	 width="100px" height="100px" viewBox="0 0 100 100" enable-background="new 0 0 100 100" xml:space="preserve">
<g>
	<path fill="#334A5E" d="M81.0410385,16.6164989H20.714138c-5.4325542,0-9.8365479,4.7509079-9.8365479,10.611412v43.016922
		c0,5.8604965,4.4039936,10.6113815,9.8365479,10.6113815h20.5637703v2.4755478h19.199337v-2.4755478h20.5637932
		c5.4325562,0,9.8365555-4.750885,9.8365555-10.6113815V27.227911
		C90.877594,21.3674068,86.4735947,16.6164989,81.0410385,16.6164989z"/>
	<path fill="#FFFFFF" d="M21.5289497,20.0420952h58.0531807c3.3687439,0,6.0996552,2.7309074,6.0996552,6.0996552v45.0215874
		c0,3.3687439-2.7309113,6.0996552-6.0996552,6.0996552H21.5289497c-3.3687458,0-6.0996542-2.7309113-6.0996542-6.0996552
		V26.1417503C15.4292955,22.7730026,18.1602039,20.0420952,21.5289497,20.0420952z"/>
	<path fill="#EDEDED" d="M77.7900772,73.6116409H23.3210011c-3.2659893,0-5.9135914-2.6475983-5.9135914-5.9135895v-38.091011
		c0-3.2659893,2.6476021-5.9136009,5.9135914-5.9136009h54.4690781c3.2659912,0,5.9135971,2.6476116,5.9135971,5.9136009v38.091011
		C83.7036743,70.9640427,81.0560684,73.6116409,77.7900772,73.6116409z"/>
	<g>
		<path fill="#FFFFFF" d="M55.3359261,70.0110245H24.5388565c-0.8405437,0-1.521946-0.6813965-1.521946-1.5219345V28.8160057
			c0-0.8405476,0.6814022-1.5219402,1.521946-1.5219402h30.7970695c0.8405342,0,1.5219269,0.6813927,1.5219269,1.5219402V68.48909
			C56.8578529,69.329628,56.1764603,70.0110245,55.3359261,70.0110245z"/>
	</g>
	<path fill="#666666" d="M47.795536,37.184967h-3.8849335c0,0-1.4126892,2.8254013-3.9732056,2.8254013
		c-2.5605392,0-3.9732285-2.8254013-3.9732285-2.8254013h-3.8849335l-4.3264065,3.2668724l2.0307522,3.8849297l2.5605354-2.0307541
		v20.457283l7.5932808-0.0414543l7.5932579,0.0414543V42.306015l2.5605354,2.0307541l2.0307503-3.8849297L47.795536,37.184967z"/>
	<polygon fill="#F97046" points="57.8566437,43.9884109 57.2019386,64.2273102 61.9880714,59.4159164 65.2565994,66.1552429 
		68.7397614,64.8463287 65.7841873,58.2905693 72.1248703,57.8158836 	"/>
</g>
<g>
</g>
<g>
</g>
<g>
</g>
<g>
</g>
<g>
</g>
</svg>
