<?xml version="1.0" encoding="utf-8"?>
<!-- Generator: Adobe Illustrator 21.0.0, SVG Export Plug-In . SVG Version: 6.00 Build 0)  -->
<svg version="1.1" id="Layer_1" xmlns="http://www.w3.org/2000/svg" xmlns:xlink="http://www.w3.org/1999/xlink" x="0px" y="0px"
	 width="100px" height="100px" viewBox="0 0 100 100" enable-background="new 0 0 100 100" xml:space="preserve">
<path fill="#F9745F" d="M34.1120872,42.2097778c-0.0279808-0.5869446-0.0559425-1.1739693-0.0838432-1.7608528
	c-0.0412025,0.1978302-0.2010956,0.3773804-0.0774231,0.6066628c0.0334587,0.06213,0.0233498,0.1501579,0.0251236,0.2265816
	c0.0059853,0.2496414,0.0046921,0.4995651,0.014164,0.7491379c0.0024261,0.0641899,0.0340805,0.1273842,0.0524445,0.1910706
	C34.0657578,42.2181053,34.0889473,42.2139778,34.1120872,42.2097778z"/>
<path fill="#F9745F" d="M33.949543,33.1910172c-0.103756-2.7310925-0.2075768-5.4621868-0.3114777-8.1932716
	c-0.0185738,0.0007095-0.0372887,0.0014935-0.0558624,0.002203c0.0544395,1.3734436,0.1088829,2.7468891,0.1633873,4.1203327
	c-0.0095329,0.0004311-0.0190659,0.0009251-0.0286026,0.001421c0.0217056,0.4557285,0.0434723,0.9113846,0.0651131,1.3671112
	c0.005909-0.0014935,0.0117378-0.0029869,0.0176468-0.0044785c0.0407715,1.0289459,0.0815582,2.0578861,0.1223907,3.086832
	c0.0052719-0.000206,0.01054-0.0004234,0.0158119-0.0006371c-0.0084,0.7696953-0.016655,1.5393944-0.0249786,2.309166
	c0.0219116-0.000145,0.0437584-0.000351,0.0656853-0.0004959c-0.0041351-0.8969383-0.0081902-1.793808-0.0123138-2.6906738
	C33.9607239,33.1893806,33.9551659,33.1902351,33.949543,33.1910172z"/>
<path fill="#F9745F" d="M34.2986641,42.2012444c-0.0088959-0.0004311-0.0178528-0.0008545-0.0267487-0.0012169
	c-0.0242767,0.2306404-0.0708771,0.4617119-0.0666122,0.6917114c0.0043449,0.232132,0.0592804,0.4632645,0.0919418,0.6947594
	c0.0223389-0.0028458,0.0446968-0.0057602,0.0670395-0.0086823C34.3423576,43.11903,34.320591,42.660099,34.2986641,42.2012444z"/>
<path fill="#F9745F" d="M33.9755287,38.4325943c-0.0004311,0.2617416-0.0008011,0.5234718-0.0010719,0.7852859
	c0.0206337-0.0002899,0.0413475-0.0005684,0.0621223-0.0008545c-0.000351-0.2625961-0.000782-0.5251808-0.0012131-0.7877769
	C34.0154381,38.4303169,33.9954414,38.4314537,33.9755287,38.4325943z"/>
<path fill="#F9745F" d="M65.7426682,43.9341316c0.0231247,0.0042,0.0463257,0.0083275,0.0695114,0.0125923
	c0.0182877-0.0636902,0.0499573-0.1268806,0.0524521-0.1910744c0.0094681-0.2495613,0.0081863-0.499485,0.0141602-0.7491264
	c0.0017776-0.0764351-0.0084-0.1644592,0.0251236-0.2265854c0.1236038-0.2292862-0.0363007-0.4089012-0.0774231-0.6066666
	C65.7985916,42.7601509,65.770546,43.3471794,65.7426682,43.9341316z"/>
<path fill="#F9745F" d="M65.5559921,43.9255943c-0.021843,0.4588585-0.0436935,0.9177895-0.0655441,1.3765755
	c0.0223618,0.0029144,0.0447006,0.0058365,0.0669785,0.0086784c0.0327225-0.2314911,0.0876007-0.4626274,0.0920029-0.694767
	c0.0042801-0.2299919-0.0424118-0.4610596-0.0666733-0.6917C65.5738602,43.9247398,65.5649643,43.9251633,65.5559921,43.9255943z"/>
<path fill="#F9745F" d="M65.8792267,40.1569481c-0.0199356-0.0011444-0.0400085-0.002285-0.0598602-0.0033455
	c-0.000412,0.2625847-0.0008469,0.5251808-0.0011978,0.7877655c0.0207825,0.0002899,0.0414124,0.000576,0.0621262,0.0008545
	C65.8799286,40.6804199,65.8796539,40.4186783,65.8792267,40.1569481z"/>
<path fill="#F9745F" d="M34.028244,49.1113815c-0.0412025,0.1978264-0.2010956,0.3774414-0.0774231,0.6066589
	c0.0334587,0.0621262,0.0233498,0.1501579,0.0251236,0.2265854c0.0059853,0.2497139,0.0046921,0.4995651,0.014164,0.7491341
	c0.0024261,0.0641861,0.0340805,0.1273766,0.0524445,0.1910744c0.0232048-0.0042,0.0463943-0.0084,0.0695343-0.0125999
	C34.0841064,50.2852783,34.0561447,49.6982613,34.028244,49.1113815z"/>
<path fill="#F9745F" d="M33.9663429,41.8509789c-0.00811,0.0012779-0.0162239,0.0024223-0.0243378,0.0035553
	c-0.009758,0.8959427-0.0193558,1.7917442-0.0290337,2.6876144c0.0219116-0.000145,0.0437584-0.0003586,0.0656853-0.0005035
	C33.9745216,43.6447792,33.9704666,42.747921,33.9663429,41.8509789z"/>
<path fill="#F9745F" d="M34.2986641,50.8636971c-0.0088959-0.0003586-0.0178528-0.000782-0.0267487-0.0012131
	c-0.0242767,0.2306366-0.0708771,0.4617081-0.0666122,0.6917725c0.0043449,0.2320671,0.0592804,0.4632034,0.0919418,0.694767
	c0.0223389-0.0029144,0.0446968-0.0058365,0.0670395-0.0087509C34.3423576,51.7814865,34.320591,51.3225555,34.2986641,50.8636971z"
	/>
<path fill="#F9745F" d="M33.7169876,37.7841568c0.0217056,0.4557266,0.0434723,0.9114571,0.0651131,1.3671112
	c0.013588-0.003418,0.0270348-0.006897,0.0405617-0.0103874c-0.0215607-0.4529495-0.0431976-0.9059067-0.0647583-1.3587837
	C33.7442322,37.7828064,33.7306442,37.7835197,33.7169876,37.7841568z"/>
<path fill="#F9745F" d="M34.0353661,47.0917053c-0.019928,0.001133-0.0399246,0.0022011-0.0598373,0.0034142
	c-0.0004311,0.2616615-0.0008011,0.5234756-0.0010719,0.7852135c0.0206337-0.0002861,0.0413475-0.0005722,0.0621223-0.0008545
	C34.0362282,47.6168861,34.0357971,47.35429,34.0353661,47.0917053z"/>
<path fill="#F9745F" d="M66.2166061,26.7220898c-0.1038208,2.7310944-0.2076569,5.4621143-0.3114777,8.1932087
	c-0.0056229-0.000782-0.0111771-0.001564-0.0167999-0.0024185c-0.0040588,0.8968658-0.0081787,1.7937241-0.0123138,2.6905937
	c0.0219269,0.0002136,0.0437775,0.0004311,0.0656815,0.0005722c-0.008255-0.7697678-0.016571-1.5394669-0.0248947-2.309166
	c0.0052567,0.0002098,0.0105286,0.0004234,0.0157928,0.0006409c0.0408554-1.0289497,0.0816269-2.0578957,0.1223984-3.086834
	c0.0058441,0.0014915,0.011734,0.0029869,0.0175781,0.0044785c0.0217056-0.4557266,0.0434113-0.9113827,0.0651093-1.3671112
	c-0.0095291-0.000494-0.0189972-0.0009975-0.0285339-0.001421c0.0545197-1.3734436,0.1089478-2.7468872,0.1633911-4.1203384
	C66.2538986,26.7235832,66.2352448,26.7228012,66.2166061,26.7220898z"/>
<path fill="#F9745F" d="M65.7426682,52.5965843c0.0231247,0.0041924,0.0463257,0.0083923,0.0695114,0.0125923
	c0.0182877-0.0636864,0.0499573-0.1268806,0.0524521-0.1910706c0.0094681-0.2495651,0.0081863-0.499424,0.0141602-0.7491302
	c0.0017776-0.0764313-0.0084-0.1644592,0.0251236-0.2265816c0.1236038-0.2292175-0.0363007-0.4088326-0.0774231-0.6066666
	C65.7985916,51.4226074,65.770546,52.0096321,65.7426682,52.5965843z"/>
<path fill="#F9745F" d="M65.9127426,43.5788879c-0.0081863-0.0011444-0.0162201-0.0022774-0.0244141-0.0035629
	c-0.0040588,0.8968658-0.0081787,1.793808-0.0123138,2.6906738c0.0219269,0.000145,0.0437775,0.0003586,0.0656815,0.0004959
	C65.9320984,45.3706245,65.9224243,44.4748268,65.9127426,43.5788879z"/>
<path fill="#F9745F" d="M65.490448,53.9646149c0.0223618,0.0029221,0.0447006,0.0058365,0.0669785,0.0087624
	c0.0327225-0.2315674,0.0876007-0.4627075,0.0920029-0.694767c0.0042801-0.230072-0.0424118-0.4611359-0.0666733-0.6917725
	c-0.0088959,0.0004234-0.0177917,0.0008545-0.0267639,0.0012054C65.5341492,53.0469017,65.5122986,53.5058289,65.490448,53.9646149z
	"/>
<path fill="#F9745F" d="M66.032074,40.8652344c0.0134659,0.003479,0.0269699,0.0069695,0.0404968,0.0103874
	c0.0217056-0.455658,0.0434113-0.9113846,0.0651093-1.3671112c-0.013649-0.0006409-0.0272598-0.001358-0.0409088-0.0020676
	C66.0752106,39.9593277,66.0536499,40.4122772,66.032074,40.8652344z"/>
<path fill="#F9745F" d="M65.8181686,49.6038246c0.0207825,0.0002861,0.0414124,0.0005684,0.0621262,0.0008545
	c-0.0003662-0.2617416-0.0006409-0.5235443-0.0010681-0.7852135c-0.0199356-0.0012054-0.0400085-0.0022774-0.0598602-0.003418
	C65.8189545,49.0786438,65.8185196,49.3412361,65.8181686,49.6038246z"/>
<path fill="#F9745F" d="M55.7604904,10.7514925c0.0174408-0.0699568,0.0372887-0.1394825,0.0560722-0.2092228
	c-0.0187836-0.0053349-0.0374184-0.0106764-0.0561371-0.0160818c-0.0012131,0.0042715-0.0025711,0.0092459-0.0037842,0.0135183
	c0.0007172,0.0088949-0.0017738,0.0180063-0.000927,0.0269012C55.7616234,10.6288023,55.7577896,10.6897202,55.7604904,10.7514925z"
	/>
<g>
	<path fill="#F9745F" d="M66.0426178,25.3430958c-0.0066299-0.0652599-0.0279007-0.1289482-0.051239-0.1924934
		c0.0937195-2.3629684,0.1874466-4.7257938,0.2811584-7.0888271c-0.0186386-0.0007114-0.0372925-0.001421-0.0559311-0.00214
		c-0.0883942,2.3258228-0.1768341,4.6515026-0.2652283,6.9773159c-0.0029831-0.0091095-0.006897-0.0180779-0.0095978-0.0271797
		c-0.0160217-0.0537319-0.0345917-0.1098099-0.0345917-0.1647472c-0.0002899-0.5541439-0.0012131-1.108223,0.0069809-1.6622219
		c0.0043411-0.2956848,0.0320816-0.5910816,0.0372086-0.8867664c0.001358-0.0803356-0.0212708-0.1609688-0.0345078-0.2415924
		c0.0114441-0.3049316,0.0241241-0.6097984,0.0344467-0.9148026c0.0001373-0.0029144,0.0002823-0.0058365,0.000412-0.0087509
		h-0.000061c0.01017-0.3006668,0.0225601-0.6011829,0.0339508-0.9018497
		c0.0226898-0.6023254,0.0581284-1.2044334,0.0678864-1.8068943c0.0072479-0.4447002-0.0202179-0.8898239-0.0269699-1.3348045
		c-0.0019989-0.1356411,0.0296707-0.2731266,0.0160828-0.4067707c-0.0115356-0.1132927-0.067749-0.2217445-0.1008377-0.3332539
		c-0.0160217-0.0537319-0.0345917-0.1098022-0.0345917-0.1647396c-0.0002899-0.5541506-0.0012131-1.108222,0.0069809-1.6622286
		c0.0043411-0.2957487,0.0320816-0.5910816,0.0372086-0.8868303c0.0017853-0.1065359-0.0467453-0.2137032-0.0460434-0.320446
		c0.0012817-0.1981163,0.0222778-0.3960962,0.0342407-0.5941401c0.0051117-0.0834751,0.0081787-0.1670218,0.0121536-0.2505693
		c-0.0171356-0.0016365-0.0342865-0.003274-0.0513763-0.0049744c-0.0647583,0.1944828-0.1256638,0.3902512-0.1951981,0.5828886
		c-0.0980606,0.2716341-0.17733,0.2971783-0.4130325,0.1666632c0.0751495-0.0432625,0.1048279-0.1174831,0.0486145-0.1979723
		c-0.0246964-0.0353651-0.0557251-0.0666103-0.08461-0.0991974c-0.0141678-0.1074619-0.0326767-0.2143497-0.0558624-0.320734
		c0.0212021-0.0101089,0.0402756-0.0191393,0.0628204-0.0298872c-0.024971,0.0024195-0.0440445,0.0042715-0.0677414,0.0065479
		c-0.0166397-0.0763607-0.0290985-0.1533604-0.0421906-0.230216c0.0212708-0.0159378,0.0411224-0.0308857,0.0628204-0.0471115
		c-0.0311584-0.040204-0.0550613-0.098774-0.087883-0.1517153c-0.0055389-0.0846882-0.0072479-0.1697922,0.0055618-0.2567577
		c0.0041199-0.0283222-0.011673-0.0594873-0.0172348-0.0895195c-0.0303116-0.1647463-0.0603333-0.3294849-0.0889511-0.4856873
		c-0.0501633,0.0582819-0.1172028,0.1362715-0.183876,0.2137747c-0.0426254-0.0249853-0.0973587-0.0570774-0.1495132-0.0877476
		c0.003418-0.0611973,0.0064011-0.1146402,0.0105209-0.1882944c-0.0323029,0.039422-0.0530853,0.0646868-0.0773392,0.0943584
		c-0.0256195-0.1658077-0.0501022-0.3242149-0.0745773-0.4826288c-0.0113907,0.0034895-0.0227737,0.0069065-0.0340958,0.0103884
		c-0.0688171,0.2613888-0.1376343,0.5226984-0.2025375,0.7694902c-0.0239029-0.275898-0.0485916-0.5609064-0.0720062-0.830615
		c-0.0505295,0.2883539-0.100914,0.5794067-0.1538544,0.8698931c-0.0261154-0.0039845-0.0521622-0.0083923-0.0783463-0.0118093
		c-0.0029297-0.1452475-0.0057068-0.2808084-0.0084-0.4111795c-0.0096169-0.0009985-0.0192947-0.001996-0.0288925-0.0029869
		c-0.0229187,0.132719-0.0457535,0.2653656-0.0686722,0.3981562c-0.2196846-0.0236273-0.4408531-0.0381441-0.6610298-0.0584259
		c0.0172157-0.0737257,0.0361404-0.147028,0.0540733-0.2205381c0.0180779-0.0737247,0.0392227-0.1466684,0.0589294-0.2200346
		c-0.0187149-0.0052614-0.0374336-0.0106039-0.0561485-0.0160093c-0.0409164,0.1460218-0.0828362,0.2954683-0.1262436,0.4500341
		c-0.0279007-0.0028505-0.0560074-0.0045509-0.083828-0.0078974c-0.0004959-0.004631,0.0000648-0.0098209-0.0004959-0.0144529
		c-0.012455-0.1021833-0.0448418-0.2214556-0.1390495-0.2449398c0.0019188-0.0310936-0.002636-0.0614119,0.0019798-0.0927935
		c0.0042-0.0283947-0.011673-0.0595675-0.0171509-0.0895996c-0.0303116-0.1647387-0.0604134-0.3294773-0.0889511-0.4856796
		c-0.0501633,0.0582829-0.1172676,0.1362724-0.18396,0.2138386c-0.0425453-0.0250492-0.0972748-0.0571404-0.1495094-0.087739
		c0.0034142-0.0612774,0.0064812-0.1147213,0.01054-0.1883745c-0.0323105,0.0394297-0.0530205,0.0646944-0.0773621,0.094367
		c-0.0256157-0.1658087-0.0500946-0.3242235-0.0745773-0.4826298c-0.0113068,0.0034895-0.0226936,0.006979-0.0340805,0.0103884
		c-0.0688133,0.2613811-0.1375656,0.5226984-0.2025299,0.7695627c-0.0239105-0.2759781-0.0486145-0.5609779-0.0719452-0.8306875
		c-0.0528793,0.3018007-0.1053238,0.6064529-0.1610413,0.9103861c-0.005127,0.0278273-0.0317497,0.0516624-0.0678902,0.1074533
		c-0.004425-0.2154751-0.008049-0.3931732-0.011673-0.5708628c-0.0096779-0.0009985-0.0192947-0.0020685-0.0288925-0.003067
		c-0.0439796,0.2547693-0.0879593,0.509531-0.1319427,0.7643642c-0.0172958,0.000288-0.0345116,0.000495-0.0518074,0.0008545
		c-0.0320206-0.0441246-0.0640373-0.0882425-0.1098709-0.1513634c-0.0421295,0.2258711-0.1041107-0.0179348-0.1589813,0.0245533
		c-0.0071068-0.0249844-0.0142326-0.0502415-0.0213394-0.0752182c-0.012249,0.0028429-0.0244789,0.0055494-0.0367279,0.0083199
		c-0.0063248,0.0265427-0.0125999,0.053093-0.0189247,0.0796347c-0.0396385,0.817872-0.091732,1.6353197-0.1263885,2.4534149
		c-0.0307426,0.7254295-0.0311737,1.4521523-0.0502396,2.1781559c-0.0278206,1.0553465-0.0734482,2.1103315-0.0866699,3.165822
		c-0.011898,0.9483929,0.0074577,1.8972034,0.0171356,2.8458042c0.0134621,1.3172302,0.0340958,2.634388,0.0450516,3.9516811
		c0.006485,0.7756786,0.002697,1.5514927-0.0022049,2.3272438c-0.0012779,0.2108517,0.0424805,0.3678379,0.2635841,0.4644794
		c0.086544,0.0377846,0.1731491,0.1895809,0.1745682,0.2907028c0.0200615,1.4435349,0.0338745,2.8873672,0.0322304,4.3310471
		c-0.001709,1.4428978-0.0394173,2.8859367-0.0295296,4.328701c0.0086861,1.2780876,0.0638313,2.5558853,0.093502,3.8339005
		c0.0281258,1.2104874,0.0500984,2.4211082,0.0743103,3.6316566c0.0245476,1.2289886,0.0528603,2.4579048,0.0710182,3.6869545
		c0.0103149,0.6973305-0.0251198,1.3964348,0.0123138,2.0919838c0.0394936,0.7338295,0.1491432,1.4636002,0.2119865,2.1965828
		c0.0277557,0.3236504,0.0155067,0.6507874,0.0215569,0.9763603c0.003418,0.1822395,0.007267,0.364563,0.0115318,0.5749893
		c-0.3804359,0.0524483-0.4387131,0.3760948-0.5135155,0.7033043c-0.0332985,0.1459579-0.1088028,0.2929764-0.1924858,0.4804955
		c0.0292397,0.0016403,0.0585594,0.0029144,0.0878181,0.0046234c0.5987625,0.0351524,1.1969528,0.0806961,1.7959366,0.1119423
		c0.1374855,0.0071869,0.2771759-0.0244827,0.4155884-0.0405617c0.3812828-0.0444069,0.737236-0.234417,1.1332626-0.1968384
		c0.0286179,0.002697,0.0588531-0.0146599,0.0886002-0.0217056c0.1628952-0.0387802,0.3259354-0.0772858,0.4804916-0.1138649
		c-0.0608444-0.047039-0.1420975-0.1100159-0.2230225-0.1726341c0.0227737-0.0438385,0.0520172-0.100132,0.0799942-0.1538582
		c0.061264,0.0002823,0.1148605,0.0005684,0.1885757,0.0008545c-0.0410614-0.0302467-0.0673141-0.0496712-0.0981979-0.0724449
		c0.1642303-0.0340881,0.3212204-0.0666771,0.4781418-0.0992699c-0.0040588-0.0111732-0.008049-0.0222778-0.0121689-0.0334511
		c-0.2645111-0.055294-0.5290222-0.1105843-0.7788773-0.1627502c0.2743378-0.0380707,0.5577087-0.0773506,0.8259048-0.1145668
		c-0.3041458-0.0372925-0.6110764-0.0740128-0.9174881-0.1140747c-0.0280457-0.0036316-0.0531693-0.0290337-0.1108017-0.0621948
		c0.2149734-0.0155144,0.3922348-0.0282593,0.5695038-0.041069c0.0005722-0.0096054,0.0010681-0.019352,0.0016479-0.0289612
		c-0.2567673-0.0308838-0.5134506-0.0616989-0.7702026-0.092514c-0.0011368-0.0172157-0.0022812-0.0344391-0.003418-0.0516624
		c0.0423508-0.0342941,0.0847549-0.0685272,0.1453934-0.1174889c-0.2361984-0.0316696,0.0343628-0.1108742-0.0360794-0.1635361
		c-0.1476746-0.0380707-0.3278503,0.0180779-0.4565811-0.0716553c0.0363617-0.13834,0.073082-0.278389,0.1106567-0.4214973
		c0.0062561,0.0026283,0.015152,0.0053329,0.015152,0.0072594c0.0024109,0.1603317,0.1344986,0.1043968,0.2123566,0.1219711
		c0.2081528,0.0468941,0.4192123,0.0804901,0.6288681,0.1204758c0.0745773,0.0142403,0.1485214,0.0315971,0.2227325,0.0475349
		c0.0044098-0.0189934,0.0087509-0.0379295,0.013176-0.0568504c-0.2396164-0.0541573-0.4792175-0.1081734-0.7561188-0.1707191
		c0.1299515-0.0062714,0.2258835-0.0015678,0.3181686-0.0176582c0.1215515-0.0211983,0.2757568-0.0669594,0.2416763-0.2122726
		c-0.0255508-0.1085968-0.0138168-0.236618-0.0754395-0.3397369c0.02668-0.2345505,0.0528107-0.4691734,0.0803452-0.7035828
		c0.0286179-0.0151634,0.0697403-0.0369377,0.1433945-0.0759354c-0.0513153,0.001358-0.0920868-0.0063324-0.1331482-0.0137978
		c0.0171585-0.1467438,0.0338135-0.2935524,0.0502472-0.4402962c0.0028381-0.000988,0.0057602-0.0019875,0.0086823-0.0029831
		c-0.0019913-0.0069733-0.0039902-0.0139503-0.0059814-0.0209236c0.0127411-0.1142159,0.0272598-0.2282181,0.0391388-0.3425064
		c0.001709-0.0166512,0.0027771-1.4814034,0.003479-3.7450218c0.1245346-0.0119514,0.2492142-0.0273972,0.373764-0.0384216
		c-0.0016479-0.0212097-0.003212-0.0424194-0.004921-0.0636253c-0.1229019-0.0005684-0.2458725-0.0010719-0.3687592-0.0016365
		c0.000061-0.2403183,0.000145-0.4838371,0.000206-0.7409439c0-0.1053963,0-0.217762,0.0000763-0.3258629
		c0.0158615,0.0000725,0.0276794,0.000145,0.0454712,0.0002174c-0.0190048-0.0140228-0.0308838-0.0227737-0.0454712-0.0335197
		c0-0.0163002,0-0.0335159,0-0.0498848c0.1447372-0.0301018,0.2857895-0.0593529,0.425415-0.0883141
		c-0.0040588-0.0111694-0.008049-0.0223427-0.0121689-0.0335121c-0.1403351-0.0293198-0.2750549-0.0574989-0.4131775-0.0863266
		c0-0.0424805,0-0.0842552,0-0.1270981c0.1547165-0.0214844,0.3107758-0.0431252,0.4602051-0.0638313
		c-0.1525574-0.0187149-0.3066406-0.0383606-0.4602051-0.0572128c0-0.0543671,0.0000763-0.1051064,0.0000763-0.1600494
		l0.0013428-0.0000648c0.0005722-0.0096779,0.0010681-0.0193634,0.0016479-0.0290413
		c-0.0010071-0.0001373-0.0019989-0.000206-0.0029907-0.000351c0-0.2060928,0-0.4223518,0.0000687-0.6359825
		c0.0239029,0.0052643,0.0478897,0.0101738,0.0718002,0.0153008c0.0044098-0.0190048,0.0087509-0.0379295,0.013176-0.0568619
		c-0.0269089-0.006115-0.0580063-0.0130959-0.0849762-0.0192108c0.0000763-0.4782867,0.000145-0.9707375,0.000145-1.4811859
		c0.015007-0.0079041,0.0179291-0.0094719,0.0368576-0.0195007c-0.0142288,0.000351-0.0240555-0.0029945-0.0368576-0.0038414
		c0-0.1055374,0-0.2083664,0-0.3151093c0.0057602-0.1576233,0.013443-0.3151855,0.0181351-0.4728813
		c0.016449-0.5494461-0.0163651-1.1011696,0.0170135-1.6491241c0.0606995-0.9986382,0.1612625-1.9947014,0.2309265-2.9929085
		c0.0342178-0.4900208,0.0294647-0.9826889,0.0547256-1.4734955c0.086525-1.6830063,0.1834488-3.3654366,0.2662811-5.0486584
		c0.0449905-0.9126625,0.0686722-1.8263206,0.1032028-2.7395573c0.0226898-0.6023254,0.0581284-1.204361,0.0678864-1.8069019
		c0.0072479-0.4446201-0.0202179-0.8898163-0.0269699-1.3348045C66.0245361,25.6142273,66.0562057,25.4766693,66.0426178,25.3430958
		z M63.822464,53.8465576c-0.0557175-0.0090294-0.1033897-0.0678177-0.1547012-0.1043968
		c0.0152206-0.0201378,0.0288925-0.0457535,0.0432014-0.0691643l0.1092987-0.040638
		c0.004982,0.0710907,0.0103149,0.1424713,0.0152969,0.2133446C63.8313599,53.8452072,63.826664,53.8472672,63.822464,53.8465576z
		 M64.0778732,53.8298378c-0.0703125,0.0060539-0.1396255,0.0148773-0.2073708,0.0135918
		c0.0156517-0.0815544,0.0316048-0.1644592,0.0475426-0.2473602l0.0831909-0.0308876
		c0.0263977-0.0047646,0.0525894-0.009964,0.0788422-0.0152283c0.0181427,0.1167831,0.0356598,0.2298584,0.0540085,0.3481331
		C64.115097,53.8760223,64.0928879,53.8632164,64.0778732,53.8298378z"/>
	<path fill="#F9745F" d="M61.0865479,55.138237c-0.0323868-0.171154-0.0584335-0.3455048-0.0641174-0.5191383
		c-0.0107498-0.3272095-0.1378365-0.5851746-0.378521-0.8089142c-0.079483-0.0738602-0.1135788-0.223587-0.1224747-0.3420753
		c-0.1122208-1.4863853-0.2418022-2.9721909-0.3136826-4.4607086c-0.0560722-1.1616669-0.0355034-2.3269577-0.0528755-3.4905396
		c-0.0241165-1.6185341-0.0424004-3.2372055-0.0809059-4.855381c-0.0316048-1.325264-0.1137238-2.6496773-0.1290207-3.9749489
		c-0.0197067-1.7064095,0.0179977-3.4134674,0.00634-5.1201019c-0.0092621-1.3481789-0.0670433-2.6960793-0.0824852-4.0443306
		c-0.0155869-1.3575764,0.009613-2.7156506-0.0103188-4.0731564c-0.0273247-1.8601284-0.0925751-3.7197552-0.1158447-5.5798855
		c-0.0084801-0.6769753,0.1208305-1.3593578,0.0725822-2.031064c-0.0614204-0.8550177,0.0631142-1.6946001,0.082119-2.5414419
		c0.0192909-0.8607826,0.072937-1.7207909,0.1201248-2.580863c-0.1079559-0.0296087-0.212925-0.0584269-0.3333244-0.091876
		c-0.010746-0.0232677-0.0353088-0.0760012-0.0822754-0.1770506c-0.0070457,0.275754-0.1370544,0.3888369-0.3525391,0.4301119
		c-0.0362206-0.1276007-0.07201-0.2534838-0.1077347-0.3794479c-0.012249,0.0028515-0.0245628,0.005558-0.0367928,0.0084009
		c-0.0276756,0.1164932-0.0553703,0.233058-0.083046,0.3495512c-0.0182228,0.0003595-0.0364418,0.0005751-0.0545845,0.0008545
		c-0.0335197-0.0582829-0.0669632-0.1166372-0.1066818-0.1859465c-0.1704941,0.0550079-0.2517662-0.0270452-0.2880669-0.1857395
		c-0.0269547-0.1176271-0.1176186-0.1737776-0.2189636-0.1105843c-0.1273766,0.0794907-0.2345505,0.1915684-0.354454,0.2929773
		c-0.0328178-0.0791311-0.0633354-0.1527843-0.098774-0.2385359c0.0055428,0.1226101,0.0102386,0.227437,0.0149307,0.3321838
		c-0.0244637,0.0066919-0.0488815,0.0133829-0.0733643,0.0200748c-0.0701561-0.1044683-0.1403923-0.2088642-0.2144127-0.3191681
		c-0.0972099,0.0677443-0.2958298,0.0803442-0.2847137,0.3068552c0.0010529,0.0215597-0.0489655,0.044261-0.0728722,0.0687428
		c-0.011898,0.0121689-0.0250549,0.0239792-0.0379295,0.0357246c-0.0269089-0.0157299-0.0514526-0.0301752-0.0791473-0.046401
		c0.003418-0.0611963,0.0064049-0.1147118,0.01054-0.1882935c-0.0323067,0.039422-0.0530205,0.0646858-0.0773582,0.0943584
		c-0.0256157-0.1658087-0.0500984-0.3242149-0.0745773-0.4826298c-0.0113869,0.0034895-0.0226936,0.006979-0.0340805,0.0103884
		c-0.0687523,0.2613897-0.1375656,0.5226984-0.2025337,0.7695627c-0.0239067-0.2759695-0.0486107-0.5609779-0.0719452-0.8306875
		c-0.0528755,0.3018007-0.10532,0.6063814-0.1611214,0.9103861c-0.005043,0.0277557-0.0316658,0.0516624-0.0678062,0.1074543
		c-0.0044098-0.215476-0.008049-0.3932457-0.0117378-0.5709362c-0.009613-0.0009975-0.0192299-0.001996-0.0288277-0.002986
		c-0.0390625,0.2259359-0.0779953,0.451951-0.1170578,0.6778946c-0.0323868-0.000783-0.0648384-0.0000725-0.0972099-0.0009985
		c-0.0116119-0.0004234-0.0231247-0.0011339-0.0346565-0.0014935c-0.013958-0.0192118-0.0276909-0.0381441-0.0447006-0.0615559
		c-0.004982,0.0263348-0.01017,0.0443325-0.0155869,0.0589933c-0.0267487-0.0008545-0.0534325-0.0024195-0.0801201-0.0033455
		c-0.0232697-0.0277481-0.0470467-0.0548649-0.0694542-0.0279636c-0.0024261,0.0078249-0.001709,0.0168638-0.0037041,0.0249052
		c-0.0718803-0.002635-0.1437454-0.005909-0.2156258-0.0091114c-0.0312386,0.467762-0.1054688,0.929678-0.1314964,1.3970003
		c-0.0887451,1.5950508-0.2079468,3.18853-0.2831001,4.7841473c-0.0336494,0.7155437,0.0135231,1.4345703,0.015522,2.1521091
		c0.0058289,2.161932,0.0064049,4.3239346,0.0118179,6.4858646c0.001133,0.4655495,0.0206337,0.9310913,0.0194817,1.3966408
		c-0.0022659,0.9189281-0.0200577,1.8377876-0.0188446,2.7566357c0.0021248,1.6287098,0.0073318,3.2574158,0.0236206,4.886055
		c0.0119629,1.200943,0.0457535,2.4018135,0.0660362,3.6026955c0.0251999,1.4925003,0.0421295,2.9851418,0.0706673,4.4775009
		c0.0317307,1.6571007,0.0560684,3.3146286,0.1159248,4.9708672c0.0323715,0.8977242,0.1340675,1.7928085,0.1983948,2.6895409
		c0.0068359,0.094429-0.0275307,0.1917114-0.0498085,0.3315468c-0.3166695-0.8325424-0.3200226-1.6462135-0.3457031-2.4603882
		c-0.0642624-2.03619-0.1497993-4.0716629-0.2162666-6.1077728c-0.0550804-1.6871338-0.1102409-3.3746223-0.1342125-5.0623932
		c-0.0093231-0.6571884,0.0888748-1.3153076,0.0991898-1.973629c0.0205078-1.3073349,0.0153809-2.6151657,0.0184479-3.9227905
		c0.0047569-2.0439453,0.0185738-4.0879517,0.006897-6.1317539c-0.0064812-1.1317768-0.0596313-2.2632675-0.0867462-3.3950443
		c-0.0239105-0.9942131-0.0466194-1.9885044-0.0573654-2.982933c-0.0033379-0.3087807,0.0348778-0.6180553,0.0525246-0.927187
		c0.0113869-0.2002468,0.0760651-0.3775139-0.1159248-0.5799732c-0.1045418-0.1102333-0.0255547-0.4293308,0.0214958-0.6430321
		c0.3323174-1.5082235,0.2671432-3.0459185,0.3684731-4.5717239c0.0357246-0.5377741,0.0618362-1.0788298,0.1282387-1.6148224
		c-0.0239868-0.0937281-0.0727272-0.1757736-0.1821823-0.1559229c-0.1378403,0.0249767-0.3051414-0.0163698-0.4208603,0.1147118
		c-0.0155067,0.0175114-0.0757751,0.002635-0.1127777-0.0070419c-0.1583443-0.0414906-0.3157616-0.086606-0.4941597-0.1362724
		c-0.010891-0.0232048-0.0353737-0.0760088-0.0824051-0.1769876c-0.0069809,0.2758255-0.1370735,0.3888378-0.3524742,0.4301119
		c-0.0362206-0.1275997-0.0720253-0.2535553-0.1078148-0.3794394c-0.0121689,0.0027714-0.0244827,0.0055504-0.0367165,0.0083208
		c-0.0276909,0.1165648-0.0554466,0.2331305-0.0831223,0.3496227c-0.0181427,0.0003595-0.0363617,0.0005751-0.0545044,0.0008545
		c-0.0335236-0.0582819-0.0668983-0.1166363-0.1067429-0.186018c-0.1704483,0.0550804-0.2517052-0.0269737-0.2880669-0.1856594
		c-0.0269127-0.1176348-0.1175728-0.1737852-0.2189026-0.1105919c-0.1274567,0.0794907-0.2345505,0.1915035-0.3545341,0.2930489
		c-0.0327377-0.0792751-0.0632744-0.1529284-0.0987091-0.2385359c0.0054779,0.1225376,0.0102501,0.2273655,0.014946,0.3321123
		c-0.0244827,0.006691-0.0488815,0.0133829-0.0733643,0.0200739c-0.0702362-0.1044674-0.1404076-0.2088633-0.2144127-0.3190966
		c-0.0972099,0.0676737-0.2958946,0.0802736-0.2847939,0.3067837c0.0010681,0.0215597-0.0488853,0.0441895-0.0728073,0.0687437
		c-0.0460434,0.047183-0.1053238,0.0887365-0.1331444,0.1453829c-0.0056839,0.0116739-0.0078239,0.0241938-0.0133018,0.0359402
		c-0.0111771-0.0065479-0.0207138-0.0120974-0.0318108-0.0186453c0.003479-0.0611973,0.0064659-0.1147127,0.0105247-0.1882944
		c-0.0323067,0.039422-0.0530052,0.0646868-0.077343,0.0942869c-0.0256157-0.1657362-0.0500336-0.3241425-0.0745811-0.4826288
		c-0.011322,0.003561-0.0227089,0.006979-0.0340958,0.0104599c-0.0653191,0.2483654-0.1303635,0.4953661-0.192421,0.7313461
		c-0.0044899,0-0.0089607-0.0000715-0.0133858,0c-0.0228996-0.2640162-0.0463905-0.5352182-0.0686684-0.7925434
		c-0.0460434,0.2630186-0.0924339,0.5282402-0.1403313,0.7931824c-0.0310287,0-0.0621223,0.0004311-0.0931511,0.0003595
		c-0.0024109-0.1204777-0.0048409-0.2354059-0.0071068-0.3465652c-0.009613-0.0009975-0.0192261-0.001996-0.028904-0.0030584
		c-0.0201416,0.1166372-0.0402794,0.2332659-0.0604172,0.3499031c-0.2224464-0.0014219-0.4450493-0.0097494-0.6677208-0.0168648
		c0.0167999-0.0714493,0.0350876-0.1424685,0.0525246-0.2137737c0.0179977-0.0737257,0.0391426-0.1466684,0.0589142-0.2200346
		c-0.0187798-0.0053349-0.0374336-0.0106764-0.0561333-0.0160103c-0.0407906,0.1453114-0.0824852,0.2941198-0.1256065,0.4479666
		c-0.0281219-0.0009899-0.0562286-0.0012054-0.0843353-0.0022755c-0.0005608-0.0058374,0.0000801-0.0122414-0.0006409-0.0180702
		c-0.014946-0.1224737-0.0527306-0.27882-0.1996078-0.2522068c-0.1378365,0.0249777-0.3051567-0.0163689-0.4207954,0.1146488
		c-0.0155067,0.0175753-0.0758553,0.0026989-0.1128578-0.006979c-0.1582642-0.0414896-0.3156776-0.0866766-0.4941597-0.1362715
		c-0.0108109-0.0232048-0.0353584-0.0760098-0.082325-0.1769876c-0.0069809,0.2739811-0.1359215,0.3868408-0.3487053,0.4288263
		c-0.0014229,0-0.0027809,0-0.0042,0c-0.0361404-0.1271696-0.0717392-0.2526932-0.1073837-0.3781538
		c-0.0122337,0.0027714-0.0245438,0.0055494-0.0367928,0.0083208c-0.0276756,0.1165648-0.0553703,0.2331295-0.083046,0.3496227
		c-0.0182228,0.000288-0.0364265,0.0005751-0.0545845,0.0008545c-0.0334396-0.0583544-0.0668831-0.1166372-0.1066628-0.1860189
		c-0.1705132,0.0550814-0.2517853-0.0269728-0.2880669-0.1857309c-0.0269737-0.1175632-0.1175728-0.1737852-0.2189827-0.1105204
		c-0.1273766,0.0794907-0.2345505,0.1915045-0.354454,0.2929783c-0.0327377-0.0792036-0.0633354-0.1528568-0.098774-0.2385359
		c0.0055428,0.1225376,0.0102539,0.2273645,0.0150108,0.3321838c-0.0244789,0.006691-0.0489616,0.0133104-0.0734444,0.0200024
		c-0.0357094-0.053092-0.0728722-0.1084528-0.1091537-0.1623268c-0.0241318-0.131649-0.0483284-0.2638006-0.0711632-0.3888302
		c-0.0501785,0.0582829-0.1172028,0.1362724-0.18396,0.2137747c-0.0425606-0.0249853-0.097271-0.0570765-0.1495094-0.0877476
		c0.003418-0.0611963,0.0064659-0.1147118,0.0105247-0.1882944c-0.0323067,0.039422-0.0530052,0.0646868-0.077343,0.0943594
		c-0.025631-0.1658087-0.0500984-0.3241434-0.0745811-0.4826298c-0.011322,0.0034895-0.0227089,0.006979-0.0340958,0.0103884
		c-0.0687332,0.2613897-0.1375504,0.5226984-0.2025299,0.7695627C46.1413307,10.554718,46.1166382,10.2697096,46.0932922,10
		c-0.0528793,0.3018007-0.1053238,0.6063805-0.1610413,0.9103861c-0.005127,0.0277557-0.0317345,0.0516624-0.0678902,0.1074533
		c-0.004406-0.2154751-0.0080338-0.3931732-0.011673-0.5709352c-0.0096779-0.0009975-0.0192757-0.001996-0.0288887-0.002986
		c-0.0398483,0.2308464-0.0796928,0.4617004-0.1195526,0.6925545c-0.0390625-0.0002155-0.0780602,0-0.1171417-0.0003586
		c-0.0169258-0.0233402-0.0352135-0.048461-0.0569153-0.0783491c-0.0079041,0.0423441-0.0166588,0.0639753-0.0258408,0.0781412
		c-0.010891-0.0000715-0.0218468,0-0.0328026-0.000144c-0.0058441,0-0.0115929-0.000144-0.0175018-0.0002155
		c-0.0293198-0.0305262-0.0602875-0.084609-0.0890312-0.0500259c-0.0047607,0.0152988-0.0042648,0.0328026-0.0071869,0.0488844
		c-0.1162796-0.0011339-0.2325554-0.0027714-0.348835-0.0042639c0.0504494-0.187871,0.0929298-0.3778744,0.1391945-0.5670309
		c0.0179977-0.0737257,0.0391273-0.1466684,0.0589142-0.2199631c-0.0187149-0.0053339-0.0374336-0.0106754-0.0561523-0.0160818
		c-0.0663223,0.2365475-0.1326447,0.4730873-0.2092857,0.7463579c0.0004311-0.1301556,0.0100441-0.2256556-0.0012779-0.3186655
		c-0.014946-0.1224737-0.0527306-0.27882-0.1996078-0.2522774c-0.1378517,0.0250483-0.3050766-0.0163698-0.4207954,0.1147118
		c-0.0155067,0.0175114-0.0758553,0.002635-0.1128578-0.0070429c-0.1583443-0.0414896-0.3156776-0.0866051-0.4941597-0.1362076
		c-0.0108109-0.0232687-0.0353584-0.0760736-0.082325-0.1770515c-0.007061,0.2758255-0.1370697,0.3888378-0.3525543,0.4301119
		c-0.0362206-0.1275997-0.07201-0.2534838-0.1077347-0.3794394c-0.012249,0.0027714-0.0244827,0.0055494-0.0367928,0.0083208
		c-0.0276756,0.1165648-0.0553703,0.2331295-0.083046,0.3496227c-0.018219,0.0003595-0.0364418,0.0005751-0.0545845,0.0008545
		c-0.0334396-0.0582819-0.0668983-0.1166363-0.1066628-0.186018c-0.1705132,0.0550804-0.2517853-0.0269737-0.2880669-0.1856594
		c-0.0269089-0.1176348-0.1175728-0.1737852-0.2189827-0.1105928c-0.0087509,0.0054779-0.0157928,0.0144453-0.0244026,0.0202103
		c0.0031967,0.4093275,0.0063248,0.8187342,0.0095367,1.2280607c-0.0255547,0.0055504-0.0510902,0.0110273-0.0766411,0.0165138
		c-0.003067-0.3938923-0.006115-0.7877045-0.009182-1.1815252c-0.0848351,0.0676813-0.167942,0.1371346-0.2537651,0.2097902
		c-0.0328026-0.0792027-0.0633354-0.1528568-0.098774-0.2385359c0.0055428,0.1225376,0.0102386,0.2273645,0.0150108,0.3321123
		c-0.0244789,0.006691-0.0489616,0.0133829-0.0734444,0.0200739c-0.0701561-0.1044674-0.1403923-0.2088633-0.2144127-0.3190966
		c-0.0971298,0.0676727-0.2958145,0.0802736-0.2847137,0.3067837c0.000782,0.0157948-0.024704,0.0325232-0.0484695,0.0498104
		c0.0019951-0.0345831,0.0037689-0.0665302,0.0061188-0.1093063c-0.0323105,0.0394297-0.0529404,0.0646868-0.077282,0.094367
		c-0.0256958-0.1658087-0.0500946-0.3242235-0.0746422-0.4826298c-0.011322,0.0034895-0.0226288,0.0069075-0.0340958,0.0103884
		c-0.068737,0.2613811-0.1375504,0.5226908-0.2025337,0.7695541c-0.0239067-0.2759695-0.0485306-0.5609694-0.0719414-0.8306789
		c-0.0527992,0.3018007-0.1053238,0.6063805-0.1610413,0.9103861c-0.005127,0.0277557-0.0316696,0.0516624-0.0678101,0.1074533
		c-0.0044861-0.2154827-0.0081139-0.3931732-0.0117531-0.5708628c-0.0095978-0.0009985-0.0192146-0.0020685-0.0288925-0.003067
		c-0.0337906,0.1961279-0.0676651,0.3921833-0.1015358,0.5883036c-0.2305756,0.0039206-0.4612122,0.0054855-0.6917877,0.0103245
		c0.0405617-0.1594763,0.0786362-0.3195915,0.1177139-0.4794273c0.0180626-0.0736542,0.0392075-0.1466684,0.0589142-0.2199631
		c-0.0187187-0.0053415-0.0374336-0.0106764-0.0560722-0.0160818c-0.0638313,0.2275085-0.1280289,0.4565105-0.2010307,0.7166777
		c-0.0025711,0-0.0051231,0.0000715-0.0076942,0.0000715c0.0016441-0.1138582,0.0084-0.2040243-0.0019188-0.2890644
		c-0.014946-0.1224661-0.0527306-0.2788839-0.1996078-0.2521982c-0.1378517,0.0249767-0.3050766-0.0164413-0.4207954,0.1146402
		c-0.0155067,0.0175829-0.0757751,0.002635-0.1128578-0.0070429c-0.1582642-0.0414896-0.3156815-0.0866051-0.4941597-0.1362076
		c-0.0108109-0.0232687-0.0353584-0.0760736-0.082325-0.1770515c-0.007061,0.275754-0.1370735,0.3888378-0.3524742,0.4301119
		c-0.0363007-0.1276007-0.0720253-0.2534838-0.1078148-0.379447c-0.0122337,0.0028505-0.0244827,0.0055571-0.0367126,0.0084
		c-0.0276947,0.1164932-0.0554504,0.233058-0.0831261,0.3495512c-0.0182228,0.0003595-0.0363617,0.0005674-0.0545044,0.0008545
		c-0.0335236-0.0582829-0.0669632-0.1166372-0.1067429-0.186018c-0.1705132,0.0550804-0.2517052-0.0269022-0.2880669-0.185668
		c-0.0269127-0.1176271-0.1175728-0.1737776-0.2189827-0.1105843c-0.1273766,0.0794907-0.2344704,0.1915684-0.354454,0.2929783
		c-0.0327377-0.0791321-0.0632744-0.1527853-0.098774-0.2385359c0.0055428,0.1226091,0.0103149,0.2274361,0.0150108,0.3321838
		c-0.0244827,0.006691-0.0489616,0.0133829-0.0734444,0.0200663c-0.0701561-0.1044598-0.1403275-0.2088642-0.2144127-0.3191605
		c-0.0455475,0.0318041-0.1129265,0.0525894-0.1710701,0.0878105C36.1787338,10.3455667,36.078968,10.1799736,35.9813271,10
		c-0.177906,0.2635851-0.3405113,0.5019131-0.5000687,0.7423735c-0.0557175,0.0838985-0.095211,0.1798306-0.1576881,0.2577477
		c-0.0654755,0.0815592-0.1394157,0.1654568-0.2277298,0.2178307c-0.168644,0.0998449-0.3541679,0.1710072-0.5253983,0.2670746
		c-0.2428703,0.1362801-0.3215065,0.1121569-0.4208565-0.1631021c-0.0695992-0.1926374-0.1304436-0.3884058-0.1952019-0.5828247
		c-0.0171356,0.0016365-0.0342255,0.003274-0.0514412,0.0049105c0.0039787,0.0835476,0.0071068,0.1671581,0.0121689,0.2505617
		c0.0120277,0.1980515,0.0330124,0.3960238,0.0343056,0.5941401c0.0006371,0.1067429-0.0478935,0.2139893-0.0460434,0.320446
		c0.0050468,0.2957563,0.0328026,0.5910816,0.0371475,0.886838c0.0082397,0.5539989,0.0073318,1.108078,0.0069618,1.662221
		c0,0.0549374-0.0185738,0.1110153-0.0345116,0.1647387c-0.0331535,0.1115189-0.0893021,0.2199707-0.1008339,0.3332615
		c-0.013588,0.1336451,0.0179977,0.2711315,0.0160027,0.406764c-0.0066757,0.4449806-0.0342216,0.8901033-0.0269585,1.3348055
		c0.0097427,0.6024666,0.0451813,1.2045765,0.0678902,1.8069c0.0113869,0.3006592,0.0237617,0.6011829,0.0339355,0.9018421
		h-0.0000648c0.000145,0.0029221,0.0002899,0.0058384,0.0004311,0.0087605
		c0.0103188,0.3050747,0.0229836,0.6100063,0.0344315,0.9150085c-0.0131569,0.0805607-0.0358658,0.1611137-0.0344315,0.2413864
		c0.0050468,0.2956848,0.0328026,0.5910816,0.0371475,0.8867588c0.0082397,0.5540066,0.0073318,1.108078,0.0069618,1.6622295
		c0,0.0549355-0.0185738,0.1110153-0.0345116,0.1647377c-0.002697,0.009182-0.006691,0.0182228-0.0096779,0.0273972
		c-0.0883141-2.3258877-0.1767693-4.651638-0.2652283-6.9775238c-0.0185738,0.0007095-0.0372887,0.001421-0.0558624,0.0021305
		c0.0937271,2.3630409,0.1874542,4.7258663,0.2811661,7.0888271c-0.0233307,0.0635529-0.0446205,0.1272411-0.0512314,0.1924953
		c-0.013588,0.1335735,0.0179977,0.2711296,0.0160027,0.4067001c-0.0066757,0.4449787-0.0342216,0.8901749-0.0269585,1.3348045
		c0.0097427,0.6025314,0.0451813,1.2045689,0.0678902,1.8068924c0.0345116,0.9132366,0.0582733,1.8268967,0.1031799,2.7395668
		c0.08284,1.6832123,0.1798248,3.3656425,0.2663651,5.0486526c0.0251846,0.4908104,0.0204277,0.9834709,0.0546494,1.4735031
		c0.0697403,0.9981956,0.1702232,1.9942703,0.2309914,2.992897c0.0333138,0.5479546,0.0005722,1.099678,0.0170059,1.6491241
		c0.0271187,0.9066162,0.0740852,1.8126678,0.1042709,2.7192841c0.00383,0.1146431,0.000351,0.229496,0.001339,0.3442192
		c-0.013382,0.0061874-0.0187149,0.0186424-0.0328026,0.0241928c-0.1766891,0.0697403-0.3446465,0.1616096-0.5274544,0.2489243
		c0.1998138,0.1505814,0.3805809,0.2870064,0.562973,0.4233475c-0.0002251,0.03302,0.0004959,0.0661087,0.000351,0.0991364
		c-0.0014992,0.3495522-0.01054,0.6990318-0.0116119,1.0485802c-0.001915,0.5683098,0.003067,1.1366882-0.0007019,1.7050705
		c-0.0042,0.6353416-0.0193558,1.2706833-0.0193558,1.9060287c-0.0000801,0.145813,0.0412025,0.2918358,0.0658302,0.4373589
		c0.0679512,0.4008636,0.2885628,0.7669296,0.2706261,1.1879311c-0.0012779,0.0303802,0.0187798,0.0614128,0.0279007,0.0925064
		c0.0284576,0.0969276,0.0557175,0.190506,0.0836182,0.285862c-0.0965691,0.0177193-0.1986198,0.0356522-0.2806091,0.050602
		c0.0581474,0.2524109,0.1216278,0.4685364,0.1548615,0.6892815c0.0341606,0.2270851-0.1036148,0.3999367-0.3264275,0.4878883
		c-0.1766891,0.0697441-0.3446465,0.1616173-0.5274544,0.2488632c0.2397385,0.1806831,0.456501,0.3457108,0.6753387,0.507885
		c0.0763512,0.0566444,0.1648102,0.0986366,0.2351875,0.1613274c0.0737991,0.0657578,0.1492271,0.1395569,0.1941986,0.2254486
		c0.0858994,0.163887,0.1438255,0.3422928,0.2259407,0.5083809c0.1166458,0.2356949,0.0899582,0.3087082-0.1743431,0.3888397
		c-0.1850929,0.056076-0.3726768,0.1039009-0.5591278,0.1553459c0.0007057,0.0162277,0.0014229,0.0324516,0.00214,0.048748
		c0.0789909,0.0003548,0.1579132,0.0014954,0.2368202,0.0008545c0.1873131-0.001564,0.3749619-0.011673,0.5618401-0.0031281
		c0.0027809,0.000145,0.0053978,0.0014191,0.0081787,0.0016365c0.007267-1.2973061,0.0345917-2.594677,0.0256958-3.8918343
		c-0.0087509-1.2780838-0.0638313-2.5558128-0.093586-3.833828c-0.0281067-1.2104874-0.0500183-2.4211807-0.0742264-3.6316643
		c-0.0245476-1.228981-0.0528603-2.4578972-0.0710831-3.6869469c-0.0103188-0.6973305,0.0251846-1.3965034-0.012249-2.0920525
		c-0.0394936-0.7337608-0.1491432-1.463604-0.2119865-2.1965141c-0.0277557-0.3236504-0.015522-0.6507874-0.0216408-0.9763603
		c-0.003418-0.182312-0.0072479-0.3646355-0.0114479-0.5749893c0.3804359-0.0524559,0.4387093-0.3761024,0.5134354-0.7033043
		c0.0392838-0.1720772,0.1330757-0.3316231,0.2353325-0.5759964c0.0654755,0.2820206,0.1225548,0.4972878,0.1638222,0.7154694
		c0.0324478,0.1710815,0.0584183,0.3454323,0.0641174,0.5191383c0.0108109,0.3272095,0.1378365,0.5851707,0.3785858,0.8088417
		c0.0794182,0.0738602,0.1134987,0.223587,0.1224747,0.3420753c0.1122208,1.4863853,0.2418175,2.9721947,0.3136177,4.4607086
		c0.0560722,1.1616669,0.0355797,2.3269577,0.0528755,3.490612c0.0241165,1.6184616,0.0424004,3.237133,0.080986,4.855381
		c0.0315857,1.325264,0.1137047,2.6496048,0.1290054,3.9749489c0.011879,1.0278778,0.004982,2.0559616-0.0014229,3.084053
		c0.3715439,0.0168648,0.7431641,0.033802,1.1146278,0.0533714c0.0518837,0.0027084,0.103756,0.0229912,0.1536446,0.0407104
		c0.1035347,0.0367203,0.2030296,0.095005,0.3092766,0.1114388c0.1253166,0.0193558,0.2565422-0.0037003,0.3842697,0.004837
		c0.4191475,0.0282516,0.8375168,0.0760002,1.2570305,0.091095c0.4478302,0.0160065,0.8962212,0.0157204,1.3444824,0.0194969
		c-0.003418-0.6258087-0.0028419-1.251545-0.0091171-1.8772812c-0.0119476-1.2010155-0.0457573-2.401825-0.0660362-3.6027679
		c-0.0252647-1.4925003-0.0421295-2.9850731-0.0706673-4.4774284c-0.0317345-1.6571732-0.0560722-3.3147011-0.1159286-4.9708786
		c-0.0324516-0.8977127-0.1341324-1.7928696-0.1984596-2.6896019c-0.0067711-0.0943604,0.0275993-0.1917114,0.0498772-0.3315468
		c0.3166847,0.8326035,0.3199577,1.646286,0.3456383,2.4603882c0.0643272,2.03619,0.1498795,4.0717354,0.2163467,6.1078453
		c0.0550003,1.6871338,0.1102219,3.3746185,0.1341286,5.0623207c0.0093269,0.6572609-0.0888062,1.3153076-0.0991249,1.973629
		c-0.0123138,0.7825127-0.0098839,1.5652351-0.0110359,2.3478851c0.0622673,0.0006409,0.1245346,0.0017738,0.1868019,0.0027008
		c0.8625717,0.01231,1.7251434,0.0347977,2.58778,0.0373611c1.0458107,0.0029869,2.0916214-0.000145,3.1374321-0.0019875
		c-0.0281067-2.3313026-0.0562286-4.6626015-0.0842552-6.9939766c0.0278816-0.0002785,0.0557823-0.0005646,0.083744-0.0009155
		c0.0242767,2.3315773,0.0485497,4.6632309,0.0728073,6.9948196c0.5210533-0.000927,1.0421066-0.001358,1.5631599-0.0009995
		c0.4639931,0.000351,0.9281921,0.0290337,1.391819,0.0208473c0.9444656-0.0166473,1.8885155-0.0624809,2.8329964-0.0706673
		c0.5182762-0.0045509,1.0367737,0.0535164,1.5556221,0.0649757c0.8560867,0.0190048,1.7125282,0.0192833,2.5686951,0.0353012
		c0.3585091,0.0066833,0.7167473,0.031662,1.0749092,0.0518723c0.3294106,0.0185738,0.658474,0.0442657,0.9879494,0.0625534
		c0.4843407,0.0268288,0.9688835,0.049099,1.4533043,0.0762901C61.1717339,55.5232239,61.1225624,55.328167,61.0865479,55.138237z
		 M41.9027939,33.4802895c-0.0294647-0.1205559-0.0841141-0.2412415-0.0839043-0.3617287
		c0.0008621-0.4679604,0.0218468-0.9357872,0.0293999-1.4037533c0.0022697-0.1431808,0.0278854-0.3074226-0.0302467-0.4262714
		c-0.2143478-0.4385052,0.0985489-0.7627926,0.1902199-1.1302776c0.008606,1.1011715,0.0171509,2.2024212,0.0257568,3.3036671
		C41.9902458,33.4680481,41.9465523,33.4741669,41.9027939,33.4802895z M41.9994316,27.84902
		c0.0202179-0.4901028,0.0403557-0.9802704,0.0605583-1.4703732c0.0375099-0.0005665,0.0750084-0.0012054,0.112442-0.0018444
		c-0.0188599,0.4917316-0.0377197,0.9835453-0.0565796,1.4752045C42.077076,27.8510818,42.0382195,27.85009,41.9994316,27.84902z
		 M42.2780418,36.0538216c-0.0439796-0.4360123-0.1295166-0.8728867-0.1203499-1.3078308
		c0.0091209-0.4311104,0.1136589-0.8602867,0.1763573-1.2903976c0.0166397,0.0014191,0.0332985,0.0029144,0.0500183,0.0042725
		c0.006691,0.8609238,0.013382,1.7218513,0.0200729,2.5827866C42.3621559,36.0463486,42.3200912,36.0500526,42.2780418,36.0538216z
		 M42.256546,21.5974293c-0.0409927-0.0012856-0.0820541-0.002636-0.1231117-0.0039215
		c0.0849609-1.6768818,0.1698723-3.3537636,0.2548332-5.0306454c0.0153008-0.0016365,0.0305977-0.0032005,0.0458984-0.0048389
		C42.3749657,18.2378197,42.3157463,19.9176254,42.256546,21.5974293z M49.2959137,40.2357826
		c-0.0445557-4.2794571-0.0890961-8.5589046-0.1336517-12.8383617c0.0209351-0.0002155,0.0417786-0.0005035,0.0626984-0.000782
		c0.0515976,4.2793846,0.1031189,8.5587711,0.1547165,12.8381443
		C49.3517761,40.2351456,49.3238144,40.2354317,49.2959137,40.2357826z"/>
</g>
<path fill="#B78B5F" d="M67.2661209,43.7232323l1.1140823-13.781271c0.0351868-0.3865452-0.2878418-0.7089882-0.6737366-0.6672592
	c-1.2357941,0.1336536-6.1577148-0.0057487-6.3757057,1.9081116c-0.6096535,5.3527203-0.894062-1.1916008-1.1292038-1.1984196
	c-2.7439194-0.0796185-3.801342-0.4553852-5.116375-0.0950775c-1.2840042,0.3518028-5.0826111-0.0080738-9.1230354,0.8134308
	c-0.45858,0.0932407-0.8669815,4.1300011-0.8669815,4.1300011c-1.2193718,0.0283546-0.762661-3.6425648-1.2257614-3.629221
	c-3.8090668,0.1097775-9.0548439-2.2940273-12.0752506-0.7766457c-0.0768147,0.0385914-0.4551926,0.7016258-0.4402447,0.7862835
	l1.8921432,12.2620773L67.2661209,43.7232323z"/>
<path fill="#755944" stroke="#755944" stroke-width="0.25" stroke-linecap="round" stroke-linejoin="round" stroke-miterlimit="10" d="
	M32.9509087,43.198967l-1.6030693-9.9528046c-0.0513916-0.1961823-0.5291805-2.1788826,0.2089367-3.1690636
	c0.2543697-0.3408318,0.6282749-0.5304832,1.0814381-0.5482178c2.8538399-0.1113987,5.0576363,0.0252647,7.8766136,1.0493641
	c1.6275978,0.5917282,3.1114349,0.3307552,3.6737518,0.1915054c0.1862297-0.045475,0.3785057,0.0140285,0.5036316,0.156498
	c0.1286392,0.1437302,0.1648903,0.3531208,0.0930405,0.539793c-0.4000168,1.0362473-0.2924728,1.9603882-0.0887756,2.5608063
	c0.0032578-2.311985,0.95261-3.4682293,0.9980927-3.5215282l0.0606842-0.0721703l0.0881386-0.0328102
	c1.5756493-0.5903225,5.1411095-0.8097973,7.6860733-0.9232655c0.2473755-0.0111694,0.4098053-0.0177822,0.45858-0.0231552
	c0.0569305-0.0058784,0.1409492-0.0243797,0.2471046-0.0471287c0.5566483-0.1176414,1.5920944-0.3370457,2.7140694,0.014246
	c1.1266975,0.3518753,3.0059357,0.2215366,3.2166748,0.2058048l0.3456726-0.0263577l0.0491066,0.3635559
	c0.0273399,0.1846466,0.1856842,1.0477276,0.3503342,1.9113216c0.1959343-1.4101582,0.345768-1.8968449,0.5945473-2.0813217
	c0.2661705-0.1965179,1.3068581-0.4035854,5.6668243-0.8276443l0.4948807-0.0488853
	c0.6807022-0.0740852,0.9932022,0.3817558,1.0373306,0.7095547l0.0016785,0.0761051l-0.4356918,5.4035549l-0.5538788,8.1441803
	l-0.7158661-0.0653038l0.5537415-8.1400986l0.4310455-5.343195c-0.0193863-0.0422077-0.0697556-0.088913-0.2401886-0.0706596
	l-0.5032806,0.050354c-4.039032,0.3921604-5.1253281,0.5980282-5.325737,0.7011147
	c-0.1348801,0.2184143-0.3382607,1.8959026-0.4252167,2.612524c-0.1423721,1.1702423-0.1540146,1.2657585-0.4635124,1.3081589
	l-0.2745247,0.0374565L60.637825,34.074604c-0.0101738-0.0248489-0.5671616-2.5614338-0.7258377-3.7124081
	c-0.6867752,0.0349255-2.1591454,0.0632648-3.1773262-0.2556953c-0.9427109-0.2950058-1.8586197-0.100956-2.3508148,0.0034161
	c-0.1382217,0.0292969-0.2478409,0.0515594-0.3219872,0.0589619c-0.0531654,0.0054054-0.2306099,0.0139103-0.500885,0.0257359
	c-1.4102783,0.0629215-5.6479988,0.2523022-7.3681259,0.8432884c-0.2058678,0.2995014-0.954319,1.555397-0.7400513,3.7604218
	c0.0367813,0.3768044-0.1425133,0.525959-0.2526131,0.5813828c-0.0882645,0.0441246-0.3234863,0.119175-0.6041756-0.1352501
	c-0.4470329-0.4061279-1.1631279-1.8627014-0.5980301-3.6990051c-0.780117,0.1444416-2.1970558,0.2648239-3.728611-0.2918911
	c-2.7082863-0.9843674-4.838604-1.1144257-7.6030769-1.0068359c-0.2383499,0.0093746-0.4079056,0.0921459-0.5333328,0.2595844
	c-0.4534683,0.6076889-0.2137756,2.0748291-0.0831871,2.5890007l1.6089134,9.9792519L32.9509087,43.198967z M59.8741875,30.020462
	l-0.0300255,0.0030098L59.8741875,30.020462z"/>
<g>
	<path fill="#E89B36" d="M31.5535011,46.2363281v6.1963654c0,1.9015884,1.5415535,3.4431229,3.4431305,3.4431229h30.0067329
		c1.9015961,0,3.4431305-1.5415344,3.4431305-3.4431229v-6.1963654c0-1.9015884-1.5415344-3.4431343-3.4431305-3.4431343H34.9966316
		C33.0950546,42.7931938,31.5535011,44.3347397,31.5535011,46.2363281z"/>
	<path fill="#334A5E" d="M65.0031128,56.6607742H34.9968872c-2.3313637,0-4.2283421-1.8964691-4.2283421-4.2278328v-6.1963577
		c0-2.3313675,1.8969784-4.2283478,4.2283421-4.2283478h30.0062256c2.3313599,0,4.2283401,1.8969803,4.2283401,4.2283478v6.1963577
		C69.2314529,54.7643051,67.3344727,56.6607742,65.0031128,56.6607742z M34.9968872,43.5781517
		c-1.4656601,0-2.6584282,1.1927681-2.6584282,2.658432v6.1963577c0,1.4656639,1.1927681,2.657917,2.6584282,2.657917h30.0062256
		c1.4656601,0,2.658432-1.1922531,2.658432-2.657917v-6.1963577c0-1.4656639-1.1927719-2.658432-2.658432-2.658432H34.9968872z"/>
</g>
<g>
	<path fill="#FFB24D" d="M57.7625046,55.8758163h-7.8351364h-7.8351364c0,0,6.0180054,3.5137825,4.7097435,9.0831604
		c-1.3034058,5.5488129-10.4637337,24.2183762,3.1253929,24.2560043
		c13.5891266-0.0376282,4.4287987-18.7071915,3.1253929-24.2560043
		C51.7444992,59.3895988,57.7625046,55.8758163,57.7625046,55.8758163z"/>
	<path fill="#334A5E" d="M49.9294777,90c-3.1204109-0.0086899-5.3792076-0.9633102-6.718132-2.8367844
		c-3.1745796-4.4455338-0.2780075-12.9661026,1.6383934-18.6044083c0.5222816-1.5372086,0.9730186-2.8648911,1.1876564-3.7791367
		c1.1621056-4.9473801-4.2855797-8.1940193-4.3407745-8.2262154l-2.5051155-1.4625969H60.647007l-2.4877434,1.4620857
		c-0.055191,0.0327072-5.4998131,3.2982521-4.3417969,8.2267265c0.2146378,0.9142456,0.6653748,2.2419281,1.1876602,3.7786255
		c1.9163971,5.6388168,4.8119507,14.1593857,1.6373711,18.6049194C55.3045959,89.0366898,53.0457993,89.9913101,49.9294777,90z
		 M44.4235306,56.6607742c1.7968178,1.6343079,4.0607262,4.5692101,3.1428986,8.4776459
		c-0.233036,0.9888611-0.695015,2.349762-1.230587,3.925293c-1.8131676,5.3347473-4.5533638,13.3969116-1.8468971,17.1867905
		c1.0425224,1.4595261,2.8219643,2.1724243,5.4405327,2.1795807c2.6144791-0.0071564,4.3928986-0.7200546,5.435421-2.1790771
		c2.707489-3.7903824-0.0327072-11.8525467-1.8458786-17.187294c-0.5355682-1.5760422-0.9985695-2.9364319-1.2305832-3.925293
		c-0.9178276-3.9084358,1.3460808-6.843338,3.1428947-8.4776459H44.4235306z"/>
</g>
<circle fill="#334A5E" cx="49.7959023" cy="81.9565964" r="1.4663973"/>
<g>
</g>
<g>
</g>
<g>
</g>
<g>
</g>
<g>
</g>
</svg>
