<?xml version="1.0" encoding="utf-8"?>
<!-- Generator: Adobe Illustrator 21.0.0, SVG Export Plug-In . SVG Version: 6.00 Build 0)  -->
<svg version="1.1" id="Layer_1" xmlns="http://www.w3.org/2000/svg" xmlns:xlink="http://www.w3.org/1999/xlink" x="0px" y="0px"
	 width="100px" height="100px" viewBox="0 0 100 100" enable-background="new 0 0 100 100" xml:space="preserve">
<g>
	<path fill="#FF7058" d="M76.425827,36.6386642H60.9396286v28.0680084h25.3729172v-12.633358L83.3533707,41.846035
		C82.4613571,38.7619362,79.6364822,36.6386642,76.425827,36.6386642"/>
	<path fill="#84DBFF" d="M82.6081085,51.9436836l-2.6372223-9.1164246
		c-0.4546585-1.5671005-1.9123383-2.6638794-3.5450592-2.6638794H64.464325v11.780304H82.6081085z"/>
	<polygon fill="#CDD6E0" points="82.6113358,51.9389877 64.4581757,51.9389877 64.4581757,40.1586838 	"/>
	<path fill="#F2F2F2" d="M82.6081085,51.9436836l-2.6372223-9.1164246
		c-0.4546585-1.5671005-1.9123383-2.6638794-3.5450592-2.6638794H64.464325L82.6081085,51.9436836z"/>
	<path fill="#FFD15C" d="M17.1870956,22.5476208h39.0654221c2.5872879,0,4.6871109,2.0982113,4.6871109,4.6871109v37.4703293H12.5
		V27.2347317C12.5,24.6459713,14.5982113,22.5476208,17.1870956,22.5476208"/>
	<polygon fill="#F2F2F2" points="44.2473793,22.5555229 44.2473793,34.9403229 42.4349251,33.1280251 40.535183,35.0279198 
		38.6369133,33.1280251 36.7386284,35.0279198 34.8371391,33.1280251 32.9139481,35.0279198 31.0171356,33.1280251 
		29.1830139,34.9622993 29.1830139,22.5555229 	"/>
	<path fill="#334A5E" d="M87.5,64.7034531v5.2964172H12.5062914v-5.2964172h7.8274698
		c1.8279686-3.2809753,5.3433075-5.4995918,9.3742237-5.4995918c4.0152321,0,7.5305557,2.2186165,9.3742065,5.4995918h25.1854324
		c1.8279648-3.2809753,5.3261642-5.4995918,9.3570786-5.4995918c4.0309067,0,7.5305557,2.2186165,9.3742065,5.4995918H87.5z"/>
	<path fill="#40596B" d="M81.109848,69.9670639c0,4.1340256-3.3512878,7.4853134-7.4853134,7.4853134
		s-7.4822311-3.3512878-7.4822311-7.4853134s3.349678-7.4852982,7.4822311-7.4852982
		C77.7601929,62.4817657,81.109848,65.8330383,81.109848,69.9670639"/>
	<path fill="#ACB3BA" d="M76.633667,69.9670639c0,1.6608505-1.3468246,3.0060501-3.0060501,3.0060501
		c-1.6608505,0-3.0091324-1.3451996-3.0091324-3.0060501c0-1.6608353,1.3468246-3.0060349,3.0091324-3.0060349
		C75.2868576,66.9595566,76.633667,68.306366,76.633667,69.9670639"/>
	<path fill="#40596B" d="M37.1869774,69.9670639c0,4.1340256-3.3528862,7.4853134-7.4853001,7.4853134
		c-4.1340256,0-7.4853153-3.3512878-7.4853153-7.4853134s3.3512897-7.4852982,7.4853153-7.4852982
		C33.8340912,62.4817657,37.1869774,65.8330383,37.1869774,69.9670639"/>
	<path fill="#ACB3BA" d="M32.7077293,69.9670639c0,1.6608505-1.3452168,3.0060501-3.006052,3.0060501
		c-1.6608505,0-3.0075073-1.3451996-3.0075073-3.0060501c0-1.6608353,1.3468094-3.0060349,3.0075073-3.0060349
		S32.7077293,68.306366,32.7077293,69.9670639"/>
</g>
<g>
</g>
<g>
</g>
<g>
</g>
<g>
</g>
<g>
</g>
</svg>
