<?xml version="1.0" encoding="utf-8"?>
<!-- Generator: Adobe Illustrator 21.0.0, SVG Export Plug-In . SVG Version: 6.00 Build 0)  -->
<svg version="1.1" id="Layer_1" xmlns="http://www.w3.org/2000/svg" xmlns:xlink="http://www.w3.org/1999/xlink" x="0px" y="0px"
	 width="100px" height="100px" viewBox="0 0 100 100" enable-background="new 0 0 100 100" xml:space="preserve">
<g>
	<g>
		<g>
			<rect x="29.4624882" y="47.0557899" fill="#C49967" width="40.462822" height="26.312191"/>
			<rect x="27.4393444" y="38.1122475" fill="#A8805A" width="45.0148926" height="8.9435453"/>
			<path fill="#334A5E" d="M69.9245453,74.2418747H29.4616566c-0.4829597,0-0.8737679-0.3908081-0.8737679-0.8737717V47.0561447
				c0-0.4829636,0.3908081-0.8737679,0.8737679-0.8737679h40.4628906c0.4829559,0,0.873764,0.3908043,0.873764,0.8737679V73.368103
				C70.7983093,73.8510666,70.4075012,74.2418747,69.9245453,74.2418747z M30.3354225,72.494339h38.7153511V47.9299088H30.3354225
				V72.494339z"/>
			<path fill="#334A5E" d="M71.2522507,47.9299088h-42.611454c-1.1451149,0-2.0751972-0.9309349-2.0751972-2.0760536v-6.5396004
				c0-1.1451035,0.9300823-2.0760384,2.0751972-2.0760384h42.611454c1.1451111,0,2.0751953,0.9309349,2.0751953,2.0760384v6.5396004
				C73.327446,46.9989738,72.3973618,47.9299088,71.2522507,47.9299088z M28.6407967,38.9857483
				c-0.1808968,0-0.3276653,0.1476212-0.3276653,0.3285065v6.5396004c0,0.1809006,0.1467686,0.3285217,0.3276653,0.3285217
				h42.611454c0.1809082,0,0.3276672-0.1476212,0.3276672-0.3285217v-6.5396004c0-0.1808853-0.146759-0.3285065-0.3276672-0.3285065
				H28.6407967z"/>
		</g>
		<rect x="46.3444595" y="47.0557899" fill="#334A5E" width="6.6988769" height="13.1560869"/>
	</g>
	<g>
		<g>
			<path fill="#F7DDC4" d="M29.9111671,84.4356842v-5.3895187c0,0-12.0622272-13.8587265-12.8321571-17.9650116
				c-0.5328407-2.8418236,0.0445385-13.9807167,0.0149307-18.7940331c-0.0076332-1.2413864,0.9967308-2.2507057,2.238142-2.2507057
				h0.0000038c1.2361107,0,2.2381763,1.0020638,2.2381763,2.2381783v10.1842422c0,2.5771484,0.8443756,6.3200111,2.566431,8.2373466
				l8.5732861,8.3506088c0.7345924,0.7155075,1.8992233,0.7355499,2.6580086,0.0457535h0.0000038
				c0.8070679-0.7337036,0.8506584-1.9883728,0.0964661-2.7763214l-5.5604362-5.8092079
				c-1.0929966-1.1419106-1.058218-2.9523582,0.0776691-4.0516014l0.0514622-0.0498047
				c1.117178-1.081131,2.8584938-1.116436,4.0023766-0.0848999c3.4099426,3.0749969,10.0964737,9.1748657,11.6591911,11.6898041
				c1.6744347,2.6947479,1.0265694,16.4251709,1.0265694,16.4251709H29.9111671z"/>
			<path fill="#334A5E" d="M47.5547638,85.3098526H29.0367222v-5.9380188
				c-1.9659748-2.2714539-12.0603638-14.09375-12.8163757-18.1297951
				c-0.3737402-1.9890022-0.2389231-7.3980026-0.1075134-12.6286545c0.0597286-2.4463692,0.1177502-4.7306175,0.1075134-6.3211555
				c-0.0051231-0.8336487,0.3157139-1.6186752,0.9027786-2.2108688c0.588768-0.5921783,1.3737926-0.9189911,2.2083054-0.9189911
				c1.716814,0,3.112793,1.3959808,3.112793,3.1119423v10.1848412c0,2.4455261,0.8208637,5.9585075,2.3431263,7.6531334
				l8.5311661,8.3093147c0.4061661,0.3916626,1.0461311,0.4027481,1.462532,0.0238876
				c0.2133255-0.1945572,0.3379021-0.4616241,0.3464394-0.7509003c0.0102386-0.2892532-0.0938644-0.5640182-0.2952385-0.7739258
				l-5.5600224-5.8091698c-1.4198666-1.4855728-1.3737926-3.8560066,0.102396-5.2844048
				c1.4881344-1.4403648,3.7681198-1.4864349,5.2460098-0.1561661c4.3312874,3.9063568,10.2684631,9.3878708,11.8163185,11.8777542
				c1.7663078,2.8440094,1.2253265,15.4957123,1.1570663,16.9283752L47.5547638,85.3098526z M30.7842541,83.5623169h15.0997753
				c0.2047806-5.2724533,0.1262856-13.3889236-0.9317932-15.0912323c-1.0597839-1.70401-4.9285889-5.5736732-11.5023117-11.5023155
				c-0.8106232-0.7286987-2.0188808-0.6996803-2.8090229,0.0648537c-0.8396358,0.8114853-0.8635254,2.0769005-0.1058102,2.869606
				l5.5600204,5.8091736c0.5290375,0.5529404,0.8055038,1.278244,0.7799072,2.042778
				c-0.0273094,0.7645493-0.3532639,1.4693604-0.9198456,1.9838943c-1.0973282,0.9966354-2.7902489,0.9693222-3.8551521-0.0656967
				l-8.5721226-8.3519859c-1.9574413-2.1767273-2.8312073-6.1103897-2.8312073-8.8622398V42.2743111
				c0-0.7525902-0.6126633-1.3644104-1.3652611-1.3644104c-0.3669128,0-0.7099361,0.1433601-0.9676266,0.4027672
				c-0.2576942,0.259388-0.3976345,0.6032753-0.3959255,0.9684792c0.0102406,1.6050186-0.0477848,3.9089127-0.1092224,6.3757553
				c-0.1160469,4.6581001-0.2593994,10.4553299,0.0785007,12.2625885c0.5955963,3.177639,9.321312,13.7481728,12.6320705,17.5529823
				l0.2150269,0.2465973V83.5623169z"/>
		</g>
		<g>
			<path fill="#F7DDC4" d="M69.9824142,84.4356842v-5.3895187c0,0,12.0622253-13.8587265,12.8321533-17.9650116
				c0.5328445-2.8418236-0.0445328-13.9807167-0.0149307-18.7940331c0.007637-1.2413864-0.996727-2.2507057-2.2381363-2.2507057
				h-0.0000153c-1.2361069,0-2.2381744,1.0020638-2.2381744,2.2381783v10.1842422
				c0,2.5771484-0.844368,6.3200111-2.5664291,8.2373466l-8.5732803,8.3506088
				c-0.7345963,0.7155075-1.8992233,0.7355499-2.65802,0.0457535l0,0c-0.8070602-0.7337036-0.8506546-1.9883728-0.0964584-2.7763214
				l5.5604401-5.8092079c1.0929947-1.1419106,1.0582199-2.9523582-0.0776672-4.0516014l-0.0514679-0.0498047
				c-1.1171799-1.081131-2.8584976-1.116436-4.0023804-0.0848999c-3.4099464,3.0749969-10.0964699,9.1748657-11.6591911,11.6898041
				c-1.6744347,2.6947479-1.0265656,16.4251709-1.0265656,16.4251709H69.9824142z"/>
			<path fill="#334A5E" d="M70.8563309,85.3098526H52.3399963l-0.0392532-0.8328018
				c-0.0682602-1.432663-0.6109505-14.0843658,1.1553535-16.9275131c1.5478592-2.4907455,7.4850388-7.9722595,11.8163261-11.8777542
				c1.47789-1.334549,3.7595825-1.2859039,5.194809,0.1057968c1.5290909,1.4804611,1.5734634,3.8500328,0.153595,5.3339119
				l-5.5600204,5.8091698c-0.2013779,0.2099075-0.305481,0.4846725-0.2952347,0.7739258
				c0.008522,0.2892761,0.13311,0.5563431,0.3464279,0.7509003c0.4146957,0.3788605,1.0580826,0.3694687,1.4625397-0.0247345
				l8.5738297-8.3511238c1.479599-1.6511269,2.3004608-5.1641083,2.3004608-7.6104774V42.2743111
				c0-1.7159615,1.3959732-3.1119423,3.112793-3.1119423c0.8345108,0,1.6195374,0.3268127,2.2083054,0.9189911
				c0.5870667,0.5921936,0.9078979,1.3772202,0.9027786,2.211731c-0.0102463,1.5896759,0.0477829,3.8739243,0.1075134,6.3202934
				c0.1314087,5.2306519,0.2662277,10.6396523-0.1075134,12.6286545
				c-0.756012,4.0360451-10.8504028,15.8583412-12.8163757,18.1297951V85.3098526z M54.0107307,83.5623169h15.0980721v-4.8432465
				l0.2150269-0.2465973c3.3107529-3.8048096,12.0364685-14.3761902,12.6320648-17.5529823
				c0.3378983-1.8072586,0.1945496-7.6044884,0.0784988-12.2625885c-0.0614395-2.4668427-0.1194611-4.7707367-0.1092148-6.3749084
				c0.0017014-0.3660507-0.1382446-0.709938-0.3959351-0.969326c-0.2576904-0.259407-0.600708-0.4027672-0.9676208-0.4027672
				c-0.7526016,0-1.3652573,0.6118202-1.3652573,1.3644104v10.1848412c0,2.7527122-0.8720703,6.6872063-2.7885437,8.8204308
				l-8.6147919,8.393795c-1.0649033,1.0333328-2.7595367,1.0614853-3.8551559,0.0656967
				c-0.5665779-0.514534-0.8925362-1.2193451-0.919838-1.9838943c-0.0255966-0.764534,0.2508659-1.4898376,0.7798996-2.042778
				l5.5600204-5.8091736c0.7577209-0.7918434,0.7338257-2.0572739-0.0529022-2.8209648
				c-0.8345108-0.8038025-2.0700684-0.8310928-2.8619232-0.1126328
				c-6.5737267,5.9277802-10.4425316,9.7974434-11.5023155,11.5023155
				C53.8827362,70.1733932,53.8059502,78.2898636,54.0107307,83.5623169z"/>
		</g>
	</g>
	<g>
		<g>
			<g>
				
					<ellipse transform="matrix(0.9980606 -0.0622499 0.0622499 0.9980606 -1.2475535 3.2895498)" fill="#95D600" cx="52.169239" cy="21.6663933" rx="12.356122" ry="12.356122"/>
			</g>
			<path opacity="0.1" enable-background="new    " d="M44.0311737,21.6663094
				c0-6.1147242,4.4425735-11.1891747,10.2756996-12.1786385c-0.6766396-0.114852-1.3705788-0.1778011-2.0800362-0.1778011
				c-6.8241959,0-12.3559189,5.5322552-12.3559189,12.3564396c0,6.824379,5.531723,12.3566322,12.3559189,12.3566322
				c0.7094574,0,1.4033966-0.0629463,2.0800362-0.1778183C48.4737473,32.8556786,44.0311737,27.7812271,44.0311737,21.6663094z"/>
		</g>
		<path fill="#00752C" d="M52.5851593,26.8002739c-0.6787071,0.1553211-1.3760643,0.0373325-1.9639244-0.3319759
			l-4.9545784-3.1108685c-0.7215996-0.4527836-0.9391975-1.4049149-0.4861259-2.1261787
			c0.45327-0.7213001,1.4051971-0.9388485,2.1261711-0.4861183l4.547081,2.8549843l4.69207-7.4728985
			c0.4531708-0.7216864,1.4051056-0.9392338,2.1259766-0.4860811c0.7215996,0.4528017,0.9391975,1.404933,0.4860802,2.1259851
			l-4.9482079,7.8810558C53.8407707,26.2359505,53.26371,26.6451988,52.5851593,26.8002739z"/>
	</g>
</g>
<g>
</g>
<g>
</g>
<g>
</g>
<g>
</g>
<g>
</g>
</svg>
