<?xml version="1.0" encoding="utf-8"?>
<!-- Generator: Adobe Illustrator 19.2.0, SVG Export Plug-In . SVG Version: 6.00 Build 0)  -->
<svg version="1.1" id="Layer_1" xmlns="http://www.w3.org/2000/svg" xmlns:xlink="http://www.w3.org/1999/xlink" x="0px" y="0px"
	 width="32px" height="21px" viewBox="0 0 32 21" style="enable-background:new 0 0 32 21;" xml:space="preserve">
<style type="text/css">
	.st0{fill:url(#SVGID_1_);}
	.st1{opacity:0.5;}
	.st2{fill:#35689B;}
	.st3{opacity:0.5;fill:#FFFFFF;enable-background:new    ;}
	.st4{fill:#3179BC;}
	.st5{fill:#FFFFFF;}
</style>
<linearGradient id="SVGID_1_" gradientUnits="userSpaceOnUse" x1="-67.0375" y1="364.5121" x2="-67.0375" y2="344.2088" gradientTransform="matrix(1 0 0 -1 83.1628 364.4676)">
	<stop  offset="0" style="stop-color:#3179BC"/>
	<stop  offset="0.8772" style="stop-color:#1FA5DE"/>
</linearGradient>
<path class="st0" d="M31.3,18.1c0,1-0.9,1.9-1.9,1.9H2.8c-1,0-1.9-0.9-1.9-1.9V2.9c0-1,0.9-1.9,1.9-1.9h26.6c1,0,1.9,0.9,1.9,1.9
	L31.3,18.1L31.3,18.1z"/>
<g class="st1">
	<path class="st2" d="M29.4,1.1c1,0,1.8,0.8,1.8,1.8v15.2c0,1-0.8,1.8-1.8,1.8H2.8c-1,0-1.8-0.8-1.8-1.8V2.9c0-1,0.8-1.8,1.8-1.8
		H29.4 M29.4,1H2.8c-1,0-1.9,0.9-1.9,1.9v15.2c0,1,0.9,1.9,1.9,1.9h26.6c1,0,1.9-0.9,1.9-1.9V2.9C31.3,1.9,30.5,1,29.4,1
		C29.4,1,29.4,1,29.4,1z"/>
</g>
<path class="st3" d="M2.9,1.1h26.5c1,0,1.9,0.9,1.9,1.9V3c0-1-0.9-1.9-1.9-1.9L2.9,1.1C1.8,1.1,1,1.9,1,3V3C1,2,1.8,1.1,2.9,1.1z"/>
<path class="st3" d="M29.4,19.9H2.9C1.8,19.9,1,19,1,18V18c0,1,0.9,1.9,1.9,1.9L29.4,19.9c1,0.1,1.9-0.8,1.9-1.8V18
	C31.3,19,30.4,19.9,29.4,19.9z"/>
<path class="st4" d="M6.5,8.6L6.1,7.5L5.7,8.6 M16.2,8.1c-0.1,0-0.2,0.1-0.3,0.1h-0.8V7.6h0.8c0.1,0,0.2,0,0.3,0
	c0.1,0,0.1,0.1,0.1,0.2C16.4,8,16.3,8.1,16.2,8.1 M21.8,8.6l-0.4-1.1l-0.4,1.1H21.8z M11.4,9.7h-0.7l0-2.1L9.8,9.7H9.3L8.3,7.6v2.1
	H7L6.8,9.1H5.4L5.2,9.7H4.5L5.6,7h1l1.1,2.6V7h1l0.8,1.8L10.3,7h1.1L11.4,9.7L11.4,9.7L11.4,9.7z M14,9.7h-2.1V7H14v0.6h-1.5v0.5H14
	v0.6h-1.5v0.5H14L14,9.7L14,9.7z M17.1,7.8c0,0.3-0.2,0.6-0.5,0.7c0.1,0,0.2,0.1,0.3,0.2C17,8.9,17.1,9,17,9.2v0.5h-0.6l0-0.3
	c0-0.2,0-0.4-0.1-0.5c-0.1-0.1-0.3-0.1-0.5-0.1h-0.7v1h-0.6V7H16c0.3,0,0.5,0,0.8,0.1C16.9,7.3,17.1,7.5,17.1,7.8 M18.1,9.7h-0.7V7
	h0.7C18.1,7,18.1,9.7,18.1,9.7z M25.7,9.7h-0.9l-1.2-2v2h-1.3L22,9.1h-1.3l-0.2,0.6h-0.8c-0.3,0-0.7-0.1-0.9-0.3
	c-0.3-0.3-0.4-0.7-0.3-1c0-0.4,0.1-0.8,0.3-1.1C19,7.1,19.4,7,19.7,7h0.6v0.6h-0.6c-0.2,0-0.4,0-0.5,0.2c-0.1,0.2-0.2,0.4-0.2,0.6
	c0,0.2,0,0.5,0.2,0.6c0.1,0.1,0.3,0.2,0.4,0.1H20L20.9,7h1l1.1,2.6V7h1L25,8.9V7h0.7L25.7,9.7L25.7,9.7L25.7,9.7z M4.5,10.3h1.1
	l0.2-0.6h0.6l0.2,0.6h2.2V9.8L9,10.3h1.1l0.2-0.5v0.5h5.4l0-1h0.1c0.1,0,0.1,0,0.1,0.1v0.9h2.8V10c0.3,0.2,0.7,0.2,1,0.2h1.2
	l0.2-0.6h0.6l0.2,0.6h2.2V9.7l0.3,0.6h1.8V6.5h-1.8v0.4l-0.2-0.4h-1.8v0.4l-0.2-0.4h-2.5c-0.4,0-0.7,0.1-1.1,0.2V6.5h-1.7v0.2
	c-0.2-0.2-0.5-0.2-0.7-0.2H10l-0.4,1l-0.4-1h-2v0.4L6.9,6.5H5.3L4.5,8.3l-0.9,2L4.5,10.3L4.5,10.3z"/>
<path class="st5" d="M6.5,8.6L6.1,7.5L5.7,8.6 M16.2,8.2c-0.1,0-0.2,0.1-0.3,0.1h-0.8V7.6h0.8c0.1,0,0.2,0,0.3,0
	c0.1,0,0.1,0.1,0.1,0.2C16.4,8,16.3,8.1,16.2,8.2 M21.8,8.6l-0.4-1.1l-0.4,1.1L21.8,8.6L21.8,8.6z M11.4,9.8h-0.7l0-2.1L9.8,9.8H9.3
	L8.3,7.7v2.1H7L6.8,9.2H5.4L5.2,9.8H4.5l1.1-2.7h1l1.1,2.6V7.1h1l0.8,1.8l0.8-1.8h1.1L11.4,9.8L11.4,9.8L11.4,9.8z M14,9.8h-2.1V7.1
	H14v0.6h-1.5v0.5H14v0.6h-1.5v0.5H14L14,9.8L14,9.8z M17.1,7.8c0,0.3-0.2,0.6-0.5,0.7c0.1,0,0.2,0.1,0.3,0.2C17,8.9,17.1,9.1,17,9.3
	v0.5h-0.6l0-0.3c0-0.2,0-0.4-0.1-0.5c-0.1-0.1-0.3-0.1-0.5-0.1h-0.7v1h-0.6V7.1H16c0.3,0,0.5,0,0.8,0.1C16.9,7.3,17.1,7.6,17.1,7.8
	 M18.1,9.8h-0.7V7.1h0.7V9.8z M25.7,9.8h-0.9l-1.2-2v2h-1.3L22,9.2h-1.3l-0.2,0.6h-0.8c-0.3,0-0.7-0.1-0.9-0.3
	c-0.3-0.3-0.4-0.7-0.3-1c0-0.4,0.1-0.8,0.3-1.1c0.3-0.2,0.6-0.4,1-0.3h0.6v0.6h-0.6c-0.2,0-0.4,0-0.5,0.2C19.1,8,19,8.2,19.1,8.4
	c0,0.2,0,0.5,0.2,0.6c0.1,0.1,0.3,0.2,0.4,0.1H20l0.9-2.1h1l1.1,2.6V7.1h1L25,9V7.1h0.7L25.7,9.8L25.7,9.8L25.7,9.8z M4.5,10.3h1.1
	l0.2-0.6h0.6l0.2,0.6h2.2V9.9L9,10.3h1.1l0.2-0.5v0.5h5.4l0-1h0.1c0.1,0,0.1,0,0.1,0.1v0.9h2.8v-0.2c0.3,0.2,0.7,0.2,1,0.2h1.2
	l0.2-0.6h0.6l0.2,0.6h2.2V9.8l0.3,0.6h1.8V6.5h-1.8V7l-0.2-0.4h-1.8V7l-0.2-0.4h-2.5c-0.4,0-0.7,0.1-1.1,0.2V6.5h-1.7v0.2
	c-0.2-0.2-0.5-0.2-0.7-0.2H10l-0.4,1l-0.4-1h-2V7L6.9,6.5H5.3L4.5,8.3l-0.9,2H4.5L4.5,10.3z"/>
<path class="st4" d="M27.7,12.8v-1.7h-1.6c-0.3,0-0.6,0.1-0.8,0.2v-0.2h-1.8c-0.3,0-0.5,0.1-0.8,0.2v-0.2h-3.1v0.2
	c-0.3-0.2-0.6-0.2-0.9-0.2h-2.1v0.2c-0.3-0.2-0.6-0.2-0.9-0.2h-2.3l-0.5,0.6l-0.5-0.6H9v3.8h3.4l0.5-0.6l0.5,0.6l2.1,0V14h0.2
	c0.3,0,0.6,0,0.9-0.1v1h1.7v-1h0.1c0.1,0,0.1,0,0.1,0.1v0.9h5.2c0.3,0,0.6-0.1,0.9-0.2v0.2h1.7c0.3,0,0.6,0,0.9-0.2v0
	C27.9,14.3,28.1,13.5,27.7,12.8z M15.8,13.5H15v0.9h-1.2l-0.8-0.9l-0.8,0.9H9.5v-2.7h2.6l0.8,0.9l0.8-0.9h2.1c0.5-0.1,1,0.2,1.1,0.7
	c0,0.1,0,0.1,0,0.2C16.9,13.3,16.3,13.5,15.8,13.5z M19.6,13.3c0.1,0.1,0.1,0.3,0.1,0.5v0.5h-0.6V14c0-0.2,0-0.4-0.1-0.5
	c-0.1-0.1-0.3-0.1-0.5-0.1h-0.7v1h-0.6v-2.7h1.5c0.3,0,0.5,0,0.8,0.1c0.2,0.1,0.3,0.4,0.3,0.6c0,0.3-0.2,0.6-0.5,0.7
	C19.4,13.1,19.5,13.2,19.6,13.3z M22.3,12.2h-1.5v0.5h1.5v0.6h-1.5v0.5l1.5,0v0.6h-2.1v-2.7h2.1C22.3,11.6,22.3,12.2,22.3,12.2z
	 M23.9,14.4h-1.3v-0.6h1.2c0.1,0,0.2,0,0.3-0.1c0,0,0.1-0.1,0.1-0.2c0-0.1,0-0.1-0.1-0.2c-0.1,0-0.1-0.1-0.2-0.1
	c-0.6,0-1.4,0-1.4-0.8c0-0.4,0.3-0.8,0.8-0.8c0,0,0.1,0,0.1,0h1.3v0.6h-1.2c-0.1,0-0.2,0-0.3,0c-0.1,0.1-0.1,0.2-0.1,0.3
	c0,0,0.1,0.1,0.1,0.1c0.1,0,0.2,0,0.3,0l0.3,0c0.3,0,0.5,0.1,0.7,0.2c0.1,0.2,0.2,0.4,0.2,0.6c0,0.5-0.3,0.9-0.8,0.9
	C24,14.4,24,14.4,23.9,14.4L23.9,14.4z M27.2,14.1c-0.2,0.2-0.5,0.3-0.8,0.3h-1.2v-0.6h1.2c0.1,0,0.2,0,0.3-0.1c0,0,0.1-0.1,0.1-0.2
	c0-0.1,0-0.1-0.1-0.2c-0.1,0-0.1-0.1-0.2-0.1c-0.6,0-1.4,0-1.4-0.8c0-0.4,0.3-0.8,0.8-0.8c0,0,0.1,0,0.1,0h1.3v0.6h-1.1
	c-0.1,0-0.2,0-0.3,0c-0.1,0-0.1,0.1-0.1,0.2c0,0.1,0.1,0.2,0.1,0.2c0.1,0,0.2,0,0.2,0l0.3,0c0.3,0,0.5,0.1,0.7,0.2c0,0,0,0,0.1,0.1
	l0,0C27.5,13.3,27.5,13.8,27.2,14.1L27.2,14.1z M11.8,12.2l0.7,0.8l-0.7,0.8h-1.6v-0.5h1.4v-0.6h-1.4v-0.5L11.8,12.2L11.8,12.2
	L11.8,12.2z M13.3,13l1-1.1v2.2L13.3,13z M16.2,12.5c0,0.2-0.1,0.4-0.3,0.4c0,0,0,0-0.1,0H15v-0.7h0.8C16,12.2,16.1,12.3,16.2,12.5
	C16.2,12.5,16.2,12.5,16.2,12.5z M19.1,12.5c0,0.1,0,0.2-0.1,0.3c-0.1,0-0.2,0.1-0.3,0.1h-0.8v-0.6h0.8c0.1,0,0.2,0,0.3,0
	C19,12.3,19.1,12.4,19.1,12.5L19.1,12.5z"/>
<path class="st5" d="M27.7,12.9v-1.7h-1.6c-0.3,0-0.6,0.1-0.8,0.2v-0.2h-1.8c-0.3,0-0.5,0.1-0.8,0.2v-0.2h-3.1v0.2
	c-0.3-0.2-0.6-0.2-0.9-0.2h-2.1v0.2c-0.3-0.2-0.6-0.2-0.9-0.2h-2.3l-0.5,0.6l-0.5-0.6H9V15h3.4l0.5-0.6l0.5,0.6l2.1,0v-0.9h0.2
	c0.3,0,0.6,0,0.9-0.1v1h1.7v-1h0.1c0.1,0,0.1,0,0.1,0.1V15h5.2c0.3,0,0.6-0.1,0.9-0.2V15h1.7c0.3,0,0.6,0,0.9-0.2v0
	C27.9,14.4,28.1,13.5,27.7,12.9z M15.8,13.5H15v0.9h-1.2l-0.8-0.9l-0.8,0.9H9.5v-2.7h2.6l0.8,0.9l0.8-0.9h2.1c0.5-0.1,1,0.2,1.1,0.7
	c0,0.1,0,0.1,0,0.2C16.9,13.4,16.3,13.5,15.8,13.5z M19.6,13.4c0.1,0.1,0.1,0.3,0.1,0.5v0.5h-0.6v-0.3c0-0.2,0-0.4-0.1-0.5
	c-0.1-0.1-0.3-0.1-0.5-0.1h-0.7v1h-0.6v-2.7h1.5c0.3,0,0.5,0,0.8,0.1c0.2,0.1,0.3,0.4,0.3,0.6c0,0.3-0.2,0.6-0.5,0.7
	C19.4,13.2,19.5,13.3,19.6,13.4z M22.3,12.3h-1.5v0.5h1.5v0.6h-1.5v0.5l1.5,0v0.6h-2.1v-2.7h2.1C22.3,11.7,22.3,12.3,22.3,12.3z
	 M23.9,14.4h-1.3v-0.6h1.2c0.1,0,0.2,0,0.3-0.1c0,0,0.1-0.1,0.1-0.2c0-0.1,0-0.1-0.1-0.2c-0.1,0-0.1-0.1-0.2-0.1
	c-0.6,0-1.4,0-1.4-0.8c0-0.4,0.3-0.8,0.8-0.8c0,0,0.1,0,0.1,0h1.3v0.6h-1.2c-0.1,0-0.2,0-0.3,0c-0.1,0.1-0.1,0.2-0.1,0.3
	c0,0,0.1,0.1,0.1,0.1c0.1,0,0.2,0,0.3,0l0.3,0c0.3,0,0.5,0.1,0.7,0.2c0.1,0.2,0.2,0.4,0.2,0.6c0,0.5-0.3,0.9-0.8,0.9
	C24,14.4,24,14.4,23.9,14.4L23.9,14.4z M27.2,14.2c-0.2,0.2-0.5,0.3-0.8,0.3h-1.2v-0.6h1.2c0.1,0,0.2,0,0.3-0.1c0,0,0.1-0.1,0.1-0.2
	c0-0.1,0-0.1-0.1-0.2c-0.1,0-0.1-0.1-0.2-0.1c-0.6,0-1.4,0-1.4-0.8c0-0.4,0.3-0.8,0.8-0.8c0,0,0.1,0,0.1,0h1.3v0.6h-1.1
	c-0.1,0-0.2,0-0.3,0c-0.1,0-0.1,0.1-0.1,0.2c0,0.1,0.1,0.2,0.1,0.2c0.1,0,0.2,0,0.2,0l0.3,0c0.3,0,0.5,0.1,0.7,0.2c0,0,0,0,0.1,0.1
	l0,0C27.5,13.4,27.5,13.8,27.2,14.2L27.2,14.2z M11.8,12.3l0.7,0.8l-0.7,0.8h-1.6v-0.5h1.4v-0.6h-1.4v-0.5L11.8,12.3L11.8,12.3
	L11.8,12.3z M13.3,13.1l1-1.1v2.2L13.3,13.1z M16.2,12.6c0,0.2-0.1,0.4-0.3,0.4c0,0,0,0-0.1,0H15v-0.7h0.8
	C16,12.2,16.1,12.4,16.2,12.6C16.2,12.6,16.2,12.6,16.2,12.6L16.2,12.6z M19.1,12.6c0,0.1,0,0.2-0.1,0.3c-0.1,0-0.2,0.1-0.3,0.1
	h-0.8v-0.6h0.8c0.1,0,0.2,0,0.3,0C19,12.4,19.1,12.5,19.1,12.6L19.1,12.6z"/>
<g>
</g>
<g>
</g>
<g>
</g>
<g>
</g>
<g>
</g>
<g>
</g>
</svg>
