<?xml version="1.0" encoding="utf-8"?>
<!-- Generator: Adobe Illustrator 21.0.0, SVG Export Plug-In . SVG Version: 6.00 Build 0)  -->
<svg version="1.1" id="Layer_1" xmlns="http://www.w3.org/2000/svg" xmlns:xlink="http://www.w3.org/1999/xlink" x="0px" y="0px"
	 width="238px" height="58px" viewBox="0 0 238 58" enable-background="new 0 0 238 58" xml:space="preserve">
<g>
	<path fill="#FFFFFF" d="M14.24019,9.37878c-2.52658,0-4.77898,0.97723-6.46257,2.77874l-0.04408-0.39043
		c-0.12226-1.28051-1.21102-2.2457-2.53226-2.2457c-1.39771,0-2.53462,1.13687-2.53462,2.53458v27.97289
		c0,1.45147,1.22606,2.67719,2.67689,2.67719c1.45147,0,2.67754-1.22572,2.67754-2.67719v-7.49458
		c1.61214,1.5684,3.82043,2.41738,6.36171,2.41738c6.02469,0,9.48008-4.58291,9.48008-12.57226
		C23.86289,14.11733,20.3554,9.37878,14.24019,9.37878z M13.0983,30.07418c-1.96748,0-5.26759-1.00729-5.26759-7.75392
		c0-7.0163,3.35989-8.06401,5.36277-8.06401c1.91372,0,5.12498,1.01297,5.12498,7.79817
		C18.31845,29.03283,15.04775,30.07418,13.0983,30.07418z"/>
	<path fill="#FFFFFF" d="M36.83913,9.53606c-0.37206,0-0.78653,0.06347-1.27049,0.19573
		c-1.34994,0.37976-2.53058,1.20202-3.43034,2.36895l-0.02938-0.28622c-0.12223-1.28584-1.23441-2.29313-2.53191-2.29313
		c-1.39771,0-2.53493,1.13687-2.53493,2.53458v20.12297c0,1.45216,1.22637,2.6772,2.67754,2.6772
		c1.45113,0,2.6772-1.22504,2.6772-2.6772V20.6193c0-2.52658,0.40311-5.88613,3.88821-5.88613h0.41748
		c1.47121,0.04877,2.68756-1.14754,2.68756-2.62942c0-0.64326-0.22675-1.24244-0.65592-1.73304
		C38.24953,9.81695,37.61228,9.53606,36.83913,9.53606z"/>
	<path fill="#FFFFFF" d="M44.13364,1.5766c-2.0931,0-3.34317,1.14289-3.34317,3.05794c0,1.91574,1.28116,3.10538,3.34317,3.10538
		c2.06399,0,3.29607-1.16091,3.29607-3.10538C47.42971,2.71949,46.19763,1.5766,44.13364,1.5766z"/>
	<path fill="#FFFFFF" d="M44.0862,9.52139c-1.45117,0-2.6772,1.22603-2.6772,2.67754v19.98001
		c0,1.45216,1.22603,2.6772,2.6772,2.6772c1.45147,0,2.6772-1.22504,2.6772-2.6772V12.19893
		C46.7634,10.74742,45.53768,9.52139,44.0862,9.52139z"/>
	<path fill="#FFFFFF" d="M68.23849,34.85614c1.45147,0,2.67788-1.22504,2.67788-2.6772V18.85886
		c0-6.98959-3.98842-9.48009-7.72037-9.48009c-2.89761,0-5.23117,1.03201-6.9545,3.07162l-0.07548-0.63588
		c-0.12059-1.26447-1.25644-2.29313-2.5326-2.29313c-1.42343,0-2.58168,1.15825-2.58168,2.58236v20.07519
		c0,1.45216,1.22603,2.6772,2.6772,2.6772s2.6772-1.22504,2.6772-2.6772v-10.5607c0-4.7165,1.9999-7.64619,5.22016-7.64619
		c2.61109,0,3.93531,1.82018,3.93531,5.41017v12.79671C65.56161,33.6311,66.78767,34.85614,68.23849,34.85614z"/>
	<path fill="#FFFFFF" d="M87.14258,32.5129c0-1.19966-1.01464-2.21228-2.21499-2.21228c-0.19104,0-0.37941,0.02671-0.57243,0.0815
		c-0.57243,0.17633-1.09614,0.26183-1.60246,0.26183c-0.98191,0-1.98517-0.32062-1.98517-2.69857V14.01945h3.60299
		c1.16762,0,2.15417-0.98625,2.15417-2.15384c0-1.1419-0.98656-2.10643-2.15417-2.10643h-3.60299V5.82388
		c0-1.45117-1.22572-2.67723-2.67689-2.67723c-1.45116,0-2.67719,1.22606-2.67719,2.67723v3.93531h-1.17631
		c-1.16758,0-2.15349,0.9866-2.15349,2.15384c0,1.1419,0.98591,2.10643,2.15349,2.10643h1.17631v14.21112
		c0,4.55487,2.29179,6.76852,7.00661,6.76852c1.08345,0,2.03195-0.11091,2.98445-0.3487
		C86.44388,34.38989,87.14258,33.5309,87.14258,32.5129z"/>
	<path fill="#FFFFFF" d="M98.11456,9.42621c-6.86,0-10.95595,4.77125-10.95595,12.76279
		c0,7.99137,4.09595,12.76265,10.95595,12.76265c6.85932,0,10.95465-4.77128,10.95465-12.76265
		C109.06921,14.19746,104.97388,9.42621,98.11456,9.42621z M98.11456,30.64395c-3.59029,0-5.41051-2.84419-5.41051-8.45495
		c0-3.85682,0.93848-8.45508,5.41051-8.45508c4.4707,0,5.40918,4.59827,5.40918,8.45508
		C103.52374,27.79976,101.70421,30.64395,98.11456,30.64395z"/>
	<path fill="#FFFFFF" d="M136.76169,9.42621c-3.97839,0-6.07581,1.82955-7.32491,3.46772
		c-0.21376-0.45222-0.51434-0.95017-0.94051-1.44145c-1.23437-1.32559-2.91632-2.02627-4.86478-2.02627
		c-3.29372,0-5.14465,1.38502-6.34766,2.9143l-0.06413-0.52599c-0.12025-1.26447-1.25643-2.29313-2.53226-2.29313
		c-1.42343,0-2.58167,1.15825-2.58167,2.58236v20.07519c0,1.45216,1.22569,2.6772,2.67719,2.6772
		c1.45083,0,2.67719-1.22504,2.67719-2.6772v-10.5607c0-6.28056,2.5022-7.59879,4.60094-7.59879
		c2.1315,0,3.36522,0.8854,3.36522,5.41051v12.74897c0,1.45216,1.22572,2.6772,2.6772,2.6772
		c1.45082,0,2.6772-1.22504,2.6772-2.6772v-10.5607c0-6.28056,2.5022-7.59879,4.60097-7.59879
		c2.13078,0,3.36519,0.8854,3.36519,5.41051v12.74897c0,1.45216,1.22572,2.6772,2.6772,2.6772
		c1.45082,0,2.67723-1.22504,2.67723-2.6772v-13.2723C144.10132,10.34998,138.96864,9.42621,136.76169,9.42621z"/>
	<path fill="#FFFFFF" d="M157.83066,9.42621c-6.86,0-10.95529,4.78897-10.95529,12.81057
		c0,8.2295,4.16139,12.76231,11.71675,12.76231c2.27245,0,4.79468-0.42083,6.75717-1.12955
		c0.90041-0.34665,1.4381-1.12083,1.4381-2.07135c0-1.25445-0.90506-2.20096-2.10609-2.20096
		c-0.39542,0-0.70601,0.11423-0.95515,0.20643c-0.05612,0.02004-0.11092,0.04142-0.17101,0.06142
		c-1.52432,0.52504-3.21161,0.82695-4.63034,0.82695c-3.86017,0-5.91951-2.00657-6.44589-6.30142h12.25052
		c1.80083,0,2.89761-1.01563,3.00848-2.7864c0.00134-0.01105,0.00134-0.0224,0.00134-0.03341V20.6193
		C167.73924,10.88035,161.53119,9.42621,157.83066,9.42621z M162.23389,20.36814h-9.82578
		c0.35004-4.40289,2.14015-6.63422,5.32768-6.63422c3.72459,0,4.5061,3.04556,4.5061,5.60087
		C162.2419,19.72723,162.2419,20.08859,162.23389,20.36814z"/>
	<path fill="#FFFFFF" d="M173.50981,28.40759c-2.0313,0-3.34317,1.29385-3.34317,3.29573c0,1.88503,1.33591,3.2009,3.24765,3.2009
		c1.97182,0,3.29573-1.28581,3.29573-3.2009C176.71002,29.63998,175.51372,28.40759,173.50981,28.40759z"/>
	<path fill="#FFFFFF" d="M205.82597,9.42621c-3.97775,0-6.07516,1.82955-7.32558,3.46772
		c-0.21309-0.45222-0.51436-0.95017-0.94049-1.44145c-1.23376-1.32559-2.91635-2.02627-4.86482-2.02627
		c-3.29306,0-5.14464,1.38502-6.34766,2.9143l-0.06348-0.52599c-0.1209-1.26447-1.25642-2.29313-2.53223-2.29313
		c-1.4241,0-2.58235,1.15825-2.58235,2.58236v20.07519c0,1.45216,1.22638,2.6772,2.6772,2.6772
		c1.45146,0,2.67787-1.22504,2.67787-2.6772v-10.5607c0-6.28056,2.50151-7.59879,4.60094-7.59879
		c2.13147,0,3.36519,0.8854,3.36519,5.41051v12.74897c0,1.45216,1.22572,2.6772,2.67656,2.6772
		c1.45151,0,2.67787-1.22504,2.67787-2.6772v-10.5607c0-6.28056,2.5022-7.59879,4.60094-7.59879
		c2.13081,0,3.36523,0.8854,3.36523,5.41051v12.74897c0,1.45216,1.22568,2.6772,2.67719,2.6772
		c1.45084,0,2.67654-1.22504,2.67654-2.6772v-13.2723C213.1649,10.34998,208.03223,9.42621,205.82597,9.42621z"/>
	<path fill="#FFFFFF" d="M234.95792,31.12087c-0.00468-0.00667-0.00868-0.01269-0.01334-0.01871l-6.81126-9.34165l6.20541-8.55064
		c0.24648-0.36837,0.37607-0.80055,0.37607-1.24908c0-1.34494-1.0948-2.43941-2.43941-2.43941
		c-0.78954,0-1.59778,0.46625-2.0627,1.18831l-5.07587,7.17594l-5.16469-7.22136c-0.4843-0.7261-1.23708-1.14289-2.06403-1.14289
		c-1.34459,0-2.43941,1.09446-2.43941,2.43941c0,0.44887,0.12959,0.88071,0.38742,1.26611l6.29222,8.67988l-6.43716,9.05646
		c-0.34134,0.47825-0.38542,0.9525-0.38542,1.31054c0,1.37466,1.13889,2.53561,2.48683,2.53561
		c0.86034,0,1.62717-0.43954,2.15417-1.23041l5.36713-7.74304l5.54344,7.83056c0.48427,0.72606,1.2364,1.14289,2.064,1.14289
		c1.31926,0,2.392-1.07275,2.392-2.39201C235.33333,31.93045,235.20706,31.49495,234.95792,31.12087z"/>
	<path fill="#FFFFFF" d="M32.84366,43.26649c-0.37572,0-0.6763,0.31594-0.6763,0.67664v3.35319
		c-0.4816-0.67664-1.24843-1.0527-2.18058-1.0527c-1.81953,0-2.84218,1.36864-2.84218,3.80473
		c0,2.52624,1.03769,3.93965,2.88729,3.93965c0.9024,0,1.65387-0.40612,2.16519-1.12753l0.06012,0.52568
		c0.0304,0.31597,0.30092,0.55643,0.63191,0.55643c0.34566,0,0.63123-0.28588,0.63123-0.63191v-9.36754
		C33.52034,43.58243,33.21976,43.26649,32.84366,43.26649z M30.36284,52.96467c-1.14289,0-1.78947-1.00729-1.78947-2.81147
		c0-1.84959,0.66163-2.88694,1.81923-2.88694c1.17292,0,1.83455,1.00729,1.83455,2.79676
		C32.22714,51.92801,31.5505,52.96467,30.36284,52.96467z"/>
	<path fill="#FFFFFF" d="M37.40455,46.27433c-0.37606,0-0.67664,0.31529-0.67664,0.67599v6.31561
		c0,0.36135,0.30058,0.67664,0.67664,0.67664s0.67664-0.31529,0.67664-0.67664v-6.31561
		C38.0812,46.58962,37.78061,46.27433,37.40455,46.27433z"/>
	<path fill="#FFFFFF" d="M37.41957,43.7628c-0.49628,0-0.88738,0.22575-0.88738,0.79686c0,0.57114,0.39111,0.8116,0.88738,0.8116
		c0.49596,0,0.87202-0.24046,0.87202-0.8116C38.29159,43.98855,37.91553,43.7628,37.41957,43.7628z"/>
	<path fill="#FFFFFF" d="M43.58925,49.43114c-0.9472-0.31529-1.44347-0.55575-1.44347-1.24778
		c0-0.67664,0.51098-0.9171,1.18797-0.9171c0.55609,0,1.09781,0.16498,1.56372,0.3607
		c0.06043,0.03006,0.15062,0.04477,0.22541,0.04477c0.31597,0,0.55677-0.25517,0.55677-0.55575
		c0-0.25585-0.15065-0.46625-0.37606-0.54108c-0.63157-0.21108-1.188-0.33129-1.87966-0.33129
		c-1.90972,0-2.66153,0.90174-2.66153,2.05999c0,1.57907,1.41344,2.01458,2.48116,2.30049
		c0.57144,0.15096,1.33827,0.42148,1.33827,1.26379c0,0.72141-0.57145,1.09679-1.35363,1.09679
		c-0.58615,0-1.14255-0.22442-1.59378-0.45021c-0.07513-0.04542-0.16563-0.07548-0.27052-0.07548
		c-0.31594,0-0.57145,0.27052-0.57145,0.58646c0,0.25585,0.15065,0.45089,0.37576,0.54173
		c0.78218,0.30058,1.63916,0.42083,2.12046,0.42083c1.09778,0,2.72162-0.31594,2.72162-2.19559
		C46.01029,50.34893,45.06278,49.9281,43.58925,49.43114z"/>
	<path fill="#FFFFFF" d="M51.57843,46.24362c-2.04498,0-3.29306,1.3987-3.29306,3.87952c0,2.37597,1.14289,3.86485,3.53387,3.86485
		c0.76683,0,1.53366-0.15096,2.0747-0.346c0.19573-0.07483,0.346-0.24046,0.346-0.49631c0-0.28522-0.19535-0.52637-0.49627-0.52637
		c-0.12025,0-0.21043,0.04477-0.30058,0.07551c-0.43618,0.15027-0.99261,0.26984-1.51864,0.26984
		c-1.5039,0-2.10507-0.94716-2.22565-2.32986h4.06023c0.4659,0,0.75147-0.24046,0.78185-0.72206v-0.30127
		C54.54085,47.11599,53.18756,46.24362,51.57843,46.24362z M53.1271,49.70235h-3.44334
		c0.07514-1.50428,0.66163-2.43608,1.86461-2.43608c1.02268,0,1.59412,0.67664,1.59412,1.93978
		C53.14249,49.43114,53.14249,49.61148,53.1271,49.70235z"/>
	<path fill="#FFFFFF" d="M61.00075,46.22891c-1.18797,0-1.89467,0.58646-2.31584,1.24775l-0.07514-0.63188
		c-0.03006-0.31528-0.31563-0.57045-0.63157-0.57045c-0.3607,0-0.64658,0.30058-0.64658,0.64658v6.34502
		c0,0.36135,0.30092,0.67664,0.67664,0.67664c0.37606,0,0.67664-0.31529,0.67664-0.67664V49.9281
		c0-1.71399,0.79723-2.58636,1.81953-2.58636c1.17295,0,1.41341,1.02199,1.41341,1.87966v4.04454
		c0,0.36135,0.30092,0.67664,0.67668,0.67664c0.37606,0,0.67664-0.31529,0.67664-0.67664v-4.2102
		C63.27118,46.81537,61.9633,46.22891,61.00075,46.22891z"/>
	<path fill="#FFFFFF" d="M58.92571,44.52962c0.09019-0.06012,0.21043-0.10554,0.34569-0.10554
		c0.30089,0,0.58646,0.19569,0.88704,0.36067c0.33099,0.18102,0.66197,0.36139,1.06775,0.36139
		c0.36101,0,0.67664-0.15031,0.93246-0.45089c0.39077-0.4816,0.33064-0.85766,0.18037-0.93246
		c-0.16532-0.09087-0.27086,0.14962-0.64658,0.40612c-0.09018,0.06009-0.21043,0.0895-0.34603,0.0895
		c-0.3156,0-0.63123-0.20975-0.90209-0.3607c-0.33061-0.18034-0.6616-0.37541-1.05236-0.37541
		c-0.40612,0-0.78218,0.20975-1.0527,0.61587c-0.25585,0.40612-0.21074,0.70739-0.06046,0.78218
		C58.44445,45.01054,58.54965,44.77008,58.92571,44.52962z"/>
	<path fill="#FFFFFF" d="M71.8819,52.76963c-0.21074-0.06012-0.3764-0.2104-0.3764-0.60117v-3.69919
		c0-1.50359-1.06741-2.22565-2.70627-2.22565c-0.5564,0-1.44347,0.09015-2.25571,0.36071
		c-0.2104,0.07548-0.37607,0.28587-0.37607,0.52633c0,0.31662,0.25585,0.55708,0.55678,0.55708c0.07513,0,0.15028,0,0.2104-0.03071
		c0.49596-0.19504,1.11249-0.39077,1.71399-0.39077c0.85732,0,1.5036,0.31594,1.5036,1.33793v0.78218l-1.06707,0.01535
		c-2.27111,0.02942-3.21827,0.82695-3.21827,2.34591c0,1.36799,0.81224,2.24036,2.33054,2.24036
		c1.15825,0,1.80482-0.49696,2.06033-1.00729c0.03006,0.19504,0.1052,0.40544,0.30058,0.58646
		c0.28587,0.25517,0.692,0.36071,1.09782,0.40548c0.36101,0.04473,0.67664-0.24046,0.67664-0.60185
		C72.33279,53.08556,72.13741,52.8451,71.8819,52.76963z M70.1375,51.34151c0,1.45818-1.38369,1.62316-1.74439,1.62316
		c-0.58646,0-1.11283-0.46556-1.11283-1.29316c0-1.06741,0.84231-1.3079,1.93978-1.32257l0.91744-0.01471V51.34151z"/>
	<path fill="#FFFFFF" d="M82.85823,52.86046c-0.19504,0.05947-0.37537,0.0895-0.55575,0.0895
		c-0.51166,0-0.79685-0.30058-0.79685-1.02196v-4.57156h1.30787c0.27052,0,0.51098-0.22579,0.51098-0.51167
		c0-0.26987-0.24046-0.49562-0.51098-0.49562h-1.30787v-1.41341c0-0.36071-0.30127-0.67733-0.67668-0.67733
		c-0.37637,0-0.67698,0.31662-0.67698,0.67733v1.41341h-0.54105c-0.27052,0-0.51132,0.22575-0.51132,0.51098
		c0,0.27052,0.2408,0.49631,0.51132,0.49631h0.54105v4.66106c0,1.54966,0.87206,1.97049,2.04498,1.97049
		c0.31597,0,0.60184-0.03071,0.90243-0.10554c0.24046-0.06012,0.42148-0.25517,0.42148-0.51166
		C83.52085,53.02544,83.17485,52.76963,82.85823,52.86046z"/>
	<path fill="#FFFFFF" d="M91.14433,46.27433c-0.37606,0-0.67664,0.31529-0.67664,0.67599v3.33849
		c0,1.71399-0.79685,2.58636-1.81953,2.58636c-1.17295,0-1.41341-1.02264-1.41341-1.87966v-4.04519
		c0-0.3607-0.30058-0.67599-0.67733-0.67599c-0.37537,0-0.67596,0.31529-0.67596,0.67599v4.21085
		c0,2.24036,1.30787,2.82682,2.27039,2.82682c1.18834,0,1.89505-0.58646,2.31584-1.24775l0.07483,0.63054
		c0.03072,0.31594,0.31662,0.57178,0.63187,0.57178c0.36071,0,0.64662-0.30058,0.64662-0.64658v-6.34568
		C91.82101,46.58962,91.52043,46.27433,91.14433,46.27433z"/>
	<path fill="#FFFFFF" d="M103.59454,46.22891c-0.90174,0-1.65386,0.40612-2.16485,1.12753l-0.06012-0.52637
		c-0.03006-0.31528-0.30058-0.55574-0.63123-0.55574c-0.346,0-0.63191,0.28522-0.63191,0.63057v8.8425
		c0,0.36071,0.30058,0.67599,0.67664,0.67599c0.3761,0,0.67668-0.31528,0.67668-0.67599v-2.82747
		c0.48092,0.67664,1.24774,1.05271,2.18024,1.05271c1.80482,0,2.82747-1.36868,2.82747-3.80408
		C106.46746,47.64232,105.43011,46.22891,103.59454,46.22891z M103.23386,52.94996c-1.17229,0-1.83424-1.00729-1.83424-2.79676
		c0-1.8643,0.67664-2.9023,1.86495-2.9023c1.1422,0,1.78882,1.00729,1.78882,2.81211
		C105.0534,51.91261,104.39211,52.94996,103.23386,52.94996z"/>
	<path fill="#FFFFFF" d="M111.6188,52.94996c-0.12021,0.03075-0.24046,0.04545-0.36135,0.04545
		c-0.39008,0-0.61588-0.16566-0.61588-0.78154v-8.27075c0-0.3607-0.30058-0.67664-0.67664-0.67664s-0.67664,0.31594-0.67664,0.67664
		v8.46579c0,1.45883,0.76683,1.60845,1.83424,1.60845c0.21108,0,0.43618-0.01467,0.67729-0.06009
		c0.24049-0.02941,0.43553-0.24049,0.43553-0.49566C112.23536,53.14569,111.91939,52.88987,111.6188,52.94996z"/>
	<path fill="#FFFFFF" d="M120.27297,52.76963c-0.2104-0.06012-0.37607-0.2104-0.37607-0.60117v-3.69919
		c0-1.50359-1.06741-2.22565-2.70657-2.22565c-0.55643,0-1.4435,0.09015-2.25507,0.36071
		c-0.21108,0.07548-0.37675,0.28587-0.37675,0.52633c0,0.31662,0.25585,0.55708,0.55643,0.55708c0.07548,0,0.15028,0,0.2104-0.03071
		c0.49699-0.19504,1.11283-0.39077,1.714-0.39077c0.8577,0,1.50427,0.31594,1.50427,1.33793v0.78218l-1.06741,0.01535
		c-2.27107,0.02942-3.21827,0.82695-3.21827,2.34591c0,1.36799,0.81224,2.24036,2.33119,2.24036
		c1.15694,0,1.80418-0.49696,2.06003-1.00729c0.02937,0.19504,0.10486,0.40544,0.30058,0.58646
		c0.28587,0.25517,0.69135,0.36071,1.09747,0.40548c0.36136,0.04473,0.67664-0.24046,0.67664-0.60185
		C120.72386,53.08556,120.52882,52.8451,120.27297,52.76963z M118.52892,51.34151c0,1.45818-1.38403,1.62316-1.74471,1.62316
		c-0.58649,0-1.11286-0.46556-1.11286-1.29316c0-1.06741,0.84231-1.3079,1.93978-1.32257l0.91779-0.01471V51.34151z"/>
	<path fill="#FFFFFF" d="M127.88045,46.27433c-0.31597,0-0.57179,0.20975-0.64661,0.48095l-1.6245,5.86404l-1.86427-5.87943
		c-0.09019-0.27052-0.33064-0.46556-0.63123-0.46556c-0.36139,0-0.66197,0.30058-0.66197,0.67599
		c0,0.07548,0.01536,0.15028,0.03006,0.21108l2.04533,6.10453c0.13491,0.4208,0.40612,0.60181,0.81224,0.60181l-0.09084,0.30058
		c-0.25517,0.87237-0.91714,1.05274-1.6392,1.05274c-0.30058,0-0.57178,0.25517-0.57178,0.5711
		c0,0.31594,0.28656,0.5711,0.6025,0.5564c1.7287-0.1055,2.31519-0.73742,2.72131-2.05999l2.15018-7.15792
		c0.01535-0.06012,0.01535-0.13492,0.01535-0.19504C128.52702,46.57491,128.24115,46.27433,127.88045,46.27433z"/>
	<path fill="#FFFFFF" d="M133.88008,46.24362c-2.04463,0-3.29306,1.3987-3.29306,3.87952c0,2.37597,1.14288,3.86485,3.53355,3.86485
		c0.7668,0,1.53363-0.15096,2.07471-0.346c0.19637-0.07483,0.34599-0.24046,0.34599-0.49631
		c0-0.28522-0.19504-0.52637-0.49562-0.52637c-0.12025,0-0.21109,0.04477-0.30127,0.07551
		c-0.43619,0.15027-0.99193,0.26984-1.51826,0.26984c-1.5036,0-2.10544-0.94716-2.22569-2.32986h4.05989
		c0.46625,0,0.75217-0.24046,0.78154-0.72206v-0.30127C136.84186,47.11599,135.48923,46.24362,133.88008,46.24362z
		 M135.42845,49.70235h-3.44269c0.07478-1.50428,0.66129-2.43608,1.86426-2.43608c1.02267,0,1.59378,0.67664,1.59378,1.93978
		C135.4438,49.43114,135.4438,49.61148,135.42845,49.70235z"/>
	<path fill="#FFFFFF" d="M142.20428,46.33377c-0.48096,0.1356-0.94719,0.4816-1.24777,1.09747l-0.06009-0.58646
		c-0.03008-0.31528-0.30058-0.57045-0.63191-0.57045c-0.34601,0-0.63123,0.28522-0.63123,0.63057v6.36103
		c0,0.36135,0.30058,0.67664,0.67664,0.67664c0.37607,0,0.67665-0.31529,0.67665-0.67664v-3.65446
		c0-1.63851,0.67664-2.02928,1.39806-2.02928h0.13559c0.36136,0.01471,0.67665-0.28588,0.67665-0.66129
		c0-0.16563-0.06012-0.31659-0.16498-0.43683C142.82149,46.24362,142.53558,46.24362,142.20428,46.33377z"/>
	<path fill="#FFFFFF" d="M151.27658,52.76963c-0.2104-0.06012-0.37538-0.2104-0.37538-0.60117v-3.69919
		c0-1.50359-1.06874-2.22565-2.70729-2.22565c-0.5564,0-1.44348,0.09015-2.25572,0.36071
		c-0.21039,0.07548-0.37538,0.28587-0.37538,0.52633c0,0.31662,0.25517,0.55708,0.55576,0.55708
		c0.07613,0,0.15096,0,0.21107-0.03071c0.49562-0.19504,1.11284-0.39077,1.71399-0.39077c0.85703,0,1.50426,0.31594,1.50426,1.33793
		v0.78218l-1.06876,0.01535c-2.26973,0.02942-3.2169,0.82695-3.2169,2.34591c0,1.36799,0.81157,2.24036,2.32986,2.24036
		c1.15825,0,1.80482-0.49696,2.06-1.00729c0.03075,0.19504,0.10555,0.40544,0.30127,0.58646
		c0.28522,0.25517,0.69135,0.36071,1.09747,0.40548c0.3607,0.04473,0.67729-0.24046,0.67729-0.60185
		C151.72812,53.08556,151.53174,52.8451,151.27658,52.76963z M149.53188,51.34151c0,1.45818-1.38271,1.62316-1.74409,1.62316
		c-0.58577,0-1.11214-0.46556-1.11214-1.29316c0-1.06741,0.84161-1.3079,1.93977-1.32257l0.91646-0.01471V51.34151z"/>
	<path fill="#FFFFFF" d="M162.10297,46.24362c-2.20964,0-3.29306,1.59375-3.29306,3.86485
		c0,2.26974,1.08342,3.86417,3.29306,3.86417c2.21095,0,3.29308-1.59443,3.29308-3.86417
		C165.39604,47.83736,164.31392,46.24362,162.10297,46.24362z M162.10297,52.94996c-1.29251,0-1.87965-1.08208-1.87965-2.84149
		c0-1.74474,0.58714-2.84221,1.87965-2.84221c1.29317,0,1.87967,1.09747,1.87967,2.84221
		C163.98264,51.86788,163.39613,52.94996,162.10297,52.94996z"/>
	<path fill="#FFFFFF" d="M171.86862,46.22891c-1.18834,0-1.89436,0.58646-2.31651,1.24775l-0.0748-0.63188
		c-0.02942-0.31528-0.31598-0.57045-0.63123-0.57045c-0.3607,0-0.64726,0.30058-0.64726,0.64658v6.34502
		c0,0.36135,0.30122,0.67664,0.67732,0.67664c0.37538,0,0.67596-0.31529,0.67596-0.67664V49.9281
		c0-1.71399,0.79756-2.58636,1.81953-2.58636c1.17363,0,1.41409,1.02199,1.41409,1.87966v4.04454
		c0,0.36135,0.30058,0.67664,0.67664,0.67664c0.37541,0,0.67665-0.31529,0.67665-0.67664v-4.2102
		C174.13902,46.81537,172.83049,46.22891,171.86862,46.22891z"/>
	<path fill="#FFFFFF" d="M181.0204,49.02502h-3.39861c-0.28589,0-0.52634,0.22575-0.52634,0.51166
		c0,0.30058,0.24045,0.52634,0.52634,0.52634h3.39861c0.28522,0,0.52637-0.22575,0.52637-0.52634
		C181.54677,49.25077,181.30562,49.02502,181.0204,49.02502z"/>
	<path fill="#FFFFFF" d="M186.87247,52.94996c-0.12025,0.03075-0.24049,0.04545-0.3607,0.04545
		c-0.39078,0-0.61656-0.16566-0.61656-0.78154v-8.27075c0-0.3607-0.30058-0.67664-0.67664-0.67664
		c-0.37607,0-0.67665,0.31594-0.67665,0.67664v8.46579c0,1.45883,0.76683,1.60845,1.83424,1.60845
		c0.21039,0,0.43619-0.01467,0.67664-0.06009c0.24046-0.02941,0.43619-0.24049,0.43619-0.49566
		C187.48898,53.14569,187.17305,52.88987,186.87247,52.94996z"/>
	<path fill="#FFFFFF" d="M190.62709,43.7628c-0.49631,0-0.88707,0.22575-0.88707,0.79686c0,0.57114,0.39076,0.8116,0.88707,0.8116
		c0.49628,0,0.87233-0.24046,0.87233-0.8116C191.49942,43.98855,191.12337,43.7628,190.62709,43.7628z"/>
	<path fill="#FFFFFF" d="M190.61238,46.27433c-0.37605,0-0.67664,0.31529-0.67664,0.67599v6.31561
		c0,0.36135,0.30058,0.67664,0.67664,0.67664c0.37607,0,0.67665-0.31529,0.67665-0.67664v-6.31561
		C191.28903,46.58962,190.98845,46.27433,190.61238,46.27433z"/>
	<path fill="#FFFFFF" d="M198.15639,46.22891c-1.18765,0-1.89436,0.58646-2.31584,1.24775l-0.07549-0.63188
		c-0.02937-0.31528-0.31528-0.57045-0.63123-0.57045c-0.3607,0-0.64658,0.30058-0.64658,0.64658v6.34502
		c0,0.36135,0.30058,0.67664,0.67665,0.67664c0.37605,0,0.67664-0.31529,0.67664-0.67664V49.9281
		c0-1.71399,0.79689-2.58636,1.81953-2.58636c1.17294,0,1.41341,1.02199,1.41341,1.87966v4.04454
		c0,0.36135,0.30127,0.67664,0.67665,0.67664c0.37608,0,0.67667-0.31529,0.67667-0.67664v-4.2102
		C200.4268,46.81537,199.11891,46.22891,198.15639,46.22891z"/>
	<path fill="#FFFFFF" d="M206.42447,46.24362c-2.04532,0-3.29375,1.3987-3.29375,3.87952c0,2.37597,1.14288,3.86485,3.53421,3.86485
		c0.76682,0,1.53365-0.15096,2.07469-0.346c0.19572-0.07483,0.34601-0.24046,0.34601-0.49631
		c0-0.28522-0.19569-0.52637-0.49628-0.52637c-0.12025,0-0.21043,0.04477-0.30063,0.07551
		c-0.43614,0.15027-0.99257,0.26984-1.51895,0.26984c-1.50356,0-2.10475-0.94716-2.22496-2.32986h4.05989
		c0.46556,0,0.75143-0.24046,0.78149-0.72206v-0.30127C209.3862,47.11599,208.03291,46.24362,206.42447,46.24362z
		 M207.97279,49.70235h-3.44334c0.0748-1.50428,0.66129-2.43608,1.86427-2.43608c1.02267,0,1.59378,0.67664,1.59378,1.93978
		C207.9875,49.43114,207.9875,49.61148,207.97279,49.70235z"/>
</g>
</svg>
