<?xml version="1.0" encoding="utf-8"?>
<!-- Generator: Adobe Illustrator 21.0.0, SVG Export Plug-In . SVG Version: 6.00 Build 0)  -->
<svg version="1.1" id="Layer_1" xmlns="http://www.w3.org/2000/svg" xmlns:xlink="http://www.w3.org/1999/xlink" x="0px" y="0px"
	 width="346px" height="90px" viewBox="0 0 346 90" enable-background="new 0 0 346 90" xml:space="preserve">
<g>
	<g>
		<path fill="#FF4C00" d="M100.68449,27.8831c-2.7691,0-5.23767,1.07103-7.0829,3.04546l-0.04832-0.4279
			c-0.13396-1.40342-1.32726-2.46126-2.77532-2.46126c-1.53188,0-2.77788,1.246-2.77788,2.77787v30.65795
			c0,1.5908,1.34372,2.93418,2.93381,2.93418c1.59084,0,2.93455-1.34338,2.93455-2.93418v-8.21397
			c1.76689,1.71895,4.18714,2.64942,6.97236,2.64942c6.60301,0,10.39007-5.02282,10.39007-13.77905
			C111.23085,33.0765,107.38671,27.8831,100.68449,27.8831z M99.53733,33.22876c2.09741,0,5.61687,1.1102,5.61687,8.54671
			c0,7.64825-3.58465,8.78955-5.72123,8.78955c-2.15633,0-5.77318-1.10397-5.77318-8.4982
			C93.6598,34.37704,97.34216,33.22876,99.53733,33.22876z"/>
		<path fill="#FF4C00" d="M125.45264,28.05548c-0.40778,0-0.86202,0.06957-1.3924,0.21451
			c-1.47955,0.41621-2.77352,1.3174-3.75962,2.59634l-0.0322-0.31369c-0.134-1.40927-1.3529-2.51324-2.77499-2.51324
			c-1.53188,0-2.77824,1.246-2.77824,2.77787v22.05454c0,1.59155,1.34412,2.93417,2.93455,2.93417
			c1.59046,0,2.93417-1.34262,2.93417-2.93417V40.20258c0-2.7691,0.44185-6.45113,4.26147-6.45113h0.45755
			c1.61239,0.05345,2.94553-1.25769,2.94553-2.88181c0-0.70501-0.24855-1.36171-0.71892-1.89939
			C126.99843,28.36333,126.30002,28.05548,125.45264,28.05548z"/>
		<path fill="#FF4C00" d="M133.44734,19.33201c-2.29398,0-3.66406,1.25259-3.66406,3.35147
			c0,2.09962,1.40413,3.40346,3.66406,3.40346c2.26215,0,3.61246-1.27235,3.61246-3.40346
			C137.0598,20.5846,135.70949,19.33201,133.44734,19.33201z"/>
		<path fill="#FF4C00" d="M133.39536,28.03941c-1.59042,0-2.93417,1.34371-2.93417,2.93455v21.89786
			c0,1.59155,1.34375,2.93417,2.93417,2.93417c1.59084,0,2.93422-1.34262,2.93422-2.93417V30.97396
			C136.32957,29.38312,134.98619,28.03941,133.39536,28.03941z"/>
		<path fill="#FF4C00" d="M154.33951,27.8831c-3.17578,0-5.73331,1.13107-7.62209,3.36646l-0.08272-0.69691
			c-0.13213-1.38584-1.37704-2.51324-2.77567-2.51324c-1.5601,0-2.82953,1.26942-2.82953,2.83024v22.00217
			c0,1.59155,1.34375,2.93417,2.93417,2.93417c1.59047,0,2.93422-1.34262,2.93422-2.93417v-11.5744
			c0-5.16922,2.19183-8.38013,5.72119-8.38013c2.86172,0,4.31308,1.9949,4.31308,5.92949v14.02505
			c0,1.59155,1.34372,2.93417,2.93381,2.93417c1.59084,0,2.93492-1.34262,2.93492-2.93417V38.27317
			C162.8009,30.61266,158.42964,27.8831,154.33951,27.8831z"/>
		<path fill="#95D600" d="M178.15707,50.81319c-0.20938,0-0.41583,0.02927-0.62743,0.08932
			c-0.62738,0.19326-1.20131,0.28697-1.75624,0.28697c-1.07616,0-2.17575-0.3514-2.17575-2.9576V32.96923h3.94887
			c1.27965,0,2.36095-1.08092,2.36095-2.36058c0-1.25151-1.0813-2.30863-2.36095-2.30863h-3.94887v-4.31305
			c0-1.59046-1.34338-2.93421-2.93384-2.93421c-1.59042,0-2.93417,1.34375-2.93417,2.93421v4.31305h-1.28918
			c-1.27969,0-2.36023,1.0813-2.36023,2.36058c0,1.25151,1.08054,2.30863,2.36023,2.30863h1.28918v15.57522
			c0,4.99208,2.51178,7.41822,7.67917,7.41822c1.18745,0,2.22699-0.12156,3.27095-0.38217
			c1.13914-0.2855,1.90488-1.22696,1.90488-2.34266C180.58464,51.92302,179.4726,50.81319,178.15707,50.81319z"/>
		<path fill="#95D600" d="M192.60983,27.93509c-7.51848,0-12.00761,5.22923-12.00761,13.98787
			c0,8.75845,4.48914,13.98772,12.00761,13.98772c7.51775,0,12.00613-5.22927,12.00613-13.98772
			C204.61597,33.16433,200.12758,27.93509,192.60983,27.93509z M192.60983,51.18948c-3.93495,0-5.92989-3.1172-5.92989-9.26653
			c0-4.22702,1.02859-9.26667,5.92989-9.26667c4.89981,0,5.92841,5.03965,5.92841,9.26667
			C198.53824,48.07228,196.54401,51.18948,192.60983,51.18948z"/>
		<path fill="#FF4C00" d="M234.96663,27.93509c-4.36031,0-6.65904,2.00517-8.02802,3.80059
			c-0.23427-0.49563-0.56371-1.04138-1.03078-1.57982c-1.35289-1.45283-3.19629-2.22077-5.33174-2.22077
			c-3.60991,0-5.6385,1.51797-6.957,3.19404l-0.07028-0.57648c-0.13174-1.38584-1.37703-2.51324-2.77531-2.51324
			c-1.56007,0-2.8295,1.26942-2.8295,2.83024v22.00217c0,1.59155,1.34338,2.93417,2.93419,2.93417
			c1.59009,0,2.9342-1.34262,2.9342-2.93417v-11.5744c0-6.88342,2.74239-8.32818,5.04257-8.32818
			c2.33606,0,3.68822,0.97039,3.68822,5.92986v13.97272c0,1.59155,1.34337,2.93417,2.9342,2.93417
			c1.59006,0,2.93417-1.34262,2.93417-2.93417v-11.5744c0-6.88342,2.74239-8.32818,5.04259-8.32818
			c2.33534,0,3.6882,0.97039,3.6882,5.92986v13.97272c0,1.59155,1.34338,2.93417,2.93422,2.93417
			c1.59009,0,2.93417-1.34262,2.93417-2.93417V38.32553C243.01074,28.94753,237.38542,27.93509,234.96663,27.93509z"/>
		<path fill="#FF4C00" d="M258.05795,27.93509c-7.51849,0-12.00688,5.24865-12.00688,14.04023
			c0,9.01944,4.56088,13.98734,12.84145,13.98734c2.49054,0,5.25488-0.46122,7.40576-1.23797
			c0.98682-0.37992,1.57617-1.22842,1.57617-2.27017c0-1.37486-0.99197-2.41223-2.30826-2.41223
			c-0.43341,0-0.77383,0.12519-1.04688,0.22625c-0.06152,0.02197-0.12152,0.04539-0.18744,0.06732
			c-1.67059,0.57543-3.51984,0.90633-5.0748,0.90633c-4.2307,0-6.48767-2.19918-7.06456-6.90628h13.42638
			c1.97369,0,3.17578-1.11312,3.2973-3.05386c0.00146-0.0121,0.00146-0.02455,0.00146-0.03662v-1.04284
			C268.91766,29.52881,262.11368,27.93509,258.05795,27.93509z M257.95401,32.65629c4.08206,0,4.93863,3.3379,4.93863,6.13848
			c0,0.43011,0,0.82616-0.00882,1.13254h-10.76889C252.49852,35.1018,254.46051,32.65629,257.95401,32.65629z"/>
		<path fill="#95D600" d="M275.2421,48.73846c-2.22623,0-3.66406,1.41804-3.66406,3.61209
			c0,2.06596,1.46417,3.50814,3.55939,3.50814c2.16113,0,3.61212-1.40923,3.61212-3.50814
			C278.74954,50.08914,277.43835,48.73846,275.2421,48.73846z"/>
		<path fill="#95D600" d="M310.66022,27.93509c-4.35953,0-6.65829,2.00517-8.02872,3.80059
			c-0.23355-0.49563-0.56372-1.04138-1.03076-1.57982c-1.35217-1.45283-3.19626-2.22077-5.33176-2.22077
			c-3.60916,0-5.63852,1.51797-6.957,3.19404l-0.06952-0.57648c-0.13251-1.38584-1.37704-2.51324-2.77533-2.51324
			c-1.56082,0-2.83023,1.26942-2.83023,2.83024v22.00217c0,1.59155,1.34412,2.93417,2.93417,2.93417
			c1.59082,0,2.93491-1.34262,2.93491-2.93417v-11.5744c0-6.88342,2.74167-8.32818,5.04257-8.32818
			c2.33612,0,3.68826,0.97039,3.68826,5.92986v13.97272c0,1.59155,1.34338,2.93417,2.93347,2.93417
			c1.59079,0,2.93488-1.34262,2.93488-2.93417v-11.5744c0-6.88342,2.74237-8.32818,5.0426-8.32818
			c2.33533,0,3.6882,0.97039,3.6882,5.92986v13.97272c0,1.59155,1.34338,2.93417,2.9342,2.93417
			c1.59006,0,2.93344-1.34262,2.93344-2.93417V38.32553C318.70361,28.94753,313.07831,27.93509,310.66022,27.93509z"/>
		<path fill="#95D600" d="M342.58853,51.71218c-0.00513-0.00731-0.00952-0.0139-0.01465-0.0205l-7.46503-10.23833l6.80103-9.3714
			c0.27014-0.40372,0.41217-0.87739,0.41217-1.36897c0-1.47404-1.19989-2.67356-2.67355-2.67356
			c-0.86533,0-1.75116,0.511-2.26065,1.30237l-5.56311,7.86475l-5.66046-7.91452c-0.53076-0.79579-1.35583-1.25259-2.26215-1.25259
			c-1.47366,0-2.67358,1.19952-2.67358,2.67356c0,0.49196,0.14203,0.96525,0.42462,1.38764l6.89624,9.51305l-7.05508,9.92577
			c-0.37408,0.52415-0.42239,1.04393-0.42239,1.43633c0,1.50661,1.24817,2.779,2.72549,2.779
			c0.94296,0,1.78339-0.48172,2.36099-1.34851l5.88226-8.48629l6.07556,8.58221c0.53073,0.79575,1.3551,1.25259,2.26215,1.25259
			c1.44586,0,2.62155-1.17572,2.62155-2.6216C342.99994,52.59946,342.8616,52.12216,342.58853,51.71218z"/>
		<g>
			<path fill="#77777A" d="M120.33245,69.44028v-3.67506c0-0.39533,0.32947-0.74159,0.74125-0.74159
				c0.41216,0,0.7416,0.34626,0.7416,0.74159v10.26671c0,0.37925-0.31298,0.69257-0.69182,0.69257
				c-0.36275,0-0.65925-0.26354-0.69257-0.60984l-0.06586-0.57615c-0.56044,0.79066-1.38401,1.23576-2.37306,1.23576
				c-2.02714,0-3.16443-1.54908-3.16443-4.3178c0-2.66992,1.12084-4.16994,3.11503-4.16994
				C118.96422,68.28653,119.80462,68.69869,120.33245,69.44028z M120.398,72.47255c0-1.96124-0.72514-3.06521-2.01067-3.06521
				c-1.26871,0-1.99381,1.13692-1.99381,3.16405c0,1.97736,0.70864,3.08133,1.96124,3.08133
				C119.65637,75.65273,120.398,74.51656,120.398,72.47255z"/>
			<path fill="#77777A" d="M126.08884,67.33043c-0.54395,0-0.9726-0.26354-0.9726-0.8895c0-0.62592,0.42865-0.87334,0.9726-0.87334
				c0.54357,0,0.95573,0.24742,0.95573,0.87334C127.04457,67.06689,126.63241,67.33043,126.08884,67.33043z M126.81393,75.98291
				v-6.92184c0-0.39533-0.32943-0.74088-0.74159-0.74088c-0.41216,0-0.74159,0.34555-0.74159,0.74088v6.92184
				c0,0.39604,0.32944,0.74159,0.74159,0.74159C126.4845,76.7245,126.81393,76.37895,126.81393,75.98291z"/>
			<path fill="#77777A" d="M130.19727,76.31306c-0.2467-0.09956-0.41179-0.31332-0.41179-0.59373
				c0-0.34626,0.28-0.64275,0.6263-0.64275c0.11493,0,0.21414,0.03294,0.29649,0.08272
				c0.49451,0.24746,1.10435,0.49342,1.74672,0.49342c0.85732,0,1.48361-0.41141,1.48361-1.20206
				c0-0.92316-0.84044-1.21965-1.46674-1.38509c-1.17024-0.31335-2.71933-0.79066-2.71933-2.52131
				c0-1.26942,0.82394-2.25773,2.91698-2.25773c0.75809,0,1.36789,0.13175,2.06007,0.3631
				c0.24709,0.08201,0.41217,0.31261,0.41217,0.59301c0,0.32944-0.26392,0.60909-0.61018,0.60909
				c-0.08202,0-0.18082-0.01611-0.24709-0.04906c-0.51064-0.21452-1.10435-0.39532-1.71382-0.39532
				c-0.74196,0-1.30199,0.26353-1.30199,1.00513c0,0.75846,0.54395,1.022,1.58202,1.36755
				c1.61497,0.54466,2.65344,1.00588,2.65344,2.58791c0,2.06008-1.77968,2.40634-2.98286,2.40634
				C131.9938,76.77428,131.05453,76.64249,130.19727,76.31306z"/>
			<path fill="#77777A" d="M144.85356,71.97767v0.33018c-0.03333,0.52783-0.3463,0.79137-0.85693,0.79137h-4.44992
				c0.13213,1.51543,0.79099,2.5535,2.43929,2.5535c0.57652,0,1.18633-0.13104,1.66438-0.29574
				c0.09883-0.0337,0.19768-0.08276,0.32944-0.08276c0.3298,0,0.54395,0.26429,0.54395,0.5769
				c0,0.28041-0.16473,0.46194-0.37921,0.54395c-0.59302,0.21377-1.43341,0.37921-2.27385,0.37921
				c-2.62048,0-3.87308-1.63181-3.87308-4.23583c0-2.71895,1.36789-4.25191,3.60916-4.25191
				C143.37035,68.28653,144.85356,69.24264,144.85356,71.97767z M143.32094,71.53331c0-1.38438-0.6263-2.12597-1.7471-2.12597
				c-1.3185,0-1.96127,1.02125-2.04362,2.66992h3.7739C143.32094,71.97767,143.32094,71.78002,143.32094,71.53331z"/>
			<path fill="#77777A" d="M154.42186,71.36858v4.61433c0,0.39604-0.32944,0.74159-0.74159,0.74159
				c-0.41179,0-0.74159-0.34555-0.74159-0.74159v-4.43277c0-0.93999-0.26355-2.06008-1.54909-2.06008
				c-1.12047,0-1.99419,0.95611-1.99419,2.83463v3.65823c0,0.39604-0.32944,0.74159-0.74162,0.74159
				c-0.41179,0-0.74159-0.34555-0.74159-0.74159v-6.95407c0-0.37921,0.31335-0.70865,0.70868-0.70865
				c0.34627,0,0.65921,0.27966,0.69215,0.62521l0.08238,0.69253c0.46156-0.72476,1.2361-1.36752,2.5381-1.36752
				C152.98845,68.27042,154.42186,68.91317,154.42186,71.36858z M151.01038,66.68764
				c-0.32947-0.18082-0.64241-0.39529-0.97221-0.39529c-0.14825,0-0.28004,0.04978-0.37885,0.11568
				c-0.41216,0.26353-0.5275,0.52708-0.70901,0.42824c-0.16473-0.08198-0.21414-0.41216,0.06622-0.85727
				c0.29649-0.44511,0.70865-0.67498,1.15376-0.67498c0.42827,0,0.79103,0.2138,1.15341,0.41145
				c0.29686,0.16544,0.64275,0.39532,0.98868,0.39532c0.14862,0,0.28036-0.03223,0.37921-0.09809
				c0.41177-0.28112,0.52745-0.54469,0.70865-0.44511c0.16473,0.08198,0.23062,0.49413-0.19765,1.02197
				c-0.28041,0.32944-0.6263,0.49417-1.022,0.49417C151.73586,67.08372,151.37309,66.88603,151.01038,66.68764z"/>
			<path fill="#77777A" d="M164.35329,76.09783c0,0.39608-0.34589,0.70865-0.74159,0.65961
				c-0.44473-0.04906-0.88983-0.16473-1.20319-0.44439c-0.21414-0.19839-0.29649-0.42899-0.32944-0.64275
				c-0.28,0.55932-0.98868,1.10397-2.2581,1.10397c-1.664,0-2.55421-0.9561-2.55421-2.45541
				c0-1.66476,1.03807-2.53885,3.52715-2.57108l1.16949-0.01683V70.8737c0-1.12009-0.70827-1.46635-1.64792-1.46635
				c-0.65921,0-1.33495,0.21451-1.87852,0.42828c-0.06589,0.03365-0.14824,0.03365-0.23059,0.03365
				c-0.3298,0-0.61018-0.26353-0.61018-0.61055c0-0.26354,0.18153-0.49413,0.41217-0.57686
				c0.89021-0.29652,1.8624-0.39533,2.47223-0.39533c1.79617,0,2.96605,0.79137,2.96605,2.43929v4.05427
				c0,0.42828,0.18152,0.59298,0.41249,0.65887C164.13914,75.52168,164.35329,75.78522,164.35329,76.09783z M161.94731,72.76979
				l-1.00554,0.01611c-1.20277,0.01608-2.12595,0.27966-2.12595,1.44953c0,0.90704,0.57686,1.41729,1.21965,1.41729
				c0.39532,0,1.91183-0.18082,1.91183-1.77896V72.76979z"/>
			<path fill="#77777A" d="M176.61531,76.09783c0,0.28112-0.19841,0.49488-0.46194,0.56078
				c-0.32947,0.08202-0.64279,0.11567-0.98904,0.11567c-1.28555,0-2.24127-0.46122-2.24127-2.15963v-5.10847h-0.59299
				c-0.29652,0-0.56044-0.24746-0.56044-0.54395c0-0.31261,0.26392-0.56003,0.56044-0.56003h0.59299v-1.54908
				c0-0.39533,0.32942-0.74235,0.74196-0.74235c0.41141,0,0.74159,0.34702,0.74159,0.74235v1.54908h1.43341
				c0.29649,0,0.56007,0.24742,0.56007,0.5432c0,0.31332-0.26358,0.56078-0.56007,0.56078h-1.43341v5.01038
				c0,0.79062,0.31261,1.12005,0.87338,1.12005c0.19765,0,0.39532-0.03291,0.6091-0.09809
				C176.2361,75.43896,176.61531,75.71933,176.61531,76.09783z"/>
			<path fill="#77777A" d="M179.20247,73.67612v-4.61504c0-0.39533,0.32944-0.74088,0.74088-0.74088
				c0.41287,0,0.74234,0.34555,0.74234,0.74088v4.43348c0,0.93928,0.26355,2.06008,1.54909,2.06008
				c1.1208,0,1.99419-0.95611,1.99419-2.83463v-3.65894c0-0.39533,0.32944-0.74088,0.74159-0.74088s0.74159,0.34555,0.74159,0.74088
				v6.95478c0,0.37921-0.31331,0.70865-0.70865,0.70865c-0.34555,0-0.65887-0.28041-0.69257-0.62667l-0.08197-0.69107
				c-0.46123,0.72477-1.23576,1.36752-2.53813,1.36752C180.63588,76.77428,179.20247,76.13153,179.20247,73.67612z"/>
			<path fill="#77777A" d="M196.24313,69.50618c0.56007-0.79066,1.3844-1.23576,2.3727-1.23576
				c2.01176,0,3.14868,1.54908,3.14868,4.31781c0,2.66917-1.12083,4.16922-3.09891,4.16922c-1.022,0-1.8624-0.41216-2.38951-1.15375
				v3.09887c0,0.39533-0.32944,0.74088-0.74159,0.74088c-0.41217,0-0.74159-0.34555-0.74159-0.74088V69.0113
				c0-0.3785,0.31331-0.69111,0.69252-0.69111c0.36238,0,0.65887,0.26354,0.69182,0.60909L196.24313,69.50618z M200.21469,72.47255
				c0-1.97807-0.70865-3.08204-1.96054-3.08204c-1.30237,0-2.04396,1.13763-2.04396,3.18089
				c0,1.96124,0.72551,3.06521,2.01031,3.06521C199.48991,75.6366,200.21469,74.49969,200.21469,72.47255z"/>
			<path fill="#77777A" d="M204.85608,75.04363v-9.2784c0-0.39533,0.32944-0.74159,0.74159-0.74159
				c0.4122,0,0.74164,0.34626,0.74164,0.74159v9.06464c0,0.67499,0.24742,0.85655,0.67494,0.85655
				c0.13254,0,0.2643-0.01612,0.39607-0.04982c0.32944-0.06586,0.6757,0.21452,0.6757,0.56078
				c0,0.27966-0.21376,0.51099-0.47731,0.54324c-0.26428,0.04977-0.51099,0.06586-0.74234,0.06586
				C205.69652,76.80648,204.85608,76.64249,204.85608,75.04363z"/>
			<path fill="#77777A" d="M217.38933,76.09783c0,0.39608-0.34552,0.70865-0.74159,0.65961
				c-0.44511-0.04906-0.88947-0.16473-1.20282-0.44439c-0.21448-0.19839-0.2972-0.42899-0.32944-0.64275
				c-0.28036,0.55932-0.98976,1.10397-2.25772,1.10397c-1.66476,0-2.55498-0.9561-2.55498-2.45541
				c0-1.66476,1.03809-2.53885,3.52716-2.57108l1.16986-0.01683V70.8737c0-1.12009-0.70863-1.46635-1.64864-1.46635
				c-0.65886,0-1.33385,0.21451-1.87851,0.42828c-0.06589,0.03365-0.1479,0.03365-0.23064,0.03365
				c-0.32942,0-0.6098-0.26353-0.6098-0.61055c0-0.26354,0.18156-0.49413,0.41287-0.57686
				c0.8895-0.29652,1.86169-0.39533,2.47153-0.39533c1.79654,0,2.96642,0.79137,2.96642,2.43929v4.05427
				c0,0.42828,0.18153,0.59298,0.41216,0.65887C217.17555,75.52168,217.38933,75.78522,217.38933,76.09783z M214.98373,72.76979
				l-1.00589,0.01611c-1.20282,0.01608-2.12598,0.27966-2.12598,1.44953c0,0.90704,0.57689,1.41729,1.21965,1.41729
				c0.39532,0,1.91222-0.18082,1.91222-1.77896V72.76979z"/>
			<path fill="#77777A" d="M225.94151,69.04495c0,0.0659,0,0.14787-0.01685,0.21377l-2.35657,7.84499
				c-0.4451,1.44952-1.08786,2.14209-2.98248,2.25773c-0.3463,0.01611-0.66034-0.26354-0.66034-0.6098
				c0-0.34627,0.29721-0.62592,0.62663-0.62592c0.79141,0,1.51689-0.19769,1.79655-1.15379l0.09955-0.32943
				c-0.44511,0-0.74231-0.1984-0.89021-0.65958l-2.24161-6.69049c-0.01611-0.06665-0.03294-0.14862-0.03294-0.23135
				c0-0.41145,0.32942-0.74088,0.72546-0.74088c0.32944,0,0.59299,0.21377,0.69182,0.51025l2.04326,6.44378l1.78043-6.42691
				c0.08197-0.29724,0.36238-0.52712,0.70863-0.52712C225.62819,68.32019,225.94151,68.64963,225.94151,69.04495z"/>
			<path fill="#77777A" d="M235.05446,71.97767v0.33018c-0.0322,0.52783-0.34552,0.79137-0.85652,0.79137h-4.44958
				c0.13174,1.51543,0.79137,2.5535,2.43929,2.5535c0.57689,0,1.18599-0.13104,1.664-0.29574
				c0.09885-0.0337,0.19839-0.08276,0.33018-0.08276c0.32944,0,0.5432,0.26429,0.5432,0.5769
				c0,0.28041-0.16399,0.46194-0.37921,0.54395c-0.59297,0.21377-1.43341,0.37921-2.27385,0.37921
				c-2.6201,0-3.8727-1.63181-3.8727-4.23583c0-2.71895,1.36827-4.25191,3.60916-4.25191
				C233.57202,68.28653,235.05446,69.24264,235.05446,71.97767z M233.5222,71.53331c0-1.38438-0.62592-2.12597-1.74672-2.12597
				c-1.3185,0-1.96124,1.02125-2.04326,2.66992h3.77315C233.5222,71.97767,233.5222,71.78002,233.5222,71.53331z"/>
			<path fill="#77777A" d="M242.01952,69.02884c0,0.41145-0.34555,0.74088-0.74162,0.72476h-0.14859
				c-0.79066,0-1.53226,0.42828-1.53226,2.22407v4.00524c0,0.39604-0.32944,0.74159-0.74159,0.74159
				c-0.4122,0-0.74162-0.34555-0.74162-0.74159V69.0113c0-0.3785,0.31261-0.69111,0.69182-0.69111
				c0.36313,0,0.65961,0.27966,0.69257,0.62521l0.06589,0.64275c0.32944-0.67498,0.84044-1.05419,1.36751-1.20281
				c0.36314-0.09881,0.67645-0.09881,0.90704,0.16473C241.95361,68.68186,242.01952,68.84731,242.01952,69.02884z"/>
			<path fill="#77777A" d="M251.36966,76.09783c0,0.39608-0.34702,0.70865-0.74234,0.65961
				c-0.44511-0.04906-0.89021-0.16473-1.20282-0.44439c-0.21448-0.19839-0.29649-0.42899-0.33015-0.64275
				c-0.27965,0.55932-0.98833,1.10397-2.25775,1.10397c-1.664,0-2.55351-0.9561-2.55351-2.45541
				c0-1.66476,1.03812-2.53885,3.52573-2.57108l1.17134-0.01683V70.8737c0-1.12009-0.7094-1.46635-1.64868-1.46635
				c-0.65886,0-1.33531,0.21451-1.87851,0.42828c-0.0659,0.03365-0.14787,0.03365-0.23134,0.03365
				c-0.32944,0-0.6091-0.26353-0.6091-0.61055c0-0.26354,0.18086-0.49413,0.41145-0.57686
				c0.89021-0.29652,1.8624-0.39533,2.47223-0.39533c1.79579,0,2.96713,0.79137,2.96713,2.43929v4.05427
				c0,0.42828,0.18082,0.59298,0.41144,0.65887C251.15443,75.52168,251.36966,75.78522,251.36966,76.09783z M248.96257,72.76979
				l-1.00443,0.01611c-1.20354,0.01608-2.12598,0.27966-2.12598,1.44953c0,0.90704,0.57689,1.41729,1.21893,1.41729
				c0.39604,0,1.91147-0.18082,1.91147-1.77896V72.76979z"/>
			<path fill="#77777A" d="M266.34952,72.52237c0,2.4876-1.18597,4.23508-3.60916,4.23508
				c-2.42172,0-3.60919-1.74747-3.60919-4.23508c0-2.48911,1.18747-4.23584,3.60919-4.23584
				C265.16354,68.28653,266.34952,70.03326,266.34952,72.52237z M264.80042,72.52237c0-1.91222-0.64273-3.11503-2.06006-3.11503
				c-1.4166,0-2.06009,1.20281-2.06009,3.11503c0,1.92829,0.64349,3.11423,2.06009,3.11423
				C264.15768,75.6366,264.80042,74.45066,264.80042,72.52237z"/>
			<path fill="#77777A" d="M275.93173,71.36858v4.61433c0,0.39604-0.33017,0.74159-0.74158,0.74159
				c-0.4122,0-0.74164-0.34555-0.74164-0.74159v-4.43277c0-0.93999-0.26352-2.06008-1.5498-2.06008
				c-1.12009,0-1.99417,0.95611-1.99417,2.83463v3.65823c0,0.39604-0.32944,0.74159-0.74088,0.74159
				c-0.41217,0-0.74234-0.34555-0.74234-0.74159v-6.95407c0-0.37921,0.31406-0.70865,0.70938-0.70865
				c0.34555,0,0.65961,0.27966,0.69183,0.62521l0.082,0.69253c0.46265-0.72476,1.23648-1.36752,2.53885-1.36752
				C274.49759,68.27042,275.93173,68.91317,275.93173,71.36858z"/>
			<path fill="#77777A" d="M279.74881,71.33492h3.72485c0.31259,0,0.57684,0.24742,0.57684,0.56078
				c0,0.32944-0.26425,0.57686-0.57684,0.57686h-3.72485c-0.31335,0-0.57687-0.24742-0.57687-0.57686
				C279.17194,71.58234,279.43546,71.33492,279.74881,71.33492z"/>
			<path fill="#77777A" d="M287.33316,75.04363v-9.2784c0-0.39533,0.32944-0.74159,0.74164-0.74159
				c0.41214,0,0.74158,0.34626,0.74158,0.74159v9.06464c0,0.67499,0.24744,0.85655,0.67572,0.85655
				c0.13177,0,0.26352-0.01612,0.39532-0.04982c0.32944-0.06586,0.67569,0.21452,0.67569,0.56078
				c0,0.27966-0.21448,0.51099-0.47806,0.54324c-0.26355,0.04977-0.51096,0.06586-0.74158,0.06586
				C288.17358,76.80648,287.33316,76.64249,287.33316,75.04363z"/>
			<path fill="#77777A" d="M294.00244,67.33043c-0.54395,0-0.9722-0.26354-0.9722-0.8895c0-0.62592,0.42825-0.87334,0.9722-0.87334
				s0.95612,0.24742,0.95612,0.87334C294.95856,67.06689,294.54639,67.33043,294.00244,67.33043z M294.72797,75.98291v-6.92184
				c0-0.39533-0.32944-0.74088-0.74164-0.74088c-0.41217,0-0.74161,0.34555-0.74161,0.74088v6.92184
				c0,0.39604,0.32944,0.74159,0.74161,0.74159C294.39853,76.7245,294.72797,76.37895,294.72797,75.98291z"/>
			<path fill="#77777A" d="M304.74283,71.36858v4.61433c0,0.39604-0.32944,0.74159-0.74161,0.74159
				c-0.41144,0-0.74158-0.34555-0.74158-0.74159v-4.43277c0-0.93999-0.26355-2.06008-1.5491-2.06008
				c-1.12085,0-1.99417,0.95611-1.99417,2.83463v3.65823c0,0.39604-0.32947,0.74159-0.74164,0.74159
				s-0.74161-0.34555-0.74161-0.74159v-6.95407c0-0.37921,0.31335-0.70865,0.70865-0.70865
				c0.34631,0,0.65964,0.27966,0.69183,0.62521l0.08276,0.69253c0.46191-0.72476,1.23648-1.36752,2.53809-1.36752
				C303.30942,68.27042,304.74283,68.91317,304.74283,71.36858z"/>
			<path fill="#77777A" d="M314.56226,71.97767v0.33018c-0.03296,0.52783-0.34631,0.79137-0.85657,0.79137h-4.44958
				c0.13177,1.51543,0.79065,2.5535,2.43857,2.5535c0.57687,0,1.18671-0.13104,1.66476-0.29574
				c0.09885-0.0337,0.19763-0.08276,0.32944-0.08276c0.32944,0,0.54395,0.26429,0.54395,0.5769
				c0,0.28041-0.16473,0.46194-0.37924,0.54395c-0.59299,0.21377-1.43344,0.37921-2.27386,0.37921
				c-2.62082,0-3.87341-1.63181-3.87341-4.23583c0-2.71895,1.36823-4.25191,3.60986-4.25191
				C313.07901,68.28653,314.56226,69.24264,314.56226,71.97767z M313.02924,71.53331c0-1.38438-0.62592-2.12597-1.74673-2.12597
				c-1.31848,0-1.96121,1.02125-2.04324,2.66992h3.7739C313.02924,71.97767,313.02924,71.78002,313.02924,71.53331z"/>
		</g>
	</g>
	<g>
		<path fill="#95D600" d="M72.29434,54.70201c-0.49616,1.62082-2.62946,3.1172-5.30851,3.72483c-0.00037,0-0.0011,0-0.0011,0
			c-1.10764,0.25038-2.24676,0.34259-3.38588,0.27381c-0.29576-0.02493-0.59592-0.06079-0.91693-0.11129l-0.04648-0.00584
			c-2.00554-0.22696-3.75193-0.99127-4.72596-1.62304c0.20316-0.02781,0.43154-0.06811,0.68923-0.1274
			c0.85839-0.19472,1.87926-0.54391,3.1337-1.07616c0.82983-0.36309,1.54432-0.75329,2.18087-1.19183
			c1.06994-0.61201,2.00957-1.31845,2.83975-1.94441c0.21047-0.15885,0.41399-0.31111,0.61311-0.45755
			c1.798-1.21819,3.08134-1.37629,3.98618-0.42168C72.27751,52.72612,72.5945,53.72323,72.29434,54.70201z"/>
		<path fill="#95D600" d="M8.06896,40.63011C5.73034,44.39557,5.141,49.12134,6.66887,51.87178
			c0.70535,1.26942,1.78005,1.91439,3.19333,1.91439h0.00075c0.46924,0,0.97953-0.07174,1.51651-0.21301
			c2.58679-0.68304,2.52056-2.03081,1.94805-5.82738c-0.19067-1.2665-0.40702-2.69972-0.44289-4.21151
			c-0.10139-0.93632-0.10578-1.93013-0.01391-3.03557c0.30054-3.16297,0.79504-4.63187,1.19952-5.43753
			c-1.30676,0.52086-3.61943,2.16807-5.30026,4.57989l-0.0271,0.03771C8.49652,40.00306,8.27616,40.31458,8.06896,40.63011z"/>
		<path fill="#95D600" d="M37.55284,74.36572c-0.91547,0-1.9404-0.35799-3.13332-1.09521l-0.16361-0.10247
			c-0.05675-0.03587-0.11384-0.07175-0.17205-0.10983l-0.42205-0.27966l0.0066-0.00731
			c-1.04505-0.74305-2.11938-1.72038-3.19993-2.91074c-0.168-0.18449-0.33236-0.37266-0.49563-0.56153
			c-0.68706-0.79722-1.37336-1.67574-2.03992-2.61426c-1.22223-1.71892-2.3683-3.62453-3.40676-5.66265
			c-3.54402-7.19051-5.23366-15.74104-4.76074-24.0813c0.48428-8.54011,3.23692-16.32615,7.75166-21.92402
			C32.76684,8.50707,40.41164,4.77309,48.49162,4.77309c8.18249,0,15.36347,3.75887,19.20983,10.05441
			c2.47224,4.37785,3.34379,9.40142,2.52861,14.54137c-1.46892,9.25936-8.08878,18.35785-18.64028,25.6201
			c-7.88964,5.43059-8.9929,10.154-9.79855,13.6021c-0.06916,0.29427-0.13359,0.56955-0.19877,0.83455l-0.00439,0.01758
			c-0.17936,0.72623-0.34004,1.25038-0.52195,1.70576C40.77728,71.9352,39.88415,74.36572,37.55284,74.36572z"/>
		<g>
			<path fill="#FFFFFF" d="M26.44315,22.86175c-0.17388,0-0.35031-0.03988-0.51614-0.1241
				c-0.56115-0.28551-0.78477-0.97181-0.49927-1.53334c0.96304-1.89351,2.08385-3.63844,3.33134-5.18534
				c2.8745-3.56448,6.57883-6.30798,10.71253-7.9339c0.58567-0.23101,1.24821,0.0578,1.47846,0.64346
				c0.23022,0.58604-0.05746,1.24821-0.64388,1.47846c-3.76618,1.48135-7.14512,3.9862-9.77183,7.24359
				c-1.14865,1.42389-2.18269,3.03448-3.07402,4.78743C27.25904,22.6337,26.85861,22.86175,26.44315,22.86175z"/>
		</g>
		<circle fill="#FFFFFF" cx="42.81945" cy="8.14911" r="1.15706"/>
		<g>
			<path fill="#FFFFFF" d="M66.12857,15.75179c-3.32767-5.42512-9.40874-8.77843-16.43305-9.12285
				c5.9284,1.4228,10.92157,4.8808,13.948,9.8348c2.59669,4.59784,3.51216,9.87359,2.65562,15.27195
				c-0.57944,3.65455-1.92391,7.28497-3.96385,10.79859c3.27716-4.30536,5.36543-8.86554,6.09274-13.45164
				C69.17696,24.36472,68.38155,19.75553,66.12857,15.75179z"/>
		</g>
		<path fill="#73A950" d="M69.08105,56.75257c-1.10691,0.25039-2.24639,0.34259-3.38551,0.27452
			c-0.29576-0.02489-0.59592-0.06151-0.9173-0.11128l-0.04649-0.00585c-1.31958-0.15008-2.52496-0.53151-3.47447-0.95611
			c-1.04066,0.42314-1.91146,0.71015-2.65857,0.87923c-0.25769,0.0593-0.48607,0.09959-0.68923,0.1274
			c0.97402,0.63177,2.72041,1.39608,4.72596,1.62304l0.04648,0.00584c0.32101,0.05049,0.62117,0.08636,0.91693,0.11129
			c1.13912,0.06878,2.27824-0.02343,3.38588-0.27381c0,0,0.00073,0,0.0011,0c2.06338-0.46782,3.79987-1.46418,4.71718-2.63769
			c-0.77053,0.41141-1.65964,0.74598-2.62086,0.96267L69.08105,56.75257z"/>
		<path fill="#FFFFFF" d="M12.70743,36.92833c0,0-1.55785,6.08069,0.19037,12.50416
			C11.03537,46.04878,9.78094,41.29925,12.70743,36.92833z"/>
		<g>
			<path fill="#4A7628" d="M14.77703,32.6043c-0.14311,0-0.29428,0.01466-0.4502,0.03808
				C8.77397,33.29465,1.57944,42.22826,3.2442,50.6558c1.70939,8.65027,11.21476,6.15093,12.30996,2.33678
				c0.62885-1.60178,0.32576-3.6128,0.02819-5.58652c-0.1918-1.27235-0.39019-2.58772-0.41913-3.97136l-0.0066-0.10357
				c-0.09041-0.80239-0.09442-1.66696-0.01428-2.63c0.35286-3.71974,0.94036-4.61763,1.22223-5.04955
				c0.2222-0.34008,0.55819-0.85363,0.30709-1.71783C16.43009,33.10139,15.72178,32.6043,14.77703,32.6043z M12.88461,43.53426
				c0.03587,1.51178,0.25222,2.94501,0.44289,4.21151c0.57251,3.79657,0.63874,5.14434-1.94805,5.82738
				c-0.53698,0.14127-1.04726,0.21301-1.51651,0.21301H9.8622c-1.41328,0-2.48798-0.64496-3.19333-1.91439
				c-1.52787-2.75043-0.93853-7.4762,1.40009-11.24166c0.2072-0.31553,0.42756-0.62705,0.6739-0.95135l0.0271-0.03771
				c1.68083-2.41182,3.99351-4.05903,5.30026-4.57989c-0.40447,0.80565-0.89898,2.27456-1.19952,5.43753
				C12.77883,41.60413,12.78322,42.59795,12.88461,43.53426z"/>
			<circle fill="#4A7628" cx="38.34204" cy="29.50421" r="2.10519"/>
			<circle fill="#4A7628" cx="57.10254" cy="35.48357" r="1.91842"/>
			<path fill="#4A7628" d="M71.99347,29.86961c1.078-6.79301-0.53207-13.23166-4.65697-18.62049
				C63.20646,5.85256,55.67958,2.5,47.69327,2.5c-12.86744,0-23.39952,8.19343-28.17417,21.91814
				c-5.83578,16.77496,0.06368,33.93843,6.88889,43.53896c2.46235,3.46422,5.07773,6.00745,7.46541,7.33909h-0.00075
				c0.0132,0.0066,0.02601,0.01395,0.03917,0.02051c0.46085,0.25477,0.9133,0.4649,1.35436,0.62595
				c2.61464,0.99194,4.96645,0.50291,6.85778-2.69189c0.05529-0.09078,0.10799-0.18227,0.15885-0.27527
				c0.00296-0.00585,0.00622-0.01023,0.00918-0.01537c0,0-0.00037,0-0.00075,0c0.63473-1.1596,0.9323-2.43053,1.23831-3.73946
				c0.77893-3.33392,1.7486-7.48336,9.05658-12.51349C63.5531,49.15868,70.44566,39.62753,71.99347,29.86961z M67.27428,15.28067
				c2.42063,4.2867,3.27386,9.14812,2.46748,14.23169c-0.77162,4.86284-3.00191,9.68142-6.48332,14.21261
				c-2.04909,2.41973-5.57335,4.02005-9.39298,4.31215C40.688,48.80581,31.85211,43.06063,26.46069,37.50998
				c-3.197-3.40053-5.51658-8.53389-3.41114-13.68482c1.21417-3.03962,2.80389-5.85081,4.78417-8.30656
				C39.2348,1.38137,59.70274,2.88615,67.27428,15.28067z M41.11185,69.53107c-0.00038,0.00146-0.00038,0.00146-0.00071,0.00292
				c-0.15008,0.60909-0.30567,1.15814-0.50624,1.66037c-0.91364,2.48685-2.45833,4.08062-5.98368,1.9034
				c-0.02927-0.01758-0.05967-0.03809-0.08932-0.05709c-0.07796-0.04906-0.15484-0.09516-0.2346-0.1479
				c0-0.00071,0.00071-0.00146,0.00071-0.00146c-1.04835-0.68814-2.24165-1.7028-3.53011-3.12158
				c-0.16507-0.18303-0.32685-0.36752-0.48829-0.55493c-0.65227-0.7555-1.32505-1.61055-2.01323-2.5791
				c-0.64714-0.91-1.28333-1.89831-1.90269-2.9437c0.71599,0.43851,1.5125,0.87627,2.38951,1.27966
				c2.62416,1.20573,5.30102,1.80824,7.95849,1.80824c1.00551,0,2.00809-0.08782,3.00408-0.26062l-0.00109,0.00146
				c1.88253-0.43192,2.11462,0.00146,1.83789,1.16256c0.00075,0,0.00109,0,0.00183,0
				c-0.08711,0.34919-0.16875,0.69182-0.24525,1.01904C41.24143,68.99004,41.177,69.26607,41.11185,69.53107z"/>
			<path fill="#4A7628" d="M73.01509,50.17993c-1.21799-1.29799-2.55882-1.79287-3.98455-1.46928
				c-1.25113,0.28404-2.36243,1.11934-3.64906,2.08789c-0.82506,0.62154-1.67867,1.26358-2.63879,1.80899l-0.0882,0.05562
				c-0.04944,0.03441-0.10251,0.06665-0.153,0.1003l0.00293,0.00146c-0.02635,0.01612-0.05161,0.03148-0.07763,0.04685
				c-0.21523,0.14056-0.44068,0.27599-0.68155,0.40556c-3.76509,2.11136-5.91779,1.31778-6.39693,2.62378
				c-0.42828,1.16695,0.73278,2.67064,2.12999,3.49499c1.44661,0.76281,3.27205,1.32505,4.87675,1.51028
				c0.37082,0.05783,0.72001,0.0988,1.06702,0.12812l0.02489,0.00146c1.35911,0.08344,2.71895-0.02564,4.04146-0.32505
				c0.00037,0,0.00037,0,0.0011,0c3.55793-0.80677,6.23423-2.82952,6.98497-5.28126
				C75.01621,53.60314,74.49753,51.76049,73.01509,50.17993z M72.29434,54.70201c-0.49616,1.62082-2.62946,3.1172-5.30851,3.72483
				c-0.00037,0-0.0011,0-0.0011,0c-1.10764,0.25038-2.24676,0.34259-3.38588,0.27381
				c-0.29576-0.02493-0.59592-0.06079-0.91693-0.11129l-0.04648-0.00584c-2.00554-0.22696-3.75193-0.99127-4.72596-1.62304
				c0.20316-0.02781,0.43154-0.06811,0.68923-0.1274c0.85839-0.19472,1.87926-0.54391,3.1337-1.07616
				c0.82983-0.36309,1.54432-0.75329,2.18087-1.19183c1.06994-0.61201,2.00957-1.31845,2.83975-1.94441
				c0.21047-0.15885,0.41399-0.31111,0.61311-0.45755c1.798-1.21819,3.08134-1.37629,3.98618-0.42168
				C72.27751,52.72612,72.5945,53.72323,72.29434,54.70201z"/>
			<path fill="#4A7628" d="M47.88177,40.59608c-2.24273,0.15192-3.87671-1.02639-3.87671-1.02639
				C45.05596,41.16345,46.20934,41.18467,47.88177,40.59608z"/>
		</g>
		<ellipse fill="#CECDCE" cx="38.34203" cy="84.99136" rx="7.87024" ry="2.50847"/>
		<path fill="#FF4C00" d="M27.73746,43.80845c-3.42212-2.49788-5.88117-5.21207-7.50312-7.33654
			c-0.54466,7.59423,0.72548,15.54557,3.73803,22.54278l0.01424-0.0139c0.02234,0.02343,2.25008,2.3207,5.79005,3.93129
			c4.56928,2.07838,9.12285,2.10622,13.53913,0.09225c1.35398-2.46786,3.66662-5.22852,7.9775-8.1964
			c2.24787-1.54687,4.30356-3.18164,6.17878-4.87933c-2.83132,0.4854-5.49064,0.70722-7.97311,0.70722
			C39.57522,50.6558,32.40412,47.21426,27.73746,43.80845z"/>
		<path fill="#FF4C00" d="M53.26041,36.79216c-0.25443-0.46707-0.80457-0.73099-1.59485-0.55051l0.00034-0.00292
			c-1.14862,0.25548-2.64099,0.17534-4.17796-0.30417c-1.53738-0.47989-2.81011-1.26249-3.60954-2.12597l-0.00109,0.00255
			c-0.99528-1.08715-2.1732-0.51685-2.4309,0.72221l-0.00109-0.00146c-0.0033,0.01537-0.00551,0.03149-0.00881,0.04719
			c-0.00217,0.01282-0.00476,0.02563-0.00694,0.03883c-0.2039,1.06882,0.28843,2.18523,1.24783,3.08497
			c0.00037-0.00034,0.00037-0.00034,0.00037-0.00034c2.69586,2.83462,7.41342,2.94149,9.55878,1.32689
			c0.19547-0.15484,0.36898-0.31699,0.5176-0.48428c0.02706-0.0322,0.05637-0.06297,0.08235-0.09592
			C53.2871,37.90093,53.46867,37.3105,53.26041,36.79216z"/>
		<path fill="#FFFFFF" d="M41.46179,51.52915c-0.89059-0.12737-1.7332,0.10398-2.41662,0.65302l0.00405-0.1391
			c0.02159-0.45826-0.31332-0.85213-0.7793-0.91874c-0.49196-0.07028-0.95026,0.27306-1.02016,0.76502l-1.40998,9.85455
			c-0.07283,0.51171,0.29724,1.00513,0.80857,1.07833c0.51138,0.07324,1.00517-0.2972,1.078-0.8082l0.37775-2.64061
			c0.48866,0.63398,1.22441,1.04468,2.11938,1.17204c2.1223,0.30384,3.57074-1.13617,3.97338-3.95104
			C44.61303,53.68294,43.61633,51.83737,41.46179,51.52915z M40.84723,53.19465c0.67424,0.09663,1.75441,0.61569,1.41291,3.0052
			c-0.35177,2.45905-1.55639,2.66111-2.24348,2.56227c-0.6929-0.09809-1.80494-0.61933-1.46489-2.9964
			C38.90536,53.2935,40.1415,53.09435,40.84723,53.19465z"/>
		<path fill="#CC3524" d="M23.09532,39.77506c-1.14461-1.17501-2.09888-2.30499-2.86097-3.30315
			c-0.54466,7.59423,0.72548,15.54557,3.73803,22.54278l0.01424-0.0139c0.02088,0.02197,1.97994,2.04254,5.14141,3.6216
			c-0.49158-0.80453-0.96926-1.63181-1.42059-2.49271C24.61183,54.02778,23.00307,46.87239,23.09532,39.77506z"/>
		<path fill="#73A950" d="M11.36079,51.35493h-0.00037c-1.41366,0-2.48798-0.64425-3.1937-1.91439
			c-1.34229-2.41661-1.04873-6.35649,0.62776-9.83206c-0.00768,0.01136-0.01683,0.02125-0.02451,0.03257l-0.0271,0.03771
			c-0.24634,0.3243-0.4667,0.63582-0.6739,0.95135C5.73034,44.39557,5.141,49.12134,6.66887,51.87178
			c0.70535,1.26942,1.78005,1.91439,3.19333,1.91439h0.00075c0.46924,0,0.97953-0.07174,1.51651-0.21301
			c0.19105-0.05053,0.36309-0.10544,0.52562-0.16399c0.04869-0.01758,0.09333-0.03662,0.13947-0.05491
			c0.11346-0.04468,0.22036-0.09153,0.31991-0.14131c0.04209-0.02122,0.08456-0.04247,0.12444-0.0644
			c0.11057-0.06151,0.21196-0.1274,0.30455-0.19693c0.01541-0.01173,0.0337-0.02197,0.04832-0.0337
			c0.10469-0.08344,0.19585-0.17351,0.27786-0.26939c0.02121-0.02489,0.03879-0.05274,0.05855-0.07834
			c0.05784-0.07541,0.11054-0.15446,0.15668-0.23865c0.01829-0.0337,0.03658-0.0681,0.05307-0.10323
			c0.04427-0.09225,0.08197-0.19034,0.11383-0.29356c0.00806-0.02564,0.01867-0.04978,0.02598-0.07616
			c0.03662-0.13321,0.06481-0.27523,0.08456-0.42678c0.0033-0.0271,0.00438-0.05637,0.00768-0.08419
			c0.01391-0.12886,0.02305-0.26358,0.02672-0.4056c0.00037-0.019,0.00037-0.0388,0.00075-0.05709
			c-0.22625,0.09588-0.48026,0.18082-0.77015,0.25694C12.34032,51.2839,11.83004,51.35493,11.36079,51.35493z"/>
		<path fill="#FFFFFF" d="M71.35233,51.74145c-0.90484-0.95461-2.18818-0.7965-3.98618,0.42168
			c-0.19912,0.14644-0.40264,0.2987-0.61311,0.45755c-0.48208,0.36313-1.00552,0.75261-1.56556,1.13621l-0.01208,0.01245
			c3.54181-2.50227,5.95255-2.14794,7.09772,0.9817c0.00547-0.01683,0.01608-0.03291,0.02122-0.04903
			C72.5945,53.72323,72.27751,52.72612,71.35233,51.74145z"/>
		<path fill="#73A950" d="M26.36369,63.69199c0.61936,1.04539,1.25555,2.0337,1.90269,2.9437
			c0.68818,0.96855,1.36096,1.8236,2.01323,2.5791c0.16144,0.18741,0.32321,0.3719,0.48829,0.55493
			c1.28847,1.41879,2.48176,2.43344,3.53011,3.12158c0,0-0.00071,0.00076-0.00071,0.00146
			c0.07977,0.05274,0.15664,0.09884,0.2346,0.1479c0.02965,0.019,0.06005,0.03951,0.08932,0.05709
			c3.52535,2.17722,5.07005,0.58345,5.98368-1.9034c0.20057-0.50223,0.35616-1.05128,0.50624-1.66037
			c0.00034-0.00146,0.00034-0.00146,0.00071-0.00292c0.0304-0.12373,0.06188-0.25845,0.09224-0.38727
			c-0.57101,2.27823-2.06192,3.67651-5.219,1.55129c-0.85472-0.64133-1.72551-1.42685-2.60182-2.36463
			c-0.16069-0.17133-0.31736-0.34555-0.47367-0.52052c-0.50219-0.56592-1.00112-1.18745-1.49417-1.83241
			c-0.8913-0.26939-1.78005-0.60029-2.66224-1.00588C27.87618,64.56826,27.07968,64.1305,26.36369,63.69199z"/>
	</g>
</g>
</svg>
