<?xml version="1.0" encoding="utf-8"?>
<!-- Generator: Adobe Illustrator 19.2.0, SVG Export Plug-In . SVG Version: 6.00 Build 0)  -->
<svg version="1.1" id="Layer_1" xmlns="http://www.w3.org/2000/svg" xmlns:xlink="http://www.w3.org/1999/xlink" x="0px" y="0px"
	 width="32px" height="21px" viewBox="0 0 32 21" style="enable-background:new 0 0 32 21;" xml:space="preserve">
<style type="text/css">
	.st0{fill:#F89A20;}
	.st1{fill:#CB2128;}
	.st2{fill:#FCB343;}
	.st3{fill:#27245E;}
	.st4{fill:#FFFFFF;}
</style>
<path class="st0" d="M31,10.5c0,5-4,9-9,9s-9-4-9-9v0c0-5,4-9,9-9S31,5.5,31,10.5L31,10.5z"/>
<path class="st1" d="M9.9,1.5c-5,0-9,4.1-8.9,9s4.1,9,9,8.9c2.2,0,4.3-0.8,6-2.3l0,0h0c0.3-0.3,0.6-0.6,0.9-1h-1.8
	c-0.2-0.3-0.5-0.6-0.7-0.9h3.2c0.2-0.3,0.4-0.6,0.5-1h-4.2c-0.1-0.3-0.3-0.6-0.4-0.9h5c0.5-1.5,0.6-3.2,0.3-4.8h-5.5
	c0.1-0.3,0.2-0.6,0.3-0.9h5c-0.1-0.3-0.2-0.6-0.4-1h-4.2c0.2-0.3,0.3-0.6,0.5-0.9h3.2c-0.2-0.3-0.4-0.7-0.7-1h-1.8
	c0.3-0.3,0.6-0.6,0.9-0.9C14.4,2.4,12.2,1.5,9.9,1.5C10,1.5,9.9,1.5,9.9,1.5z"/>
<path class="st2" d="M30.1,15.2c0,0,0.1,0,0.1,0c0,0,0.1,0.1,0.1,0.1c0.1,0.1,0.1,0.2,0,0.3c0,0-0.1,0.1-0.1,0.1
	c-0.1,0.1-0.2,0.1-0.3,0c0,0-0.1-0.1-0.1-0.1c-0.1-0.1-0.1-0.2,0-0.3c0,0,0.1-0.1,0.1-0.1C30,15.2,30,15.2,30.1,15.2 M30.1,15.2
	c0,0-0.1,0-0.1,0c0,0-0.1,0.1-0.1,0.1c0,0,0,0.1,0,0.1c0,0,0,0.1,0,0.1c0,0,0.1,0.1,0.1,0.1c0.1,0,0.2,0,0.2,0c0,0,0.1-0.1,0.1-0.1
	c0,0,0-0.1,0-0.1c0,0,0-0.1,0-0.1c0,0-0.1-0.1-0.1-0.1C30.2,15.3,30.1,15.2,30.1,15.2 M30,15.6v-0.3h0.1c0,0,0.1,0,0.1,0
	c0,0,0,0,0,0c0,0,0,0,0,0c0,0,0,0,0,0.1c0,0,0,0-0.1,0c0,0,0,0,0,0c0,0,0,0,0,0.1l0,0.1h-0.1l0,0c0,0,0-0.1-0.1-0.1c0,0,0,0,0,0h0
	L30,15.6L30,15.6 M30,15.5L30,15.5c0.1,0,0.1,0,0.1,0c0,0,0,0,0,0c0,0,0,0,0,0c0,0,0,0,0,0C30.1,15.4,30.1,15.4,30,15.5L30,15.5
	L30,15.5"/>
<path class="st3" d="M13,13.1l0.1-0.8c-0.1,0-0.2,0-0.2,0c-0.3,0-0.4-0.2-0.3-0.3l0.3-1.6h0.5l0.1-0.9h-0.5L13,8.9h-1
	c0,0-0.6,3.1-0.6,3.5c-0.1,0.4,0.2,0.7,0.6,0.8c0.1,0,0.1,0,0.2,0C12.5,13.2,12.7,13.2,13,13.1z"/>
<path class="st3" d="M13.3,11.5c-0.1,0.8,0.5,1.6,1.3,1.7c0.1,0,0.2,0,0.3,0c0.4,0,0.7,0,1.1-0.2l0.2-0.9c-0.3,0.1-0.7,0.2-1.1,0.2
	c-1,0-0.8-0.8-0.8-0.8l2,0c0.1-0.3,0.1-0.6,0.1-0.9c0.1-0.7-0.5-1.3-1.2-1.4c-0.1,0-0.1,0-0.2,0C14,9.3,13.3,10.4,13.3,11.5z
	 M14.9,10.2c0.5,0,0.4,0.6,0.4,0.7h-1.1C14.3,10.5,14.6,10.2,14.9,10.2z"/>
<path class="st3" d="M21,13.1l0.2-1c-0.2,0.1-0.5,0.2-0.8,0.2c-0.5,0-1-0.4-1-0.9c0,0,0-0.1,0-0.1c0-1.1,0.6-1.7,1.2-1.7
	c0.3,0,0.6,0.1,0.9,0.3l0.2-1c-0.3-0.2-0.6-0.3-1-0.3c-1.5,0-2.3,1-2.3,2.8c0,1.2,0.6,2,1.8,2C20.4,13.2,20.7,13.1,21,13.1z"/>
<path class="st3" d="M7.7,9.3c-0.4,0-0.8,0.1-1.2,0.2l-0.1,0.8c0.3-0.1,0.7-0.2,1-0.2c0.4,0,0.6,0,0.6,0.3c0,0.1,0,0.2,0,0.2
	c0,0-0.3,0-0.4,0c-0.9,0-1.7,0.4-1.7,1.4c-0.1,0.5,0.3,1,0.8,1c0,0,0.1,0,0.1,0c0.4,0,0.7-0.1,1-0.4l0,0.4h0.8L9,10.5
	c0-0.6-0.5-1.1-1.1-1.2C7.8,9.3,7.8,9.3,7.7,9.3z M7.8,11.5c0,0.2,0,0.9-0.6,0.9c-0.2,0-0.4-0.1-0.4-0.3c0,0,0,0,0,0
	c0-0.3,0.1-0.6,0.8-0.6C7.7,11.4,7.8,11.5,7.8,11.5z"/>
<path class="st3" d="M9.9,13.2c0.2,0,1.4,0.1,1.4-1.2c0-1.2-1.1-1-1.1-1.4c0-0.2,0.2-0.3,0.5-0.3c0.1,0,0.7,0,0.7,0l0.1-0.8
	c-0.3-0.1-0.6-0.1-0.9-0.1c-0.7,0-1.4,0.3-1.4,1.2c0,1.1,1.2,1,1.2,1.4c0,0.3-0.3,0.3-0.6,0.3c-0.3,0-0.6-0.1-0.8-0.1l-0.1,0.8
	C9.2,13.2,9.5,13.2,9.9,13.2z"/>
<path class="st3" d="M28.9,8.6l-0.2,1.3c-0.2-0.3-0.6-0.5-0.9-0.5c-1.1,0-1.6,1.1-1.6,2.3c0,0.8,0.4,1.6,1.2,1.6
	c0.3,0,0.7-0.1,0.9-0.4l0,0.3h0.9l0.7-4.5L28.9,8.6z M28.5,11.1c0,0.5-0.3,1.2-0.8,1.2c-0.3,0-0.5-0.3-0.5-0.7
	c0-0.7,0.3-1.2,0.8-1.2C28.3,10.3,28.5,10.5,28.5,11.1z"/>
<path class="st3" d="M2.5,13.1l0.6-3.4l0.1,3.4h0.7l1.2-3.4l-0.5,3.4h1l0.8-4.6l-1.6,0l-0.9,2.8l0-2.8H2.3l-0.8,4.6L2.5,13.1
	L2.5,13.1z"/>
<path class="st3" d="M17.3,13.1c0.3-1.6,0.4-2.8,1.2-2.6c0.1-0.5,0.3-1,0.5-1.4c-0.1-0.1-0.2-0.1-0.3-0.1c-0.4,0-1,0.9-1,0.9
	l0.1-0.5h-0.9l-0.6,3.7L17.3,13.1C17.3,13.1,17.3,13.1,17.3,13.1z"/>
<path class="st3" d="M23,9.3c-0.4,0-0.8,0.1-1.2,0.2l-0.1,0.8c0.3-0.1,0.7-0.2,1-0.2c0.4,0,0.6,0,0.6,0.3c0,0.1,0,0.2,0,0.2
	c0,0-0.3,0-0.4,0c-0.9,0-1.7,0.4-1.7,1.4c-0.1,0.5,0.3,1,0.8,1c0,0,0.1,0,0.1,0c0.4,0,0.7-0.1,1-0.4l0,0.4h0.8l0.4-2.6
	c0-0.6-0.5-1.1-1.1-1.2C23.1,9.3,23.1,9.3,23,9.3z M23.1,11.5c0,0.2,0,0.9-0.6,0.9c-0.2,0-0.4-0.1-0.4-0.3c0,0,0,0,0,0
	c0-0.3,0.1-0.6,0.8-0.6C23,11.4,23.1,11.5,23.1,11.5z"/>
<path class="st3" d="M25.3,13.1c0.2-1.2,0.4-2.8,1.2-2.6c0.1-0.6,0-0.6-0.2-0.6c-0.2,0-0.3,0-0.5,0l0.1-0.5h-0.9l-0.6,3.7L25.3,13.1
	C25.3,13.1,25.3,13.1,25.3,13.1z"/>
<path class="st4" d="M13.2,12.8l0.1-0.8c-0.1,0-0.2,0-0.2,0c-0.3,0-0.4-0.2-0.3-0.3L13,10h0.5l0.1-0.9h-0.5l0.1-0.6h-1
	c0,0-0.6,3.1-0.6,3.5c-0.1,0.4,0.2,0.7,0.6,0.8c0.1,0,0.1,0,0.2,0C12.7,12.9,13,12.9,13.2,12.8z"/>
<path class="st4" d="M13.5,11.2c-0.1,0.8,0.5,1.6,1.3,1.7c0.1,0,0.2,0,0.3,0c0.3,0,0.7,0,1-0.2l0.2-0.9c-0.3,0.1-0.7,0.2-1,0.2
	c-1,0-0.8-0.8-0.8-0.8h1.9c0.1-0.3,0.1-0.6,0.1-0.9c0.1-0.7-0.5-1.3-1.2-1.4c-0.1,0-0.1,0-0.2,0C14.2,9,13.5,10.1,13.5,11.2z
	 M15.2,9.9c0.5,0,0.4,0.6,0.4,0.7h-1.1C14.6,10.2,14.8,9.9,15.2,9.9z"/>
<path class="st4" d="M21.2,12.8l0.2-1c-0.2,0.1-0.5,0.2-0.8,0.2c-0.5,0-1-0.4-1-0.9c0,0,0-0.1,0-0.1c0-1.1,0.6-1.7,1.2-1.7
	c0.3,0,0.6,0.1,0.9,0.3l0.2-1c-0.3-0.1-0.7-0.2-1.1-0.2c-1.1,0-2.2,1-2.2,2.8c0,1.2,0.6,2,1.7,2C20.7,12.9,21,12.9,21.2,12.8z"/>
<path class="st4" d="M8,9C7.6,9,7.2,9.1,6.8,9.3l-0.1,0.8C7,10,7.3,9.9,7.7,9.9c0.4,0,0.6,0,0.6,0.3c0,0.1,0,0.2,0,0.2
	c0,0-0.3,0-0.4,0c-0.8,0-1.7,0.4-1.7,1.4c-0.1,0.5,0.3,1,0.8,1c0,0,0.1,0,0.1,0c0.4,0,0.7-0.2,1-0.4l0,0.4h0.8l0.4-2.6
	c0-0.6-0.5-1.1-1.1-1.2C8.1,9,8,9,8,9z M8.2,11.2c0,0.2-0.1,0.9-0.7,0.9c-0.2,0-0.4-0.1-0.4-0.3c0,0,0,0,0,0c0-0.3,0.1-0.6,0.8-0.6
	C8,11.2,8.1,11.2,8.2,11.2z"/>
<path class="st4" d="M10.2,12.9c0.2,0,1.4,0.1,1.4-1.2c0-1.2-1.1-1-1.1-1.4c0-0.2,0.2-0.3,0.5-0.3c0.1,0,0.7,0,0.7,0l0.1-0.8
	c-0.3-0.1-0.6-0.1-0.9-0.1c-0.7,0-1.4,0.3-1.4,1.2c0,1.1,1.2,1,1.2,1.4c0,0.3-0.3,0.3-0.6,0.3c-0.3,0-0.6-0.1-0.8-0.1l-0.1,0.8
	C9.4,12.9,9.8,12.9,10.2,12.9z"/>
<path class="st4" d="M29.2,8.3L29,9.6c-0.2-0.3-0.6-0.5-0.9-0.5c-0.9,0-1.6,1.1-1.6,2.3c0,0.8,0.4,1.6,1.2,1.6
	c0.3,0,0.7-0.1,0.9-0.4l0,0.3h0.9l0.7-4.5L29.2,8.3z M28.7,10.8c0,0.5-0.2,1.2-0.8,1.2c-0.3,0-0.5-0.3-0.5-0.7
	c0-0.7,0.3-1.2,0.8-1.2C28.5,10,28.7,10.2,28.7,10.8z"/>
<path class="st4" d="M2.8,12.8l0.6-3.4l0.1,3.4h0.7l1.2-3.4l-0.5,3.4h1l0.8-4.6H5l-0.9,2.8l0-2.8H2.6l-0.8,4.6L2.8,12.8L2.8,12.8z"
	/>
<path class="st4" d="M17.5,12.8c0.3-1.6,0.3-2.9,1-2.6c0.1-0.4,0.2-0.8,0.4-1.1c-0.1,0-0.1,0-0.2,0c-0.3,0.1-0.6,0.3-0.7,0.6L18,9.1
	h-0.9l-0.6,3.7H17.5L17.5,12.8z"/>
<path class="st4" d="M23.4,9c-0.4,0-0.8,0.1-1.2,0.2l-0.1,0.8c0.3-0.1,0.7-0.2,1-0.2c0.4,0,0.6,0,0.6,0.3c0,0.1,0,0.2,0,0.2
	c0,0-0.3,0-0.4,0c-0.8,0-1.7,0.4-1.7,1.4c-0.1,0.5,0.3,1,0.8,1c0,0,0.1,0,0.1,0c0.4,0,0.7-0.2,1-0.4l0,0.4h0.8l0.4-2.6
	c0-0.6-0.5-1.1-1.1-1.2C23.6,9,23.5,9,23.4,9z M23.7,11.2c0,0.2-0.1,0.9-0.7,0.9c-0.2,0-0.4-0.1-0.4-0.3c0,0,0,0,0,0
	c0-0.3,0.1-0.6,0.8-0.6C23.5,11.2,23.6,11.2,23.7,11.2z"/>
<path class="st4" d="M25.5,12.8c0.3-1.6,0.3-2.9,1-2.6c0.1-0.4,0.2-0.8,0.4-1.1c-0.1,0-0.1,0-0.2,0c-0.3,0.1-0.6,0.3-0.7,0.6L26,9.1
	h-0.9l-0.6,3.7C24.5,12.8,25.5,12.8,25.5,12.8z"/>
<path class="st4" d="M30.1,12.3c0,0,0.1,0,0.1,0c0,0,0.1,0.1,0.1,0.1c0.1,0.1,0.1,0.2,0,0.3c0,0-0.1,0.1-0.1,0.1
	c-0.1,0.1-0.2,0.1-0.3,0c0,0-0.1-0.1-0.1-0.1c-0.1-0.1-0.1-0.2,0-0.3c0,0,0.1-0.1,0.1-0.1C30,12.3,30,12.3,30.1,12.3 M30.1,12.3
	c0,0-0.1,0-0.1,0c0,0-0.1,0.1-0.1,0.1c0,0.1,0,0.2,0,0.2c0,0,0.1,0.1,0.1,0.1c0.1,0,0.2,0,0.2,0c0,0,0.1-0.1,0.1-0.1
	c0-0.1,0-0.2,0-0.2c0,0-0.1-0.1-0.1-0.1C30.2,12.3,30.1,12.3,30.1,12.3 M30,12.7v-0.3h0.1c0,0,0.1,0,0.1,0c0,0,0,0,0,0c0,0,0,0,0,0
	c0,0,0,0,0,0.1c0,0,0,0-0.1,0c0,0,0,0,0,0c0,0,0,0,0,0.1l0,0.1h-0.1l0,0c0,0,0-0.1-0.1-0.1c0,0,0,0,0,0h0L30,12.7L30,12.7 M30,12.5
	L30,12.5c0.1,0,0.1,0,0.1,0c0,0,0,0,0,0c0,0,0,0,0,0c0,0,0,0,0,0C30.1,12.5,30.1,12.5,30,12.5L30,12.5L30,12.5"/>
<g>
</g>
<g>
</g>
<g>
</g>
<g>
</g>
<g>
</g>
<g>
</g>
</svg>
