<?xml version="1.0" encoding="utf-8"?>
<!-- Generator: Adobe Illustrator 19.2.0, SVG Export Plug-In . SVG Version: 6.00 Build 0)  -->
<svg version="1.1" id="Layer_1" xmlns="http://www.w3.org/2000/svg" xmlns:xlink="http://www.w3.org/1999/xlink" x="0px" y="0px"
	 width="63px" height="30px" viewBox="0 0 63 30" style="enable-background:new 0 0 63 30;" xml:space="preserve">
<style type="text/css">
	.st0{fill:#F0A929;}
	.st1{fill:#FFFFFF;}
	.st2{fill:#E21C2A;}
</style>
<g transform="translate(-26.7 -466)">
	<path class="st0" d="M28.6,469.1c0-1,0.8-1.8,1.8-1.8h55.4c1,0,1.8,0.8,1.8,1.8v23.6c0,1-0.8,1.8-1.8,1.8H30.5
		c-1,0-1.8-0.8-1.8-1.8V469.1L28.6,469.1z"/>
	<path class="st1" d="M28.6,470h59.1v21.9H28.6L28.6,470L28.6,470z"/>
	<path class="st2" d="M78.7,475.7c-2.7,0-4.9,2.2-4.9,4.9c0,2.7,2.2,4.9,4.9,4.9c2.7,0,4.9-2.2,4.9-4.9
		C83.7,477.9,81.4,475.7,78.7,475.7L78.7,475.7z"/>
	<path class="st2" d="M38.3,475.7c-2.7,0-4.9,2.2-4.9,4.9c0,2.7,2.2,4.9,4.9,4.9c2.7,0,4.9-2.2,4.9-4.9
		C43.2,477.9,41,475.7,38.3,475.7z"/>
	<path class="st2" d="M78.4,471.3c-4.5-0.1-6.7,2.8-9.8,6.4l-2.9,3.4l4.6,5.5c1.1,1.7-1,3.4-2.3,1.8l-4.3-5.1l-4.2,4.8
		c-1.3,1.5-3.4-0.2-2.3-1.9l4.5-5.3l-3-3.5l1.9-2.4l3,3.6l2.6-3c1.3-1.5,2.6-3.5,4.3-4.5h-42v19.2h9.8c4.5,0,6.6-2.7,9.6-6.4
		l2.8-3.5l-4.8-5.4c-1.1-1.7,0.9-3.4,2.3-1.9l4.4,5l4.1-4.9c1.3-1.6,3.4,0.1,2.3,1.8l-4.4,5.4l3,3.5l-1.9,2.3l-3-3.4l-2.5,3.1
		c-1.2,1.5-2.5,3.4-4.2,4.5h41.6v-19.2H78.4z M46,480.6c0,4.3-3.5,7.8-7.8,7.8c-4.3,0-7.8-3.5-7.8-7.8c0-4.3,3.5-7.8,7.8-7.8
		C42.5,472.8,46,476.3,46,480.6z M78.7,488.3c-4.3,0-7.8-3.5-7.8-7.8c0-4.3,3.5-7.8,7.8-7.8c4.3,0,7.8,3.5,7.8,7.8
		C86.5,484.8,83,488.3,78.7,488.3z"/>
</g>
</svg>
