<?xml version="1.0" encoding="utf-8"?>
<!-- Generator: Adobe Illustrator 21.0.0, SVG Export Plug-In . SVG Version: 6.00 Build 0)  -->
<svg version="1.1" id="Layer_1" xmlns="http://www.w3.org/2000/svg" xmlns:xlink="http://www.w3.org/1999/xlink" x="0px" y="0px"
	 width="127px" height="30px" viewBox="0 0 127 30" style="enable-background:new 0 0 127 30;" xml:space="preserve">
<style type="text/css">
	.st0{fill:#F0A929;}
	.st1{fill:#FFFFFF;}
	.st2{fill:#E21C2A;}
	.st3{fill:#215382;}
</style>
<g transform="translate(-26.7 -466)">
	<path class="st0" d="M28.6,469.10001c0-1,0.8-1.79999,1.8-1.79999h55.4c1,0,1.8,0.79999,1.8,1.79999v23.60001
		c0,1-0.8,1.79999-1.8,1.79999H30.5c-1,0-1.8-0.79999-1.8-1.79999v-23.60001H28.6z"/>
	<path class="st1" d="M28.6,470h59.1v21.89999H28.6V470L28.6,470z"/>
	<path class="st2" d="M78.7,475.70001c-2.7,0-4.9,2.20001-4.9,4.89999c0,2.70001,2.2,4.89999,4.9,4.89999
		c2.7,0,4.9-2.20001,4.9-4.89999C83.7,477.89999,81.4,475.70001,78.7,475.70001L78.7,475.70001z"/>
	<path class="st2" d="M38.3,475.70001c-2.7,0-4.9,2.20001-4.9,4.89999c0,2.70001,2.2,4.89999,4.9,4.89999s4.9-2.20001,4.9-4.89999
		C43.2,477.89999,41,475.70001,38.3,475.70001z"/>
	<path class="st2" d="M78.4,471.29999c-4.5-0.10001-6.7,2.79999-9.8,6.39999l-2.9,3.39999l4.6,5.5
		c1.1,1.70001-1,3.39999-2.3,1.79999l-4.3-5.10001l-4.2,4.79999c-1.3,1.5-3.4-0.20001-2.3-1.89999l4.5-5.29999l-3-3.5l1.9-2.39999
		l3,3.60001l2.6-3c1.3-1.5,2.6-3.5,4.3-4.5h-42v19.20001h9.8c4.5,0,6.6-2.70001,9.6-6.39999l2.8-3.5L45.9,475
		c-1.1-1.70001,0.9-3.39999,2.3-1.89999l4.4,5l4.1-4.89999C58,471.60001,60.1,473.30002,59,475l-4.4,5.39999l3,3.5l-1.9,2.29999
		l-3-3.39999l-2.5,3.10001c-1.2,1.5-2.5,3.39999-4.2,4.5h41.59999v-19.20001H78.4V471.29999z M46,480.60001
		c0,4.29999-3.5,7.79999-7.8,7.79999s-7.8-3.5-7.8-7.79999s3.5-7.79999,7.8-7.79999C42.5,472.79999,46,476.29999,46,480.60001z
		 M78.7,488.29999c-4.3,0-7.8-3.5-7.8-7.79999s3.5-7.79999,7.8-7.79999s7.8,3.5,7.8,7.79999S83,488.29999,78.7,488.29999z"/>
</g>
<rect id="XMLID_11_" x="66.8866" y="1.29756" class="st3" width="1.14968" height="27.3049"/>
<g id="XMLID_2_">
	<g>
		<path id="XMLID_30_" class="st3" d="M79.48518,5.46515h7.23341c1.05387,0,2.01194,0.09581,2.82629,0.33532
			c0.81435,0.23952,1.48501,0.57484,1.96404,1.05387c0.47903,0.47903,0.81435,1.05387,0.95806,1.77242
			c0.14371,0.71855,0.09581,1.53291-0.14371,2.49097v0.0479c-0.28742,0.95807-0.67065,1.82033-1.24549,2.53888
			c-0.57484,0.76645-1.24549,1.3892-2.01194,1.86823c-0.76646,0.52694-1.67661,0.86226-2.63468,1.14968
			c-0.95807,0.23952-2.01194,0.38323-3.06581,0.38323h-1.72453l-1.19758,4.3592h-5.36517L79.48518,5.46515z M84.1318,13.32129
			c0.67065,0,1.29339-0.14371,1.77242-0.43113c0.52694-0.28742,0.81435-0.71855,1.00597-1.34129v-0.0479
			c0.14371-0.57484,0.0958-1.00597-0.23952-1.34129c-0.33532-0.28742-0.81435-0.43113-1.53291-0.43113h-1.4371l-1.00597,3.59275
			C82.69469,13.32129,84.1318,13.32129,84.1318,13.32129z"/>
		<path id="XMLID_29_" class="st3" d="M98.69441,5.36934h5.31728l2.29936,16.19133h-5.84422l-0.23952-2.15565h-5.60468
			l-1.4371,2.15565h-5.7484L98.69441,5.36934z M99.9399,15.57275l-0.38322-3.92807l-2.53888,3.92807H99.9399z"/>
		<path id="XMLID_28_" class="st3" d="M109.90379,15.86017l-3.20953-10.39502h6.03583l1.29339,5.26937l4.21549-5.26937h5.94001
			l-8.91003,10.29922l-1.58081,5.7484h-5.36517L109.90379,15.86017z"/>
	</g>
</g>
<g>
	<g>
		<g id="Conekta_9_">
			<g id="Logotipo_9_">
				<path class="st3" d="M97.97587,27.26116c0.0479,0,0.0479,0,0.0479,0.0479l0.1916,0.19161
					c-0.0958,0.14371-0.23951,0.23952-0.38322,0.28742c-0.14371,0.09581-0.33532,0.09581-0.57484,0.09581
					c-0.19161,0-0.38323-0.0479-0.52694-0.09581c-0.14371-0.0479-0.28742-0.14371-0.43113-0.28742
					c-0.0958-0.14371-0.19161-0.28742-0.23952-0.43113c-0.0479-0.14371-0.0958-0.33532-0.0958-0.52694
					c0-0.19161,0.0479-0.38323,0.0958-0.57484c0.0479-0.14371,0.14371-0.28742,0.28742-0.43113
					c0.14371-0.14371,0.28742-0.19161,0.43113-0.28742c0.19161-0.0479,0.33532-0.09581,0.57484-0.09581
					c0.19161,0,0.38323,0.0479,0.52694,0.09581c0.14371,0.0479,0.28742,0.14371,0.38323,0.23952l-0.19161,0.23952
					c0,0,0,0.0479-0.0479,0.0479h-0.0479c-0.04791,0-0.04791,0-0.09581-0.0479c-0.0479,0-0.0479-0.0479-0.0958-0.09581
					c-0.0479-0.0479-0.09581-0.0479-0.19161-0.09581c-0.0479,0-0.14371-0.0479-0.28742-0.0479c-0.14371,0-0.23952,0-0.33532,0.0479
					c-0.09581,0.0479-0.19161,0.09581-0.28742,0.19161c-0.09581,0.09581-0.14371,0.19161-0.19161,0.28742
					c-0.0479,0.09581-0.0479,0.23952-0.0479,0.38323c0,0.14371,0,0.28742,0.0479,0.38323
					c0.0479,0.09581,0.0958,0.23952,0.19161,0.28742c0.0958,0.09581,0.14371,0.14371,0.23951,0.19161
					c0.09581,0.0479,0.19161,0.0479,0.33533,0.0479c0.0479,0,0.14371,0,0.19161,0s0.0958,0,0.14371-0.0479
					c0.0479,0,0.0958-0.0479,0.14371-0.0479c0.0479-0.0479,0.0958-0.0479,0.14371-0.09581
					C97.88006,27.30906,97.88006,27.30906,97.97587,27.26116C97.92796,27.26116,97.92796,27.26116,97.97587,27.26116z"/>
				<path class="st3" d="M101.18539,26.59052c0,0.19161-0.0479,0.38323-0.0958,0.52694
					c-0.04791,0.14371-0.14371,0.33532-0.28743,0.43113c-0.0958,0.14371-0.28742,0.23952-0.43112,0.28742
					c-0.19161,0.0479-0.33533,0.09581-0.57484,0.09581c-0.19161,0-0.38323-0.0479-0.57484-0.09581
					c-0.1916-0.0479-0.33532-0.14371-0.43112-0.28742c-0.14371-0.14371-0.19161-0.28742-0.28742-0.43113
					c-0.04791-0.14371-0.09581-0.33532-0.09581-0.52694c0-0.19161,0.0479-0.38323,0.09581-0.52694
					c0.0479-0.14371,0.14371-0.33532,0.28742-0.43113c0.14371-0.14371,0.28742-0.23952,0.43112-0.28742
					c0.19161-0.0479,0.33533-0.09581,0.57484-0.09581c0.1916,0,0.38322,0.0479,0.57484,0.09581s0.33532,0.14371,0.43112,0.28742
					c0.09581,0.14371,0.19161,0.28742,0.28743,0.43113C101.18539,26.20729,101.18539,26.351,101.18539,26.59052z
					 M100.70635,26.59052c0-0.14371,0-0.28742-0.0479-0.38323c-0.0479-0.09581-0.0958-0.19161-0.19161-0.28742
					c-0.0958-0.09581-0.14371-0.14371-0.28742-0.19161c-0.0958-0.0479-0.23952-0.0479-0.33532-0.0479
					c-0.14371,0-0.23952,0-0.33533,0.0479c-0.0958,0.0479-0.1916,0.09581-0.28742,0.19161
					c-0.0958,0.09581-0.14371,0.19161-0.1916,0.28742c-0.04791,0.09581-0.04791,0.23952-0.04791,0.38323
					c0,0.14371,0,0.28742,0.04791,0.38323c0.0479,0.09581,0.0958,0.19161,0.1916,0.28742
					c0.09581,0.09581,0.14371,0.14371,0.28742,0.19161c0.09581,0.0479,0.23952,0.0479,0.33533,0.0479
					c0.14371,0,0.23952,0,0.33532-0.0479s0.19161-0.09581,0.28742-0.19161s0.14371-0.19161,0.19161-0.28742
					C100.65845,26.83003,100.70635,26.73422,100.70635,26.59052z"/>
				<path class="st3" d="M101.90394,25.24922C101.95184,25.24922,101.95184,25.24922,101.90394,25.24922
					c0.0479,0,0.0479,0.0479,0.0958,0.0479c0,0,0,0.0479,0.0479,0.0479l1.4371,1.77242c0-0.0479,0-0.09581,0-0.14371
					c0-0.0479,0-0.09581,0-0.09581v-1.62871h0.43113v2.63469h-0.23952c-0.04791,0-0.09581,0-0.09581,0
					c-0.0479,0-0.0479-0.0479-0.0958-0.0479l-1.4371-1.77242c0,0.0479,0,0.09581,0,0.09581c0,0.0479,0,0.09581,0,0.09581v1.62871
					h-0.43112v-2.68259h0.28742C101.90394,25.24922,101.90394,25.24922,101.90394,25.24922z"/>
				<path class="st3" d="M106.11943,25.24922v0.38323h-1.19759V26.351h0.95807v0.38323h-0.95807v0.76645h1.19759v0.38323h-1.72453
					v-2.68259h1.72453V25.24922z"/>
				<path class="st3" d="M107.0775,26.351h0.0958c0.0479,0,0.09581,0,0.09581,0c0.0479,0,0.0479-0.0479,0.0958-0.0479
					l0.76646-0.95807c0.0479-0.0479,0.0479-0.0479,0.0958-0.09581c0.0479,0,0.09581,0,0.14371,0h0.43112l-0.91016,1.10178
					c-0.0479,0.0479-0.0479,0.0479-0.0958,0.09581c-0.04791,0-0.04791,0.0479-0.09581,0.0479
					c0.0479,0,0.09581,0.0479,0.09581,0.0479c0.0479,0.0479,0.0479,0.0479,0.0958,0.09581l0.95807,1.24549h-0.43113
					c-0.0479,0-0.0958,0-0.14371-0.0479c-0.0479,0-0.0479-0.0479-0.0958-0.09581l-0.76646-1.00597
					c-0.0479-0.0479-0.0479-0.0479-0.0958-0.0479c-0.0479,0-0.09581,0-0.14371,0h-0.14371v1.19758h-0.52694v-2.68259h0.52694V26.351
					H107.0775z"/>
				<path class="st3" d="M111.24509,25.24922v0.43113h-1.00597v2.20355h-0.52694v-2.25146h-0.86226l0.33532-0.43113h2.05985
					V25.24922z"/>
				<path class="st3" d="M113.40073,27.88391h-0.38322c-0.0479,0-0.09581,0-0.09581-0.0479c-0.0479,0-0.0479-0.0479-0.0479-0.09581
					l-0.19161-0.52694h-1.10178l-0.19161,0.52694c0,0.0479-0.0479,0.0479-0.0479,0.09581c-0.0479,0-0.0479,0.0479-0.0958,0.0479
					h-0.38323l1.05387-2.68259h0.52695L113.40073,27.88391z M111.67622,26.87794h0.86226l-0.33532-0.91016
					c0-0.0479-0.04791-0.09581-0.04791-0.14371c0-0.0479-0.0479-0.09581-0.0479-0.19161c0,0.0479-0.0479,0.14371-0.0479,0.19161
					c0,0.0479-0.0479,0.09581-0.0479,0.14371L111.67622,26.87794z"/>
			</g>
			<g id="Símbolo_9_">
				<g>
					<polygon class="st3" points="115.65219,27.7881 114.74203,26.59052 115.65219,25.34503 116.22703,26.15939 115.93961,26.59052 
						116.22703,26.97374 					"/>
				</g>
				<polygon class="st3" points="116.41865,28.60246 117.95155,26.59052 116.41865,24.53067 115.26896,24.53067 116.75397,26.59052 
					115.26896,28.60246 				"/>
			</g>
		</g>
		<g>
			<path class="st3" d="M75.07807,28.45875l0.28742-2.49097h0.23952c0.0479,0,0.0958,0,0.0958,0.0479
				c0.04791,0,0.04791,0.0479,0.04791,0.09581c0,0,0,0,0,0.0479s0,0.0479,0,0.09581s0,0.09581,0,0.19161
				c0.0958-0.14371,0.1916-0.23952,0.28742-0.33532c0.0958-0.09581,0.23952-0.09581,0.33532-0.09581s0.14371,0,0.19161,0.0479
				c0.0479,0.0479,0.0958,0.0479,0.14371,0.14371c0.0479,0.0479,0.09581,0.14371,0.09581,0.23952
				c0.0479,0.09581,0.0479,0.19161,0.0479,0.28742s0,0.19161-0.0479,0.28742c0,0.09581-0.04791,0.19161-0.09581,0.28742
				c-0.0479,0.09581-0.0958,0.19161-0.14371,0.23952c-0.0479,0.09581-0.09581,0.14371-0.19161,0.19161
				c-0.0479,0.0479-0.14371,0.09581-0.23952,0.14371c-0.0958,0.0479-0.14371,0.0479-0.23952,0.0479s-0.14371,0-0.23952-0.0479
				c-0.0479-0.0479-0.14371-0.0479-0.19161-0.14371l-0.0958,0.76645h-0.28743V28.45875z M76.22775,26.30309
				c-0.0479,0-0.0958,0-0.14371,0.0479s-0.0958,0.09581-0.14371,0.14371c-0.0479,0.0479-0.0958,0.14371-0.14371,0.19161
				c-0.0479,0.09581-0.09581,0.14371-0.09581,0.23952l-0.0479,0.43113c0.0479,0.0479,0.09581,0.09581,0.14371,0.09581
				s0.0958,0.0479,0.14371,0.0479c0.09581,0,0.14371-0.0479,0.23952-0.09581c0.0479-0.0479,0.14371-0.09581,0.19161-0.19161
				c0.0479-0.09581,0.0958-0.19161,0.0958-0.28742c0.04791-0.09581,0.04791-0.19161,0.04791-0.28742
				c0-0.14371,0-0.23952-0.04791-0.28742C76.37146,26.351,76.32356,26.30309,76.22775,26.30309z"/>
			<path class="st3" d="M77.95227,27.88391c-0.0958,0-0.19161,0-0.28742-0.0479s-0.14371-0.09581-0.23952-0.14371
				c-0.0958-0.0479-0.0958-0.14371-0.14371-0.23952c-0.04791-0.09581-0.04791-0.19161-0.04791-0.33532
				s0.04791-0.33532,0.09581-0.43113c0.0479-0.14371,0.14371-0.23952,0.1916-0.38323
				c0.0479-0.14371,0.19161-0.19161,0.33533-0.23952c0.0958-0.0479,0.23952-0.09581,0.38322-0.09581
				c0.09581,0,0.19161,0,0.28742,0.0479c0.09581,0.0479,0.14371,0.09581,0.23952,0.14371
				c0.0479,0.0479,0.09581,0.14371,0.14371,0.23952c0.0479,0.09581,0.0479,0.19161,0.0479,0.33532s-0.0479,0.28742-0.0958,0.43113
				c-0.04791,0.14371-0.14371,0.23952-0.19161,0.38323c-0.09581,0.09581-0.19161,0.19161-0.33532,0.23952
				C78.23969,27.836,78.09599,27.88391,77.95227,27.88391z M78.00018,27.54858c0.09581,0,0.14371,0,0.19161-0.0479
				c0.0479-0.0479,0.0958-0.09581,0.14371-0.19161c0.0479-0.09581,0.0958-0.14371,0.0958-0.23952s0.0479-0.19161,0.0479-0.28742
				c0-0.14371-0.0479-0.23952-0.0958-0.33533c-0.0479-0.0479-0.14371-0.09581-0.23952-0.09581c-0.09581,0-0.14371,0-0.19161,0.0479
				c-0.0479,0.0479-0.0958,0.09581-0.14371,0.19161c-0.0479,0.09581-0.0958,0.14371-0.0958,0.23952
				c0,0.09581-0.0479,0.19161-0.0479,0.28742c0,0.14371,0.0479,0.23952,0.0958,0.33532
				C77.80856,27.50068,77.90437,27.54858,78.00018,27.54858z"/>
			<path class="st3" d="M79.34146,25.96777h0.33533c0.0479,0,0.0479,0,0.0958,0l0.0479,0.0479l0.09581,1.00597
				c0,0.0479,0,0.09581,0,0.14371c0,0.0479,0,0.09581,0,0.14371c0-0.0479,0.0479-0.09581,0.0479-0.14371
				c0-0.0479,0.0479-0.09581,0.0479-0.14371l0.38323-1.00597c0-0.0479,0.0479-0.0479,0.0479-0.0479s0.0479,0,0.0958,0h0.19161
				c0.0479,0,0.0479,0,0.0958,0s0.0479,0.0479,0.0479,0.0479l0.14371,1.00597c0,0.0479,0,0.09581,0,0.14371
				c0,0.0479,0,0.09581,0,0.14371c0-0.0479,0.0479-0.09581,0.0479-0.14371c0-0.0479,0.0479-0.09581,0.0479-0.14371l0.38323-1.00597
				c0-0.0479,0-0.0479,0.0479-0.0479c0,0,0.0479,0,0.0958,0h0.33533L81.20971,27.836h-0.38324
				c-0.0479,0-0.0479-0.0479-0.0479-0.09581l-0.19161-1.05387c0-0.0479,0-0.09581,0-0.14371c0,0.0479,0,0.0479-0.0479,0.0479
				c0,0,0,0.0479-0.0479,0.0479l-0.43113,1.05387c0,0.0479-0.0479,0.09581-0.0958,0.09581h-0.33532L79.34146,25.96777z"/>
			<path class="st3" d="M83.70067,26.3989c0,0.09581,0,0.14371-0.0479,0.23952c-0.0479,0.0479-0.0958,0.14371-0.19161,0.19161
				c-0.0958,0.0479-0.1916,0.09581-0.33532,0.14371c-0.14371,0.0479-0.33532,0.0479-0.57484,0.09581l0,0
				c0,0.28742,0.14371,0.43113,0.38322,0.43113c0.0479,0,0.09581,0,0.14371,0s0.0958,0,0.0958-0.0479
				c0.0479,0,0.0479-0.0479,0.09581-0.0479s0.0479-0.0479,0.0479-0.0479l0.0479-0.0479h0.0479h0.0479c0,0,0.0479,0,0.0479,0.0479
				l0.09581,0.14371c-0.0479,0.0479-0.14371,0.14371-0.19161,0.14371c-0.0479,0.0479-0.14371,0.09581-0.19161,0.09581
				c-0.0479,0.0479-0.14371,0.0479-0.1916,0.0479c-0.04791,0-0.14371,0-0.23952,0c-0.09581,0-0.19161,0-0.28742-0.0479
				c-0.09582-0.0479-0.14371-0.09581-0.23952-0.14371c-0.04791-0.0479-0.09581-0.14371-0.14371-0.23952
				c-0.0479-0.09581-0.0479-0.19161-0.0479-0.33532c0-0.09581,0-0.19161,0.0479-0.28742c0-0.09581,0.0479-0.19161,0.0958-0.28742
				c0.04791-0.09581,0.09581-0.14371,0.14371-0.23952c0.0479-0.0479,0.14371-0.14371,0.19161-0.19161
				c0.0958-0.0479,0.14371-0.09581,0.23952-0.14371c0.0958-0.0479,0.1916-0.0479,0.28742-0.0479c0.0958,0,0.19161,0,0.23952,0.0479
				c0.0958,0.0479,0.14371,0.0479,0.1916,0.09581c0.04791,0.0479,0.09581,0.09581,0.09581,0.14371
				C83.70067,26.30309,83.70067,26.351,83.70067,26.3989z M83.07793,26.25519c-0.0479,0-0.0958,0-0.19161,0.0479
				c-0.0479,0.0479-0.0958,0.0479-0.14371,0.09581c-0.04791,0.0479-0.09581,0.09581-0.09581,0.14371
				c-0.0479,0.0479-0.0479,0.14371-0.0958,0.19161c0.14371,0,0.28742-0.0479,0.38322-0.0479
				c0.09581-0.0479,0.14371-0.0479,0.19161-0.09581c0.0479-0.0479,0.0958-0.0479,0.0958-0.09581
				c0-0.0479,0.04791-0.0479,0.04791-0.09581V26.351c0,0,0-0.0479-0.04791-0.0479l-0.0479-0.0479
				C83.17373,26.25519,83.12583,26.25519,83.07793,26.25519z"/>
			<path class="st3" d="M84.036,27.836l0.23952-1.86823h0.23951c0.04791,0,0.09581,0,0.09581,0.0479
				c0.0479,0,0.0479,0.0479,0.0479,0.09581c0,0,0,0,0,0.0479c0,0,0,0.0479,0,0.09581c0,0.0479,0,0.09581,0,0.19161
				c0.0958-0.14371,0.14371-0.23952,0.23952-0.33532c0.0958-0.09581,0.19161-0.14371,0.28742-0.14371
				c0.0479,0,0.0958,0,0.14371,0.0479l-0.09581,0.43113c-0.0479-0.0479-0.0958-0.0479-0.19161-0.0479
				c-0.0958,0-0.1916,0.0479-0.28742,0.14371c-0.0958,0.09581-0.14371,0.28742-0.1916,0.47903L84.46713,27.836H84.036z"/>
			<path class="st3" d="M87.0539,26.3989c0,0.09581,0,0.14371-0.0479,0.23952c-0.0479,0.0479-0.0958,0.14371-0.19161,0.19161
				c-0.0958,0.0479-0.1916,0.09581-0.33532,0.14371c-0.14371,0.0479-0.33532,0.0479-0.57484,0.09581l0,0
				c0,0.28742,0.14371,0.43113,0.38322,0.43113c0.0479,0,0.09581,0,0.14371,0s0.0958,0,0.0958-0.0479
				c0.0479,0,0.0479-0.0479,0.09581-0.0479s0.0479-0.0479,0.0479-0.0479l0.0479-0.0479h0.0479h0.0479c0,0,0.0479,0,0.0479,0.0479
				l0.09581,0.14371c-0.0479,0.0479-0.14371,0.14371-0.19161,0.14371c-0.0479,0.0479-0.14371,0.09581-0.19161,0.09581
				c-0.0479,0.0479-0.14371,0.0479-0.1916,0.0479c-0.04791,0-0.14371,0-0.23952,0c-0.09581,0-0.19161,0-0.28742-0.0479
				c-0.09582-0.0479-0.14371-0.09581-0.23952-0.14371c-0.04791-0.0479-0.09581-0.14371-0.14371-0.23952
				c-0.0479-0.09581-0.0479-0.19161-0.0479-0.33532c0-0.09581,0-0.19161,0.0479-0.28742c0-0.09581,0.0479-0.19161,0.0958-0.28742
				c0.04791-0.09581,0.09581-0.14371,0.14371-0.23952c0.0479-0.0479,0.14371-0.14371,0.19161-0.19161
				c0.0958-0.0479,0.14371-0.09581,0.23952-0.14371c0.0958-0.0479,0.1916-0.0479,0.28742-0.0479c0.0958,0,0.19161,0,0.23952,0.0479
				c0.0958,0.0479,0.14371,0.0479,0.1916,0.09581c0.04791,0.0479,0.09581,0.09581,0.09581,0.14371
				C87.0539,26.30309,87.0539,26.351,87.0539,26.3989z M86.43116,26.25519c-0.0479,0-0.0958,0-0.19161,0.0479
				c-0.0479,0.0479-0.0958,0.0479-0.14371,0.09581c-0.04791,0.0479-0.09581,0.09581-0.09581,0.14371
				c-0.0479,0.0479-0.0479,0.14371-0.0958,0.19161c0.14371,0,0.28742-0.0479,0.38322-0.0479
				c0.09581-0.0479,0.14371-0.0479,0.19161-0.09581c0.0479-0.0479,0.0958-0.0479,0.0958-0.09581
				c0-0.0479,0.04791-0.0479,0.04791-0.09581V26.351c0,0,0-0.0479-0.04791-0.0479l-0.0479-0.0479
				C86.47906,26.25519,86.47906,26.25519,86.43116,26.25519z"/>
			<path class="st3" d="M88.68262,27.836c-0.04791,0-0.09581,0-0.09581-0.0479s-0.0479-0.0479-0.0479-0.09581v-0.28742
				c-0.0958,0.14371-0.19161,0.23952-0.28742,0.33532c-0.0958,0.09581-0.23952,0.09581-0.33532,0.09581
				c-0.09581,0-0.14371,0-0.19161-0.0479c-0.0479-0.0479-0.0958-0.0479-0.14371-0.14371
				c-0.0479-0.09581-0.0958-0.14371-0.0958-0.23952c-0.0479-0.09581-0.0479-0.19161-0.0479-0.28742
				c0-0.09581,0-0.19161,0.0479-0.28742c0-0.09581,0.0479-0.19161,0.0958-0.28742c0.04791-0.09581,0.09581-0.19161,0.14371-0.23952
				c0.0479-0.09581,0.0958-0.14371,0.19161-0.19161c0.0479-0.0479,0.14371-0.09581,0.23952-0.14371
				c0.0958-0.0479,0.14371-0.0479,0.23952-0.0479c0.0958,0,0.14371,0,0.23951,0.0479c0.04791,0.0479,0.14371,0.0479,0.19161,0.14371
				l0.14371-0.95807h0.43112l-0.33532,2.68259C89.06583,27.83601,88.68262,27.83601,88.68262,27.836z M88.05988,27.50068
				c0.0479,0,0.09581,0,0.14371-0.0479s0.0958-0.09581,0.14371-0.14371c0.0479-0.0479,0.09581-0.14371,0.14371-0.19161
				c0.0479-0.09581,0.0958-0.14371,0.0958-0.23952l0.0479-0.43113c-0.0479-0.0479-0.0958-0.09581-0.14371-0.09581
				s-0.09581-0.0479-0.14371-0.0479c-0.0958,0-0.14371,0.0479-0.23952,0.09581c-0.0479,0.0479-0.14371,0.09581-0.1916,0.19161
				c-0.04791,0.09581-0.09581,0.19161-0.09581,0.28742c-0.0479,0.09581-0.0479,0.19161-0.0479,0.28742
				c0,0.14371,0,0.23952,0.0479,0.28742C87.91617,27.50068,87.96407,27.50068,88.05988,27.50068z"/>
			<path class="st3" d="M90.40714,27.836l0.33533-2.68259h0.43112L91.02988,26.351c0.0958-0.14371,0.1916-0.23952,0.28742-0.28742
				c0.0958-0.0479,0.23952-0.09581,0.33532-0.09581s0.14371,0,0.19161,0.0479c0.0479,0.0479,0.0958,0.0479,0.14371,0.14371
				c0.04791,0.09581,0.09581,0.14371,0.09581,0.23952c0.0479,0.09581,0.0479,0.19161,0.0479,0.28742
				c0,0.09581,0,0.19161-0.0479,0.28742c0,0.09581-0.0479,0.19161-0.09581,0.28742s-0.0958,0.19161-0.14371,0.23952
				c-0.0479,0.09581-0.09581,0.14371-0.19161,0.19161c-0.0479,0.0479-0.14371,0.09581-0.23952,0.14371
				c-0.0958,0.0479-0.14371,0.0479-0.23952,0.0479c-0.0958,0-0.19161,0-0.23952-0.0479
				c-0.0958-0.0479-0.14371-0.09581-0.1916-0.14371v0.0479c0,0.0479-0.04791,0.09581-0.04791,0.09581s-0.0479,0.0479-0.0958,0.0479
				h-0.19161V27.836z M91.50892,26.30309c-0.04791,0-0.09581,0-0.14371,0.0479s-0.0958,0.09581-0.14371,0.14371
				c-0.0479,0.0479-0.0958,0.14371-0.14371,0.19161c-0.0479,0.09581-0.09581,0.14371-0.09581,0.23952l-0.0958,0.47903
				c0.0479,0.0479,0.0958,0.09581,0.14371,0.09581c0.0479,0,0.0958,0.0479,0.14371,0.0479c0.09581,0,0.14371-0.0479,0.23952-0.09581
				c0.0479-0.0479,0.14371-0.09581,0.19161-0.19161c0.0479-0.09581,0.0958-0.19161,0.0958-0.28742
				c0.0479-0.09581,0.0479-0.19161,0.0479-0.28742c0-0.14371,0-0.23952-0.0479-0.28742
				C91.60472,26.351,91.55682,26.30309,91.50892,26.30309z"/>
			<path class="st3" d="M93.08973,28.36294c-0.04791,0.0479-0.09581,0.09581-0.14371,0.09581h-0.33532l0.43112-0.76645
				l-0.47903-1.72452h0.38322c0.0479,0,0.0479,0,0.0958,0.0479l0.04791,0.0479l0.23952,0.95807c0,0.0479,0,0.0479,0,0.09581
				c0,0.0479,0,0.0479,0,0.09581c0-0.0479,0.0479-0.0479,0.0479-0.09581s0.0479-0.0479,0.0479-0.09581l0.47903-0.95807
				c0-0.0479,0.0479-0.0479,0.0479-0.0479h0.0479h0.38323L93.08973,28.36294z"/>
		</g>
	</g>
</g>
</svg>
