<?xml version="1.0" encoding="iso-8859-1"?>
<!-- Generator: Adobe Illustrator 19.2.0, SVG Export Plug-In . SVG Version: 6.00 Build 0)  -->
<svg version="1.1" id="Layer_1" xmlns="http://www.w3.org/2000/svg" xmlns:xlink="http://www.w3.org/1999/xlink" x="0px" y="0px"
	 width="470px" height="470px" viewBox="0 0 470 470" style="enable-background:new 0 0 470 470;" xml:space="preserve">
<g>
	<g>
		<path style="fill:#FFFFFF;" d="M341.6181641,69.2060242c14.085083,1.5490417,27.3201294,7.9186478,37.330658,17.968895
			l59.5798645,59.8599625c1.918335,1.9282074,2.9642944,4.5503998,2.8849487,7.2717285l0,0
			c-0.0768127,2.7115021-1.26651,5.2866364-3.2913818,7.095871l-51.9313354,46.6076355
			c-1.9555359,1.7621155-4.5504761,2.6717987-7.155365,2.525589c-2.6222229-0.1437836-5.08078-1.3160706-6.8430481-3.2715912
			l-16.9823914-18.9281158v202.7510986c0,5.4798279-4.434021,9.9138794-9.9139099,9.9138794H124.7026978
			c-5.4799652,0-9.9139481-4.4340515-9.9139481-9.9138794V188.3359985L97.808815,207.2542114
			c-1.7522812,1.9554291-4.2208405,3.1377106-6.8455124,3.2814941c-2.6247482,0.1462097-5.1998825-0.7634735-7.1553192-2.525589
			l-51.9314194-46.6076355c-2.022377-1.8092346-3.2145653-4.3843689-3.2913361-7.095871
			c-0.0670147-2.7213287,0.969059-5.3435211,2.8848648-7.2717285L91.059967,87.1749191
			c10.0006256-10.0502472,23.2454681-16.4198532,37.3331299-17.968895 M207.267868,76.9215088
			c5.5170135,7.5220871,12.4691467,12.0924377,27.7266083,12.0924377l0,0c15.8869781,0,22.7424011-4.8106537,28.2520447-12.6923141
			 M244.2118835,198.1433716 M249.4733582,151.9270172c-5.7329407,0-11.1251068,0.7886505-16.0283203,2.3430634
			c-4.2782898,1.3583832-8.6418915,3.065567-12.9959106,5.0828094c0.1151733-1.957962,0.0598602-3.8086853-0.1652527-5.5249786
			c-0.0723419-0.5447388-0.5361023-0.9481659-1.082016-0.9481659c-0.0120239,0-0.0233459,0-0.0353699,0
			c-22.2810364,0.7042694-26.2674561,1.3721313-27.3273163,1.8143005c-1.3521881,0.5606232-2.9641418,1.8985748-2.9641418,5.0713806
			c0,2.4524231,0.5560608,4.9300537,1.6524506,7.3688202c0.1766815,0.3921051,0.5663452,0.6427765,0.9954376,0.6427765
			c3.3961639,0,5.6965332,1.251358,7.0327301,3.8223419c0.9891357,1.9054565,2.1687317,8.3307648,2.1687317,28.126236v33.6465454
			c0,13.4590912-0.1339722,24.4907379-0.3971252,32.8123932h-5.2577515c-2.0730286,0-3.637146,0.4968872-4.6503143,1.4723816
			c-1.0245056,0.9869385-1.5441589,2.5458984-1.5441589,4.6360779c0,2.2701416,0.5532684,4.7134705,1.644516,7.2616882
			c0.1720123,0.4012146,0.566925,0.6609802,1.0033722,0.6609802h42.4685059c2.7419434,0,4.5882263-0.4968872,5.6445923-1.5180054
			c1.0684967-1.0324402,1.5875702-2.6735535,1.5875702-5.0211792c0-2.52771-0.5356445-4.8503418-1.5909576-6.899353
			c-0.1880035-0.3646851-0.5617828-0.5925903-0.9703522-0.5925903h-10.9673309
			c-0.2490387-7.6264954-0.3817291-15.3874207-0.3954926-23.1050415c0.9163208,0.1550903,2.0279846,0.307724,3.3232269,0.4581604
			c2.0211029,0.2324524,4.726059,0.3510284,8.0395966,0.3510284c13.3968964,0,24.269577-4.2736206,32.3160858-12.7046356
			c8.0337524-8.4173584,12.1074829-21.8240509,12.1074829-39.8484955c0-13.4681854-2.7511902-23.4992523-8.1775513-29.815094
			C269.4409485,155.1544342,260.8834534,151.9270172,249.4733582,151.9270172z M249.940033,222.0350037
			c-2.3692169,3.1682434-5.8035431,4.7090149-10.4999542,4.7090149c-2.857132,0-5.2492218-0.3419189-7.1096344-1.0165558
			c-1.7253876-0.6244659-3.4155273-1.4063416-5.0320435-2.3248749v-33.2773132
			c0-5.4633636,0.4506989-9.7849426,1.3401642-12.8414001c0.8404694-2.8923798,2.2837982-4.9984436,4.2901917-6.2588959
			c2.0632324-1.2946625,4.3710632-1.9510803,6.8576813-1.9510803c4.3101501,0,7.588913,1.8439484,10.0225525,5.6389923
			c2.4964142,3.8974915,3.7624664,12.5747375,3.7624664,25.7921448
			C253.5714569,211.5686493,252.3492737,218.8144684,249.940033,222.0350037z"/>
	</g>
</g>
<g>
</g>
<g>
</g>
<g>
</g>
<g>
</g>
<g>
</g>
<g>
</g>
<g>
</g>
<g>
</g>
<g>
</g>
<g>
</g>
<g>
</g>
<g>
</g>
<g>
</g>
<g>
</g>
<g>
</g>
</svg>
