<?xml version="1.0" encoding="iso-8859-1"?>
<!-- Generator: Adobe Illustrator 19.2.0, SVG Export Plug-In . SVG Version: 6.00 Build 0)  -->
<svg version="1.1" id="Layer_1" xmlns="http://www.w3.org/2000/svg" xmlns:xlink="http://www.w3.org/1999/xlink" x="0px" y="0px"
	 width="470px" height="470px" viewBox="0 0 470 470" style="enable-background:new 0 0 470 470;" xml:space="preserve">
<g>
	<path style="fill:#95D600;" d="M158.9278717,244.647171H28.8662167c-7.125515,0-12.9554834-5.8299713-12.9554834-12.9554749
		v-0.0000305c0-7.1255188,5.8299685-12.9554901,12.9554834-12.9554901h130.0616608
		c7.1255188,0,12.9554901,5.8299713,12.9554901,12.9554901v0.0000305
		C171.8833618,238.8171997,166.0533905,244.647171,158.9278717,244.647171z"/>
	<path style="fill:#95D600;" d="M158.9278717,284.0325317H57.0165291c-7.1255188,0-12.9554863-5.8299561-12.9554863-12.9554749
		v-0.0000305c0-7.1255188,5.8299675-12.9555054,12.9554863-12.9555054h101.9113464
		c7.1255188,0,12.9554901,5.8299866,12.9554901,12.9555054v0.0000305
		C171.8833618,278.2025757,166.0533905,284.0325317,158.9278717,284.0325317z"/>
	<path style="fill:#95D600;" d="M158.9278717,320.9556885h-56.2941666c-7.1255188,0-12.9554825-5.8299561-12.9554825-12.9554749
		v-0.0000305c0-7.1255188,5.8299637-12.9554749,12.9554825-12.9554749h56.2941666
		c7.1255188,0,12.9554901,5.8299561,12.9554901,12.9554749v0.0000305
		C171.8833618,315.1257324,166.0533905,320.9556885,158.9278717,320.9556885z"/>
</g>
<path style="fill:#FFFFFF;" d="M442.6349792,346.4514771v-32.9811707c0-12.5274658-10.0718384-22.5993347-22.5961914-22.5993347
	l-15.6101379-2.4524536l-26.7512817-40.2835236c-0.3776855-0.3163147-0.6947632-1.0724182-1.0693054-1.3863525
	c-4.1550598-5.5383148-10.766571-9.3802338-18.4442139-9.3802338h-50.7330017v-14.0365753
	c0-7.111908-5.286499-12.9020081-11.8327026-12.9020081H158.7558746c-4.9360809,0-9.1527557,3.2937012-10.9300232,7.9622192
	h10.1952209c7.1255188,0,12.9554749,5.8299561,12.9554749,12.9554749v0.000061
	c0,7.1254578-5.8299561,12.9554596-12.9554749,12.9554596h-11.0978851v13.4743652h11.0978851
	c7.1255188,0,12.9554749,5.8299255,12.9554749,12.9554749v0.000061c0,7.1255188-5.8299561,12.9554443-12.9554749,12.9554443
	h-11.0978851v11.0121765h11.0978851c7.1255188,0,12.9554749,5.8299866,12.9554749,12.9555054
	c0,7.1255493-5.8299561,12.9554749-12.9554749,12.9554749h-11.0978851v55.0468445
	c0,7.3023071,5.9167328,12.8405457,12.8405609,12.8405457h18.4442596
	c4.1519012,14.6022949,17.3710022,24.9873047,33.3588562,24.9873047c15.9878082,0,29.2068481-10.7634277,33.3595886-24.9873047
	h113.6158752c4.1519775,14.6022949,17.3710022,24.9873047,33.3588562,24.9873047
	c15.9885864,0,29.2069092-10.7634277,33.362793-24.9873047h15.9846802c7.3023071,0,12.8406067-5.9159546,12.8406067-12.8405457
	v-16.3017578C454.0892639,352.6845093,448.868042,347.1462402,442.6349792,346.4514771z M211.566864,396.1152344
	c-9.7548218,0-17.3742065-7.993927-17.3742065-17.3710632c0-9.3802185,7.993927-17.3741455,17.3742065-17.3741455
	c9.7555389,0,17.3710022,7.993927,17.3710022,17.3741455C228.9378662,388.1213074,221.322403,396.1152344,211.566864,396.1152344z
	 M331.222168,289.6758118v0.0645142c-0.8788452,0-1.6349487-0.6916199-1.6349487-1.6381226v-31.9118958
	c0-0.882019,0.6916199-1.6381378,1.6349487-1.6381378h27.5719299c0.5657043,0,1.0700378,0.2517853,1.3218384,0.6947327
	l21.4616394,31.911911c0.6947021,1.0692749-0.0614014,2.5169983-1.321106,2.5169983H331.222168z M391.9011841,396.1152344
	c-9.7547607,0-17.3710022-7.993927-17.3710022-17.3710632c0-9.3802185,7.9938965-17.3741455,17.3710022-17.3741455
	c9.7586975,0,17.374176,7.993927,17.374176,17.3741455C409.2753601,388.1213074,401.2814331,396.1152344,391.9011841,396.1152344z"
	/>
<g>
	<g>
		<path style="fill:#FFFFFF;" d="M125.6359253,50.6098061c4.4884338-2.5948029,9.7706146-3.584156,14.8994904-2.7897224
			l30.53508,4.7411499c0.9833374,0.1529045,1.8598175,0.6994247,2.4259949,1.5189705l0,0
			c0.5648041,0.8160973,0.7719421,1.8330917,0.5668945,2.8052139l-5.2138977,24.9926338
			c-0.194809,0.9431992-0.7628174,1.7736053-1.5625153,2.2948456c-0.8042755,0.5257034-1.7831421,0.7127151-2.7263794,0.5179443
			l-9.1078339-1.901535l43.925827,59.7789764c1.1871948,1.6156616,0.8404999,3.8836212-0.775177,5.0708313L133.563797,195.430481
			c-1.6157074,1.1872253-3.8836517,0.8405151-5.0708466-0.7751465L84.5671158,134.876358l-0.9077377,9.2565155
			c-0.0930023,0.9561768-0.5646896,1.8395691-1.3073959,2.450592c-0.7422028,0.6117554-1.6985321,0.9014435-2.6568298,0.8055573
			l-25.4089203-2.4908752c-0.9882431-0.0952911-1.8976479-0.5962524-2.5077248-1.3790741
			c-0.6093369-0.7878418-0.8719521-1.7854309-0.7248421-2.7689972l4.6008263-30.5591507
			c0.7711983-5.1298294,3.2963295-9.8773193,7.1143265-13.386116 M87.6957397,81.9914932
			c3.2562866,1.0225449,6.2962112,0.8638992,10.7947083-2.4416199l0,0c4.6841049-3.4419022,5.6631317-6.3454895,5.58004-9.8629684
			 M124.8508835,109.7285614 M116.3894424,94.9622726c-1.6902924,1.2420349-3.1092606,2.6427689-4.2181473,4.163353
			c-0.9671173,1.3273849-1.8838196,2.7761002-2.7305222,4.3141632c-0.3902283-0.6022415-0.8074951-1.1359253-1.2457047-1.5931778
			c-0.1393509-0.1449432-0.3634872-0.163414-0.5244446-0.0451431c-0.00354,0.0026016-0.0068817,0.0050583-0.0104218,0.0076599
			c-6.4167404,5.0348129-7.447403,6.0953827-7.6641006,6.455368c-0.2772141,0.4582443-0.462616,1.2019501,0.224762,2.1374207
			c0.5313187,0.7230682,1.232048,1.3330994,2.0836563,1.8146133c0.1370468,0.0773315,0.3062363,0.0668182,0.4327545-0.0261459
			c1.0013199-0.7357788,1.9506607-0.8651962,2.9016266-0.3966522c0.7044525,0.3475037,2.4442825,1.9863815,6.7329483,7.8228607
			l7.2894974,9.9203186c2.9158936,3.9682617,5.2663879,7.2498474,6.9916763,9.7604218l-1.5501862,1.1390839
			c-0.6112061,0.4491119-0.9647141,0.9344788-1.0521011,1.4416046c-0.0882492,0.5129395,0.096283,1.0851593,0.5491257,1.7014313
			c0.4918213,0.6693268,1.184288,1.2698517,2.0581055,1.7847595c0.1376343,0.0810242,0.3103485,0.072052,0.4390335-0.0225067
			l12.5213776-9.2007599c0.8084259-0.5940399,1.2451324-1.1405334,1.3353729-1.6704559
			c0.0913544-0.5359039-0.111145-1.1322174-0.6197662-1.8244019c-0.5476227-0.7452545-1.2087402-1.3140259-1.9638062-1.6895142
			c-0.1344452-0.0667877-0.2940216-0.053009-0.4144745,0.0355072l-3.2336121,2.3760681
			c-1.7256927-2.1946411-3.4462128-4.4541168-5.1222839-6.726593c0.3037567-0.1527939,0.6645966-0.3486328,1.079071-0.5848923
			c0.6462708-0.3693314,1.4694824-0.9204025,2.4464417-1.6382751c3.9499207-2.90242,6.2297516-6.518013,6.7756042-10.7470703
			c0.5450439-4.2222672-1.1584015-9.0576553-5.063385-14.3719711c-2.9178619-3.9709473-5.9022369-6.3324585-8.8704681-7.0190048
			C122.9758911,91.587883,119.7535858,92.4902878,116.3894424,94.9622726z M131.7158661,115.5317535
			c-0.012146,1.4474106-0.6909027,2.6457291-2.075592,3.663208c-0.842392,0.6189957-1.6217499,1.0364227-2.3164368,1.2405701
			c-0.6439972,0.1896896-1.3117142,0.3253326-1.9873276,0.4047241l-7.2094955-9.8114548
			c-1.1836319-1.6108093-1.9870148-2.9826279-2.38694-4.0764923c-0.37883-1.034874-0.4095612-1.9685135-0.0910721-2.7748337
			c0.3278351-0.8287125,0.8660583-1.5222473,1.5992126-2.0609665c1.2707977-0.9337921,2.637001-1.1004639,4.1767197-0.5087814
			c1.5804367,0.6082916,3.8336334,2.892395,6.6971664,6.7893982
			C130.5190277,111.6591187,131.7284851,114.0602493,131.7158661,115.5317535z"/>
	</g>
</g>
<polygon style="fill:#95D600;stroke:#95D600;stroke-width:12;stroke-linecap:round;stroke-linejoin:round;stroke-miterlimit:10;" points="
	335.7084961,156.8484955 358.6312256,144.5226135 357.8443909,170.5372314 357.0575562,196.5518494 334.9216309,182.8631134 
	312.7857361,169.1743927 "/>
<path style="fill:#95D600;stroke:#95D600;stroke-width:12;stroke-linecap:round;stroke-linejoin:round;stroke-miterlimit:10;" d="
	M211.5652618,103.4009781c0,0,91.360611-40.8718529,135.8387909,50.4887466l-22.8401489,12.0211334
	c0,0-11.7781677-70.4291077-106.9880676-42.6750183L211.5652618,103.4009781z"/>
<g>
</g>
<g>
</g>
<g>
</g>
<g>
</g>
<g>
</g>
<g>
</g>
<g>
</g>
<g>
</g>
<g>
</g>
<g>
</g>
<g>
</g>
<g>
</g>
<g>
</g>
<g>
</g>
<g>
</g>
</svg>
