<svg xmlns="http://www.w3.org/2000/svg" width="123.64821" height="30" viewBox="0 0 123.64821 30"><title>paypal</title><path d="M97.39885,11.54288H90.59957a0.94425,0.94425,0,0,0-.9328.79712L86.91755,29.7732a0.56687,0.56687,0,0,0,.55968.65522h3.48811a0.66066,0.66066,0,0,0,.653-0.558l0.77959-4.94215a0.94476,0.94476,0,0,1,.9328-0.79769h2.15109c4.478,0,7.06271-2.16749,7.73829-6.4629a5.235,5.235,0,0,0-.86722-4.38812C101.38671,12.14327,99.67319,11.54288,97.39885,11.54288Zm0.78468,6.36679c-0.37142,2.44055-2.23533,2.44055-4.03818,2.44055H93.11984l0.71967-4.55659a0.56683,0.56683,0,0,1,.55968-0.47827h0.47036c1.22734,0,2.38627,0,2.98383.69932A2.27169,2.27169,0,0,1,98.18353,17.90967Z" transform="translate(-2.1759 -4.83407)" style="fill:#179bd7"/><path d="M48.90678,11.54288h-6.7987a0.94426,0.94426,0,0,0-.9328.79712L38.42606,29.7732a0.56687,0.56687,0,0,0,.55968.65522h3.24614a0.94426,0.94426,0,0,0,.9328-0.79712l0.74172-4.703a0.94476,0.94476,0,0,1,.9328-0.79769h2.15166c4.478,0,7.06272-2.16749,7.73829-6.4629a5.235,5.235,0,0,0-.86722-4.38812C52.89521,12.14327,51.18112,11.54288,48.90678,11.54288Zm0.78468,6.36679c-0.37142,2.44055-2.23533,2.44055-4.03818,2.44055H44.62777l0.71967-4.55659a0.56684,0.56684,0,0,1,.55968-0.47827h0.47036c1.22734,0,2.38627,0,2.98383.69932A2.26966,2.26966,0,0,1,49.69146,17.90967Z" transform="translate(-2.1759 -4.83407)" style="fill:#253b80"/><path d="M69.2277,17.83166H65.97195a0.566,0.566,0,0,0-.55968.47827l-0.143.91019-0.22783-.32959c-0.705-1.02325-2.27659-1.36528-3.8454-1.36528a7.48639,7.48639,0,0,0-7.26736,6.54826A6.14481,6.14481,0,0,0,55.14071,29.075a5.0957,5.0957,0,0,0,4.10037,1.6553,6.2323,6.2323,0,0,0,4.50684-1.86277l-0.14529.9051a0.56662,0.56662,0,0,0,.55968.65522h2.93182a0.94425,0.94425,0,0,0,.9328-0.79712l1.75989-11.14442A0.56541,0.56541,0,0,0,69.2277,17.83166Zm-4.5368,6.33683a3.62962,3.62962,0,0,1-3.67467,3.10877,2.52151,2.52151,0,0,1-2.69608-3.1653,3.64286,3.64286,0,0,1,3.64866-3.13251,2.74206,2.74206,0,0,1,2.17032.887A2.8048,2.8048,0,0,1,64.6909,24.16848Z" transform="translate(-2.1759 -4.83407)" style="fill:#253b80"/><path d="M117.71977,17.83166H114.464a0.566,0.566,0,0,0-.55968.47827l-0.143.91019-0.22783-.32959c-0.705-1.02325-2.27659-1.36528-3.8454-1.36528a7.48639,7.48639,0,0,0-7.26736,6.54826,6.14682,6.14682,0,0,0,1.21207,5.00151,5.09645,5.09645,0,0,0,4.10037,1.6553A6.2323,6.2323,0,0,0,112.24,28.86754l-0.14529.9051a0.56662,0.56662,0,0,0,.55968.65522h2.93182a0.94425,0.94425,0,0,0,.9328-0.79712l1.75989-11.14442A0.56571,0.56571,0,0,0,117.71977,17.83166Zm-4.5368,6.33683a3.62962,3.62962,0,0,1-3.67467,3.10877,2.52151,2.52151,0,0,1-2.69608-3.1653,3.64327,3.64327,0,0,1,3.64866-3.13251,2.74206,2.74206,0,0,1,2.17032.887A2.80678,2.80678,0,0,1,113.183,24.16848Z" transform="translate(-2.1759 -4.83407)" style="fill:#179bd7"/><path d="M86.56706,17.83166H83.29491a0.94443,0.94443,0,0,0-.78129.41439l-4.51419,6.64833L76.08633,18.5061a0.94488,0.94488,0,0,0-.9051-0.67388H71.96449a0.56683,0.56683,0,0,0-.5365.74963l3.60343,10.57626-3.38917,4.78159a0.56656,0.56656,0,0,0,.46244.89436H75.374a0.94469,0.94469,0,0,0,.7762-0.40648l10.88267-15.7061A0.56688,0.56688,0,0,0,86.56706,17.83166Z" transform="translate(-2.1759 -4.83407)" style="fill:#253b80"/><path d="M121.55725,12.02172l-2.79049,17.752a0.56671,0.56671,0,0,0,.55968.65465h2.80632a0.94426,0.94426,0,0,0,.9328-0.79712L125.817,12.1981a0.56661,0.56661,0,0,0-.55967-0.65522h-3.14042A0.566,0.566,0,0,0,121.55725,12.02172Z" transform="translate(-2.1759 -4.83407)" style="fill:#179bd7"/><path d="M15.05629,33.59825L15.97044,27.803l0.05879-.32111a1.19068,1.19068,0,0,1,1.17589-1.0046H17.931a13.242,13.242,0,0,0,3.30325-.38386,8.38,8.38,0,0,0,2.77014-1.25674,7.47821,7.47821,0,0,0,2.09173-2.289,10.82468,10.82468,0,0,0,1.26748-3.48359,9.10691,9.10691,0,0,0,.12833-3.14326,4.74177,4.74177,0,0,0-1.09448-2.42472,4.61642,4.61642,0,0,0-1.32118-1.0193L25.06439,12.47V12.45477a7.83744,7.83744,0,0,0-.02092-3.00927A5.33372,5.33372,0,0,0,23.806,7.1118c-1.3127-1.49531-3.69954-2.254-7.09494-2.254H7.38641A1.31095,1.31095,0,0,0,6.09179,5.96417L2.20908,30.58445a0.77745,0.77745,0,0,0,.76772.89775H8.7613l-0.00509.0277L8.35878,34.029a0.67769,0.67769,0,0,0,.66822.78242H13.8787a1.14369,1.14369,0,0,0,1.12954-.965Z" transform="translate(-2.1759 -4.83407)" style="fill:#253b80"/><path d="M11.73213,12.487a1.16653,1.16653,0,0,1,1.15271-.98538h7.30864a15.18746,15.18746,0,0,1,2.41115.17582q0.31631,0.05088.61565,0.117t0.58,0.14868q0.14077,0.0407.27645,0.08593a6.59629,6.59629,0,0,1,1.01025.42683c0.36577-2.3337-.00283-3.92172-1.26465-5.35993-1.38959-1.5835-3.90024-2.2619-7.11246-2.2619H7.38641A1.33427,1.33427,0,0,0,6.06862,5.96022L2.1859,30.5805a0.80031,0.80031,0,0,0,.7909.92489H8.733l1.44612-9.16915Z" transform="translate(-2.1759 -4.83407)" style="fill:#253b80"/><path d="M25.08814,12.4559h0c-0.0277.17808-.05879,0.359-0.09554,0.54611-1.229,6.31308-5.43625,8.49584-10.80975,8.49584H11.4472A1.32963,1.32963,0,0,0,10.13393,22.624h0L8.733,31.50539,8.3356,34.02508a0.69987,0.69987,0,0,0,.6914.809H13.8787a1.16672,1.16672,0,0,0,1.15272-.98537l0.04749-.24648,0.91414-5.7958,0.05879-.32a1.16671,1.16671,0,0,1,1.15272-.98537h0.72589c4.70019,0,8.38107-1.9097,9.45634-7.43244,0.44944-2.30769.21709-4.23378-.97124-5.58832A4.6228,4.6228,0,0,0,25.08814,12.4559Z" transform="translate(-2.1759 -4.83407)" style="fill:#179bd7"/><path d="M23.80087,11.94314c-0.18713-.05484-0.381-0.104-0.58-0.14868q-0.29934-.06614-0.61565-0.117a15.26467,15.26467,0,0,0-2.41115-.17582h-7.3092a1.16653,1.16653,0,0,0-1.15271.98538l-1.553,9.84981-0.04466.28775a1.32919,1.32919,0,0,1,1.31327-1.12615h2.73565c5.37293,0,9.58015-2.18275,10.80975-8.49584,0.03618-.18713.06728-0.368,0.09554-0.54611a6.59629,6.59629,0,0,0-1.01025-.42683C23.98687,11.99911,23.89472,11.97028,23.80087,11.94314Z" transform="translate(-2.1759 -4.83407)" style="fill:#222d65"/></svg>