<svg xmlns="http://www.w3.org/2000/svg" width="123.648" height="30" viewBox="0 0 123.648 30"><path fill="#253B80" d="M12.88 28.764l.915-5.795.058-.321a1.19 1.19 0 0 1 1.176-1.005h.726a13.242 13.242 0 0 0 3.303-.384 8.38 8.38 0 0 0 2.77-1.256 7.478 7.478 0 0 0 2.092-2.29 10.825 10.825 0 0 0 1.268-3.483 9.107 9.107 0 0 0 .128-3.143 4.742 4.742 0 0 0-1.094-2.425 4.616 4.616 0 0 0-1.322-1.02l-.012-.006V7.62a7.837 7.837 0 0 0-.02-3.01 5.334 5.334 0 0 0-1.238-2.333C20.317.782 17.93.024 14.535.024H5.211c-.645 0-1.194.47-1.295 1.106L.033 25.75a.777.777 0 0 0 .768.898h5.784l-.005.028-.397 2.519a.678.678 0 0 0 .668.782h4.852c.562 0 1.041-.409 1.13-.965l.047-.248z"/><path fill="#253B80" d="M9.556 7.653c.09-.568.578-.986 1.153-.985h7.309c.807-.006 1.613.053 2.41.175.212.034.417.073.616.117a8.718 8.718 0 0 1 .857.235c.348.114.686.257 1.01.427.366-2.334-.003-3.922-1.265-5.36C20.256.678 17.746 0 14.534 0H5.211c-.657 0-1.216.478-1.318 1.126L.01 25.746a.8.8 0 0 0 .79.925h5.757l1.446-9.169 1.553-9.85z"/><path fill="#179BD7" d="M22.912 7.622c-.027.178-.059.359-.095.546-1.23 6.313-5.437 8.496-10.81 8.496H9.271a1.33 1.33 0 0 0-1.313 1.126l-1.4 8.881-.398 2.52A.7.7 0 0 0 6.85 30h4.852c.574 0 1.063-.418 1.153-.985l.047-.247.914-5.796.059-.32c.09-.567.578-.985 1.153-.985h.726c4.7 0 8.38-1.91 9.456-7.432.45-2.308.217-4.234-.971-5.589a4.623 4.623 0 0 0-1.328-1.024z"/><path fill="#222D65" d="M21.625 7.11a9.345 9.345 0 0 0-1.196-.267 15.265 15.265 0 0 0-2.41-.175h-7.31c-.574 0-1.064.417-1.153.985l-1.553 9.85-.044.288a1.33 1.33 0 0 1 1.313-1.127h2.736c5.372 0 9.58-2.182 10.81-8.495.035-.188.067-.368.095-.547a6.596 6.596 0 0 0-1.288-.513z"/><g fill="#222D65"><path d="M42.951 13.161c0 3.535-2.696 5.832-6.911 5.832h-2.796l-.72 3.655H28.57l2.796-13.981h5.913c3.635 0 5.672 1.658 5.672 4.494zm-3.994.339c0-1.178-.82-1.717-2.198-1.717h-2.077l-.819 4.094h2.357c1.738 0 2.737-.839 2.737-2.377zM43.767 19.732c0-.319.04-.68.12-1.039l2.176-10.865h3.796l-2.137 10.726c-.04.16-.04.3-.04.44 0 .618.379.898.978.898.3 0 .62-.06.839-.16l-.4 2.817c-.639.199-1.218.28-1.837.28-2.197 0-3.495-1.14-3.495-3.097zM64.438 19.732l-.4 2.817c-.62.199-1.218.28-1.837.28-1.758 0-2.837-.76-3.236-1.858a4.877 4.877 0 0 1-3.855 1.857c-2.297 0-3.875-1.258-3.875-3.695 0-.42.04-.859.14-1.338l1.198-5.972h3.796l-1.119 5.613c-.06.279-.08.52-.08.738 0 .919.48 1.419 1.458 1.419 1.278 0 2.178-.78 2.497-2.417l1.078-5.353h3.795l-1.357 6.83c-.02.12-.04.24-.04.34 0 .64.419.899.998.899.3 0 .64-.06.839-.16zM64.934 21.77l1.378-2.657c.999.639 2.476.998 3.754.998 1.239 0 1.739-.298 1.739-.778 0-1.238-5.614-.1-5.614-3.755 0-2.597 2.497-3.935 5.773-3.935 1.538 0 3.057.32 4.115.859l-1.339 2.656c-1.058-.638-2.257-.818-3.216-.818-1.238 0-1.737.379-1.737.818 0 1.299 5.593.14 5.593 3.755 0 2.597-2.537 3.915-5.753 3.915-1.917 0-3.755-.459-4.693-1.058z"/></g><path fill="#F8991D" d="M105.391 15.02a3.239 3.239 0 1 1-6.477.002v-.002a3.239 3.239 0 0 1 6.477-.002v.002z"/><path fill="#CB2026" d="M97.787 11.781a3.239 3.239 0 1 0 2.2 5.634c.119-.108.229-.224.33-.347h-.664a3.163 3.163 0 0 1-.241-.334h1.144c.07-.112.133-.227.189-.347h-1.522a3.192 3.192 0 0 1-.136-.34h1.793c.185-.555.217-1.15.092-1.72h-1.98a3.23 3.23 0 0 1 .093-.34h1.793a3.24 3.24 0 0 0-.14-.348h-1.515c.054-.117.116-.23.185-.34h1.144a3.245 3.245 0 0 0-.251-.347h-.638c.1-.117.208-.226.325-.327a3.227 3.227 0 0 0-2.18-.844h-.02z"/><path fill="#FCB341" d="M105.066 16.713c.018 0 .036.005.052.013.016.01.03.023.039.04a.105.105 0 1 1-.09-.053m0 .017a.09.09 0 0 0-.044.012.08.08 0 0 0-.032.032.087.087 0 0 0 .119.12.089.089 0 0 0 .032-.12.088.088 0 0 0-.075-.044m-.047.146v-.113h.039c.01 0 .02 0 .029.003.005.002.01.006.014.011.003.005.005.01.005.016a.03.03 0 0 1-.009.022.035.035 0 0 1-.023.01.033.033 0 0 1 .01.006.124.124 0 0 1 .016.023l.014.022h-.022l-.01-.018a.091.091 0 0 0-.02-.026.024.024 0 0 0-.014-.004h-.01v.048h-.019m.018-.064h.022c.008 0 .015 0 .022-.005a.015.015 0 0 0 .006-.012l-.003-.009a.017.017 0 0 0-.008-.006.056.056 0 0 0-.018-.002h-.02v.034"/><path fill="#21205F" d="M98.883 15.949l.043-.293c-.024 0-.058.01-.089.01-.12 0-.135-.064-.125-.111l.118-.59h.182l.038-.332h-.172l.035-.202h-.36c-.007.008-.203 1.134-.203 1.271a.256.256 0 0 0 .274.292.905.905 0 0 0 .259-.045zM98.992 15.39a.541.541 0 0 0 .596.603c.13.005.262-.015.385-.058l.061-.333a1.25 1.25 0 0 1-.387.087c-.37 0-.306-.276-.306-.276l.712.002c.021-.104.037-.209.045-.314a.473.473 0 0 0-.502-.507c-.347 0-.604.374-.604.796zm.605-.487c.194 0 .159.219.159.237h-.383a.25.25 0 0 1 .224-.237zM101.78 15.949l.062-.376a.83.83 0 0 1-.285.085.341.341 0 0 1-.343-.388c0-.407.21-.63.445-.63a.614.614 0 0 1 .316.098l.057-.365a.686.686 0 0 0-.346-.121c-.539-.002-.847.373-.847 1.022 0 .43.228.722.64.722.101-.006.202-.022.301-.047zM96.986 14.6a1.19 1.19 0 0 0-.417.076l-.05.297c.12-.042.247-.063.375-.061.129 0 .223.014.223.119a.221.221 0 0 1-.012.087s-.101-.009-.148-.009c-.337 0-.611.127-.611.511a.327.327 0 0 0 .332.372.425.425 0 0 0 .346-.154l-.003.127h.303l.136-.95a.408.408 0 0 0-.474-.415zm.053.77c.006.059-.015.333-.223.333a.126.126 0 0 1-.135-.13c0-.095.052-.208.304-.208a.08.08 0 0 1 .054.006zM97.783 15.985c.077 0 .521.02.521-.439 0-.428-.41-.343-.41-.515 0-.086.066-.113.189-.113.048 0 .235.015.235.015l.044-.304a1.609 1.609 0 0 0-.318-.027c-.255 0-.514.102-.514.45 0 .395.431.355.431.522 0 .11-.12.12-.213.12a1.127 1.127 0 0 1-.306-.053l-.046.302c.125.037.256.05.387.042zM104.625 14.324l-.063.464a.456.456 0 0 0-.333-.18c-.382 0-.58.382-.58.82 0 .282.141.559.428.559.123 0 .24-.053.322-.144l-.016.123h.336l.263-1.64-.357-.002zm-.149.902c0 .183-.09.426-.277.426-.124 0-.182-.104-.182-.268 0-.267.12-.444.272-.444.124 0 .187.086.187.286zM95.12 15.967l.21-1.238.03 1.238h.238l.443-1.238-.197 1.238h.353l.272-1.642-.56-.004-.334 1.005-.01-1h-.513l-.276 1.641h.343z"/><path fill="#21205F" d="M100.432 15.97c.1-.571.136-1.022.429-.929a1.99 1.99 0 0 1 .188-.506.137.137 0 0 0-.105-.022c-.155 0-.36.314-.36.314l.03-.194h-.321l-.215 1.336h.354zM102.503 14.6c-.143 0-.285.026-.418.076l-.05.297c.12-.042.248-.063.375-.061.129 0 .223.014.223.119a.222.222 0 0 1-.012.087s-.1-.009-.148-.009c-.337 0-.611.127-.611.511a.327.327 0 0 0 .333.372.425.425 0 0 0 .345-.154l-.003.127h.304l.135-.95a.408.408 0 0 0-.473-.415zm.052.77c.007.059-.015.333-.223.333a.126.126 0 0 1-.135-.13c0-.095.052-.208.304-.208a.08.08 0 0 1 .054.006zM103.326 15.97c.055-.42.157-1.01.428-.929.042-.22.002-.22-.089-.22-.063-.002-.126 0-.188.006l.03-.194h-.32l-.216 1.336h.355z"/><path fill="#FFF" d="M98.973 15.844l.043-.293c-.024 0-.058.01-.089.01-.12 0-.133-.063-.126-.11l.097-.599h.183l.044-.324h-.172l.035-.201h-.345c-.008.007-.203 1.133-.203 1.27a.256.256 0 0 0 .274.293.907.907 0 0 0 .259-.046zM99.082 15.286a.541.541 0 0 0 .596.603.878.878 0 0 0 .364-.057l.06-.332c-.115.05-.24.078-.366.084-.37 0-.305-.276-.305-.276h.7a2.48 2.48 0 0 0 .046-.314.462.462 0 0 0-.492-.504c-.346 0-.603.373-.603.796zm.605-.487c.194 0 .158.218.158.236h-.382a.25.25 0 0 1 .224-.236zM101.87 15.844l.062-.376a.83.83 0 0 1-.285.085.341.341 0 0 1-.343-.387c0-.407.21-.631.445-.631a.614.614 0 0 1 .316.098l.057-.365a1.238 1.238 0 0 0-.389-.084c-.398 0-.785.345-.785.993 0 .43.21.714.62.714a1.59 1.59 0 0 0 .302-.047zM97.076 14.495c-.142 0-.284.026-.417.076l-.05.297c.12-.042.247-.063.375-.06.129 0 .223.014.223.118a.22.22 0 0 1-.012.087s-.101-.009-.148-.009c-.298 0-.612.128-.612.511a.327.327 0 0 0 .333.372.449.449 0 0 0 .354-.158l-.011.132h.303l.136-.95a.408.408 0 0 0-.474-.416zm.074.773c.007.058-.036.33-.244.33a.126.126 0 0 1-.135-.13c0-.094.051-.208.304-.208a.22.22 0 0 1 .075.008zM97.872 15.88c.078 0 .522.02.522-.438 0-.429-.41-.344-.41-.516 0-.086.066-.113.189-.113.048 0 .235.016.235.016l.044-.305a1.609 1.609 0 0 0-.318-.027c-.255 0-.514.102-.514.45 0 .395.431.356.431.522 0 .11-.12.12-.213.12a1.126 1.126 0 0 1-.306-.053l-.046.302c.125.037.256.051.386.042zM104.726 14.222l-.074.461a.456.456 0 0 0-.333-.179c-.316 0-.58.381-.58.819 0 .282.141.56.428.56.123-.001.24-.053.321-.145l-.015.123h.336l.263-1.64h-.346zm-.16.9c0 .182-.09.425-.277.425-.124 0-.182-.104-.182-.267 0-.268.12-.444.272-.444.124 0 .187.085.187.286zM95.21 15.863l.21-1.238.03 1.238h.238l.443-1.238-.197 1.238h.353l.272-1.642h-.546l-.34 1.007-.017-1.007h-.503l-.276 1.642h.332zM100.522 15.865c.1-.571.119-1.034.358-.95.022-.139.065-.274.129-.4a.364.364 0 0 0-.067-.004.4.4 0 0 0-.269.211l.031-.194h-.321l-.215 1.337h.354zM102.666 14.495c-.143 0-.284.026-.418.076l-.05.297c.12-.042.248-.063.376-.06.128 0 .222.014.222.118a.222.222 0 0 1-.011.087s-.102-.009-.148-.009c-.299 0-.612.128-.612.511a.327.327 0 0 0 .333.372.448.448 0 0 0 .354-.158l-.012.132h.304l.135-.95a.408.408 0 0 0-.473-.416zm.074.773c.006.058-.037.33-.244.33a.126.126 0 0 1-.135-.13c0-.094.051-.208.304-.208a.22.22 0 0 1 .075.008zM103.417 15.865c.1-.571.119-1.034.358-.95a1.33 1.33 0 0 1 .129-.4.364.364 0 0 0-.067-.004.4.4 0 0 0-.269.211l.031-.194h-.321l-.215 1.337h.354zM105.065 15.659a.106.106 0 0 1 .09.052.105.105 0 1 1-.09-.052m0 .017a.089.089 0 0 0-.076.044.087.087 0 1 0 .076-.044m-.046.145v-.113h.039c.01 0 .019.001.028.004.006.002.011.005.014.01.004.005.006.011.006.017a.03.03 0 0 1-.01.022.034.034 0 0 1-.022.01.035.035 0 0 1 .01.006.134.134 0 0 1 .016.022l.014.022h-.023l-.01-.018a.091.091 0 0 0-.019-.026.023.023 0 0 0-.014-.004h-.01v.048h-.02m.019-.063h.022c.008 0 .015-.001.022-.005a.015.015 0 0 0 .005-.012c0-.004 0-.007-.002-.01a.017.017 0 0 0-.008-.005.057.057 0 0 0-.018-.002h-.021v.034"/><path fill="#005A9C" d="M91.797 18.158H82.63V11.882H91.955V18.158h-.158z"/><path fill="#FFF" d="M91.797 18h-9.008v-5.96h9.008V18z"/><path fill="#005A9C" d="M86.045 15.988l.585-1.929h.522l-.585 1.929h-.522zM85.812 14.06l-.47.817a1.98 1.98 0 0 0-.223.458h-.007c.008-.172-.016-.382-.018-.501l-.052-.775h-.878l-.01.052a.364.364 0 0 1 .397.346l.171 1.53h.54l1.094-1.928h-.544zM89.87 15.988l-.014-.287h-.652l-.133.287h-.567l1.028-1.925h.695l.174 1.925h-.53zm-.06-1.138a4.422 4.422 0 0 1 0-.453h-.008c-.032.096-.168.383-.228.525l-.194.422h.457l-.026-.494zM87.7 16.043a1.46 1.46 0 0 1-.788-.222l.249-.38c.163.121.36.187.563.19.09.009.179-.034.228-.11.073-.126-.016-.193-.22-.309l-.101-.065c-.302-.207-.433-.403-.29-.745.09-.22.33-.385.727-.385.245.004.482.086.678.233l-.286.335a.635.635 0 0 0-.404-.177.243.243 0 0 0-.223.1c-.054.108.018.181.176.28l.12.076c.367.231.455.474.363.7a.756.756 0 0 1-.792.479zM90.557 14.32h-.023v-.137h.052c.034 0 .05.011.05.04a.035.035 0 0 1-.032.037H90.6l.038.06h-.025l-.036-.058h-.021v.058zm.025-.078c.017 0 .032-.001.032-.021 0-.017-.016-.019-.03-.019h-.027v.04h.025zm0 .132a.124.124 0 1 1 .12-.125.12.12 0 0 1-.12.125zm0-.228a.103.103 0 1 0 .094.103.097.097 0 0 0-.095-.103z"/><path fill="#FBAA29" d="M91.575 16.587h-8.548v1.143h8.548v-1.143z"/><path fill="#005A9C" d="M91.56 12.325H83.01v1.144h8.548v-1.144zM91.364 17.649h-.023v-.138h.052c.034 0 .05.012.05.04a.035.035 0 0 1-.035.038l.038.06h-.025l-.036-.059h-.021v.059zm.025-.078c.017 0 .032-.002.032-.022 0-.016-.016-.018-.03-.018h-.027v.04h.025zm0 .131a.124.124 0 1 1 .121-.124.12.12 0 0 1-.122.124zm0-.227a.103.103 0 1 0 .094.103.097.097 0 0 0-.095-.103z"/><linearGradient id="a" gradientUnits="userSpaceOnUse" x1="30.155" y1="362.956" x2="30.155" y2="356.201" gradientTransform="matrix(1 0 0 -1 83.163 374.468)"><stop offset="0" stop-color="#3078bc"/><stop offset=".877" stop-color="#1aa6df"/></linearGradient><path fill="url(#a)" d="M118.375 17.549a.634.634 0 0 1-.632.632h-8.85a.634.634 0 0 1-.633-.632V12.49a.634.634 0 0 1 .633-.632h8.85a.634.634 0 0 1 .632.632v5.058z"/><path fill="#34679A" d="M117.743 11.88c.337 0 .61.274.61.611v5.058c0 .337-.273.61-.61.61h-8.85a.612.612 0 0 1-.612-.61V12.49c0-.337.274-.61.612-.61h8.85m0-.022h-8.85a.634.634 0 0 0-.633.632v5.058a.634.634 0 0 0 .633.632h8.85a.634.634 0 0 0 .632-.632V12.49a.634.634 0 0 0-.632-.632z" opacity=".5"/><path opacity=".5" fill="#FFF" d="M108.914 11.901h8.808a.634.634 0 0 1 .632.632v-.02a.634.634 0 0 0-.632-.633h-8.808a.634.634 0 0 0-.633.632v.021a.634.634 0 0 1 .633-.632zM117.722 18.139h-8.808a.634.634 0 0 1-.633-.633v.021a.634.634 0 0 0 .633.633h8.808a.634.634 0 0 0 .632-.633v-.02a.634.634 0 0 1-.632.632z"/><path fill="#3078BC" d="M110.127 14.377l-.146-.362-.145.362m3.513-.144a.196.196 0 0 1-.106.018h-.26v-.2h.263a.217.217 0 0 1 .102.015c.03.016.047.047.045.08a.093.093 0 0 1-.044.087m1.851.144l-.148-.362-.147.362h.295zm-3.451.39h-.22v-.71l-.31.71h-.187l-.311-.71v.71h-.434l-.083-.202h-.444l-.083.203h-.232l.382-.907h.318l.363.858v-.858h.349l.28.615.256-.615h.356v.907zm.873 0h-.714v-.906h.714v.19h-.5v.162h.488v.186h-.488v.181h.5v.188zm1.006-.662a.255.255 0 0 1-.15.242.248.248 0 0 1 .105.076c.03.05.042.109.035.167v.178h-.215v-.115a.275.275 0 0 0-.035-.176.207.207 0 0 0-.155-.039h-.23v.33h-.213v-.907h.491a.497.497 0 0 1 .259.044c.072.04.114.118.108.2m.342.663h-.218v-.907h.218v.907zm2.529 0h-.303l-.405-.68v.68h-.435l-.083-.203h-.444l-.08.203h-.25a.445.445 0 0 1-.31-.1.46.46 0 0 1-.114-.347.486.486 0 0 1 .115-.354.43.43 0 0 1 .324-.106h.207v.195h-.203a.204.204 0 0 0-.164.053.302.302 0 0 0-.061.205.317.317 0 0 0 .058.213.204.204 0 0 0 .15.047h.095l.301-.713h.32l.362.857v-.857h.325l.376.631v-.63h.219v.906zm-7.057.177h.365l.083-.2h.184l.082.2h.718v-.153l.064.154h.373l.064-.157v.157h1.785v-.33h.034c.024 0 .03.002.03.043v.286h.924v-.076c.106.053.224.08.343.076h.388l.083-.2h.185l.08.2h.75v-.19l.113.19h.6v-1.263h-.594v.149l-.083-.15h-.61v.15l-.076-.15h-.822a.73.73 0 0 0-.357.075v-.074h-.568v.074a.349.349 0 0 0-.24-.074h-2.075l-.139.326-.143-.326h-.653v.149l-.072-.15h-.557l-.259.602-.297.662h.297z"/><path fill="#FFF" d="M110.127 14.398l-.146-.362-.145.362m3.513-.144a.196.196 0 0 1-.106.018h-.26v-.2h.263a.217.217 0 0 1 .102.016c.03.015.047.046.045.08a.093.093 0 0 1-.044.086m1.851.144l-.148-.362-.147.362h.295zm-3.451.39h-.22v-.71l-.31.71h-.187l-.311-.71v.71h-.434l-.083-.202h-.444l-.083.203h-.232l.382-.907h.318l.363.858v-.858h.349l.28.615.256-.615h.356v.907zm.873 0h-.714v-.906h.714v.19h-.5v.162h.488v.186h-.488v.181h.5v.188zm1.006-.661a.255.255 0 0 1-.15.241.248.248 0 0 1 .105.076c.03.05.042.109.035.167v.178h-.215v-.115a.275.275 0 0 0-.035-.176.207.207 0 0 0-.155-.039h-.23v.33h-.213v-.907h.491a.497.497 0 0 1 .259.044c.072.04.114.118.108.2m.342.663h-.218v-.907h.218v.907zm2.529 0h-.303l-.405-.68v.68h-.435l-.083-.203h-.444l-.08.203h-.25a.445.445 0 0 1-.31-.1.46.46 0 0 1-.114-.347.486.486 0 0 1 .115-.354.43.43 0 0 1 .324-.106h.207v.195h-.203a.204.204 0 0 0-.164.053.302.302 0 0 0-.061.206.317.317 0 0 0 .058.212.204.204 0 0 0 .15.047h.095l.301-.713h.32l.362.858v-.857h.325l.376.63v-.63h.219v.906zm-7.057.178h.365l.083-.202h.184l.082.202h.718v-.154l.064.154h.373l.064-.157v.157h1.785v-.33h.034c.024 0 .03.002.03.043v.287h.924v-.077c.106.053.224.08.343.077h.388l.083-.202h.185l.08.202h.75v-.192l.113.192h.6v-1.264h-.594v.15l-.083-.15h-.61v.15l-.076-.15h-.822a.73.73 0 0 0-.357.074v-.074h-.568v.074a.349.349 0 0 0-.24-.074h-2.075l-.139.326-.143-.326h-.653v.15l-.072-.15h-.557l-.259.6-.297.664h.297z"/><path fill="#3078BC" d="M117.168 15.8v-.58h-.535a.442.442 0 0 0-.267.074v-.074h-.585a.401.401 0 0 0-.256.074v-.074h-1.045v.074a.55.55 0 0 0-.288-.074h-.689v.074a.483.483 0 0 0-.301-.074h-.771l-.177.193-.165-.193h-1.152v1.264h1.13l.182-.197.171.197h.697v-.297h.069a.719.719 0 0 0 .297-.044v.34h.575v-.329h.028c.035 0 .039.002.039.038v.292h1.746a.493.493 0 0 0 .29-.081v.08h.554a.734.734 0 0 0 .314-.058.457.457 0 0 0 .14-.625zm-3.973.202h-.267v.304h-.415l-.263-.3-.274.3h-.846V15.4h.86l.262.297.272-.297h.683a.298.298 0 0 1 .36.299c0 .251-.185.303-.372.303zm1.286-.041c.03.05.042.108.036.165v.18h-.215v-.113a.27.27 0 0 0-.034-.178.205.205 0 0 0-.157-.04h-.229v.33h-.214V15.4h.493a.523.523 0 0 1 .257.043c.073.04.116.118.11.201a.254.254 0 0 1-.151.241.233.233 0 0 1 .104.076zm.879-.373h-.5v.164h.488v.185h-.489v.18h.501v.189h-.713V15.4h.713v.188zm.544.718h-.416v-.194h.415a.124.124 0 0 0 .087-.023.08.08 0 0 0 .025-.059.078.078 0 0 0-.026-.06.111.111 0 0 0-.076-.02c-.2-.007-.45.006-.45-.28a.267.267 0 0 1 .305-.27h.429v.193h-.392a.143.143 0 0 0-.086.016.076.076 0 0 0 .015.133.242.242 0 0 0 .083.01l.115.003a.342.342 0 0 1 .244.073c.047.052.07.122.064.192a.279.279 0 0 1-.336.286zm1.1-.088a.36.36 0 0 1-.265.088h-.413v-.194h.411a.12.12 0 0 0 .087-.023.08.08 0 0 0 .025-.059.075.075 0 0 0-.026-.06.108.108 0 0 0-.076-.02c-.2-.007-.45.006-.45-.28a.268.268 0 0 1 .306-.27h.418v.193h-.382a.147.147 0 0 0-.086.016.07.07 0 0 0-.032.065.068.068 0 0 0 .047.068.24.24 0 0 0 .083.01l.115.003a.335.335 0 0 1 .243.073.117.117 0 0 1 .02.023l-.007-.01a.297.297 0 0 1-.018.377zm-5.126-.63l.234.263-.244.266h-.526v-.18h.47v-.185h-.47v-.165h.536zm.51.267l.327-.358v.726l-.328-.368zm.95-.156a.116.116 0 0 1-.133.12h-.277v-.231h.279a.11.11 0 0 1 .13.11zm.954-.014a.098.098 0 0 1-.044.087.203.203 0 0 1-.106.019h-.26v-.203h.263a.208.208 0 0 1 .103.016c.029.016.046.048.044.081z"/><path fill="#FFF" d="M117.168 15.82v-.579h-.535a.442.442 0 0 0-.267.074v-.074h-.585a.401.401 0 0 0-.256.074v-.074h-1.045v.074a.55.55 0 0 0-.288-.074h-.689v.074a.483.483 0 0 0-.301-.074h-.771l-.177.194-.165-.194h-1.152v1.264h1.13l.182-.197.171.197h.697v-.297h.069a.719.719 0 0 0 .297-.044v.34h.575v-.329h.028c.035 0 .039.002.039.038v.292h1.746a.493.493 0 0 0 .29-.081v.08h.554a.734.734 0 0 0 .314-.057v-.002a.457.457 0 0 0 .14-.624zm-3.973.203h-.267v.304h-.415l-.263-.3-.274.3h-.846v-.906h.86l.262.297.272-.297h.683a.298.298 0 0 1 .36.299c0 .251-.185.303-.372.303zm1.286-.04c.03.049.042.107.036.164v.18h-.215v-.113a.27.27 0 0 0-.034-.178.205.205 0 0 0-.157-.04h-.229v.331h-.214v-.906h.493a.523.523 0 0 1 .257.043c.073.04.116.118.11.201a.254.254 0 0 1-.151.241.233.233 0 0 1 .104.076zm.879-.374h-.5v.164h.488v.185h-.489v.18l.501.001v.188h-.713v-.906h.713v.188zm.544.718h-.416v-.194h.415a.124.124 0 0 0 .087-.023.08.08 0 0 0 .025-.059.078.078 0 0 0-.026-.06.111.111 0 0 0-.076-.02c-.2-.007-.45.007-.45-.28a.267.267 0 0 1 .305-.27h.429v.193h-.392a.143.143 0 0 0-.086.016.076.076 0 0 0 .015.133.242.242 0 0 0 .083.01l.115.003a.342.342 0 0 1 .244.073c.047.053.07.122.064.192a.279.279 0 0 1-.336.286zm1.1-.087a.36.36 0 0 1-.265.087h-.413v-.194h.411a.12.12 0 0 0 .087-.023.08.08 0 0 0 .025-.059.075.075 0 0 0-.026-.06.108.108 0 0 0-.076-.02c-.2-.007-.45.007-.45-.28a.268.268 0 0 1 .306-.27h.418v.193h-.382a.147.147 0 0 0-.086.016.07.07 0 0 0-.032.065.068.068 0 0 0 .047.068.24.24 0 0 0 .083.01l.115.003a.335.335 0 0 1 .243.073.117.117 0 0 1 .02.023l-.007-.01a.297.297 0 0 1-.018.378zm-5.126-.631l.234.263-.244.266h-.526v-.18h.47v-.185h-.47v-.164h.536zm.51.267l.327-.358v.727l-.328-.37zm.95-.156a.116.116 0 0 1-.133.12h-.277v-.231h.279a.11.11 0 0 1 .13.11zm.954-.014a.098.098 0 0 1-.044.087.203.203 0 0 1-.106.019h-.26v-.203h.263a.208.208 0 0 1 .103.016c.029.016.046.048.044.081z"/></svg>