<?xml version="1.0" encoding="utf-8"?>
<!-- Generator: Adobe Illustrator 21.0.0, SVG Export Plug-In . SVG Version: 6.00 Build 0)  -->
<svg version="1.1" id="Layer_1" xmlns="http://www.w3.org/2000/svg" xmlns:xlink="http://www.w3.org/1999/xlink" x="0px" y="0px"
	 width="128px" height="29.9351501px" viewBox="0 0 128 29.9351501" style="enable-background:new 0 0 128 29.9351501;"
	 xml:space="preserve">
<style type="text/css">
	.st0{fill:#95D600;}
	.st1{fill:#FFFFFF;}
	.st2{fill:#73A950;}
	.st3{fill:#4A7628;}
	.st4{fill:#CECDCE;}
	.st5{fill:#FF4C00;}
	.st6{fill:#CC3524;}
</style>
<title>visa_mc_amex</title>
<g>
	<path class="st0" d="M24.6117134,18.7442722c-0.1498489,0.4895134-0.7941399,0.9414425-1.6032543,1.124958
		c-0.0001106,0-0.0003319,0-0.0003319,0c-0.3345261,0.0756187-0.6785564,0.1034679-1.0225887,0.082695
		c-0.089325-0.0075302-0.1799774-0.0183601-0.2769279-0.0336113l-0.0140381-0.0017643
		c-0.6057034-0.0685444-1.1331425-0.2993793-1.4273148-0.4901829c0.0613575-0.0084,0.1303329-0.0205708,0.2081585-0.0384769
		c0.2592487-0.0588093,0.5675678-0.1642704,0.9464283-0.3250179c0.2506218-0.1096592,0.4664097-0.2275047,0.6586571-0.359951
		c0.3231392-0.1848373,0.6069221-0.3981934,0.8576488-0.5872421c0.0635662-0.0479755,0.1250305-0.0939617,0.1851711-0.1381874
		c0.5430222-0.3679123,0.9306126-0.4156609,1.2038898-0.1273537C24.6066303,18.147522,24.702364,18.4486637,24.6117134,18.7442722z"
		/>
	<path class="st0" d="M5.2146287,14.4943352c-0.7063003,1.1372271-0.8842907,2.5644855-0.4228497,3.3951626
		c0.213027,0.3833847,0.5376039,0.5781765,0.9644365,0.5781765h0.0002265c0.1417179,0,0.2958336-0.0216675,0.4580097-0.064333
		c0.7812519-0.2062893,0.7612495-0.6133366,0.5883422-1.7599621c-0.0575852-0.3825016-0.1229267-0.8153572-0.13376-1.2719421
		c-0.0306215-0.2827835-0.0319471-0.5829296-0.0042009-0.91679c0.0907679-0.955267,0.2401147-1.3988981,0.3622737-1.6422205
		c-0.3946619,0.1573076-1.0931253,0.6547918-1.6007624,1.3831997L5.4181595,14.207015
		C5.3437586,14.3049555,5.2772064,14.3990393,5.2146287,14.4943352z"/>
	<path class="st0" d="M14.1192284,24.6830254c-0.2764864,0-0.586031-0.1081181-0.946312-0.3307705l-0.0494127-0.0309486
		c-0.0171394-0.0108337-0.0343809-0.0216675-0.0519619-0.0331707l-0.1274662-0.0844631l0.0019932-0.0022068
		c-0.3156214-0.2244129-0.6400862-0.5195827-0.9664297-0.8790894c-0.0507383-0.0557175-0.1003771-0.1125469-0.1496878-0.16959
		c-0.2075033-0.2407722-0.4147768-0.5061016-0.6160889-0.789547c-0.369132-0.5191422-0.7152634-1.0946674-1.0288954-1.7102108
		c-1.0703497-2.171648-1.5806475-4.7540445-1.4378185-7.2729349c0.1462603-2.5792484,0.9776011-4.9307566,2.3411236-6.6214018
		c1.5855083-1.9660254,3.8943586-3.0937464,6.3346405-3.0937464c2.4712429,0,4.6400108,1.1352384,5.8016739,3.0365913
		c0.7466545,1.3221803,1.0098763,2.8393779,0.7636795,4.3917241c-0.4436359,2.7964745-2.4429398,5.5443621-5.6296616,7.7376757
		c-2.3827963,1.6401253-2.7159977,3.0666695-2.9593163,4.1080494c-0.0208883,0.0888748-0.0403471,0.1720142-0.0600319,0.2520466
		l-0.0013256,0.0053101c-0.0541697,0.2193317-0.1026974,0.377634-0.1576376,0.5151653
		C15.0930595,23.9489689,14.8233213,24.6830254,14.1192284,24.6830254z"/>
	<g>
		<path class="st1" d="M10.7639256,9.1280079c-0.0525141,0-0.1057987-0.0120449-0.1558828-0.0374804
			c-0.1694756-0.0862284-0.2370129-0.2935019-0.1507874-0.4630928c0.2908535-0.5718708,0.6293554-1.0988669,1.0061178-1.5660548
			c0.868145-1.0765295,1.9869108-1.9051099,3.2353544-2.3961639c0.1768818-0.0697684,0.3769798,0.0174565,0.4465179,0.1943355
			c0.0695305,0.1769934-0.017354,0.3769789-0.1944618,0.4465184c-1.1374464,0.447391-2.157939,1.2038956-2.9512472,2.1876788
			c-0.3469105,0.430037-0.6592073,0.916461-0.9284029,1.4458799C11.0103378,9.0591326,10.8894014,9.1280079,10.7639256,9.1280079z"
			/>
	</g>
	<circle class="st1" cx="15.7098284" cy="4.684557" r="0.3494503"/>
	<g>
		<path class="st1" d="M22.7495518,6.9806871c-1.0050087-1.6384726-2.841589-2.6512251-4.9630413-2.7552457
			c1.7904701,0.429708,3.2984867,1.4740787,4.2125168,2.9702654c0.7842407,1.3886209,1.0607281,2.9819808,0.8020382,4.612371
			c-0.1749992,1.1037321-0.5810528,2.2001772-1.1971474,3.2613459c0.9897556-1.3002872,1.6204472-2.6775341,1.8401051-4.0626097
			C23.6702156,9.5819283,23.4299889,8.1898794,22.7495518,6.9806871z"/>
	</g>
	<path class="st2" d="M23.6412468,19.3635731c-0.3343048,0.0756226-0.6784458,0.1034679-1.0224781,0.0829105
		c-0.089325-0.0075188-0.1799774-0.0185776-0.2770386-0.0336094l-0.0140419-0.0017662
		c-0.3985348-0.0453281-0.762579-0.1605244-1.049345-0.2887611c-0.3142967,0.1277962-0.5772915,0.2144775-0.8029289,0.2655411
		c-0.0778275,0.01791-0.146801,0.0300789-0.2081604,0.0384769c0.2941704,0.1908054,0.8216076,0.4216385,1.4273148,0.4901829
		l0.0140381,0.0017643c0.0969505,0.0152493,0.187603,0.026083,0.2769279,0.0336113
		c0.3440304,0.0207729,0.6880646-0.0070763,1.0225906-0.082695c0,0,0.0002213,0,0.0003319,0
		c0.6231728-0.1412888,1.1476212-0.4422054,1.4246616-0.7966251c-0.2327118,0.1242542-0.501236,0.2252979-0.7915401,0.2907429
		L23.6412468,19.3635731z"/>
	<path class="st1" d="M6.61552,13.376338c0,0-0.4704952,1.8364639,0.0574946,3.776454
		C6.1105313,16.1308575,5.7316737,14.6964254,6.61552,13.376338z"/>
	<g>
		<path class="st3" d="M7.2405725,12.0704126c-0.043222,0-0.0888777,0.0044279-0.1359677,0.0115004
			c-1.677052,0.1969967-3.8499141,2.8950882-3.3471301,5.4403381c0.5162628,2.6125183,3.3870351,1.8576794,3.7178032,0.7057457
			c0.1899228-0.4837627,0.0983844-1.0911236,0.0085135-1.6872177c-0.0579267-0.3842697-0.1178432-0.7815332-0.1265836-1.1994143
			l-0.0019937-0.0312796c-0.0273051-0.2423344-0.0285163-0.5034485-0.004313-0.794302
			c0.1065698-1.1234198,0.2840037-1.3945971,0.369133-1.5250435c0.0671082-0.1027098,0.168582-0.2578106,0.0927463-0.5188122
			C7.7398224,12.220542,7.5259018,12.0704126,7.2405725,12.0704126z M6.6690316,15.3714333
			c0.0108328,0.4565821,0.0761743,0.8894405,0.1337595,1.2719421c0.1729074,1.1466255,0.1929097,1.5536728-0.5883422,1.7599621
			c-0.1621761,0.0426655-0.3162889,0.064333-0.4580097,0.064333H5.7562156c-0.4268332,0-0.7514095-0.194788-0.9644365-0.5781765
			c-0.461441-0.8306732-0.2834506-2.2579317,0.4228497-3.3951607c0.0625777-0.095294,0.1291299-0.1893778,0.2035284-0.287323
			l0.0081844-0.0113878c0.5076375-0.7284079,1.2061033-1.2258911,1.6007624-1.3832006
			c-0.1221561,0.2433195-0.2715058,0.6869535-0.3622737,1.6422205C6.637084,14.7885036,6.6384101,15.0886536,6.6690316,15.3714333z"
			/>
		<circle class="st3" cx="14.3575792" cy="11.1341362" r="0.6358008"/>
		<circle class="st3" cx="20.0235481" cy="12.9399977" r="0.5793929"/>
		<path class="st3" d="M24.5208454,11.2444925c0.325573-2.0515966-0.1606941-3.996171-1.4064789-5.623683
			c-1.2473392-1.629847-3.5205746-2.6423733-5.9325676-2.6423733c-3.8861704,0-7.0670261,2.4745457-8.5090456,6.619626
			c-1.7624984,5.0663033,0.0192327,10.2499447,2.080554,13.149456c0.7436686,1.0462494,1.533555,1.8143463,2.2546721,2.2165222
			h-0.000227c0.0039864,0.0019932,0.0078554,0.0042114,0.0118294,0.0061932
			c0.139184,0.0769444,0.2758312,0.1404057,0.4090385,0.1890469c0.7896624,0.2995834,1.4999466,0.151886,2.0711584-0.8129921
			c0.0166979-0.0274181,0.0326147-0.0550461,0.0479755-0.0831356c0.0008936-0.0017662,0.0018787-0.0030899,0.0027723-0.0046425
			c0,0-0.0001125,0-0.000227,0c0.1916981-0.3502178,0.2815695-0.7340584,0.3739891-1.1293774
			c0.2352495-1.006897,0.5281057-2.2600937,2.7352304-3.7792721C21.9717197,17.070097,24.0533829,14.1915388,24.5208454,11.2444925z
			 M23.0955734,6.8384013c0.7310696,1.2946515,0.9887562,2.7628779,0.7452202,4.2981963
			c-0.2330437,1.4686537-0.9066238,2.9239416-1.9580669,4.2924328c-0.6188583,0.7307978-1.683239,1.2141199-2.8368282,1.3023367
			c-3.9798021,0.2321587-6.6483812-1.5029774-8.2766752-3.1793613C9.8036776,12.524991,9.1031275,10.9746351,9.7390041,9.418973
			c0.3666992-0.9180136,0.8468199-1.7670379,1.4448957-2.5087132C14.6272058,2.6405921,20.8088493,3.0950596,23.0955734,6.8384013z
			 M15.1941061,23.2228813c-0.0001154,0.0004406-0.0001154,0.0004406-0.0002146,0.0008831
			c-0.0453272,0.1839561-0.0923176,0.3497772-0.1528931,0.5014572c-0.2759333,0.7510681-0.7424536,1.2324123-1.8071661,0.5748558
			c-0.0088406-0.0053082-0.0180216-0.0115032-0.0269766-0.0172405c-0.0235453-0.0148163-0.0467634-0.0287418-0.0708532-0.0446701
			c0-0.0002136,0.0002146-0.0004406,0.0002146-0.0004406c-0.3166189-0.2078285-0.6770134-0.5142708-1.0661488-0.9427662
			c-0.0498533-0.0552788-0.0987139-0.1109982-0.1474714-0.1675987c-0.1969957-0.2281742-0.4001865-0.486412-0.6080275-0.7789288
			c-0.195447-0.2748356-0.3875866-0.5733204-0.5746431-0.8890438c0.2162409,0.1324368,0.4567995,0.2646465,0.7216702,0.3864765
			c0.7925377,0.3641491,1.6009922,0.5461178,2.4035892,0.5461178c0.3036795,0,0.6064758-0.0265236,0.9072809-0.0787106
			l-0.00033,0.0004387c0.5685539-0.1304474,0.638649,0.0004406,0.5550728,0.3511124c0.000227,0,0.000329,0,0.0005522,0
			c-0.0263081,0.1054611-0.0509653,0.2089405-0.074069,0.3077679
			C15.2332401,23.0594845,15.2137814,23.1428471,15.1941061,23.2228813z"/>
		<path class="st3" d="M24.8293915,17.3785324c-0.3678532-0.3920135-0.7728062-0.5414753-1.2033978-0.4437466
			c-0.377861,0.0857849-0.7134914,0.3380585-1.1020756,0.6305771c-0.2491798,0.1877136-0.5069847,0.3816204-0.796957,0.5463428
			l-0.026638,0.016798c-0.0149307,0.0103912-0.0309582,0.0201283-0.0462074,0.0302925l0.000885,0.0004406
			c-0.0079575,0.0048695-0.0155869,0.0095062-0.0234451,0.0141487c-0.0650024,0.0424519-0.1330929,0.083353-0.2058392,0.1224861
			c-1.1371174,0.6376629-1.7872658,0.3979893-1.9319744,0.7924232c-0.1293468,0.3524361,0.2213116,0.8065739,0.6432915,1.055542
			c0.4368973,0.230381,0.9882107,0.4001865,1.4728546,0.4561291c0.1119938,0.0174656,0.2174549,0.0298386,0.322258,0.0386944
			l0.0075169,0.0004406c0.4104729,0.0251999,0.8211651-0.0077438,1.2205849-0.0981693c0.0001106,0,0.0001106,0,0.0003319,0
			c1.0745506-0.2436581,1.8828373-0.8545609,2.1095715-1.595026C25.4337616,18.4123955,25.2771111,17.8558865,24.8293915,17.3785324
			z M24.6117134,18.7442722c-0.1498489,0.4895134-0.7941399,0.9414425-1.6032543,1.124958c-0.0001106,0-0.0003319,0-0.0003319,0
			c-0.3345261,0.0756187-0.6785564,0.1034679-1.0225887,0.082695c-0.089325-0.0075302-0.1799774-0.0183601-0.2769279-0.0336113
			l-0.0140381-0.0017643c-0.6057034-0.0685444-1.1331425-0.2993793-1.4273148-0.4901829
			c0.0613575-0.0084,0.1303329-0.0205708,0.2081585-0.0384769c0.2592487-0.0588093,0.5675678-0.1642704,0.9464283-0.3250179
			c0.2506218-0.1096592,0.4664097-0.2275047,0.6586571-0.359951c0.3231392-0.1848373,0.6069221-0.3981934,0.8576488-0.5872421
			c0.0635662-0.0479755,0.1250305-0.0939617,0.1851711-0.1381874c0.5430222-0.3679123,0.9306126-0.4156609,1.2038898-0.1273537
			C24.6066303,18.147522,24.702364,18.4486637,24.6117134,18.7442722z"/>
		<path class="st3" d="M17.2387295,14.4840565c-0.6773396,0.0458832-1.1708279-0.3099852-1.1708279-0.3099852
			C16.3852901,14.6554108,16.7336273,14.6618204,17.2387295,14.4840565z"/>
	</g>
	<ellipse class="st4" cx="14.3575764" cy="27.8921375" rx="2.3769372" ry="0.7575973"/>
	<path class="st5" d="M11.1548271,15.4542427c-1.033534-0.7543983-1.776206-1.5741272-2.2660608-2.2157516
		c-0.1644964,2.2935781,0.2191057,4.6950092,1.1289444,6.8082771l0.0043001-0.0041981
		c0.0067472,0.0070763,0.6795597,0.7008877,1.7486877,1.1873112c1.3799944,0.6277027,2.7552452,0.6361103,4.0890312,0.0278625
		c0.4089241-0.7453346,1.107378-1.5790958,2.4093323-2.4754429c0.6788921-0.4671803,1.2997417-0.960907,1.8660889-1.4736366
		c-0.8551044,0.1465988-1.6582603,0.2135925-2.4080048,0.2135925
		C14.7300186,17.5222511,12.5642338,16.4828529,11.1548271,15.4542427z"/>
	<path class="st5" d="M18.863163,13.3352127c-0.0768414-0.1410627-0.2429924-0.2207708-0.4816685-0.1662626l0.000103-0.0008821
		c-0.3469028,0.0771599-0.7976227,0.0529556-1.2618103-0.0918636c-0.4643135-0.1449337-0.8486977-0.3812914-1.0901394-0.6420765
		l-0.0003281,0.0007696c-0.3005915-0.3283367-0.6563416-0.1560965-0.7341709,0.2181196l-0.00033-0.0004416
		c-0.0009966,0.0046415-0.0016632,0.00951-0.0026598,0.0142527c-0.0006561,0.0038719-0.0014381,0.007741-0.0020962,0.0117273
		c-0.0615807,0.3228006,0.0871105,0.6599741,0.3768644,0.9317093c0.0001116-0.000103,0.0001116-0.000103,0.0001116-0.000103
		c0.8141928,0.856101,2.2389708,0.8883772,2.8869028,0.4007416c0.0590363-0.0467634,0.1114388-0.0957355,0.1563244-0.1462603
		c0.008173-0.0097246,0.017025-0.0190172,0.0248718-0.0289688C18.8712254,13.6700783,18.9260616,13.4917593,18.863163,13.3352127z"
		/>
	<path class="st1" d="M15.2997923,17.7860165c-0.2689724-0.0384674-0.5234537,0.0314045-0.7298565,0.1972218l0.0012236-0.0420094
		c0.0065203-0.138401-0.0946283-0.2573566-0.2353611-0.2774734c-0.1485796-0.021225-0.286994,0.082468-0.3081055,0.2310467
		l-0.4258366,2.9762306c-0.0219955,0.1545448,0.0897722,0.303566,0.2442017,0.3256741
		c0.1544447,0.0221176,0.3035765-0.0897598,0.325573-0.244091l0.1140862-0.7975063
		c0.147583,0.191473,0.369792,0.3155117,0.6400871,0.3539753c0.6409674,0.0917645,1.0784206-0.3431416,1.2000237-1.1932755
		C16.2515182,18.4364967,15.9504986,17.8791046,15.2997923,17.7860165z M15.1141863,18.2890244
		c0.2036304,0.0291843,0.5298595,0.1859474,0.4267206,0.9076176c-0.1062393,0.742672-0.4700537,0.8036976-0.6775665,0.7738476
		c-0.2092667-0.0296249-0.5451202-0.187048-0.44242-0.9049606C14.5277109,18.3188782,14.9010439,18.2587318,15.1141863,18.2890244z"
		/>
	<path class="st6" d="M9.7528276,14.2360954c-0.3456898-0.3548717-0.6338949-0.6961432-0.8640585-0.9976044
		c-0.1644955,2.2935781,0.2191067,4.6950092,1.1289444,6.8082771l0.0043011-0.0041981
		c0.0063057,0.0066338,0.5979729,0.6168804,1.5527868,1.0937805c-0.1484652-0.242981-0.2927313-0.4928322-0.42904-0.7528381
		C10.2108374,18.5406437,9.724967,16.3796024,9.7528276,14.2360954z"/>
	<path class="st2" d="M6.2088137,17.7334003H6.2087021c-0.4269481,0-0.7514095-0.1945744-0.9645481-0.5781765
		c-0.4053931-0.7298546-0.3167334-1.9197607,0.1895933-2.9694376c-0.0023193,0.0034313-0.0050831,0.0064182-0.0074024,0.0098372
		l-0.0081844,0.0113878c-0.0743985,0.0979443-0.1409507,0.192028-0.2035284,0.287324
		c-0.7063036,1.1372271-0.884294,2.5644855-0.422853,3.3951626c0.213027,0.3833847,0.5376039,0.5781765,0.9644365,0.5781765
		h0.0002265c0.1417179,0,0.2958336-0.0216675,0.4580097-0.064333c0.0577002-0.0152607,0.1096592-0.0318432,0.1587458-0.0495281
		c0.0147052-0.0053082,0.0281873-0.0110588,0.0421219-0.0165825c0.0342669-0.0134945,0.0665522-0.0276432,0.0966182-0.0426788
		c0.012712-0.0064087,0.0255384-0.0128269,0.0375829-0.0194492c0.0333939-0.0185776,0.0640154-0.0384769,0.091979-0.0594769
		c0.0046539-0.0035419,0.0101776-0.0066338,0.0145931-0.0101776c0.0316181-0.0251999,0.0591502-0.0524025,0.0839181-0.0813599
		c0.0064058-0.0075169,0.0117154-0.0159283,0.017683-0.0236588c0.0174689-0.0227757,0.0333848-0.0466499,0.0473199-0.0720768
		c0.0055237-0.0101776,0.0110478-0.0205669,0.0160279-0.0311775c0.01337-0.0278606,0.0247564-0.0574837,0.0343785-0.0886593
		c0.0024343-0.0077438,0.0056386-0.0150356,0.0078464-0.0230007c0.0110598-0.0402317,0.0195737-0.0831242,0.0255384-0.1288948
		c0.0009966-0.0081844,0.0013227-0.017025,0.0023193-0.0254269c0.0042014-0.0389194,0.0069618-0.079607,0.00807-0.1224995
		c0.0001121-0.0057373,0.0001121-0.0117168,0.0002265-0.0172424c-0.0683312,0.0289574-0.1450462,0.0546112-0.2325978,0.0776005
		C6.5046473,17.7119484,6.3505344,17.7334003,6.2088137,17.7334003z"/>
	<path class="st1" d="M24.3272114,17.8501358c-0.2732754-0.2883072-0.6608658-0.2405567-1.2038898,0.1273537
		c-0.0601387,0.0442276-0.1216049,0.0902119-0.1851711,0.1381874c-0.1455956,0.1096706-0.3036842,0.2273006-0.4728241,0.3431549
		l-0.0036469,0.0037594c1.0696831-0.755724,1.7977657-0.6487122,2.1436234,0.2964897
		c0.0016518-0.0050831,0.004858-0.0099392,0.0064087-0.0148087C24.702364,18.4486637,24.6066303,18.147522,24.3272114,17.8501358z"
		/>
	<path class="st2" d="M10.7399273,21.4593887c0.1870565,0.3157234,0.3791962,0.6142101,0.5746431,0.8890438
		c0.2078409,0.2925167,0.4110308,0.5507545,0.6080265,0.7789288c0.0487576,0.0566006,0.0976152,0.1123199,0.1474714,0.1675987
		c0.3891382,0.4284973,0.7495317,0.7349377,1.0661497,0.9427662c0,0-0.0002136,0.0002308-0.0002136,0.0004406
		c0.0240908,0.0159283,0.047307,0.02985,0.0708523,0.0446701c0.008956,0.0057373,0.018137,0.0119324,0.0269766,0.0172405
		c1.0647116,0.6575565,1.5312357,0.1762123,1.8071671-0.5748558c0.0605745-0.15168,0.1075649-0.3175011,0.1528921-0.5014572
		c0.000103-0.0004406,0.000103-0.0004406,0.0002146-0.0008831c0.009181-0.0373688,0.0186882-0.0780563,0.0278578-0.1169605
		c-0.1724539,0.6880608-0.6227322,1.1103649-1.5762215,0.4685154c-0.2581396-0.1936913-0.5211315-0.4309311-0.7857914-0.7141571
		c-0.0485306-0.0517445-0.0958481-0.1043606-0.1430559-0.1572056c-0.1516695-0.1709175-0.3023539-0.3586273-0.4512634-0.5534172
		c-0.269186-0.0813599-0.5376034-0.1812973-0.804039-0.303793C11.1967239,21.7240353,10.9561672,21.5918255,10.7399273,21.4593887z"
		/>
</g>
<g>
	<path d="M41.4277344,11.7382813c-0.0600586,0.1054688-0.1240234,0.1821289-0.1918945,0.2299805
		s-0.1518555,0.0712891-0.2524414,0.0712891c-0.1054688,0-0.2197266-0.0385742-0.3422852-0.1166992
		c-0.1235352-0.0776367-0.2700195-0.1640625-0.440918-0.2597656c-0.1704102-0.0952148-0.3701172-0.1816406-0.5986328-0.2597656
		c-0.2285156-0.0776367-0.4980469-0.1166992-0.8095703-0.1166992c-0.28125,0-0.5268555,0.0336914-0.737793,0.1015625
		s-0.3876953,0.1621094-0.5307617,0.2827148c-0.1430664,0.1201172-0.25,0.2646484-0.3203125,0.4326172
		c-0.0703125,0.168457-0.1054688,0.3530273-0.1054688,0.5537109c0,0.2558594,0.0717773,0.4692383,0.2148438,0.6401367
		s0.3325195,0.3164063,0.5683594,0.4365234c0.2358398,0.1206055,0.5048828,0.2285156,0.8056641,0.3237305
		c0.3012695,0.0957031,0.6103516,0.1972656,0.9262695,0.3051758c0.3164063,0.1074219,0.625,0.2333984,0.9262695,0.3769531
		c0.3012695,0.1425781,0.5698242,0.3232422,0.8061523,0.5419922c0.2358398,0.2177734,0.425293,0.4853516,0.5683594,0.8022461
		c0.1430664,0.3164063,0.2143555,0.7001953,0.2143555,1.1523438c0,0.4921875-0.0839844,0.9521484-0.2519531,1.3818359
		c-0.168457,0.4287109-0.4140625,0.8027344-0.7382813,1.1220703c-0.3237305,0.3183594-0.71875,0.5693359-1.1860352,0.7529297
		c-0.4667969,0.1835938-1.0014648,0.2744141-1.6040039,0.2744141c-0.3461914,0-0.6875-0.0332031-1.0239258-0.1015625
		c-0.3364258-0.0673828-0.6586914-0.1640625-0.9677734-0.2900391c-0.3085938-0.125-0.5986328-0.2753906-0.8696289-0.4511719
		s-0.512207-0.3720703-0.7231445-0.5878906l0.5952148-0.9707031c0.0498047-0.0703125,0.1152344-0.1298828,0.1958008-0.1777344
		c0.0800781-0.046875,0.1655273-0.0712891,0.2558594-0.0712891c0.1254883,0,0.2612305,0.0517578,0.4067383,0.1542969
		c0.1455078,0.1035156,0.3188477,0.2177734,0.5195313,0.3427734c0.2006836,0.1259766,0.4355469,0.2402344,0.7041016,0.3427734
		s0.5913086,0.1542969,0.9677734,0.1542969c0.5771484,0,1.0239258-0.1367188,1.340332-0.4101563
		s0.4746094-0.6669922,0.4746094-1.1787109c0-0.2861328-0.0717773-0.5195313-0.2148438-0.7001953
		s-0.3325195-0.3330078-0.5683594-0.4560547c-0.2363281-0.1230469-0.5048828-0.2265625-0.8061523-0.3125
		c-0.3007813-0.0854492-0.6074219-0.1782227-0.918457-0.2788086c-0.3115234-0.1005859-0.6176758-0.2207031-0.9189453-0.3613281
		c-0.3007813-0.140625-0.5698242-0.3242188-0.8056641-0.5498047s-0.425293-0.5083008-0.5683594-0.847168
		s-0.2148438-0.7568359-0.2148438-1.2539063c0-0.3964844,0.0791016-0.7832031,0.2373047-1.159668
		s0.3876953-0.7104492,0.6889648-1.0014648s0.6728516-0.5249023,1.1147461-0.7006836
		c0.4414063-0.175293,0.9487305-0.2631836,1.5209961-0.2631836c0.6425781,0,1.2348633,0.1000977,1.7773438,0.3012695
		c0.5419922,0.2006836,1.0039063,0.4819336,1.3852539,0.8432617L41.4277344,11.7382813z"/>
	<path d="M43.3178711,13.9975586c0.8886719-0.8129883,1.9580078-1.2197266,3.2080078-1.2197266
		c0.4521484,0,0.855957,0.0742188,1.2124023,0.222168s0.6577148,0.3540039,0.9038086,0.6171875
		c0.2460938,0.2636719,0.4331055,0.5786133,0.5610352,0.9448242c0.1279297,0.3671875,0.1918945,0.7685547,0.1918945,1.2050781
		v4.8803711h-0.8432617c-0.1757813,0-0.3115234-0.0263672-0.4067383-0.0791016s-0.1708984-0.1591797-0.2260742-0.3203125
		l-0.1655273-0.5566406c-0.1958008,0.1757813-0.3867188,0.3300781-0.5722656,0.4628906s-0.3789063,0.2451172-0.5795898,0.3349609
		c-0.2011719,0.0908203-0.4155273,0.1591797-0.644043,0.2070313s-0.480957,0.0712891-0.7568359,0.0712891
		c-0.3266602,0-0.6274414-0.0439453-0.9038086-0.1318359c-0.2758789-0.0869141-0.5146484-0.21875-0.715332-0.3945313
		s-0.3564453-0.3945313-0.4667969-0.6552734c-0.1103516-0.2617188-0.1655273-0.5654297-0.1655273-0.9111328
		c0-0.1962891,0.0322266-0.390625,0.0976563-0.5839844s0.171875-0.3779297,0.3203125-0.5537109
		c0.1479492-0.1757813,0.3398438-0.3408203,0.5756836-0.4970703c0.2363281-0.1552734,0.5258789-0.2910156,0.8701172-0.40625
		c0.34375-0.1152344,0.7441406-0.2099609,1.2011719-0.2822266c0.456543-0.0732422,0.9785156-0.1171875,1.565918-0.1318359
		v-0.4526367c0-0.5166016-0.1103516-0.8994141-0.3310547-1.1484375c-0.2211914-0.2480469-0.5400391-0.3725586-0.956543-0.3725586
		c-0.3012695,0-0.5507813,0.0351563-0.7490234,0.1054688c-0.1987305,0.0698242-0.3730469,0.1499023-0.5234375,0.237793
		c-0.1508789,0.0869141-0.2875977,0.1660156-0.4106445,0.2363281s-0.2597656,0.1054688-0.4101563,0.1054688
		c-0.1308594,0-0.2412109-0.0332031-0.331543-0.1015625c-0.090332-0.0673828-0.1630859-0.1464844-0.2182617-0.2373047
		L43.3178711,13.9975586z M47.5800781,17.3496094c-0.5371094,0.0244141-0.9887695,0.0712891-1.3554688,0.1386719
		c-0.3662109,0.0683594-0.6601563,0.1542969-0.8808594,0.2597656c-0.2211914,0.1054688-0.3789063,0.2285156-0.4746094,0.3691406
		c-0.0952148,0.140625-0.1430664,0.2939453-0.1430664,0.4589844c0,0.3271484,0.0966797,0.5605469,0.2900391,0.7011719
		s0.4453125,0.2099609,0.7568359,0.2099609c0.3813477,0,0.7114258-0.0683594,0.9902344-0.2070313
		c0.2788086-0.1376953,0.5507813-0.3466797,0.8168945-0.6279297V17.3496094z"/>
	<path d="M53.0244141,9.456543v11.190918h-1.8598633V9.456543H53.0244141z"/>
	<path d="M61.5942383,9.456543v11.190918h-1.137207c-0.2460938,0-0.4018555-0.1132813-0.4667969-0.3388672l-0.1582031-0.7451172
		c-0.3115234,0.3564453-0.6689453,0.6445313-1.0732422,0.8652344c-0.4038086,0.2216797-0.8745117,0.3320313-1.4116211,0.3320313
		c-0.421875,0-0.8085938-0.0878906-1.159668-0.2636719c-0.3515625-0.1757813-0.6542969-0.4306641-0.9077148-0.7646484
		s-0.4492188-0.7470703-0.5874023-1.2382813c-0.1381836-0.4921875-0.2070313-1.0546875-0.2070313-1.6875
		c0-0.5722656,0.0776367-1.1049805,0.2333984-1.5961914c0.1557617-0.4921875,0.3789063-0.9189453,0.6704102-1.2807617
		c0.2910156-0.3613281,0.6401367-0.6435547,1.046875-0.847168c0.40625-0.203125,0.8632813-0.3046875,1.3701172-0.3046875
		c0.4316406,0,0.8007813,0.0678711,1.1069336,0.203125c0.3061523,0.1357422,0.5800781,0.3188477,0.8208008,0.5498047V9.456543
		H61.5942383z M59.7338867,14.894043c-0.2104492-0.2558594-0.4404297-0.4375-0.6889648-0.5424805
		c-0.2485352-0.1054688-0.515625-0.1582031-0.8017578-0.1582031c-0.28125,0-0.534668,0.0527344-0.7607422,0.1582031
		c-0.2255859,0.1049805-0.4189453,0.2651367-0.5795898,0.4780273c-0.1606445,0.2138672-0.2836914,0.484375-0.3691406,0.8134766
		s-0.1279297,0.7172852-0.1279297,1.1635742c0,0.4521484,0.0361328,0.8349609,0.1088867,1.1484375
		c0.0727539,0.3144531,0.1772461,0.5703125,0.3125,0.7685547c0.1357422,0.1982422,0.3012695,0.3408203,0.4970703,0.4287109
		s0.4145508,0.1318359,0.6552734,0.1318359c0.3867188,0,0.715332-0.0800781,0.9863281-0.2402344
		c0.2714844-0.1611328,0.5273438-0.3896484,0.7680664-0.6855469V14.894043z"/>
	<path d="M66.8500977,12.800293c0.5722656,0,1.0932617,0.0927734,1.5625,0.2788086
		c0.4697266,0.1855469,0.8710938,0.4492188,1.2050781,0.7905273s0.5913086,0.7587891,0.7719727,1.25
		c0.1806641,0.4921875,0.2709961,1.0424805,0.2709961,1.6499023c0,0.6123047-0.090332,1.1640625-0.2709961,1.65625
		s-0.4379883,0.9111328-0.7719727,1.2578125s-0.7353516,0.6123047-1.2050781,0.7978516
		c-0.4692383,0.1855469-0.9902344,0.2792969-1.5625,0.2792969c-0.5771484,0-1.1020508-0.09375-1.5737305-0.2792969
		c-0.472168-0.1855469-0.875-0.4511719-1.2084961-0.7978516c-0.3339844-0.3466797-0.5927734-0.765625-0.7758789-1.2578125
		s-0.2749023-1.0439453-0.2749023-1.65625c0-0.6074219,0.0917969-1.1577148,0.2749023-1.6499023
		c0.1831055-0.4912109,0.4418945-0.9086914,0.7758789-1.25c0.3334961-0.3413086,0.7363281-0.6049805,1.2084961-0.7905273
		C65.7480469,12.8930664,66.2729492,12.800293,66.8500977,12.800293z M66.8500977,19.3300781
		c0.6425781,0,1.1181641-0.2158203,1.4272461-0.6484375c0.3085938-0.4316406,0.4628906-1.0634766,0.4628906-1.8974609
		c0-0.8334961-0.1542969-1.4682617-0.4628906-1.9057617c-0.309082-0.4365234-0.784668-0.6547852-1.4272461-0.6547852
		c-0.6523438,0-1.1357422,0.2192383-1.449707,0.6586914c-0.3134766,0.4394531-0.4702148,1.0732422-0.4702148,1.9018555
		c0,0.828125,0.1567383,1.4599609,0.4702148,1.8945313C65.7143555,19.1123047,66.1977539,19.3300781,66.8500977,19.3300781z"/>
	<path d="M75.5625,13.9975586c0.8886719-0.8129883,1.9580078-1.2197266,3.2080078-1.2197266
		c0.4521484,0,0.855957,0.0742188,1.2124023,0.222168s0.6577148,0.3540039,0.9038086,0.6171875
		c0.2460938,0.2636719,0.4331055,0.5786133,0.5610352,0.9448242c0.1279297,0.3671875,0.1918945,0.7685547,0.1918945,1.2050781
		v4.8803711h-0.8432617c-0.1757813,0-0.3115234-0.0263672-0.4067383-0.0791016s-0.1708984-0.1591797-0.2260742-0.3203125
		l-0.1655273-0.5566406c-0.1958008,0.1757813-0.3867188,0.3300781-0.5722656,0.4628906s-0.3789063,0.2451172-0.5795898,0.3349609
		c-0.2011719,0.0908203-0.4155273,0.1591797-0.644043,0.2070313s-0.480957,0.0712891-0.7568359,0.0712891
		c-0.3266602,0-0.6274414-0.0439453-0.9038086-0.1318359c-0.2758789-0.0869141-0.5146484-0.21875-0.715332-0.3945313
		s-0.3564453-0.3945313-0.4667969-0.6552734c-0.1103516-0.2617188-0.1655273-0.5654297-0.1655273-0.9111328
		c0-0.1962891,0.0322266-0.390625,0.0976563-0.5839844s0.171875-0.3779297,0.3203125-0.5537109
		c0.1479492-0.1757813,0.3398438-0.3408203,0.5756836-0.4970703c0.2363281-0.1552734,0.5258789-0.2910156,0.8701172-0.40625
		c0.34375-0.1152344,0.7441406-0.2099609,1.2011719-0.2822266c0.456543-0.0732422,0.9785156-0.1171875,1.565918-0.1318359
		v-0.4526367c0-0.5166016-0.1103516-0.8994141-0.3310547-1.1484375c-0.2211914-0.2480469-0.5400391-0.3725586-0.956543-0.3725586
		c-0.3012695,0-0.5507813,0.0351563-0.7490234,0.1054688c-0.1987305,0.0698242-0.3730469,0.1499023-0.5234375,0.237793
		c-0.1508789,0.0869141-0.2875977,0.1660156-0.4106445,0.2363281s-0.2597656,0.1054688-0.4101563,0.1054688
		c-0.1308594,0-0.2412109-0.0332031-0.331543-0.1015625c-0.090332-0.0673828-0.1630859-0.1464844-0.2182617-0.2373047
		L75.5625,13.9975586z M79.824707,17.3496094c-0.5371094,0.0244141-0.9887695,0.0712891-1.3554688,0.1386719
		c-0.3662109,0.0683594-0.6601563,0.1542969-0.8808594,0.2597656c-0.2211914,0.1054688-0.3789063,0.2285156-0.4746094,0.3691406
		c-0.0952148,0.140625-0.1430664,0.2939453-0.1430664,0.4589844c0,0.3271484,0.0966797,0.5605469,0.2900391,0.7011719
		s0.4453125,0.2099609,0.7568359,0.2099609c0.3813477,0,0.7114258-0.0683594,0.9902344-0.2070313
		c0.2788086-0.1376953,0.5507813-0.3466797,0.8168945-0.6279297V17.3496094z"/>
	<path d="M87.5878906,20.6474609v-6.3261719l-0.6699219-0.1054688c-0.1455078-0.0297852-0.2617188-0.081543-0.3496094-0.1542969
		s-0.1328125-0.1767578-0.1328125-0.3125v-0.7602539h1.1523438v-0.5727539c0-0.4414063,0.0664063-0.8378906,0.1992188-1.1894531
		s0.3242188-0.6503906,0.5722656-0.8964844c0.25-0.2456055,0.5507813-0.434082,0.9082031-0.5644531
		s0.7578125-0.1958008,1.2050781-0.1958008c0.3554688,0,0.6875,0.0478516,0.9941406,0.1430664l-0.0371094,0.9335938
		c-0.0058594,0.0703125-0.0253906,0.1269531-0.0605469,0.1694336c-0.0351563,0.0429688-0.0820313,0.0751953-0.140625,0.0981445
		c-0.0566406,0.0224609-0.1230469,0.0375977-0.1992188,0.0449219c-0.0742188,0.0078125-0.1542969,0.0112305-0.2402344,0.0112305
		c-0.2207031,0-0.4179688,0.0239258-0.5917969,0.0717773c-0.171875,0.0478516-0.3203125,0.1303711-0.4394531,0.2485352
		c-0.1210938,0.1181641-0.2128906,0.2734375-0.2753906,0.4667969s-0.09375,0.4331055-0.09375,0.7192383v0.512207h2.0097656
		v1.3251953h-1.9492188v6.3334961H87.5878906z"/>
	<path d="M92.2421875,13.9975586c0.8886719-0.8129883,1.9580078-1.2197266,3.2080078-1.2197266
		c0.4511719,0,0.8554688,0.0742188,1.2119141,0.222168s0.6582031,0.3540039,0.9033203,0.6171875
		c0.2460938,0.2636719,0.4335938,0.5786133,0.5615234,0.9448242c0.1279297,0.3671875,0.1923828,0.7685547,0.1923828,1.2050781
		v4.8803711h-0.84375c-0.1757813,0-0.3115234-0.0263672-0.40625-0.0791016
		c-0.0957031-0.0527344-0.1708984-0.1591797-0.2265625-0.3203125l-0.1650391-0.5566406
		c-0.1962891,0.1757813-0.3867188,0.3300781-0.5722656,0.4628906c-0.1865234,0.1328125-0.3798828,0.2451172-0.5800781,0.3349609
		c-0.2011719,0.0908203-0.4160156,0.1591797-0.6445313,0.2070313s-0.4804688,0.0712891-0.7568359,0.0712891
		c-0.3261719,0-0.6269531-0.0439453-0.9033203-0.1318359c-0.2763672-0.0869141-0.5146484-0.21875-0.7148438-0.3945313
		c-0.2011719-0.1757813-0.3564453-0.3945313-0.4677734-0.6552734c-0.1103516-0.2617188-0.1650391-0.5654297-0.1650391-0.9111328
		c0-0.1962891,0.0322266-0.390625,0.0976563-0.5839844s0.171875-0.3779297,0.3203125-0.5537109
		c0.1474609-0.1757813,0.3398438-0.3408203,0.5761719-0.4970703c0.2353516-0.1552734,0.5253906-0.2910156,0.8691406-0.40625
		s0.7441406-0.2099609,1.2011719-0.2822266c0.4570313-0.0732422,0.9794922-0.1171875,1.5664063-0.1318359v-0.4526367
		c0-0.5166016-0.1103516-0.8994141-0.3310547-1.1484375c-0.2207031-0.2480469-0.5400391-0.3725586-0.9560547-0.3725586
		c-0.3017578,0-0.5517578,0.0351563-0.75,0.1054688c-0.1982422,0.0698242-0.3720703,0.1499023-0.5234375,0.237793
		c-0.1503906,0.0869141-0.2871094,0.1660156-0.4101563,0.2363281s-0.2597656,0.1054688-0.4101563,0.1054688
		c-0.1308594,0-0.2412109-0.0332031-0.3310547-0.1015625c-0.0908203-0.0673828-0.1640625-0.1464844-0.21875-0.2373047
		L92.2421875,13.9975586z M96.5039063,17.3496094c-0.5371094,0.0244141-0.9892578,0.0712891-1.3554688,0.1386719
		c-0.3662109,0.0683594-0.6601563,0.1542969-0.8808594,0.2597656s-0.3789063,0.2285156-0.4746094,0.3691406
		s-0.1425781,0.2939453-0.1425781,0.4589844c0,0.3271484,0.0966797,0.5605469,0.2900391,0.7011719
		c0.1923828,0.140625,0.4453125,0.2099609,0.7568359,0.2099609c0.3808594,0,0.7109375-0.0683594,0.9902344-0.2070313
		c0.2783203-0.1376953,0.5507813-0.3466797,0.8164063-0.6279297V17.3496094z"/>
	<path d="M106.8515625,12.9208984l-3.0654297,7.7265625h-1.6865234l-3.0654297-7.7265625h1.5361328
		c0.140625,0,0.2578125,0.0327148,0.3505859,0.0976563c0.0927734,0.0654297,0.1542969,0.1484375,0.1845703,0.2485352
		l1.4912109,4.1274414c0.0800781,0.2412109,0.1503906,0.4765625,0.2109375,0.7080078
		c0.0595703,0.2304688,0.1123047,0.4619141,0.1582031,0.6923828c0.0498047-0.2304688,0.1054688-0.4619141,0.1650391-0.6923828
		c0.0605469-0.2314453,0.1328125-0.4667969,0.21875-0.7080078l1.5214844-4.1274414
		c0.0341797-0.1000977,0.0976563-0.1831055,0.1875-0.2485352c0.0908203-0.0649414,0.1982422-0.0976563,0.3242188-0.0976563
		H106.8515625z"/>
	<path d="M111.015625,12.800293c0.5722656,0,1.0927734,0.0927734,1.5625,0.2788086
		c0.46875,0.1855469,0.8710938,0.4492188,1.2041016,0.7905273c0.3339844,0.3413086,0.5917969,0.7587891,0.7724609,1.25
		c0.1806641,0.4921875,0.2705078,1.0424805,0.2705078,1.6499023c0,0.6123047-0.0898438,1.1640625-0.2705078,1.65625
		s-0.4384766,0.9111328-0.7724609,1.2578125c-0.3330078,0.3466797-0.7353516,0.6123047-1.2041016,0.7978516
		c-0.4697266,0.1855469-0.9902344,0.2792969-1.5625,0.2792969c-0.578125,0-1.1025391-0.09375-1.5742188-0.2792969
		s-0.875-0.4511719-1.2089844-0.7978516s-0.5917969-0.765625-0.7753906-1.2578125s-0.2744141-1.0439453-0.2744141-1.65625
		c0-0.6074219,0.0908203-1.1577148,0.2744141-1.6499023c0.1835938-0.4912109,0.4414063-0.9086914,0.7753906-1.25
		s0.7373047-0.6049805,1.2089844-0.7905273C109.9130859,12.8930664,110.4375,12.800293,111.015625,12.800293z
		 M111.015625,19.3300781c0.6425781,0,1.1181641-0.2158203,1.4267578-0.6484375
		c0.3085938-0.4316406,0.4628906-1.0634766,0.4628906-1.8974609c0-0.8334961-0.1542969-1.4682617-0.4628906-1.9057617
		c-0.3085938-0.4365234-0.7841797-0.6547852-1.4267578-0.6547852c-0.6533203,0-1.1367188,0.2192383-1.4501953,0.6586914
		s-0.4707031,1.0732422-0.4707031,1.9018555c0,0.828125,0.1572266,1.4599609,0.4707031,1.8945313
		C109.8789063,19.1123047,110.3623047,19.3300781,111.015625,19.3300781z"/>
	<path d="M118.0029297,14.2612305c0.2412109-0.4619141,0.5273438-0.824707,0.859375-1.0883789
		c0.3310547-0.2631836,0.7226563-0.3950195,1.1738281-0.3950195c0.3564453,0,0.6425781,0.0776367,0.859375,0.2333984
		l-0.1210938,1.3925781c-0.0253906,0.0908203-0.0615234,0.1542969-0.109375,0.1923828s-0.1113281,0.0566406-0.1914063,0.0566406
		c-0.0751953,0-0.1875-0.0126953-0.3349609-0.0380859c-0.1484375-0.0253906-0.2929688-0.0371094-0.4335938-0.0371094
		c-0.2060547,0-0.3886719,0.0292969-0.5498047,0.0898438c-0.1601563,0.0605469-0.3046875,0.1474609-0.4326172,0.2597656
		c-0.1279297,0.1132813-0.2412109,0.25-0.3388672,0.4111328c-0.0976563,0.1601563-0.1894531,0.34375-0.2753906,0.5498047v4.7592773
		h-1.859375v-7.7265625h1.0917969c0.1904297,0,0.3232422,0.0336914,0.3994141,0.1015625
		c0.0751953,0.0678711,0.125,0.1894531,0.1503906,0.3652344L118.0029297,14.2612305z"/>
</g>
</svg>
