<svg xmlns="http://www.w3.org/2000/svg" xmlns:xlink="http://www.w3.org/1999/xlink" width="165.15506" height="29.93515" viewBox="0 0 165.15506 29.93515"><defs><linearGradient id="a" x1="58.625" y1="-343.71026" x2="58.625" y2="-312.49772" gradientTransform="translate(91 347.5)" gradientUnits="userSpaceOnUse"><stop offset="0" stop-color="#3078bc"/><stop offset="0.8772" stop-color="#1aa6df"/></linearGradient></defs><title>visa_mc_amex</title><path d="M112.99951,20.00008a14.96369,14.96369,0,0,1-29.92738.0076v-0.0076a14.96369,14.96369,0,1,1,29.92738-.0076v0.0076Z" transform="translate(-7.83717 -5.03243)" style="fill:#f8991d"/><path d="M77.86685,5.03631A14.96383,14.96383,0,1,0,88.03269,31.06488l-0.00118-.00068h0.00321a15.10409,15.10409,0,0,0,1.51909-1.60235H86.4881a14.61459,14.61459,0,0,1-1.11563-1.54138h5.28735a14.98812,14.98812,0,0,0,.87109-1.60235H84.49952a14.759,14.759,0,0,1-.62537-1.57212H92.157a15.02978,15.02978,0,0,0,.42524-7.95045H83.43488a14.9201,14.9201,0,0,1,.42693-1.572h8.28585a14.96585,14.96585,0,0,0-.64513-1.60218H84.49867a14.35706,14.35706,0,0,1,.8586-1.57178h5.28347a14.99633,14.99633,0,0,0-1.1614-1.60235H86.53353a13.88752,13.88752,0,0,1,1.50119-1.51149A14.91062,14.91062,0,0,0,77.96328,5.03631C77.931,5.03631,77.89911,5.03614,77.86685,5.03631Z" transform="translate(-7.83717 -5.03243)" style="fill:#cb2026"/><path d="M111.49832,27.82269a0.49731,0.49731,0,0,1,.238.06266,0.44119,0.44119,0,0,1,.1807.17935,0.48452,0.48452,0,0,1,.00085.48283,0.45036,0.45036,0,0,1-.17918.17952,0.48891,0.48891,0,0,1-.48131,0,0.45763,0.45763,0,0,1-.17952-0.17952,0.48562,0.48562,0,0,1,.00118-0.48283,0.44979,0.44979,0,0,1,.18087-0.17935,0.50167,0.50167,0,0,1,.23846-0.06266m0,0.08022a0.41317,0.41317,0,0,0-.1986.05252,0.37077,0.37077,0,0,0-.15047.15,0.40167,0.40167,0,0,0-.05489.20164,0.41011,0.41011,0,0,0,.0532.20063,0.38769,0.38769,0,0,0,.15.14946,0.40524,0.40524,0,0,0,.40143,0,0.38265,0.38265,0,0,0,.14929-0.14946,0.40924,0.40924,0,0,0,.05286-0.20063,0.40384,0.40384,0,0,0-.05421-0.20164,0.36794,0.36794,0,0,0-.151-0.15,0.40554,0.40554,0,0,0-.19758-0.05252m-0.21212.67131V28.05372h0.17935a0.41757,0.41757,0,0,1,.1324.01486,0.12813,0.12813,0,0,1,.06553.05016,0.13407,0.13407,0,0,1,.02432.07617,0.13728,0.13728,0,0,1-.04087.0993,0.16021,0.16021,0,0,1-.10792.04746,0.15127,0.15127,0,0,1,.04459.0277,0.57063,0.57063,0,0,1,.07684.103l0.06333,0.10184h-0.10234l-0.04594-.08191a0.42033,0.42033,0,0,0-.088-0.12126,0.10975,0.10975,0,0,0-.067-0.01773H111.371v0.2214h-0.08444m0.08377-.29352h0.102a0.16442,0.16442,0,0,0,.0993-0.02179,0.07112,0.07112,0,0,0,.02685-0.05776,0.06814,0.06814,0,0,0-.01267-0.04121,0.07875,0.07875,0,0,0-.036-0.02736,0.261,0.261,0,0,0-.08394-0.00929h-0.09525v0.1574" transform="translate(-7.83717 -5.03243)" style="fill:#fcb341"/><path d="M82.92891,24.293l0.19928-1.35443c-0.10893,0-.269.04712-0.41055,0.04712-0.55461,0-.62385-0.29639-0.58028-0.51289l0.5465-2.72406h0.84306l0.17378-1.53733H82.9061l0.16179-.93155H81.40576c-0.03513.03513-.94033,5.23905-0.94033,5.873a1.18209,1.18209,0,0,0,1.26932,1.349A4.18348,4.18348,0,0,0,82.92891,24.293Z" transform="translate(-7.83717 -5.03243)" style="fill:#21205f"/><path d="M83.43336,21.71118a2.50068,2.50068,0,0,0,2.75227,2.78638,4.78967,4.78967,0,0,0,1.7817-.27089L88.248,22.68985a5.77286,5.77286,0,0,1-1.79032.4016c-1.71094,0-1.411-1.27573-1.411-1.27573l3.28695,0.01a11.443,11.443,0,0,0,.20924-1.45272,2.18361,2.18361,0,0,0-2.32128-2.33884C84.61958,18.03445,83.43336,19.76059,83.43336,21.71118Zm2.79432-2.25035c0.89913,0,.73328,1.01059.73328,1.0925H85.19209A1.15118,1.15118,0,0,1,86.22767,19.46083Z" transform="translate(-7.83717 -5.03243)" style="fill:#21205f"/><path d="M96.31634,24.29254l0.28524-1.73678a3.83668,3.83668,0,0,1-1.31846.392,1.57724,1.57724,0,0,1-1.58377-1.79032c0-1.88084.97242-2.91574,2.055-2.91574a2.83636,2.83636,0,0,1,1.46336.45581l0.26008-1.68764a3.169,3.169,0,0,0-1.59695-.55866c-2.49016-.00979-3.915,1.72395-3.915,4.72109,0,1.98656,1.05517,3.33846,2.95644,3.33846A7.36706,7.36706,0,0,0,96.31634,24.29254Z" transform="translate(-7.83717 -5.03243)" style="fill:#21205f"/><path d="M74.1658,18.05894A5.50188,5.50188,0,0,0,72.236,18.41l-0.23137,1.3725a5.02982,5.02982,0,0,1,1.73627-.28085c0.59328,0,1.02731.06671,1.02731,0.54887a1.02125,1.02125,0,0,1-.053.40093s-0.46814-.039-0.685-0.039c-1.5554,0-2.82522.588-2.82522,2.361A1.51206,1.51206,0,0,0,72.74314,24.491a1.96327,1.96327,0,0,0,1.59492-.71184l-0.013.58906H75.728l0.62588-4.38755A1.88385,1.88385,0,0,0,74.1658,18.05894Zm0.24285,3.56273c0.03057,0.26785-.06924,1.53446-1.02883,1.53446a0.58049,0.58049,0,0,1-.62334-0.60156c0-.43639.23694-0.95976,1.40425-0.95976A0.374,0.374,0,0,1,74.40865,21.62167Z" transform="translate(-7.83717 -5.03243)" style="fill:#21205f"/><path d="M77.84489,24.45855c0.35887,0,2.41028.09137,2.41028-2.02557,0-1.97946-1.89891-1.58816-1.89891-2.3836,0-.39552.30956-0.52016,0.87548-0.52016,0.22444,0,1.08878.07144,1.08878,0.07144l0.2008-1.40679a7.4319,7.4319,0,0,0-1.46995-.12514c-1.17863,0-2.375.4705-2.375,2.08029,0,1.82426,1.99483,1.641,1.99483,2.40944,0,0.51289-.55731.55511-0.98695,0.55511a5.20757,5.20757,0,0,1-1.41472-.24285l-0.21262,1.39243A5.073,5.073,0,0,0,77.84489,24.45855Z" transform="translate(-7.83717 -5.03243)" style="fill:#21205f"/><path d="M109.45822,16.7827L109.17027,18.929a2.10632,2.10632,0,0,0-1.53885-.82837c-1.76634,0-2.67661,1.76026-2.67661,3.78228,0,1.30546.64918,2.58507,1.97575,2.58507a1.992,1.992,0,0,0,1.48346-.66556l-0.07009.56829h1.55l1.21713-7.57638Zm-0.68431,4.17155c0,0.84154-.4168,1.96578-1.28029,1.96578-0.57352,0-.84238-0.48148-0.84238-1.23689,0-1.23537.55478-2.05023,1.25513-2.05023C108.47954,19.63292,108.77391,20.02641,108.77391,20.95425Z" transform="translate(-7.83717 -5.03243)" style="fill:#21205f"/><path d="M65.53914,24.377l0.96989-5.72,0.14254,5.72h1.09756l2.04769-5.72-0.90706,5.72h1.63106l1.256-7.58651-2.591-.01976L67.6446,21.41563l-0.04222-4.62517H65.2279l-1.274,7.58651h1.58529Z" transform="translate(-7.83717 -5.03243)" style="fill:#21205f"/><path d="M90.08646,24.38779c0.46375-2.63709.62892-4.71974,1.98132-4.28842a9.19065,9.19065,0,0,1,.86856-2.34036,0.63259,0.63259,0,0,0-.48486-0.09947c-0.71353,0-1.66619,1.448-1.66619,1.448l0.14237-.89524H89.44386l-0.9937,6.17533h1.6363v0.00017Z" transform="translate(-7.83717 -5.03243)" style="fill:#21205f"/><path d="M99.65346,18.05894a5.503,5.503,0,0,0-1.93032.35111l-0.2312,1.3725a5.0317,5.0317,0,0,1,1.73611-.28085c0.59345,0,1.02731.06671,1.02731,0.54887a1.02422,1.02422,0,0,1-.05286.40093s-0.468-.039-0.68481-0.039c-1.55557,0-2.82522.588-2.82522,2.361a1.512,1.512,0,0,0,1.538,1.71753,1.9631,1.9631,0,0,0,1.59475-.71184L99.812,24.3682h1.40324l0.62571-4.38755A1.88355,1.88355,0,0,0,99.65346,18.05894ZM99.896,21.62167c0.0304,0.26785-.06941,1.53446-1.02882,1.53446a0.58044,0.58044,0,0,1-.62351-0.60156c0-.43639.23677-0.95976,1.40425-0.95976A0.3737,0.3737,0,0,1,99.896,21.62167Z" transform="translate(-7.83717 -5.03243)" style="fill:#21205f"/><path d="M103.456,24.38779c0.25468-1.94011.726-4.66384,1.98115-4.28842,0.194-1.02072.00692-1.018-.41089-1.018a7.44334,7.44334,0,0,0-.87211.026l0.14254-.89524H102.813l-0.9937,6.1755H103.456v0.00017Z" transform="translate(-7.83717 -5.03243)" style="fill:#21205f"/><path d="M83.34419,23.80989l0.19945-1.35426c-0.10893,0-.2692.04661-0.41055,0.04661-0.55461,0-.61574-0.29487-0.58045-0.51289l0.448-2.76324h0.84289l0.2035-1.498H83.25232l0.16179-.93155H81.82088c-0.03513.03513-.9405,5.23922-0.9405,5.87287a1.18226,1.18226,0,0,0,1.26948,1.3492A4.19045,4.19045,0,0,0,83.34419,23.80989Z" transform="translate(-7.83717 -5.03243)" style="fill:#fff"/><path d="M83.849,21.22785a2.50089,2.50089,0,0,0,2.75227,2.78655,4.05479,4.05479,0,0,0,1.68291-.26126l0.28068-1.53666a4.961,4.961,0,0,1-1.69186.39164c-1.71077,0-1.41118-1.27556-1.41118-1.27556h3.2378a11.45958,11.45958,0,0,0,.20908-1.45306,2.13591,2.13591,0,0,0-2.2718-2.32888C85.03487,17.551,83.849,19.2771,83.849,21.22785Zm2.794-2.25035c0.89913,0,.73328,1.01042.73328,1.09216H85.60738A1.15132,1.15132,0,0,1,86.643,18.9775Z" transform="translate(-7.83717 -5.03243)" style="fill:#fff"/><path d="M96.732,23.80921L97.017,22.07227a3.8325,3.8325,0,0,1-1.31829.392,1.577,1.577,0,0,1-1.58344-1.79015c0-1.88084.97242-2.91558,2.055-2.91558a2.83711,2.83711,0,0,1,1.46336.45581l0.26008-1.68764a5.72091,5.72091,0,0,0-1.79437-.391c-1.83929,0-3.6286,1.5956-3.6286,4.59223,0,1.98706.96617,3.29944,2.86745,3.29944A7.347,7.347,0,0,0,96.732,23.80921Z" transform="translate(-7.83717 -5.03243)" style="fill:#fff"/><path d="M74.58142,17.57545a5.50344,5.50344,0,0,0-1.93.35111l-0.2312,1.3725a5.02936,5.02936,0,0,1,1.73611-.28085c0.59328,0,1.02731.06671,1.02731,0.54887a1.01835,1.01835,0,0,1-.0532.40093s-0.468-.03918-0.68465-0.03918c-1.37791,0-2.82539.588-2.82539,2.361a1.51216,1.51216,0,0,0,1.53818,1.71753,2.07316,2.07316,0,0,0,1.63444-.7316l-0.05252.60882h1.4029l0.62588-4.38772A1.88375,1.88375,0,0,0,74.58142,17.57545ZM74.92273,21.148c0.0304,0.268-.168,1.52433-1.12729,1.52433a0.58048,0.58048,0,0,1-.62351-0.60156c0-.43605.23694-0.95959,1.40442-0.95959A1.0137,1.0137,0,0,1,74.92273,21.148Z" transform="translate(-7.83717 -5.03243)" style="fill:#fff"/><path d="M78.26035,23.97523c0.35887,0,2.41045.0912,2.41045-2.02574,0-1.97913-1.89908-1.58816-1.89908-2.38326,0-.39586.30956-0.52049,0.87531-0.52049,0.22461,0,1.08878.07144,1.08878,0.07144l0.201-1.40679a7.43193,7.43193,0,0,0-1.46995-.12514c-1.17863,0-2.375.47051-2.375,2.08029,0,1.82409,1.99483,1.641,1.99483,2.40944,0,0.51289-.55731.55461-0.98678,0.55461a5.20214,5.20214,0,0,1-1.41489-.24285l-0.21245,1.3926A5.0579,5.0579,0,0,0,78.26035,23.97523Z" transform="translate(-7.83717 -5.03243)" style="fill:#fff"/><path d="M109.92923,16.31306l-0.34368,2.13247a2.10525,2.10525,0,0,0-1.53851-.82837c-1.45982,0-2.67661,1.76009-2.67661,3.78245,0,1.30546.649,2.58457,1.97575,2.58457a1.99215,1.99215,0,0,0,1.48346-.66539l-0.07009.56829h1.54966l1.21713-7.57655Zm-0.73987,4.15787c0,0.84154-.41663,1.96562-1.28046,1.96562-0.57335,0-.842-0.48131-0.842-1.23672,0-1.2352.55478-2.05023,1.25479-2.05023C108.89517,19.14943,109.18936,19.54343,109.18936,20.47093Z" transform="translate(-7.83717 -5.03243)" style="fill:#fff"/><path d="M65.95477,23.89365l0.96989-5.72,0.14237,5.72h1.09773l2.04769-5.72-0.90706,5.72h1.63106L72.19259,16.307H69.67034l-1.57077,4.65489L68.01783,16.307h-2.325l-1.27421,7.58668h1.53615Z" transform="translate(-7.83717 -5.03243)" style="fill:#fff"/><path d="M90.50208,23.90413c0.46375-2.63726.54971-4.77868,1.65639-4.38671a6.12973,6.12973,0,0,1,.5921-1.84757,1.68,1.68,0,0,0-.3072-0.02077,1.847,1.847,0,0,0-1.24213.97479l0.142-.89524H89.85982L88.866,23.90413h1.63613Z" transform="translate(-7.83717 -5.03243)" style="fill:#fff"/><path d="M100.40822,17.57545a5.50341,5.50341,0,0,0-1.93.35111l-0.231,1.3725a5.0294,5.0294,0,0,1,1.73611-.28085c0.59328,0,1.027.06671,1.027,0.54887a1.02422,1.02422,0,0,1-.05286.40093s-0.468-.03918-0.68481-0.03918c-1.37774,0-2.82522.588-2.82522,2.361a1.512,1.512,0,0,0,1.538,1.71753,2.0722,2.0722,0,0,0,1.63427-.7316l-0.05219.60882h1.4029l0.62571-4.38772A1.8837,1.8837,0,0,0,100.40822,17.57545ZM100.75,21.148c0.0304,0.268-.1682,1.52433-1.12779,1.52433a0.58018,0.58018,0,0,1-.62317-0.60156c0-.43605.23694-0.95959,1.40425-0.95959A1.02,1.02,0,0,1,100.75,21.148Z" transform="translate(-7.83717 -5.03243)" style="fill:#fff"/><path d="M103.87832,23.90413c0.46392-2.63726.54988-4.77868,1.65623-4.38671a6.14235,6.14235,0,0,1,.59244-1.84757,1.68,1.68,0,0,0-.3072-0.02077,1.847,1.847,0,0,0-1.24213.97479l0.142-.89524h-1.48346l-0.99387,6.1755h1.636Z" transform="translate(-7.83717 -5.03243)" style="fill:#fff"/><path d="M111.4919,22.95129a0.48835,0.48835,0,0,1,.23745.063,0.43768,0.43768,0,0,1,.181.17885,0.48476,0.48476,0,0,1,.00068.48266,0.44848,0.44848,0,0,1-.17884.17952,0.48874,0.48874,0,0,1-.48182,0,0.45231,0.45231,0,0,1-.17868-0.17952,0.48309,0.48309,0,0,1,.00051-0.48266,0.44414,0.44414,0,0,1,.18121-0.17885,0.495,0.495,0,0,1,.23846-0.063m0,0.07971a0.40986,0.40986,0,0,0-.1986.05286,0.36876,0.36876,0,0,0-.151.14946,0.40409,0.40409,0,0,0-.00152.40228,0.385,0.385,0,0,0,.15047.14963,0.40717,0.40717,0,0,0,.40126,0,0.38306,0.38306,0,0,0,.14929-0.14963,0.40407,0.40407,0,0,0-.00119-0.40228,0.36476,0.36476,0,0,0-.151-0.14946,0.4066,0.4066,0,0,0-.19775-0.05286m-0.21195.67147V23.18182h0.17918a0.4217,0.4217,0,0,1,.13257.01486,0.12768,0.12768,0,0,1,.06553.05016,0.13237,0.13237,0,0,1,.02466.07617,0.13791,0.13791,0,0,1-.04121.0993,0.15772,0.15772,0,0,1-.10758.04729,0.15976,0.15976,0,0,1,.04425.02753,0.61782,0.61782,0,0,1,.07684.10319l0.06367,0.102H111.615l-0.04577-.08191a0.42171,0.42171,0,0,0-.088-0.12126,0.10792,0.10792,0,0,0-.06738-0.0179h-0.04914v0.2214L111.28,23.70248m0.0841-.293h0.102a0.1625,0.1625,0,0,0,.0993-0.02179,0.0706,0.0706,0,0,0,.027-0.05776,0.06826,0.06826,0,0,0-.01267-0.04087,0.07739,0.07739,0,0,0-.036-0.0277,0.265,0.265,0,0,0-.0841-0.009h-0.09542v0.15706" transform="translate(-7.83717 -5.03243)" style="fill:#fff"/><polygon points="42.35 29.468 0.732 29.468 0 29.468 0 28.736 0 1.199 0 0.467 0.732 0.467 42.35 0.467 43.082 0.467 43.082 1.199 43.082 28.736 43.082 29.468 42.35 29.468 42.35 29.468" style="fill:#005a9c"/><polygon points="42.35 28.736 0.732 28.736 0.732 1.199 42.35 1.199 42.35 28.736 42.35 28.736" style="fill:#fff;fill-rule:evenodd"/><polygon points="15.774 19.44 18.476 10.528 20.888 10.528 18.185 19.44 15.774 19.44 15.774 19.44" style="fill:#005a9c;fill-rule:evenodd"/><path d="M22.53257,15.56253L20.3632,19.34044a9.15176,9.15176,0,0,0-1.03034,2.11447h-0.033c0.03849-.79264-0.07206-1.76579-0.08234-2.31591l-0.23972-3.57647H14.91825l-0.04162.23979A1.68273,1.68273,0,0,1,16.70815,17.398l0.79117,7.07413h2.49846l5.05187-8.90961H22.53257Z" transform="translate(-7.83717 -5.03243)" style="fill:#005a9c;fill-rule:evenodd"/><path d="M41.28688,24.47214L41.22039,23.1467l-3.01126-.00236-0.616,1.32781H34.97489l4.74744-8.895h3.21381l0.8039,8.895H41.28688Zm-0.27661-5.257a20.441,20.441,0,0,1-.00445-2.09356H40.97024c-0.14668.4425-.77714,1.77094-1.05438,2.4244l-0.89721,1.95346H41.133l-0.12271-2.28429h0Z" transform="translate(-7.83717 -5.03243)" style="fill:#005a9c;fill-rule:evenodd"/><path d="M31.257,24.72522a6.74269,6.74269,0,0,1-3.63914-1.02153l1.14868-1.75439a4.45364,4.45364,0,0,0,2.60129.87247,1.11939,1.11939,0,0,0,1.05612-.50794c0.33534-.57973-0.07734-0.89152-1.01937-1.425l-0.46521-.30247c-1.39661-.95433-2.00065-1.86071-1.34331-3.44278,0.42075-1.01207,1.53031-1.7792,3.36071-1.7792a5.39971,5.39971,0,0,1,3.1353,1.07955l-1.32066,1.54885a2.93435,2.93435,0,0,0-1.86913-.81945,1.12408,1.12408,0,0,0-1.02909.461c-0.25133.49766,0.08109,0.837,0.81508,1.29244l0.55325,0.352c1.69553,1.0694,2.09946,2.19069,1.67455,3.239A3.49438,3.49438,0,0,1,31.257,24.72522h0Z" transform="translate(-7.83717 -5.03243)" style="fill:#005a9c;fill-rule:evenodd"/><path d="M44.45769,16.76791H44.3534V16.132H44.5945c0.15357,0,.232.05371,0.232,0.18281a0.1626,0.1626,0,0,1-.16587.17359l0.178,0.27947H44.72035l-0.16427-.27176H44.45769v0.27176h0Zm0.11687-.361c0.07831,0,.14731-0.00772.14731-0.09979,0-.07678-0.07518-0.08608-0.13807-0.08608H44.45769v0.18588h0.11687Zm-0.0032.60674a0.57458,0.57458,0,1,1,.56215-0.57443,0.55294,0.55294,0,0,1-.56215.57443h0Zm0-1.04911a0.476,0.476,0,1,0,.43923.47468,0.446,0.446,0,0,0-.43923-0.47468h0Z" transform="translate(-7.83717 -5.03243)" style="fill:#005a9c;fill-rule:evenodd"/><polygon points="41.325 22.207 1.83 22.207 1.83 27.492 41.325 27.492 41.325 22.207 41.325 22.207" style="fill:#fbaa29;fill-rule:evenodd"/><polygon points="41.252 2.517 1.757 2.517 1.757 7.801 41.252 7.801 41.252 2.517 41.252 2.517" style="fill:#005a9c;fill-rule:evenodd"/><path d="M48.18654,32.1481H48.08217V31.51216h0.24119c0.15349,0,.23187.05378,0.23187,0.18282a0.16255,0.16255,0,0,1-.16586.17357l0.178,0.27954H48.4492l-0.16433-.27176H48.18654V32.1481h0Zm0.11681-.361c0.07832,0,.14738-0.00778.14738-0.09985,0-.07679-0.07518-0.086-0.13813-0.086H48.18654v0.18588h0.11681Zm-0.00313.60675a0.57458,0.57458,0,1,1,.56208-0.57444,0.55291,0.55291,0,0,1-.56208.57444h0Zm0-1.04911a0.476,0.476,0,1,0,.43916.47467,0.446,0.446,0,0,0-.43916-0.47467h0Z" transform="translate(-7.83717 -5.03243)" style="fill:#005a9c;fill-rule:evenodd"/><path d="M172.99223,31.68362a2.92949,2.92949,0,0,1-2.9209,2.9209H129.17867a2.92949,2.92949,0,0,1-2.9209-2.9209V8.31638a2.92949,2.92949,0,0,1,2.9209-2.9209h40.89265a2.92949,2.92949,0,0,1,2.9209,2.9209V31.68362Z" transform="translate(-7.83717 -5.03243)" style="fill:url(#a)"/><g style="opacity:0.5"><path d="M170.07133,5.49284a2.8267,2.8267,0,0,1,2.82354,2.82354V31.68362a2.82676,2.82676,0,0,1-2.82354,2.82354H129.17867a2.82676,2.82676,0,0,1-2.82354-2.82354V8.31638a2.82669,2.82669,0,0,1,2.82354-2.82354h40.89265m0-.09736H129.17867a2.92949,2.92949,0,0,0-2.9209,2.9209V31.68362a2.92949,2.92949,0,0,0,2.9209,2.9209h40.89265a2.92949,2.92949,0,0,0,2.9209-2.9209V8.31638a2.92949,2.92949,0,0,0-2.9209-2.9209h0Z" transform="translate(-7.83717 -5.03243)" style="fill:#34679a"/></g><path d="M129.276,5.59021H169.974a2.92949,2.92949,0,0,1,2.9209,2.9209V8.41375a2.92949,2.92949,0,0,0-2.9209-2.9209H129.276a2.92949,2.92949,0,0,0-2.9209,2.9209V8.51111A2.92949,2.92949,0,0,1,129.276,5.59021Z" transform="translate(-7.83717 -5.03243)" style="fill:#fff;opacity:0.5;isolation:isolate"/><path d="M169.974,34.40979H129.276a2.92949,2.92949,0,0,1-2.9209-2.9209v0.09736a2.92949,2.92949,0,0,0,2.9209,2.9209H169.974a2.92949,2.92949,0,0,0,2.9209-2.9209V31.48889A2.92949,2.92949,0,0,1,169.974,34.40979Z" transform="translate(-7.83717 -5.03243)" style="fill:#fff;opacity:0.5;isolation:isolate"/><path d="M134.88388,17.02759l-0.67561-1.669-0.67171,1.669m16.23127-.6647a0.90388,0.90388,0,0,1-.48828.08636h-1.19913V15.51943h1.21539a1.00292,1.00292,0,0,1,.46812.07526,0.38455,0.38455,0,0,1,.20719.37027,0.42888,0.42888,0,0,1-.2033.39792m8.55465,0.6647-0.6831-1.669-0.6794,1.669h1.3625ZM142.3761,18.83407H141.364l-0.0037-3.2791-1.43134,3.2791h-0.86673l-1.43514-3.28183v3.28183h-2.00763l-0.37933-.93381h-2.05534l-0.38313.93381h-1.072l1.76773-4.18673h1.46649l1.67894,3.96386V14.64735h1.61107l1.29182,2.84009,1.18667-2.84009h1.64369v4.18673h0Zm4.03318,0h-3.2976V14.64735h3.2976v0.872H144.099V16.2738h2.25474v0.85826H144.099v0.83587h2.31024v0.86614Zm4.64959-3.05906a1.179,1.179,0,0,1-.69566,1.11588,1.148,1.148,0,0,1,.48838.35255,1.21829,1.21829,0,0,1,.16318.7681v0.82253h-0.99564l-0.0036-.528a1.27023,1.27023,0,0,0-.156-0.81561,0.95587,0.95587,0,0,0-.71942-0.17915h-1.0597v1.52276h-0.98707V14.64735h2.27052a2.29773,2.29773,0,0,1,1.19523.20057,0.97951,0.97951,0,0,1,.49977.9271m1.57953,3.05906h-1.00723V14.64744h1.00723v4.18663Zm11.68488,0h-1.39882l-1.87113-3.14231v3.14231H159.043l-0.384-.93381H156.6083l-0.37271.93381h-1.15483a2.05628,2.05628,0,0,1-1.43154-.46316,2.125,2.125,0,0,1-.52732-1.59822,2.24674,2.24674,0,0,1,.53219-1.637,1.98638,1.98638,0,0,1,1.49911-.48838h0.95552v0.897h-0.93557a0.94264,0.94264,0,0,0-.75953.24808,1.39464,1.39464,0,0,0-.28391.94842,1.46427,1.46427,0,0,0,.27174.98308,0.94276,0.94276,0,0,0,.68768.216h0.4432l1.39142-3.29254h1.47914l1.671,3.95987V14.64754h1.503l1.73521,2.91574V14.64754h1.011v4.18653h0.0001Zm-32.605.82233h1.68653l0.3803-.92992h0.85135l0.37933,0.92992h3.31844v-0.711l0.29628,0.714h1.72275l0.29618-.72448V19.6565h8.24707l-0.00389-1.52637h0.15958c0.11168,0.0038.1442,0.01421,0.1442,0.20115v1.32512H153.462V19.301a3.3404,3.3404,0,0,0,1.58332.35538h1.79431l0.384-.92992h0.85154l0.37543,0.92992h3.45806V18.77293l0.52362,0.88348h2.77087v-5.839h-2.74234V14.507l-0.3839-.68963h-2.814V14.507l-0.35265-.68963h-3.801a3.37516,3.37516,0,0,0-1.64729.34077V13.81742h-2.62307v0.34077a1.61168,1.61168,0,0,0-1.11471-.34077h-9.583l-0.643,1.50806-0.66041-1.50806h-3.01846V14.507l-0.33162-.68963h-2.57419l-1.19543,2.77612L130.347,19.6564h1.37127Z" transform="translate(-7.83717 -5.03243)" style="fill:#3078bc"/><path d="M134.88388,17.125l-0.67561-1.669-0.67171,1.669m16.23127-.6647a0.90388,0.90388,0,0,1-.48828.08636h-1.19913V15.61679h1.21539a1.00292,1.00292,0,0,1,.46812.07526,0.38455,0.38455,0,0,1,.20719.37027,0.42888,0.42888,0,0,1-.2033.39792m8.55465,0.6647-0.6831-1.669L156.96,17.125h1.3625ZM142.3761,18.93144H141.364l-0.0037-3.2791-1.43134,3.2791h-0.86673l-1.43514-3.28183v3.28183h-2.00763l-0.37933-.93381h-2.05534l-0.38313.93381h-1.072l1.76773-4.18673h1.46649l1.67894,3.96386V14.74471h1.61107l1.29182,2.84009,1.18667-2.84009h1.64369v4.18673h0Zm4.03318,0h-3.2976V14.74471h3.2976v0.872H144.099v0.75447h2.25474v0.85826H144.099v0.83587h2.31024v0.86614Zm4.64959-3.05906a1.179,1.179,0,0,1-.69566,1.11588,1.148,1.148,0,0,1,.48838.35255,1.21829,1.21829,0,0,1,.16318.7681v0.82253h-0.99564l-0.0036-.528a1.27023,1.27023,0,0,0-.156-0.81561,0.95587,0.95587,0,0,0-.71942-0.17915h-1.0597v1.52276h-0.98707V14.74471h2.27052a2.29773,2.29773,0,0,1,1.19523.20057,0.97951,0.97951,0,0,1,.49977.9271m1.57953,3.05906h-1.00723V14.74481h1.00723v4.18663Zm11.68488,0h-1.39882l-1.87113-3.14231v3.14231H159.043l-0.384-.93381H156.6083l-0.37271.93381h-1.15483a2.05628,2.05628,0,0,1-1.43154-.46316,2.125,2.125,0,0,1-.52732-1.59822,2.24674,2.24674,0,0,1,.53219-1.637,1.98638,1.98638,0,0,1,1.49911-.48838h0.95552v0.897h-0.93557a0.94264,0.94264,0,0,0-.75953.24808,1.39464,1.39464,0,0,0-.28391.94842,1.46427,1.46427,0,0,0,.27174.98308,0.94276,0.94276,0,0,0,.68768.216h0.4432l1.39142-3.29254h1.47914l1.671,3.95987V14.7449h1.503l1.73521,2.91574V14.7449h1.011v4.18653h0.0001Zm-32.605.82233h1.68653l0.3803-.92992h0.85135l0.37933,0.92992h3.31844v-0.711l0.29628,0.714h1.72275l0.29618-.72448v0.72166h8.24707l-0.00389-1.52637h0.15958c0.11168,0.0038.1442,0.01421,0.1442,0.20115v1.32512H153.462V19.39839a3.3404,3.3404,0,0,0,1.58332.35538h1.79431l0.384-.92992h0.85154l0.37543,0.92992h3.45806V18.87029l0.52362,0.88348h2.77087v-5.839h-2.74234v0.68963l-0.3839-.68963h-2.814v0.68963l-0.35265-.68963h-3.801a3.37516,3.37516,0,0,0-1.64729.34077V13.91478h-2.62307v0.34077a1.61168,1.61168,0,0,0-1.11471-.34077h-9.583l-0.643,1.50806-0.66041-1.50806h-3.01846v0.68963l-0.33162-.68963h-2.57419l-1.19543,2.77612L130.347,19.75377h1.37127Z" transform="translate(-7.83717 -5.03243)" style="fill:#fff"/><path d="M167.41739,23.604V20.925h-2.47323a2.041,2.041,0,0,0-1.23593.34175V20.925h-2.70359a1.853,1.853,0,0,0-1.17936.34175V20.925h-4.82777V21.2667a2.54373,2.54373,0,0,0-1.33164-.34175H150.4816V21.2667a2.2311,2.2311,0,0,0-1.392-.34175H145.5257l-0.81542.8938-0.76382-.8938h-5.32354v5.839h5.22335l0.84015-.90762,0.79166,0.90762,3.21971,0.00282V25.39345h0.31672a3.32211,3.32211,0,0,0,1.37526-.20524v1.576h2.65549V25.242h0.12823c0.16347,0,.17964.007,0.17964,0.17243v1.34936h8.06715a2.27942,2.27942,0,0,0,1.3444-.37368v0.37368h2.55871a3.39109,3.39109,0,0,0,1.44828-.26921v-0.006A2.112,2.112,0,0,0,167.41739,23.604Zm-18.35924.9342h-1.232V25.9418H145.9064l-1.21607-1.38519-1.26368,1.38519h-3.91187V21.75721h3.972l1.2151,1.37185,1.25618-1.37185h3.15565a1.37776,1.37776,0,0,1,1.66443,1.37867C150.778,24.2984,149.92147,24.53821,149.05815,24.53821Zm5.94336-.18966a1.23077,1.23077,0,0,1,.16357.76411v0.82944h-0.99145V25.41857a1.24982,1.24982,0,0,0-.15968-0.81892,0.949,0.949,0,0,0-.72458-0.18577H152.234v1.52822h-0.99223V21.75741h2.28006a2.41558,2.41558,0,0,1,1.18813.19765,0.98207,0.98207,0,0,1,.50775.929,1.172,1.172,0,0,1-.69985,1.11335A1.077,1.077,0,0,1,155.00151,24.34854Zm4.05986-1.72567h-2.31258v0.7606h2.2562v0.85388h-2.2562v0.83255l2.31258,0.0036V25.9418h-3.29614V21.75721h3.29614v0.86566Zm2.515,3.31893H159.653v-0.897h1.91582a0.57455,0.57455,0,0,0,.40348-0.10379,0.37282,0.37282,0,0,0,.11674-0.27271,0.36079,0.36079,0,0,0-.12054-0.2769,0.51434,0.51434,0,0,0-.35148-0.093c-0.92369-.03164-2.08037.02911-2.08037-1.29523a1.23526,1.23526,0,0,1,1.41187-1.24577h1.98v0.89068h-1.81164a0.66176,0.66176,0,0,0-.39559.07526,0.35288,0.35288,0,0,0,.06786.6129,1.11823,1.11823,0,0,0,.38439.04722l0.5317,0.01451a1.58117,1.58117,0,0,1,1.12766.33659,1.17314,1.17314,0,0,1,.2955.8864A1.28686,1.28686,0,0,1,161.57636,25.9418Zm5.08247-.40367a1.66721,1.66721,0,0,1-1.227.40367h-1.90735v-0.897h1.89956a0.55563,0.55563,0,0,0,.39958-0.10379,0.36922,0.36922,0,0,0,.11684-0.27271,0.34561,0.34561,0,0,0-.12073-0.2769,0.49671,0.49671,0,0,0-.348-0.093c-0.92719-.03164-2.08416.02911-2.08416-1.29523a1.23922,1.23922,0,0,1,1.41722-1.24577h1.92926V22.6479h-1.76218a0.67752,0.67752,0,0,0-.39958.07526,0.32747,0.32747,0,0,0-.14419.30124,0.31486,0.31486,0,0,0,.21615.31166,1.10755,1.10755,0,0,0,.3804.04732l0.5353,0.01441a1.54763,1.54763,0,0,1,1.12036.337,0.5395,0.5395,0,0,1,.09172.1034l-0.03359-.04323A1.37427,1.37427,0,0,1,166.65883,25.53813Zm-23.68444-2.91526,1.08025,1.21928-1.128,1.22746h-2.42815V24.23726h2.16809v-0.854h-2.16809v-0.7607h2.47586v0.00029Zm2.35172,1.234,1.51624-1.65031V25.5614Zm4.39148-.72088a0.53375,0.53375,0,0,1-.61543.55263h-1.276V22.623h1.28753A0.5059,0.5059,0,0,1,149.71759,23.136Zm4.40823-.06114a0.45277,0.45277,0,0,1-.20456.40182,0.93663,0.93663,0,0,1-.4875.08617H152.234V22.62317h1.21578a0.96174,0.96174,0,0,1,.47143.07546A0.39871,0.39871,0,0,1,154.12582,23.07483Z" transform="translate(-7.83717 -5.03243)" style="fill:#3078bc"/><path d="M167.41739,23.70137V21.02232h-2.47323a2.041,2.041,0,0,0-1.23593.34175V21.02232h-2.70359a1.853,1.853,0,0,0-1.17936.34175V21.02232h-4.82777v0.34175a2.54373,2.54373,0,0,0-1.33164-.34175H150.4816v0.34175a2.2311,2.2311,0,0,0-1.392-.34175H145.5257l-0.81542.8938-0.76382-.8938h-5.32354v5.839h5.22335l0.84015-.90762,0.79166,0.90762,3.21971,0.00282V25.49081h0.31672a3.32211,3.32211,0,0,0,1.37526-.20524v1.576h2.65549V25.33941h0.12823c0.16347,0,.17964.007,0.17964,0.17243V26.8612h8.06715a2.27942,2.27942,0,0,0,1.3444-.37368V26.8612h2.55871a3.39109,3.39109,0,0,0,1.44828-.26921V26.586A2.112,2.112,0,0,0,167.41739,23.70137Zm-18.35924.9342h-1.232v1.40359H145.9064L144.69033,24.654l-1.26368,1.38519h-3.91187V21.85458h3.972l1.2151,1.37185,1.25618-1.37185h3.15565a1.37776,1.37776,0,0,1,1.66443,1.37867C150.778,24.39577,149.92147,24.63557,149.05815,24.63557Zm5.94336-.18966a1.23077,1.23077,0,0,1,.16357.76411v0.82944h-0.99145V25.51593a1.24982,1.24982,0,0,0-.15968-0.81892,0.949,0.949,0,0,0-.72458-0.18577H152.234v1.52822h-0.99223V21.85477h2.28006a2.41558,2.41558,0,0,1,1.18813.19765,0.98207,0.98207,0,0,1,.50775.929,1.172,1.172,0,0,1-.69985,1.11335A1.077,1.077,0,0,1,155.00151,24.44591Zm4.05986-1.72567h-2.31258v0.7606h2.2562v0.85388h-2.2562v0.83255l2.31258,0.0036v0.86829h-3.29614V21.85458h3.29614v0.86566Zm2.515,3.31893H159.653v-0.897h1.91582a0.57455,0.57455,0,0,0,.40348-0.10379,0.37282,0.37282,0,0,0,.11674-0.27271,0.36079,0.36079,0,0,0-.12054-0.2769,0.51434,0.51434,0,0,0-.35148-0.093c-0.92369-.03164-2.08037.02911-2.08037-1.29523a1.23526,1.23526,0,0,1,1.41187-1.24577h1.98v0.89068h-1.81164a0.66176,0.66176,0,0,0-.39559.07526,0.35288,0.35288,0,0,0,.06786.6129,1.11823,1.11823,0,0,0,.38439.04722l0.5317,0.01451a1.58117,1.58117,0,0,1,1.12766.33659,1.17314,1.17314,0,0,1,.2955.8864A1.28686,1.28686,0,0,1,161.57636,26.03916Zm5.08247-.40367a1.66721,1.66721,0,0,1-1.227.40367h-1.90735v-0.897h1.89956a0.55563,0.55563,0,0,0,.39958-0.10379,0.36922,0.36922,0,0,0,.11684-0.27271,0.34561,0.34561,0,0,0-.12073-0.2769,0.49671,0.49671,0,0,0-.348-0.093c-0.92719-.03164-2.08416.02911-2.08416-1.29523a1.23922,1.23922,0,0,1,1.41722-1.24577h1.92926v0.89049h-1.76218a0.67752,0.67752,0,0,0-.39958.07526,0.32747,0.32747,0,0,0-.14419.30124,0.31486,0.31486,0,0,0,.21615.31166,1.10755,1.10755,0,0,0,.3804.04732l0.5353,0.01441a1.54763,1.54763,0,0,1,1.12036.337,0.5395,0.5395,0,0,1,.09172.1034l-0.03359-.04323A1.37427,1.37427,0,0,1,166.65883,25.63549Zm-23.68444-2.91526,1.08025,1.21928-1.128,1.22746h-2.42815V24.33462h2.16809v-0.854h-2.16809v-0.7607h2.47586v0.00029Zm2.35172,1.234,1.51624-1.65031v3.35485Zm4.39148-.72088a0.53375,0.53375,0,0,1-.61543.55263h-1.276V22.72034h1.28753A0.5059,0.5059,0,0,1,149.71759,23.23334Zm4.40823-.06114a0.45277,0.45277,0,0,1-.20456.40182,0.93663,0.93663,0,0,1-.4875.08617H152.234V22.72053h1.21578a0.96174,0.96174,0,0,1,.47143.07546A0.39871,0.39871,0,0,1,154.12582,23.1722Z" transform="translate(-7.83717 -5.03243)" style="fill:#fff"/></svg>