<?xml version="1.0" encoding="utf-8"?>
<!-- Generator: Adobe Illustrator 19.2.0, SVG Export Plug-In . SVG Version: 6.00 Build 0)  -->
<svg version="1.1" id="Layer_1" xmlns="http://www.w3.org/2000/svg" xmlns:xlink="http://www.w3.org/1999/xlink" x="0px" y="0px"
	 width="32px" height="21px" viewBox="0 0 32 21" style="enable-background:new 0 0 32 21;" xml:space="preserve">
<style type="text/css">
	.st0{fill:#005B9D;}
	.st1{fill:#FFFFFF;}
	.st2{fill:#FBAB29;}
</style>
<polygon class="st0" points="30.5,20.5 1.8,20.5 1.3,20.5 1.3,20 1.3,1 1.3,0.5 1.8,0.5 30.5,0.5 31,0.5 31,1 31,20 31,20.5 
	30.5,20.5 "/>
<polygon class="st1" points="30.5,20 1.8,20 1.8,1 30.5,1 30.5,20 "/>
<polygon class="st0" points="12.1,13.6 14,7.4 15.7,7.4 13.8,13.6 12.1,13.6 "/>
<path class="st0" d="M11.4,7.4L9.9,10c-0.3,0.5-0.5,0.9-0.7,1.5h0c0-0.5,0-1.2-0.1-1.6L8.9,7.4H6.1l0,0.2C6.8,7.5,7.3,8,7.4,8.7
	c0,0,0,0,0,0l0.5,4.9h1.7l3.5-6.1C13.1,7.4,11.4,7.4,11.4,7.4z"/>
<path class="st0" d="M24.3,13.6l0-0.9l-2.1,0l-0.4,0.9H20l3.3-6.1h2.2l0.6,6.1L24.3,13.6L24.3,13.6z M24.1,10c0-0.5,0-1,0-1.4h0
	c-0.1,0.3-0.5,1.2-0.7,1.7l-0.6,1.3h1.5L24.1,10L24.1,10L24.1,10z"/>
<path class="st0" d="M17.4,13.8c-0.9,0-1.8-0.2-2.5-0.7l0.8-1.2c0.5,0.4,1.1,0.6,1.8,0.6c0.3,0,0.6-0.1,0.7-0.4
	c0.2-0.4-0.1-0.6-0.7-1l-0.3-0.2c-1-0.7-1.4-1.3-0.9-2.4c0.3-0.7,1.1-1.2,2.3-1.2c0.8,0,1.5,0.3,2.2,0.7l-0.9,1.1
	c-0.3-0.3-0.8-0.5-1.3-0.6c-0.3,0-0.5,0.1-0.7,0.3c-0.2,0.3,0.1,0.6,0.6,0.9l0.4,0.2c1.2,0.7,1.4,1.5,1.2,2.2
	C19.5,13.3,18.5,13.9,17.4,13.8L17.4,13.8z"/>
<path class="st0" d="M26.5,8.3L26.5,8.3l-0.1-0.4h0.2c0.1,0,0.2,0,0.2,0.1c0,0.1,0,0.1-0.1,0.1c0,0,0,0,0,0l0.1,0.2h-0.1l-0.1-0.2
	h-0.1V8.3L26.5,8.3L26.5,8.3z M26.6,8c0.1,0,0.1,0,0.1-0.1c0-0.1-0.1-0.1-0.1-0.1h-0.1L26.6,8C26.5,8,26.6,8,26.6,8z M26.6,8.4
	c-0.2,0-0.4-0.2-0.4-0.4c0-0.2,0.2-0.4,0.4-0.4C26.8,7.6,27,7.8,27,8c0,0,0,0,0,0C27,8.3,26.8,8.4,26.6,8.4
	C26.6,8.4,26.6,8.4,26.6,8.4L26.6,8.4z M26.6,7.7c-0.2,0-0.3,0.1-0.4,0.3c0,0.2,0.1,0.3,0.3,0.4c0.2,0,0.3-0.1,0.4-0.3c0,0,0,0,0,0
	C26.9,7.9,26.8,7.7,26.6,7.7C26.6,7.7,26.6,7.7,26.6,7.7L26.6,7.7z"/>
<polygon class="st2" points="29.8,15.5 2.5,15.5 2.5,19.1 29.8,19.1 29.8,15.5 "/>
<polygon class="st0" points="29.7,1.9 2.5,1.9 2.5,5.6 29.7,5.6 29.7,1.9 "/>
<path class="st0" d="M29.1,18.9L29.1,18.9L29,18.4h0.2c0.1,0,0.2,0,0.2,0.1c0,0.1,0,0.1-0.1,0.1c0,0,0,0,0,0l0.1,0.2h-0.1l-0.1-0.2
	h-0.1V18.9L29.1,18.9z M29.2,18.6c0.1,0,0.1,0,0.1-0.1c0-0.1-0.1-0.1-0.1-0.1h-0.1L29.2,18.6L29.2,18.6L29.2,18.6z M29.2,19
	c-0.2,0-0.4-0.2-0.4-0.4c0-0.2,0.2-0.4,0.4-0.4c0.2,0,0.4,0.2,0.4,0.4c0,0,0,0,0,0C29.6,18.9,29.4,19,29.2,19
	C29.2,19,29.2,19,29.2,19L29.2,19z M29.2,18.3c-0.2,0-0.3,0.1-0.4,0.3c0,0.2,0.1,0.3,0.3,0.4c0.2,0,0.3-0.1,0.4-0.3c0,0,0,0,0,0
	C29.5,18.5,29.4,18.3,29.2,18.3C29.2,18.3,29.2,18.3,29.2,18.3L29.2,18.3z"/>
<g>
</g>
<g>
</g>
<g>
</g>
<g>
</g>
<g>
</g>
<g>
</g>
</svg>
