<?xml version="1.0" encoding="utf-8"?>
<!-- Generator: Adobe Illustrator 21.0.0, SVG Export Plug-In . SVG Version: 6.00 Build 0)  -->
<svg version="1.1" id="Layer_1" xmlns="http://www.w3.org/2000/svg" xmlns:xlink="http://www.w3.org/1999/xlink" x="0px" y="0px"
	 width="75px" height="86px" viewBox="0 0 75 86" enable-background="new 0 0 75 86" xml:space="preserve">
<g>
	<path fill="#FFFFFF" d="M65.18511,8.3351c0,0-9.68673,21.44895-10.46797,25.79255s2.49032,5.29978,4.34864,0.91587
		S69.1663,8.07828,72.66919,3.68676c0,0,0.4856-2.87644-1.33134-2.43095s-26.71671,8.79252-39.78891,10.38722
		c0,0-5.40804,1.03827-5.07328,2.77845s2.10646,2.9682,6.92815,2.11366C38.2255,15.68061,65.18511,8.3351,65.18511,8.3351z"/>
	<path fill="#FFFFFF" d="M53.735,14.60592c0,0-39.00429,30.6354-51.43608,66.64021c0,0-0.40381,2.90034,1.91019,3.48788
		c2.31399,0.58754,4.23524-3.55604,4.23524-3.55604s16.15743-39.48785,48.81647-63.14462c0,0,3.62123-2.67019,1.34872-4.31091
		S53.735,14.60592,53.735,14.60592z"/>
</g>
</svg>
