<?xml version="1.0" encoding="utf-8"?>
<!-- Generator: Adobe Illustrator 21.0.0, SVG Export Plug-In . SVG Version: 6.00 Build 0)  -->
<svg version="1.1" id="Layer_1" xmlns="http://www.w3.org/2000/svg" xmlns:xlink="http://www.w3.org/1999/xlink" x="0px" y="0px"
	 width="104px" height="56px" viewBox="0 0 104 56" enable-background="new 0 0 104 56" xml:space="preserve">
<g>
	<path fill="#FFFFFF" d="M92.67747,15.88364c0,0-18.79893,14.15945-21.57057,17.59388s-0.36152,5.84454,3.37417,2.89214
		s21.81158-18.79893,26.99334-20.96804c0,0,1.80759-2.28961,0-2.77164c-1.80759-0.48202-27.65612-5.12151-39.88748-10.002
		c0,0-5.24201-1.68708-5.78429,0c-0.54228,1.68708,0.42177,3.61518,5.06125,5.18176S92.67747,15.88364,92.67747,15.88364z"/>
	<path fill="#FFFFFF" d="M79.62265,15.88364c0,0-48.92543,8.13415-77.12383,33.74168c0,0-1.74734,2.34986,0,3.9767
		s5.42277-1.08455,5.42277-1.08455s33.13915-26.87284,73.14714-31.93409c0,0,4.45872-0.60253,3.25366-3.13316
		C83.11732,14.91959,79.62265,15.88364,79.62265,15.88364z"/>
</g>
</svg>
