<?xml version="1.0" encoding="utf-8"?>
<!-- Generator: Adobe Illustrator 21.0.0, SVG Export Plug-In . SVG Version: 6.00 Build 0)  -->
<svg version="1.1" id="Layer_1" xmlns="http://www.w3.org/2000/svg" xmlns:xlink="http://www.w3.org/1999/xlink" x="0px" y="0px"
	 width="75px" height="86px" viewBox="0 0 75 86" enable-background="new 0 0 75 86" xml:space="preserve">
<g>
	<path fill="#FFFFFF" d="M9.81489,77.66489c0,0,9.68673-21.44894,10.46797-25.79255
		c0.78124-4.34361-2.49032-5.29978-4.34864-0.91587S5.8337,77.92172,2.33081,82.31324c0,0-0.48559,2.87643,1.33134,2.43095
		c1.81694-0.4455,26.71671-8.79253,39.78891-10.38722c0,0,5.40804-1.03826,5.07328-2.77845s-2.10646-2.96821-6.92815-2.11367
		C36.7745,70.31939,9.81489,77.66489,9.81489,77.66489z"/>
	<path fill="#FFFFFF" d="M21.265,71.39408c0,0,39.00429-30.6354,51.43608-66.64021c0,0,0.4038-2.90034-1.91019-3.48788
		c-2.314-0.58754-4.23524,3.55604-4.23524,3.55604S50.39822,44.30988,17.73918,67.96665c0,0-3.62123,2.67019-1.34872,4.31091
		S21.265,71.39408,21.265,71.39408z"/>
</g>
</svg>
