<?xml version="1.0" encoding="utf-8"?>
<!-- Generator: Adobe Illustrator 21.0.0, SVG Export Plug-In . SVG Version: 6.00 Build 0)  -->
<svg version="1.1" id="Layer_1" xmlns="http://www.w3.org/2000/svg" xmlns:xlink="http://www.w3.org/1999/xlink" x="0px" y="0px"
	 width="140px" height="140px" viewBox="0 0 140 140" enable-background="new 0 0 140 140" xml:space="preserve">
<g>
	<g id="mDx5mE.tif">
		<g>
			<path d="M7.2202487,27.9369755c9.528162-0.0148067,19.0563221-0.0402184,28.5844879-0.0423279
				c23.6954689-0.0052395,47.3909416-0.0043736,71.0863953,0.0192127c0.8676224,0.0008621,1.1705856-0.2981777,1.2753906-1.1211891
				c0.4894257-3.8432369,1.0123978-7.6824512,1.5692139-11.516449c0.05159-0.3552608,0.4185715-0.9446335,0.6515503-0.9507437
				c2.601059-0.0682182,5.2045593-0.0430508,7.8856049-0.0430508c0,1.7933588,0,3.4579592,0,5.2520933
				c-1.2366333,0-2.4402161,0-3.7388153,0c-0.360611,2.5155735-0.6881027,4.922636-1.0538025,7.3238754
				c-0.6267624,4.1152706-1.2434845,8.2325268-1.9245148,12.3389835
				c-1.8735657,11.2972374-3.778244,22.5893097-5.6707458,33.8834076c-0.5565796,3.3215256-1.1544495,6.6369705-1.6440353,9.968338
				c-0.1364899,0.9287567-0.0982361,1.9378586,0.1124802,2.85186c0.472084,2.0476532,1.1130981,4.0559311,1.66716,6.0852203
				c1.5655441,5.7339706-3.013588,11.8196716-8.96875,11.830101c-15.8532944,0.0277557-31.7066727,0.0124664-47.5600166,0.0137405
				c-6.3244858,0.0005112-12.6489677-0.0004425-18.9734535-0.0007324c-0.5014763-0.0000229-1.0029507-0.0000076-1.594471-0.0000076
				c0-1.7952194,0-3.4995728,0-5.297699c4.1303673,0,8.1734428-0.0001297,12.2165222,0.0000305
				c18.6360474,0.0007172,37.2720909,0.0061264,55.9081383-0.0021591c3.182663-0.0014114,4.642395-1.8959045,3.8492279-4.9470596
				c-0.4446182-1.7103271-0.9636002-3.4022446-1.3707199-5.1210175c-0.2039032-0.8607712-0.6217499-1.0879898-1.4887543-1.0857086
				c-11.8898773,0.0312119-23.7798462,0.0216446-35.669796,0.0215683
				c-11.6791306-0.0000687-23.3582954-0.0129547-35.0373154,0.0228729c-0.901865,0.0027618-1.1959496-0.3152237-1.4556751-1.1175232
				c-6.0260506-18.6145477-12.082428-37.2192841-18.1383896-55.8241501
				c-0.1417413-0.4354496-0.3432713-0.8514404-0.5169139-1.2765083C7.2202487,28.7802963,7.2202487,28.3586349,7.2202487,27.9369755
				z M14.3532429,33.2754974c0.0345049,0.2171516,0.0391197,0.3843956,0.0885582,0.5371284
				c1.2672768,3.9150734,2.5170746,7.8362122,3.8482151,11.7295151c0.1195087,0.3495407,0.7655983,0.7259789,1.1755714,0.7357407
				c2.6912365,0.0641098,5.3847923,0.0306168,8.0775909,0.0294571c1.2943764-0.0005608,2.5887527-0.000103,3.9191322-0.000103
				c0-4.4309807,0-8.7010651,0-13.0317383C25.7290134,33.2754974,20.0671368,33.2754974,14.3532429,33.2754974z
				 M92.0230865,46.1208954c0.2266006,0.0756569,0.344223,0.1488953,0.4621735,0.1493988
				c3.9174805,0.0166702,7.8351822,0.044239,11.7521133,0.0015602c0.2975006-0.0032501,0.757225-0.46455,0.8512115-0.7954102
				c0.2397766-0.8440247,0.3125153-1.7351837,0.4568863-2.6066818c0.5262375-3.1765938,1.054451-6.3528557,1.5845337-9.5450439
				c-5.1061707,0-10.0882645,0-15.1069183,0C92.0230865,37.6400795,92.0230865,41.8453064,92.0230865,46.1208954z
				 M49.9269714,69.0608368c-4.4254761,0-8.6963654,0-13.0107002,0c0,4.3638458,0,8.6342926,0,12.9371948
				c4.3876266,0,8.6913643,0,13.0107002,0C49.9269714,77.6549911,49.9269714,73.4133835,49.9269714,69.0608368z
				 M36.909523,46.1989517c4.3830338,0,8.6890831,0,12.9995232,0c0-4.3548393,0-8.5956192,0-12.8800049
				c-4.3792229,0-8.6844101,0-12.9995232,0C36.909523,37.6617775,36.909523,41.8997955,36.909523,46.1989517z M86.6413269,33.300663
				c-4.4025192,0-8.6754761,0-12.9722519,0c0,4.3525963,0,8.6183205,0,12.9198761c4.3811951,0,8.6545715,0,12.9722519,0
				C86.6413269,41.8840675,86.6413269,37.639637,86.6413269,33.300663z M73.5622864,82.0150833c4.489006,0,8.7609329,0,13.0505829,0
				c0-4.3563614,0-8.6281662,0-12.9659882c-0.3928833-0.0275955-0.7201004-0.069809-1.0474243-0.0705795
				c-3.1563416-0.0074081-6.3127136-0.0130157-9.4690628-0.0086288c-2.5233612,0.0035172-2.5289078,0.0099869-2.532753,2.5144806
				C73.5582809,74.9679489,73.5622864,78.451561,73.5622864,82.0150833z M68.1525421,46.2478828
				c0-4.3938408,0-8.664669,0-12.9499207c-4.3152885,0-8.5427551,0-12.7982712,0c0,4.351162,0,8.6184807,0,12.9499207
				C59.6322708,46.2478828,63.8279305,46.2478828,68.1525421,46.2478828z M68.1970901,69.0516586
				c-4.3546867,0-8.5799294,0-12.8237,0c0,4.3866119,0,8.6885986,0,12.9551926c4.3309097,0,8.5597496,0,12.8237,0
				C68.1970901,77.6727371,68.1970901,73.4310532,68.1970901,69.0516586z M86.635849,51.7463837
				c-4.4037247,0-8.6730957,0-12.9932938,0c0,3.9851265,0,7.8778992,0,11.7976723c4.3830719,0,8.6845245,0,12.9932938,0
				C86.635849,59.5735207,86.635849,55.7098389,86.635849,51.7463837z M36.8993568,63.5405121c4.3929138,0,8.6977997,0,12.9888802,0
				c0-4.0069046,0-7.9028282,0-11.7967339c-4.3710709,0-8.6473465,0-12.9888802,0
				C36.8993568,55.6949921,36.8993568,59.5574112,36.8993568,63.5405121z M55.3615189,51.7136803
				c0,4.0483932,0,7.9415245,0,11.8541107c4.317379,0,8.5446053,0,12.7679749,0c0-4.0080376,0-7.9321098,0-11.8541107
				C63.8208046,51.7136803,59.6226768,51.7136803,55.3615189,51.7136803z M104.0508575,51.7337952
				c-4.1094589,0-8.0083618,0-11.9861374,0c0,3.9724159,0,7.8657265,0,11.8381119c3.3559189,0,6.6584549,0,10.0067902,0
				C102.7319794,59.6217766,103.3829422,55.728466,104.0508575,51.7337952z M20.2615833,51.7280769
				c1.2509327,3.8661652,2.4583473,7.6209373,3.6962986,11.3656197c0.073122,0.2211914,0.3895397,0.5123978,0.5968285,0.5157204
				c2.2987957,0.0368309,4.5983963,0.0231895,6.89394,0.0231895c0-4.0646629,0-7.9625092,0-11.9045296
				C27.7172451,51.7280769,24.0712814,51.7280769,20.2615833,51.7280769z M92.0868073,69.043129
				c0,4.4307251,0,8.6981506,0,12.9712219c2.3552017,0,4.6077042,0,6.9002304,0
				c0.7250824-4.3519363,1.4374237-8.6273422,2.1611633-12.9712219C98.0053177,69.043129,95.0788345,69.043129,92.0868073,69.043129
				z M25.8739338,69.025444c1.3958912,4.2857513,2.7099247,8.4049835,4.117939,12.4918442
				c0.1205101,0.3497925,0.8657703,0.4843521,1.448103,0.7845078c0-4.6724701,0-8.9463196,0-13.2763519
				C29.5890465,69.025444,27.8314552,69.025444,25.8739338,69.025444z"/>
		</g>
	</g>
	<circle fill="#49AB69" cx="90.5590744" cy="120.4368744" r="9.4868803"/>
	<circle fill="#49AB69" cx="32.4489708" cy="120.4368744" r="9.4868803"/>
	<path fill="#EDBE44" d="M129.458725,21.6074047h-11.1858368V12.5h11.1858368c2.1986694,0,3.9810486,1.7823763,3.9810486,3.9810486
		v1.1453094C133.4397736,19.8250294,131.6573944,21.6074047,129.458725,21.6074047z"/>
</g>
<g>
</g>
<g>
</g>
<g>
</g>
<g>
</g>
<g>
</g>
</svg>
