<?xml version="1.0" encoding="utf-8"?>
<!-- Generator: Adobe Illustrator 21.0.0, SVG Export Plug-In . SVG Version: 6.00 Build 0)  -->
<svg version="1.1" id="Layer_1" xmlns="http://www.w3.org/2000/svg" xmlns:xlink="http://www.w3.org/1999/xlink" x="0px" y="0px"
	 width="44px" height="40px" viewBox="0 0 44 40" enable-background="new 0 0 44 40" xml:space="preserve">
<g>
	<path fill="#FFFFFF" d="M22.2613,17.61581c0,0,4.82582-4.05024,5.51523-4.4524c0.6894-0.40215,2.49909-1.0341,3.21721,0
		s0.17235,2.41291-6.08973,6.89403c0,0,4.25132,4.88327,5.17052,7.29618c0.9192,2.41291-0.5745,3.15977-0.5745,3.15977
		s-1.60861,1.23518-2.81506-1.14901s-3.53319-5.88865-4.99817-7.12383c0,0-4.62475,3.30339-6.31953,6.08973
		c0,0-1.60861,1.66606-2.87251,0.5745s-0.25853-2.44164,0.28725-3.10231s2.01076-2.32674,6.60678-5.97483
		c0,0-2.35546-2.58526-4.82582-3.84917s-0.48833-4.39495,2.35546-2.70016S20.11442,15.43066,22.2613,17.61581z"/>
	<path fill="#FFFFFF" d="M26.65955,3.19535c-3.90993-1.11983-4.39826-1.11983-5.71961-1.11983
		c-2.49909,0-1.66606,2.58526-1.66606,2.58526C12.29368,5.92468,2.90056,10.46326,2.0388,21.71706
		S14.87894,37.92448,22.2613,37.92448s18.84369-2.81506,19.70544-15.97117C42.82849,8.7972,26.65955,3.19535,26.65955,3.19535z
		 M22.2613,33.90297c-1.52243-0.02872-17.43616-1.00538-16.48823-11.94966S19.21643,8.73975,19.21643,8.73975
		s4.30877-0.54578,6.60678,0c2.29801,0.54578,10.973,4.96945,11.60495,14.07532
		C38.06012,31.92093,23.78373,33.93169,22.2613,33.90297z"/>
</g>
<g>
</g>
<g>
</g>
<g>
</g>
<g>
</g>
<g>
</g>
</svg>
