<?xml version="1.0" encoding="utf-8"?>
<!-- Generator: Adobe Illustrator 21.0.0, SVG Export Plug-In . SVG Version: 6.00 Build 0)  -->
<svg version="1.1" xmlns="http://www.w3.org/2000/svg" xmlns:xlink="http://www.w3.org/1999/xlink" x="0px" y="0px"
	 width="268.6763px" height="327px" viewBox="0 0 268.6763 327" style="enable-background:new 0 0 268.6763 327;"
	 xml:space="preserve">
<style type="text/css">
	.st0{fill:#A0E3F2;}
	.st1{fill:#FFFAEF;}
	.st2{opacity:0.2;fill:#F0E9C7;}
	.st3{fill:#E3A631;}
	.st4{fill:#FFFFFF;}
	.st5{fill:#BAB0BA;}
	.st6{fill:#CECEAE;}
	.st7{fill:#94D60A;}
</style>
<g id="BACKGROUND">
</g>
<g id="OBJECT">
	<g>
		<rect x="34.33789" y="34.36523" class="st0" width="200" height="260.58029"/>
		<g>
			<rect x="48.48884" y="45.68599" class="st1" width="171.69812" height="237.23306"/>
			<polygon class="st2" points="220.18695,45.68599 48.48884,282.91907 48.48884,45.68599 			"/>
		</g>
		<path class="st3" d="M155.11563,39.23698c-8.03636-3.13788-11.99513,0.73056-11.99513-9.21194l-0.07001-0.01382
			c0.02486-0.3266,0.03868-0.65689,0.03868-0.99127c0-5.90547-3.96246-10.69245-8.8494-10.69245
			c-4.88741,0-8.84985,4.78698-8.84985,10.69245c0,0.66976,0.0525,1.32386,0.15014,1.95957
			c-0.25703,8.7333-4.21396,5.22552-11.98084,8.25745c-8.03637,3.13835-8.82038,10.93014-8.82038,10.93014h29.59953h29.59859
			C163.93695,50.16712,163.15294,42.37532,155.11563,39.23698z"/>
		<circle class="st4" cx="134.33789" cy="26.34648" r="2.87521"/>
		<g>
			<g>
				<rect x="113.57417" y="72.72985" class="st5" width="94.30901" height="3.71693"/>
				<rect x="113.57417" y="81.03065" class="st5" width="94.30901" height="3.71689"/>
				<rect x="113.57417" y="89.70316" class="st5" width="51.71797" height="3.71646"/>
			</g>
			<rect x="68.80964" y="69.0857" class="st6" width="25" height="26.22071"/>
		</g>
		<g>
			<g>
				<rect x="113.57417" y="122.98415" class="st5" width="94.30901" height="3.71689"/>
				<rect x="113.57417" y="131.2849" class="st5" width="94.30901" height="3.71693"/>
				<rect x="113.57417" y="139.95744" class="st5" width="51.71797" height="3.71646"/>
			</g>
			<rect x="68.80964" y="119.34" class="st6" width="25" height="26.22071"/>
		</g>
		<g>
			<g>
				<rect x="113.57417" y="175.48198" class="st5" width="94.30901" height="3.71646"/>
				<rect x="113.57417" y="183.78273" class="st5" width="94.30901" height="3.71646"/>
				<rect x="113.57417" y="192.4548" class="st5" width="51.71797" height="3.71646"/>
			</g>
			<rect x="68.80964" y="171.83736" class="st6" width="25" height="26.22071"/>
		</g>
		<g>
			<g>
				<rect x="113.57417" y="228.14542" class="st5" width="94.30901" height="3.71646"/>
				<rect x="113.57417" y="236.44617" class="st5" width="94.30901" height="3.71646"/>
				<rect x="113.57417" y="245.11873" class="st5" width="51.71797" height="3.71646"/>
			</g>
			<rect x="68.80964" y="224.50079" class="st6" width="25" height="26.22118"/>
		</g>
		<path class="st7" d="M80.43256,91.12929c-0.72439,0-1.44872-0.27637-2.00127-0.82892l-8.88811-8.88811
			c-1.10529-1.10529-1.10529-2.89722,0-4.0025c1.10509-1.10509,2.89745-1.10509,4.00254,0l6.88684,6.88684l27.73552-27.73552
			c1.10509-1.10509,2.89745-1.10509,4.00255,0c1.10529,1.10528,1.10529,2.89722,0,4.0025L82.43384,90.30037
			C81.88129,90.85292,81.15691,91.12929,80.43256,91.12929z"/>
		<path class="st7" d="M80.43256,140.68292c-0.72439,0-1.44872-0.27637-2.00127-0.82892l-8.88811-8.88811
			c-1.10529-1.10529-1.10529-2.89717,0-4.0025c1.10509-1.10509,2.89745-1.10509,4.00254,0l6.88684,6.88684l27.73552-27.73552
			c1.10509-1.10509,2.89745-1.10509,4.00255,0c1.10529,1.10528,1.10529,2.89722,0,4.00249L82.43384,139.854
			C81.88129,140.40656,81.15691,140.68292,80.43256,140.68292z"/>
		<path class="st7" d="M80.43256,189.95074c-0.72439,0-1.44849-0.27637-2.00127-0.82867l-8.88811-8.88765
			c-1.10529-1.10556-1.10529-2.89745,0-4.00253c1.10509-1.10553,2.89698-1.1051,4.00254-0.00047l6.88684,6.8866l27.73552-27.73505
			c1.10509-1.10551,2.89698-1.10551,4.00255,0c1.10529,1.10533,1.10529,2.89722,0,4.00255L82.43384,189.1216
			C81.88129,189.67438,81.15691,189.95074,80.43256,189.95074z"/>
		<path class="st7" d="M80.43256,242.94495c-0.72439,0-1.44849-0.27641-2.00127-0.82872l-8.88811-8.88765
			c-1.10529-1.10551-1.10529-2.89745,0-4.0025c1.10509-1.10556,2.89698-1.10509,4.00254-0.00047l6.88684,6.88661l27.73552-27.73486
			c1.10509-1.10599,2.89698-1.10551,4.00255,0c1.10529,1.1051,1.10529,2.89699,0,4.00255l-29.73679,29.73586
			C81.88129,242.66853,81.15691,242.94495,80.43256,242.94495z"/>
	</g>
</g>
<g id="DESIGNED_BY_FREEPIK_1_">
</g>
</svg>
