<?xml version="1.0" encoding="utf-8"?>
<!-- Generator: Adobe Illustrator 21.0.0, SVG Export Plug-In . SVG Version: 6.00 Build 0)  -->
<svg version="1.1" id="Layer_1" xmlns="http://www.w3.org/2000/svg" xmlns:xlink="http://www.w3.org/1999/xlink" x="0px" y="0px"
	 width="200px" height="270px" viewBox="0 0 200 270" style="enable-background:new 0 0 200 270;" xml:space="preserve">
<style type="text/css">
	.st0{fill:#94D60A;}
</style>
<g>
	<g>
		<path d="M49.61117,215.47754c0.13965,0,0.25684,0.05078,0.35205,0.15137l0.99707,1.06348
			c-0.4917,0.62598-1.10156,1.10059-1.83057,1.4248c-0.729,0.32324-1.59619,0.48535-2.60156,0.48535
			c-0.91016,0-1.72852-0.1543-2.45459-0.46484c-0.72607-0.30957-1.34326-0.74121-1.85156-1.29395
			c-0.5083-0.55371-0.89941-1.20996-1.17285-1.96875c-0.27393-0.75977-0.41064-1.58984-0.41064-2.48828
			c0-0.60352,0.06543-1.17773,0.19678-1.72168c0.13135-0.54492,0.32275-1.0459,0.57373-1.50391
			c0.25146-0.45801,0.55469-0.87207,0.90918-1.24023c0.35449-0.36914,0.75537-0.68262,1.20215-0.94238
			s0.93408-0.45801,1.46191-0.59473s1.09082-0.20605,1.68848-0.20605c0.44678,0,0.86963,0.04004,1.26904,0.11816
			s0.77246,0.18652,1.11865,0.32617s0.66602,0.30859,0.95947,0.50684c0.29297,0.19824,0.55713,0.41504,0.7915,0.64941
			l-0.84619,1.15625c-0.05029,0.07227-0.11475,0.13672-0.19287,0.19238c-0.07813,0.05664-0.18408,0.08398-0.31836,0.08398
			c-0.13379,0-0.26953-0.04688-0.40625-0.14258c-0.13672-0.09473-0.3042-0.20117-0.50244-0.31836s-0.44727-0.22266-0.74561-0.31836
			c-0.29883-0.09473-0.67773-0.14258-1.13525-0.14258c-0.5083,0-0.9751,0.09277-1.39941,0.27734
			c-0.42432,0.18359-0.78906,0.4502-1.09326,0.7998c-0.3042,0.34863-0.54053,0.77734-0.70801,1.28613
			c-0.16748,0.50781-0.25146,1.08594-0.25146,1.73438c0,0.65332,0.09082,1.23535,0.27246,1.74609
			c0.18164,0.51172,0.43018,0.94238,0.74561,1.29492c0.31543,0.35156,0.68408,0.61816,1.10596,0.7998S46.20687,216.5,46.68734,216.5
			c0.28516,0,0.54297-0.01367,0.7749-0.04199s0.44678-0.0752,0.64502-0.14258c0.19824-0.06641,0.38574-0.15332,0.56152-0.25977
			c0.17578-0.10547,0.35303-0.24023,0.53223-0.40234c0.06104-0.0498,0.12549-0.0918,0.19238-0.125
			C49.46078,215.49414,49.53305,215.47754,49.61117,215.47754z"/>
		<path d="M63.85434,212.38672c0,0.8877-0.14941,1.71191-0.44824,2.4707c-0.29883,0.75977-0.7207,1.41602-1.26514,1.96875
			c-0.54443,0.55371-1.19971,0.9873-1.96484,1.30371c-0.76514,0.31543-1.61426,0.47266-2.54688,0.47266
			s-1.78174-0.15723-2.54688-0.47266c-0.76514-0.31641-1.42139-0.75-1.96875-1.30371
			c-0.54736-0.55273-0.9707-1.20898-1.26904-1.96875c-0.29932-0.75879-0.44824-1.58301-0.44824-2.4707
			c0-0.88867,0.14893-1.71094,0.44824-2.46777c0.29834-0.75684,0.72168-1.41211,1.26904-1.96484s1.20361-0.9873,1.96875-1.30273
			s1.61426-0.47363,2.54688-0.47363s1.78174,0.1582,2.54688,0.47363s1.42041,0.75098,1.96484,1.30762
			c0.54443,0.55566,0.96631,1.21191,1.26514,1.96875S63.85434,211.50391,63.85434,212.38672z M61.28207,212.38672
			c0-0.63672-0.0835-1.20801-0.25098-1.71387c-0.16797-0.50488-0.40967-0.93555-0.7251-1.29004s-0.69824-0.62598-1.14746-0.8125
			c-0.44971-0.1875-0.95947-0.28125-1.5293-0.28125c-0.56934,0-1.08057,0.09375-1.5332,0.28125
			c-0.45215,0.18652-0.83643,0.45801-1.15186,0.8125s-0.55713,0.78516-0.72461,1.29004
			c-0.16748,0.50586-0.25146,1.07715-0.25146,1.71387c0,0.6416,0.08398,1.21582,0.25146,1.72168
			c0.16748,0.50488,0.40918,0.93359,0.72461,1.28516c0.31543,0.35254,0.69971,0.62207,1.15186,0.80859
			c0.45264,0.1875,0.96387,0.28125,1.5332,0.28125c0.56982,0,1.07959-0.09375,1.5293-0.28125
			c0.44922-0.18652,0.83203-0.45605,1.14746-0.80859c0.31543-0.35156,0.55713-0.78027,0.7251-1.28516
			C61.19857,213.60254,61.28207,213.02832,61.28207,212.38672z"/>
		<path d="M79.1019,206.3125v12.15625h-2.22021v-7.46484c0-0.15625,0.00439-0.32422,0.0127-0.50293s0.02393-0.36035,0.0459-0.54395
			l-3.47656,6.59277c-0.18994,0.36328-0.4834,0.54492-0.87988,0.54492h-0.35205c-0.19531,0-0.36865-0.0459-0.51904-0.13867
			c-0.15088-0.0918-0.271-0.22754-0.36035-0.40625l-3.49365-6.61816c0.0166,0.19531,0.03076,0.38379,0.04199,0.56543
			c0.01074,0.18164,0.0166,0.35059,0.0166,0.50684v7.46484h-2.22021V206.3125h1.91016c0.10596,0,0.20117,0.00293,0.28467,0.00781
			c0.08398,0.00586,0.1582,0.02148,0.22217,0.0459c0.06445,0.02539,0.12305,0.06445,0.17627,0.11816
			c0.05273,0.05273,0.10449,0.12695,0.15479,0.22168l3.40137,6.48438c0.10596,0.19531,0.20557,0.39648,0.29736,0.60352
			c0.09229,0.20703,0.18018,0.41895,0.26416,0.63672c0.0835-0.22363,0.17188-0.44141,0.26367-0.65332
			c0.09229-0.21289,0.19141-0.41602,0.29736-0.6123l3.37646-6.45898c0.05029-0.09473,0.10352-0.16895,0.15918-0.22168
			c0.05566-0.05371,0.11572-0.09277,0.18018-0.11816c0.06396-0.02441,0.13672-0.04004,0.21777-0.0459
			c0.08105-0.00488,0.17725-0.00781,0.28906-0.00781H79.1019z"/>
		<path d="M85.74594,206.3125c0.83203,0,1.55127,0.09766,2.15723,0.29297s1.10449,0.46777,1.49561,0.81641
			c0.39063,0.34961,0.67969,0.76465,0.8667,1.24414c0.1875,0.48047,0.28076,1.00293,0.28076,1.56738
			c0,0.59766-0.09766,1.14453-0.29297,1.6416c-0.1958,0.49707-0.4917,0.9248-0.88818,1.28223s-0.89648,0.63574-1.49951,0.83301
			c-0.60352,0.19922-1.31006,0.29785-2.11963,0.29785h-1.5918v4.18066h-2.51367V206.3125H85.74594z M85.74594,212.36133
			c0.78711,0,1.36377-0.19043,1.72998-0.57031c0.36572-0.37891,0.54883-0.89844,0.54883-1.55762
			c0-0.30176-0.04639-0.57715-0.13867-0.8252c-0.0918-0.24902-0.23145-0.46094-0.41846-0.63672
			c-0.1875-0.17578-0.42334-0.31152-0.70801-0.40625c-0.28516-0.0957-0.62305-0.14258-1.01367-0.14258h-1.5918v4.13867H85.74594z"/>
		<path d="M101.83969,218.46875h-2.27051c-0.42432,0-0.73145-0.16211-0.92139-0.48633l-2.3125-3.72754
			c-0.09473-0.14551-0.19971-0.25195-0.31396-0.31836c-0.11475-0.06738-0.28369-0.10059-0.50684-0.10059H94.66v4.63281h-2.51367
			V206.3125h3.82031c0.84912,0,1.5752,0.08789,2.17822,0.26367c0.60352,0.17578,1.09766,0.41992,1.48291,0.7334
			c0.38574,0.3125,0.66748,0.68555,0.84619,1.11816c0.17822,0.43262,0.26807,0.90918,0.26807,1.42871
			c0,0.40137-0.05664,0.7832-0.17188,1.14355c-0.11426,0.36035-0.28027,0.68848-0.49805,0.98438s-0.48584,0.55859-0.8042,0.78711
			c-0.31836,0.22949-0.68164,0.41406-1.08936,0.55273c0.16211,0.08984,0.3125,0.19727,0.45215,0.32324
			c0.13965,0.125,0.26563,0.27441,0.37744,0.44824L101.83969,218.46875z M95.95004,212.06836
			c0.40771,0,0.75928-0.05176,1.05566-0.15527c0.2959-0.10352,0.53906-0.24609,0.729-0.42773
			c0.18945-0.18066,0.3291-0.39453,0.41846-0.64063s0.13428-0.51367,0.13428-0.80469c0-0.5752-0.19141-1.02148-0.57373-1.33984
			c-0.38281-0.31836-0.96484-0.47754-1.74707-0.47754H94.66v3.8457H95.95004z"/>
		<path d="M113.66879,218.46875h-1.95117c-0.21875,0-0.39551-0.05176-0.53223-0.15527
			c-0.13672-0.10254-0.23926-0.23535-0.30566-0.39746l-0.82129-2.32129h-4.84277l-0.82129,2.32129
			c-0.05566,0.13965-0.15332,0.2666-0.29297,0.38086s-0.31543,0.17188-0.52734,0.17188h-1.96875l4.75-12.15625h2.57227
			L113.66879,218.46875z M109.44711,213.85254l-1.31543-3.71973c-0.07813-0.19531-0.16113-0.4248-0.24707-0.6875
			c-0.08691-0.26172-0.16895-0.54688-0.24707-0.85449c-0.0791,0.31348-0.16113,0.60254-0.24805,0.86719
			c-0.08594,0.26563-0.16895,0.49609-0.24707,0.69141l-1.30664,3.70313H109.44711z"/>
		<path d="M125.65805,216.76758v1.70117h-6.81934v-1.70117h2.41309v-6.65137c0-0.14551,0.00293-0.29395,0.00781-0.44434
			c0.00586-0.15039,0.01465-0.30469,0.02539-0.46094l-1.5918,1.32422c-0.11133,0.08301-0.2207,0.13672-0.32617,0.15918
			c-0.10645,0.02246-0.20703,0.02344-0.30176,0.00391c-0.0957-0.01953-0.17871-0.05273-0.25195-0.10059
			c-0.07227-0.04785-0.12793-0.09668-0.16699-0.14648l-0.72949-0.98047l3.7373-3.16699h1.90137v10.46387H125.65805z"/>
		<path d="M135.98813,212.38672c0,1.06055-0.11523,1.98242-0.34375,2.76465c-0.22949,0.78125-0.54492,1.42773-0.94629,1.93945
			c-0.40234,0.51074-0.87891,0.89063-1.42871,1.13867c-0.55078,0.24902-1.14355,0.37305-1.78027,0.37305
			s-1.22949-0.12402-1.77637-0.37305c-0.54785-0.24805-1.01953-0.62793-1.41602-1.13867
			c-0.39648-0.51172-0.70801-1.1582-0.93359-1.93945c-0.22656-0.78223-0.33984-1.7041-0.33984-2.76465
			c0-1.06152,0.11328-1.98145,0.33984-2.76074c0.22559-0.7793,0.53711-1.4248,0.93359-1.93555s0.86816-0.89063,1.41602-1.13965
			c0.54688-0.24805,1.13965-0.37305,1.77637-0.37305s1.22949,0.125,1.78027,0.37305c0.5498,0.24902,1.02637,0.62891,1.42871,1.13965
			c0.40137,0.51074,0.7168,1.15625,0.94629,1.93555C135.87289,210.40527,135.98813,211.3252,135.98813,212.38672z
			 M133.60043,212.38672c0-0.86035-0.06055-1.57031-0.18066-2.12891c-0.12012-0.55762-0.27734-0.99902-0.47363-1.32324
			c-0.19531-0.32422-0.41992-0.5498-0.67383-0.67871c-0.25391-0.12793-0.51563-0.19238-0.7832-0.19238
			c-0.26855,0-0.52637,0.06445-0.77539,0.19238c-0.24805,0.12891-0.46875,0.35449-0.66211,0.67871
			c-0.19238,0.32422-0.34766,0.76563-0.46484,1.32324c-0.11719,0.55859-0.17578,1.26855-0.17578,2.12891
			c0,0.86523,0.05859,1.57715,0.17578,2.13574s0.27246,1,0.46484,1.32422c0.19336,0.32422,0.41406,0.5498,0.66211,0.67871
			c0.24902,0.12793,0.50684,0.19238,0.77539,0.19238c0.26758,0,0.5293-0.06445,0.7832-0.19238
			c0.25391-0.12891,0.47852-0.35449,0.67383-0.67871c0.19629-0.32422,0.35352-0.76563,0.47363-1.32422
			S133.60043,213.25195,133.60043,212.38672z"/>
		<path d="M145.70688,212.38672c0,1.06055-0.11523,1.98242-0.34375,2.76465c-0.22949,0.78125-0.54492,1.42773-0.94629,1.93945
			c-0.40234,0.51074-0.87891,0.89063-1.42871,1.13867c-0.55078,0.24902-1.14355,0.37305-1.78027,0.37305
			s-1.22949-0.12402-1.77637-0.37305c-0.54785-0.24805-1.01953-0.62793-1.41602-1.13867
			c-0.39648-0.51172-0.70801-1.1582-0.93359-1.93945c-0.22656-0.78223-0.33984-1.7041-0.33984-2.76465
			c0-1.06152,0.11328-1.98145,0.33984-2.76074c0.22559-0.7793,0.53711-1.4248,0.93359-1.93555s0.86816-0.89063,1.41602-1.13965
			c0.54688-0.24805,1.13965-0.37305,1.77637-0.37305s1.22949,0.125,1.78027,0.37305c0.5498,0.24902,1.02637,0.62891,1.42871,1.13965
			c0.40137,0.51074,0.7168,1.15625,0.94629,1.93555C145.59164,210.40527,145.70688,211.3252,145.70688,212.38672z
			 M143.31918,212.38672c0-0.86035-0.06055-1.57031-0.18066-2.12891c-0.12012-0.55762-0.27734-0.99902-0.47363-1.32324
			c-0.19531-0.32422-0.41992-0.5498-0.67383-0.67871c-0.25391-0.12793-0.51563-0.19238-0.7832-0.19238
			c-0.26855,0-0.52637,0.06445-0.77539,0.19238c-0.24805,0.12891-0.46875,0.35449-0.66211,0.67871
			c-0.19238,0.32422-0.34766,0.76563-0.46484,1.32324c-0.11719,0.55859-0.17578,1.26855-0.17578,2.12891
			c0,0.86523,0.05859,1.57715,0.17578,2.13574s0.27246,1,0.46484,1.32422c0.19336,0.32422,0.41406,0.5498,0.66211,0.67871
			c0.24902,0.12793,0.50684,0.19238,0.77539,0.19238c0.26758,0,0.5293-0.06445,0.7832-0.19238
			c0.25391-0.12891,0.47852-0.35449,0.67383-0.67871c0.19629-0.32422,0.35352-0.76563,0.47363-1.32422
			S143.31918,213.25195,143.31918,212.38672z"/>
		<path d="M152.40805,209.25293c0,0.45215-0.07813,0.86328-0.23438,1.23145c-0.15625,0.36914-0.36719,0.68555-0.63281,0.95117
			c-0.26465,0.26563-0.57129,0.46875-0.91699,0.61133c-0.34668,0.14258-0.70703,0.21387-1.08105,0.21387
			c-0.41309,0-0.79297-0.07129-1.13965-0.21387c-0.3457-0.14258-0.64648-0.3457-0.90039-0.61133s-0.45215-0.58203-0.59473-0.95117
			c-0.14258-0.36816-0.21387-0.7793-0.21387-1.23145c0-0.46875,0.07129-0.89258,0.21387-1.26953s0.34082-0.69824,0.59473-0.96289
			c0.25391-0.26563,0.55469-0.4707,0.90039-0.61621c0.34668-0.14551,0.72656-0.21777,1.13965-0.21777
			s0.7959,0.07227,1.14844,0.21777c0.35156,0.14551,0.6543,0.35059,0.9082,0.61621c0.25488,0.26465,0.45313,0.58594,0.59473,0.96289
			C152.33676,208.36035,152.40805,208.78418,152.40805,209.25293z M156.34555,206.66406
			c0.07813-0.08887,0.17188-0.16992,0.28125-0.24316c0.1084-0.07227,0.26074-0.1084,0.45605-0.1084h1.68457l-9.09082,11.82129
			c-0.07813,0.09473-0.17285,0.1748-0.28418,0.23828c-0.1123,0.06445-0.24902,0.09668-0.41113,0.09668h-1.7168L156.34555,206.66406z
			 M150.63168,209.25293c0-0.30176-0.02734-0.55469-0.08301-0.75781c-0.05664-0.2041-0.13281-0.36719-0.23047-0.49023
			s-0.21387-0.21094-0.34766-0.26465c-0.13477-0.05273-0.27637-0.0791-0.42773-0.0791c-0.15039,0-0.29199,0.02637-0.42285,0.0791
			c-0.13184,0.05371-0.24316,0.1416-0.33496,0.26465c-0.09277,0.12305-0.16504,0.28613-0.21777,0.49023
			c-0.05371,0.20313-0.08008,0.45605-0.08008,0.75781c0,0.2959,0.02637,0.54199,0.08008,0.7373
			c0.05273,0.19531,0.125,0.35352,0.21777,0.47363c0.0918,0.12012,0.20313,0.20508,0.33496,0.25488
			c0.13086,0.05078,0.27246,0.07617,0.42285,0.07617c0.15137,0,0.29297-0.02539,0.42773-0.07617
			c0.13379-0.0498,0.25-0.13477,0.34766-0.25488s0.17383-0.27832,0.23047-0.47363
			C150.60434,209.79492,150.63168,209.54883,150.63168,209.25293z M159.32895,215.6123c0,0.45215-0.0791,0.8623-0.23535,1.23145
			c-0.15625,0.36816-0.36719,0.68555-0.63184,0.9502c-0.26563,0.26563-0.57129,0.46973-0.91797,0.6123
			c-0.3457,0.14258-0.70605,0.21289-1.08008,0.21289c-0.41406,0-0.79395-0.07031-1.13965-0.21289
			c-0.34668-0.14258-0.64648-0.34668-0.90137-0.6123c-0.25391-0.26465-0.45215-0.58203-0.59473-0.9502
			c-0.1416-0.36914-0.21289-0.7793-0.21289-1.23145c0-0.46973,0.07129-0.89258,0.21289-1.26953
			c0.14258-0.37695,0.34082-0.69824,0.59473-0.96387c0.25488-0.26465,0.55469-0.46875,0.90137-0.61133
			c0.3457-0.14258,0.72559-0.21387,1.13965-0.21387c0.41309,0,0.7959,0.07129,1.14746,0.21387s0.6543,0.34668,0.90918,0.61133
			c0.25391,0.26563,0.45215,0.58691,0.59473,0.96387S159.32895,215.14258,159.32895,215.6123z M157.55258,215.6123
			c0-0.30176-0.02832-0.55469-0.08398-0.75879s-0.13281-0.36719-0.23047-0.49023c-0.09766-0.12207-0.21387-0.21094-0.34766-0.26367
			s-0.27637-0.08008-0.42676-0.08008c-0.15137,0-0.29199,0.02734-0.42383,0.08008c-0.13086,0.05273-0.24316,0.1416-0.33496,0.26367
			c-0.0918,0.12305-0.16504,0.28613-0.21777,0.49023s-0.0791,0.45703-0.0791,0.75879c0,0.2959,0.02637,0.54102,0.0791,0.73633
			c0.05273,0.19629,0.12598,0.35352,0.21777,0.47363s0.2041,0.20508,0.33496,0.25586c0.13184,0.0498,0.27246,0.0752,0.42383,0.0752
			c0.15039,0,0.29297-0.02539,0.42676-0.0752c0.13379-0.05078,0.25-0.13574,0.34766-0.25586s0.1748-0.27734,0.23047-0.47363
			C157.52426,216.15332,157.55258,215.9082,157.55258,215.6123z"/>
	</g>
	<g>
		<path class="st0" d="M52.64877,233.2627c-0.14941,0.24512-0.30127,0.42383-0.45605,0.53516
			c-0.1543,0.1123-0.35449,0.16797-0.59961,0.16797c-0.23486,0-0.48828-0.08203-0.76025-0.24707
			c-0.27197-0.16602-0.58936-0.34473-0.95166-0.53613c-0.36279-0.19238-0.77881-0.37109-1.24805-0.53613
			c-0.46973-0.16504-1.01904-0.24805-1.64795-0.24805c-1.10986,0-1.94189,0.24805-2.49609,0.74414
			c-0.55469,0.49609-0.83203,1.14355-0.83203,1.94336c0,0.5127,0.15186,0.93652,0.45605,1.27246
			c0.30371,0.33594,0.70361,0.62695,1.19971,0.87207s1.05859,0.46387,1.68799,0.65625
			c0.62939,0.19141,1.27441,0.40234,1.93604,0.63184c0.66113,0.22949,1.30664,0.49805,1.93604,0.80762
			s1.19189,0.69922,1.68799,1.16797c0.49609,0.46973,0.896,1.04297,1.2002,1.71973c0.30371,0.67773,0.45605,1.50195,0.45605,2.47266
			c0,1.05566-0.18408,2.04492-0.55225,2.96777s-0.89844,1.72754-1.5918,2.41602c-0.69385,0.6875-1.5498,1.22949-2.56836,1.62402
			s-2.17334,0.5918-3.46387,0.5918c-0.73584,0-1.46924-0.07422-2.19971-0.22363c-0.73096-0.14941-1.43506-0.35742-2.1123-0.62402
			s-1.31445-0.58691-1.91211-0.95996c-0.59717-0.37305-1.11963-0.78906-1.56787-1.24805l1.4082-2.27246
			c0.11719-0.16992,0.27197-0.31152,0.46387-0.42383s0.39453-0.16797,0.60791-0.16797c0.28809,0,0.59229,0.10645,0.91211,0.32031
			c0.31982,0.21289,0.68799,0.44727,1.104,0.7041c0.41602,0.25586,0.89844,0.49023,1.44775,0.7041
			c0.54932,0.21289,1.20801,0.31934,1.97607,0.31934c1.12012,0,1.98682-0.25586,2.6001-0.76758
			c0.61328-0.5127,0.91992-1.27441,0.91992-2.28809c0-0.58691-0.15186-1.06152-0.45605-1.42383
			c-0.30371-0.36328-0.70117-0.66699-1.19189-0.91211s-1.05078-0.45605-1.67969-0.63184
			c-0.62988-0.17676-1.2749-0.37109-1.93604-0.58398c-0.66162-0.21387-1.30713-0.46973-1.93604-0.76855
			c-0.62988-0.29785-1.18945-0.69336-1.68018-1.18359s-0.88818-1.09863-1.19189-1.82422
			c-0.3042-0.72559-0.45605-1.62695-0.45605-2.7041c0-0.86426,0.17041-1.70117,0.51221-2.51172
			c0.34082-0.81055,0.84229-1.53027,1.50391-2.16016c0.66113-0.62891,1.47461-1.13574,2.43994-1.52051
			c0.96533-0.38379,2.07178-0.5752,3.31982-0.5752c1.39746,0,2.69043,0.21582,3.87988,0.64746
			c1.18945,0.43262,2.19482,1.03223,3.01611,1.7998L52.64877,233.2627z"/>
		<path class="st0" d="M62.53695,232.57422v5.96777h7.74366v3.63184h-7.74366v6.09668h9.95166v3.75977h-14.7837v-23.21582h14.7837
			v3.75977H62.53695z"/>
		<path class="st0" d="M86.88852,240.20605h7.96777v9.58398c-1.18359,0.86426-2.44531,1.49609-3.78369,1.89648
			c-1.33887,0.39941-2.75488,0.59961-4.24805,0.59961c-1.90967,0-3.6377-0.2959-5.18408-0.8877
			c-1.54688-0.5918-2.86963-1.41602-3.96777-2.47168c-1.09912-1.05664-1.94678-2.30957-2.54443-3.76074
			c-0.59717-1.4502-0.896-3.03418-0.896-4.75195c0-1.73828,0.28564-3.33301,0.85645-4.78418
			c0.57031-1.4502,1.38379-2.69824,2.43994-3.74316c1.05566-1.0459,2.33301-1.86133,3.83203-2.44824
			c1.49854-0.58691,3.17578-0.87988,5.03174-0.87988c0.95996,0,1.85596,0.07715,2.68799,0.23145
			c0.83203,0.15527,1.6001,0.36816,2.3042,0.64063c0.7041,0.27148,1.34912,0.59473,1.93604,0.96777
			c0.58643,0.37305,1.11963,0.78418,1.59961,1.23145l-1.3916,2.14453c-0.21387,0.3418-0.49072,0.5498-0.83203,0.62402
			c-0.3418,0.07422-0.71484-0.01074-1.12012-0.25586c-0.38379-0.23438-0.76025-0.44531-1.12793-0.63184
			c-0.36816-0.18652-0.76025-0.34961-1.17627-0.48828s-0.86914-0.24512-1.35986-0.32031
			c-0.49072-0.07422-1.05615-0.1123-1.6958-0.1123c-1.07764,0-2.05371,0.1875-2.92822,0.56055s-1.61865,0.90137-2.23193,1.58398
			s-1.08545,1.50391-1.41602,2.46387s-0.49609,2.03223-0.49609,3.21582c0,1.28027,0.18115,2.42383,0.54395,3.43262
			c0.36279,1.00781,0.87451,1.8584,1.53613,2.55176c0.66113,0.69336,1.45313,1.22168,2.37598,1.58398
			c0.92236,0.3623,1.94922,0.54395,3.08008,0.54395c0.76807,0,1.45313-0.07715,2.05615-0.23242
			c0.60254-0.1543,1.19189-0.36523,1.76807-0.63184v-3.9043h-2.62402c-0.30957,0-0.55225-0.08203-0.72803-0.24707
			c-0.17627-0.16602-0.26416-0.37695-0.26416-0.63281V240.20605z"/>
		<path class="st0" d="M108.27914,248.19043c0.7793,0,1.47852-0.13086,2.09766-0.39258
			c0.61719-0.26074,1.14063-0.63184,1.56641-1.11133c0.42773-0.48047,0.75195-1.06152,0.97656-1.74414
			s0.33594-1.4502,0.33594-2.30371v-13.82422h4.80078v13.82422c0,1.40723-0.22656,2.70117-0.67969,3.87988
			c-0.45508,1.17871-1.10156,2.19434-1.94531,3.04785c-0.8418,0.85352-1.86523,1.51953-3.07227,2
			c-1.20508,0.47949-2.56445,0.71973-4.08008,0.71973c-1.51367,0-2.87695-0.24023-4.08789-0.71973
			c-1.20898-0.48047-2.23633-1.14648-3.0791-2s-1.49072-1.86914-1.94385-3.04785c-0.45361-1.17871-0.68018-2.47266-0.68018-3.87988
			v-13.82422h4.80078v13.82422c0,0.85352,0.11133,1.62109,0.33594,2.30371c0.22266,0.68262,0.54883,1.26367,0.97461,1.74414
			c0.42773,0.47949,0.94922,0.85059,1.56836,1.11133C106.78696,248.05957,107.49008,248.19043,108.27914,248.19043z"/>
		<path class="st0" d="M141.14438,252.03027h-4.33594c-0.81152,0-1.39746-0.30957-1.76074-0.92773l-4.41602-7.12012
			c-0.18066-0.27734-0.38086-0.48047-0.59961-0.6084s-0.54199-0.19141-0.96777-0.19141h-1.63184v8.84766h-4.80078v-23.21582h7.2959
			c1.62207,0,3.00879,0.16797,4.16016,0.50391c1.15234,0.33594,2.09668,0.80273,2.83203,1.40039
			c0.73633,0.59668,1.27441,1.30859,1.61621,2.13574c0.3418,0.82617,0.51172,1.73535,0.51172,2.72754
			c0,0.76855-0.10938,1.49609-0.32813,2.18457c-0.21875,0.6875-0.53516,1.31445-0.95117,1.87988s-0.92871,1.06641-1.53613,1.50391
			c-0.6084,0.4375-1.30176,0.78906-2.08008,1.05566c0.30957,0.1709,0.59668,0.37598,0.86426,0.61621
			c0.26563,0.24023,0.50586,0.52539,0.71973,0.85645L141.14438,252.03027z M129.89633,239.80664
			c0.77832,0,1.4502-0.09863,2.01563-0.2959s1.0293-0.46973,1.3916-0.81641c0.36328-0.34668,0.62988-0.75488,0.80078-1.22363
			c0.16992-0.46973,0.25586-0.98145,0.25586-1.53613c0-1.09863-0.36523-1.95215-1.0957-2.56055
			c-0.73145-0.60742-1.84277-0.91211-3.33691-0.91211h-2.49512v7.34473H129.89633z"/>
		<path class="st0" d="M163.73618,252.03027h-3.72754c-0.41602,0-0.75488-0.09863-1.0166-0.2959s-0.45605-0.4502-0.58398-0.75977
			l-1.56738-4.43262h-9.24805l-1.56836,4.43262c-0.10645,0.2666-0.29395,0.50879-0.55957,0.72754
			c-0.26758,0.21875-0.60352,0.32813-1.00879,0.32813h-3.75977l9.07227-23.21582h4.91211L163.73618,252.03027z M155.6727,243.21387
			l-2.5127-7.10352c-0.14941-0.37305-0.30664-0.81055-0.47168-1.3125c-0.16602-0.50098-0.32324-1.04492-0.47168-1.63184
			c-0.15039,0.59766-0.30762,1.14941-0.47266,1.65625s-0.32227,0.94629-0.47168,1.32031l-2.49609,7.07129H155.6727z"/>
	</g>
	<g>
		<g>
			<path class="st0" d="M63.25822,59.82793L63.25822,59.82793c0-20.29591,16.4451-36.74324,36.73976-36.74324
				c20.29591,0,36.7438,16.44733,36.7438,36.74324l0,0v55.1097h13.7739v-55.1097l0,0c0-27.89953-22.61285-50.517-50.51769-50.517
				c-27.90093,0-50.5191,22.61747-50.5191,50.517c0,0.00949,0,0.02458,0,0.04427l0.00265,55.06544h13.77669V59.82793z"/>
			<path class="st0" d="M99.99798,71.3103C65.75362,71.3103,38,99.06042,38,133.30884
				c0,34.24854,27.75362,61.99936,61.99798,61.99936c34.24575,0,62.00202-27.75082,62.00202-61.99936
				C162,99.06042,134.24373,71.3103,99.99798,71.3103z M105.18105,134.56889l4.00623,24.00095H90.81258l4.00233-24.00095
				c-5.0359-2.03867-8.59489-6.96871-8.59489-12.74229c0-7.60822,6.17447-13.7732,13.77795-13.7732
				c7.60613,0,13.77921,6.16498,13.77921,13.7732C113.77718,127.60018,110.21819,132.53023,105.18105,134.56889z"/>
		</g>
	</g>
</g>
<g>
</g>
<g>
</g>
<g>
</g>
<g>
</g>
<g>
</g>
</svg>
