<svg version="1.1" id="Layer_1" xmlns="http://www.w3.org/2000/svg" xmlns:xlink="http://www.w3.org/1999/xlink" x="0px" y="0px"
	 width="300px" height="300px" viewBox="0 0 300 300" enable-background="new 0 0 300 300" xml:space="preserve">
<g>
	<path fill="#FFFFFF" stroke="#9E9E9E" stroke-width="1.5" stroke-miterlimit="10" d="M148.6159515,152.6159515
		l-67.253952,121.723465c19.9321671,11.0364685,42.8568954,17.32724,67.253952,17.32724
		c76.7955627,0,139.050705-62.2551422,139.050705-139.050705H148.6159515z"/>
	<g>
		<path fill="#FF7058" d="M220.0362854,203.5978851H204.638092v27.9085083h25.2287292v-12.5615692l-2.9423523-10.1691589
			C226.0375214,205.7090912,223.2286987,203.5978851,220.0362854,203.5978851"/>
		<path fill="#84DBFF" d="M226.1834412,218.8159332l-2.6222382-9.064621
			c-0.4520721-1.558197-1.901474-2.6487427-3.5249176-2.6487427h-11.8935242v11.7133636H226.1834412z"/>
		<polygon fill="#CDD6E0" points="226.1866455,218.811264 208.1366425,218.811264 208.1366425,207.0979004 		"/>
		<path fill="#F2F2F2" d="M226.1834412,218.8159332l-2.6222382-9.064621
			c-0.4520721-1.558197-1.901474-2.6487427-3.5249176-2.6487427h-11.8935242L226.1834412,218.8159332z"/>
		<path fill="#FFD15C" d="M161.1341858,189.5869141h38.8434296c2.5725861,0,4.6604767,2.0862885,4.6604767,4.6604767v37.2574005
			h-48.1643677v-37.2574005C156.4737244,191.6733398,158.5600128,189.5869141,161.1341858,189.5869141"/>
		<polygon fill="#F2F2F2" points="188.0406952,189.5947723 188.0406952,201.9091949 186.2385406,200.107193
			184.3495941,201.9962921 182.4621124,200.107193 180.5746155,201.9962921 178.6839294,200.107193 176.7716675,201.9962921
			174.8856354,200.107193 173.0619354,201.9310455 173.0619354,189.5947723 		"/>
		<path fill="#334A5E" d="M231.0475311,231.5031891v5.2663269h-74.5675507v-5.2663269h7.7829895
			c1.8175812-3.2623291,5.3129425-5.468338,9.3209534-5.468338c3.9924164,0,7.4877625,2.2060089,9.3209381,5.468338h25.0423126
			c1.8175812-3.2623291,5.2958984-5.468338,9.3039093-5.468338c4.0079956,0,7.4877625,2.2060089,9.3209381,5.468338H231.0475311z"/>
		<path fill="#40596B" d="M224.6936951,236.7368927c0,4.1105347-3.3322449,7.4427795-7.4427795,7.4427795
			s-7.4397125-3.3322449-7.4397125-7.4427795s3.3306427-7.4427643,7.4397125-7.4427643
			C221.3630676,229.2941284,224.6936951,232.626358,224.6936951,236.7368927"/>
		<path fill="#ACB3BA" d="M220.2429504,236.7368927c0,1.651413-1.3391724,2.9889679-2.9889679,2.9889679
			c-1.651413,0-2.9920349-1.3375549-2.9920349-2.9889679c0-1.6513977,1.3391724-2.9889526,2.9920349-2.9889526
			C218.9037933,233.7464752,220.2429504,235.0856323,220.2429504,236.7368927"/>
		<path fill="#40596B" d="M181.0204163,236.7368927c0,4.1105347-3.3338318,7.4427795-7.4427643,7.4427795
			c-4.1105347,0-7.4427795-3.3322449-7.4427795-7.4427795s3.3322449-7.4427643,7.4427795-7.4427643
			C177.6865845,229.2941284,181.0204163,232.626358,181.0204163,236.7368927"/>
		<path fill="#ACB3BA" d="M176.5666199,236.7368927c0,1.651413-1.3375702,2.9889679-2.9889679,2.9889679
			c-1.651413,0-2.9904175-1.3375549-2.9904175-2.9889679c0-1.6513977,1.3391571-2.9889526,2.9904175-2.9889526
			S176.5666199,235.0856323,176.5666199,236.7368927"/>
	</g>
</g>
<g>
	<path fill="#FFFFFF" stroke="#9E9E9E" stroke-width="1.5" stroke-miterlimit="10" d="M65.1830444,41.37117
		C31.411684,66.7399445,9.5652466,107.1256638,9.5652466,152.6159515h139.050705L65.1830444,41.37117z"/>
	<g>
		<path fill="#F2ECE7" d="M80.5273972,139.7830658H46.5805664c-3.0706215,0-5.5598526-2.4892273-5.5598526-5.559845V89.8285141
			c0-3.0706253,2.4892311-5.5598526,5.5598526-5.5598526h33.9468307c3.0706253,0,5.5598526,2.4892273,5.5598526,5.5598526
			v44.3947067C86.0872498,137.2938385,83.5980225,139.7830658,80.5273972,139.7830658z"/>
		<path fill="#334A5E" d="M81.4387817,83.4224701h-35.770195c-3.0292015,0-5.4943428,2.4646683-5.4943428,5.494339v46.2180939
			c0,3.0296631,2.4651413,5.494339,5.4943428,5.494339h35.770195c3.0301514,0,5.4952927-2.4646759,5.4952927-5.494339V88.9168091
			C86.9340744,85.8871384,84.4689331,83.4224701,81.4387817,83.4224701z M45.6685867,85.1151199h35.770195
			c2.0966949,0,3.8021698,1.7054672,3.8021698,3.8016891v46.2180939c0,2.0962219-1.7054749,3.8016815-3.8021698,3.8016815
			h-35.770195c-2.0957527,0-3.8012199-1.7054596-3.8012199-3.8016815V88.9168091
			C41.8673668,86.8205872,43.572834,85.1151199,45.6685867,85.1151199z"/>
		<g>
			<path fill="#BFBFBF" d="M80.9805145,102.6145859H46.4864006c-0.2581215,0-0.4675407-0.2092667-0.4675407-0.4675369
				s0.2094193-0.4675369,0.4675407-0.4675369h34.4941139c0.2581177,0,0.4675369,0.2092667,0.4675369,0.4675369
				S81.2386322,102.6145859,80.9805145,102.6145859z"/>
			<path fill="#BFBFBF" d="M73.5882874,114.9169159H46.3875465c-0.2035446,0-0.3686867-0.2092667-0.3686867-0.4675446
				c0-0.2582703,0.1651421-0.4675369,0.3686867-0.4675369h27.2007408c0.2035446,0,0.3686829,0.2092667,0.3686829,0.4675369
				C73.9569702,114.7076492,73.791832,114.9169159,73.5882874,114.9169159z"/>
			<path fill="#BFBFBF" d="M77.1472702,108.5609818H46.4351387c-0.2298203,0-0.4162788-0.2092667-0.4162788-0.4675446
				c0-0.2582703,0.1864586-0.4675369,0.4162788-0.4675369h30.7121315c0.2298203,0,0.416275,0.2092667,0.416275,0.4675369
				C77.5635452,108.3517151,77.3770905,108.5609818,77.1472702,108.5609818z"/>
			<path fill="#BFBFBF" d="M66.2152634,121.6274414H46.2889442c-0.1491089,0-0.2700844-0.2092667-0.2700844-0.4675446
				c0-0.2582703,0.1209755-0.4675369,0.2700844-0.4675369h19.9263191c0.1491089,0,0.2700882,0.2092667,0.2700882,0.4675369
				C66.4853516,121.4181747,66.3643723,121.6274414,66.2152634,121.6274414z"/>
		</g>
		<g>

				<ellipse transform="matrix(0.9980606 -0.0622499 0.0622499 0.9980606 -7.8153176 5.0018721)" fill="#95D600" cx="76.3659515" cy="127.9267273" rx="6.4651685" ry="6.4651685"/>
			<path fill="#00752C" d="M77.6577454,126.810112c0,0.2058334,0.166748,0.3722076,0.3722,0.3722076
				c0.2054596,0,0.3722076-0.1663742,0.3722076-0.3722076c0-0.8984985-0.640564-1.6503448-1.4888153-1.8234253v-0.40979
				c0-0.2058334-0.166748-0.3722076-0.3722076-0.3722076c-0.205452,0-0.3722,0.1663742-0.3722,0.3722076v0.4109116
				c-0.4060745,0.0826263-0.7760468,0.2981339-1.0488663,0.6208344c-0.227417,0.2687302-0.332756,0.612648-0.2955322,0.9688416
				c0.0379639,0.3643875,0.2255554,0.7023468,0.5147552,0.9271622l0.8296432,0.6453934v2.0240479
				c-0.4321289-0.1540985-0.7444077-0.5635223-0.7444077-1.0481262c0-0.2058258-0.166748-0.3722076-0.3722-0.3722076
				c-0.2054596,0-0.3722076,0.1663818-0.3722076,0.3722076c0,0.8984985,0.640564,1.6503448,1.4888153,1.8234253v0.3271637
				c0,0.2058258,0.166748,0.3722076,0.3722,0.3722076c0.2054596,0,0.3722076-0.1663818,0.3722076-0.3722076v-0.3282776
				c0.4060745-0.0826263,0.7760391-0.2981415,1.0492401-0.6208344c0.227417-0.2694702,0.3323746-0.6133881,0.2951584-0.9695892
				c-0.0383377-0.3640137-0.2255554-0.7015991-0.5147552-0.9260406l-0.8296432-0.6454086v-2.0240402
				C77.3454666,125.9160843,77.6577454,126.3255081,77.6577454,126.810112z M77.2859116,129.0191345
				c0.1298981,0.1008759,0.214386,0.2530975,0.231514,0.4161377c0.0159988,0.1526031-0.027916,0.2988739-0.1231995,0.4112701
				c-0.1295319,0.1529846-0.29702,0.2601776-0.4808884,0.3256836v-1.4434052L77.2859116,129.0191345z M75.7963562,126.917305
				c-0.1302719-0.1012344-0.2143936-0.2534637-0.231514-0.4168625c-0.0156326-0.1522369,0.027916-0.2981339,0.1231995-0.4109116
				c0.1295242-0.152977,0.29702-0.26017,0.4808884-0.3256836v1.4430389L75.7963562,126.917305z"/>
		</g>
		<path fill="#F97046" d="M61.8568497,95.5213547c0,0.2679291-0.2192039,0.4872284-0.4872284,0.4872284h-14.863533
			c-0.2679329,0-0.4872284-0.2192078-0.4872284-0.4872284v-3.9348602c0-0.2679291,0.2192078-0.4872284,0.4872284-0.4872284
			h14.8636246c0.2679291,0,0.4872284,0.2192078,0.4872284,0.4872284v3.9348602H61.8568497z"/>
		<path opacity="0.1" fill="#9E9E9E" enable-background="new    " d="M44.13974,84.4486923v55.154335
			c0,0-3.5545082-0.0015564-3.4789238-6.3598785c0.0755844-6.3583145,0.7201385-44.3263092,0.7201385-44.3263092
			S41.0207138,86.7767868,44.13974,84.4486923z"/>
		<path opacity="0.1" enable-background="new    " d="M72.1078186,127.9266815c0-3.1994553,2.3245163-5.8545837,5.3766174-6.3723068
			c-0.3540421-0.0600967-0.7171326-0.0930405-1.0883484-0.0930405c-3.5706635,0-6.4650574,2.8946762-6.4650574,6.4653397
			c0,3.5707626,2.8943939,6.4654312,6.4650574,6.4654312c0.3712158,0,0.7343063-0.0329285,1.0883484-0.0930328
			C74.4323349,133.7813568,72.1078186,131.1262207,72.1078186,127.9266815z"/>
	</g>
</g>
<g>
	<path fill="#FFFFFF" stroke="#9E9E9E" stroke-width="1.5" stroke-miterlimit="10" d="M228.3395538,38.6848183
		c-22.5740204-15.8255482-50.0617676-25.1195717-79.7236023-25.1195717c-31.3052597,0-60.1923065,10.3476944-83.4329071,27.8059235
		l83.4329071,111.2447815L228.3395538,38.6848183z"/>
	<g>
		<path fill="#334A5E" d="M173.3827972,39.8739281h-49.0104141c-4.4134827,0-7.9913483,3.8597031-7.9913483,8.6208572v34.9475441
			c0,4.7611542,3.5778656,8.6208344,7.9913483,8.6208344h16.7062912v2.0111694h15.5978088v-2.0111694h16.7063141
			c4.4134827,0,7.9913483-3.8596802,7.9913483-8.6208344V48.4947853
			C181.3741455,43.7336311,177.7962799,39.8739281,173.3827972,39.8739281z"/>
		<path fill="#FFFFFF" d="M125.0343475,42.656929h47.163208c2.7368164,0,4.9554443,2.2186279,4.9554443,4.9554443v36.5761642
			c0,2.7368164-2.2186279,4.9554443-4.9554443,4.9554443h-47.163208c-2.7368164,0-4.9554443-2.2186279-4.9554443-4.9554443
			V47.6123734C120.0789032,44.8755569,122.2975311,42.656929,125.0343475,42.656929z"/>
		<path fill="#EDEDED" d="M170.7416687,86.1775742h-44.2514343c-2.6533356,0-4.8042831-2.1509476-4.8042831-4.8042831V50.4276237
			c0-2.6533356,2.1509476-4.8042908,4.8042831-4.8042908h44.2514343c2.6533356,0,4.8042908,2.1509552,4.8042908,4.8042908V81.373291
			C175.5459595,84.0266266,173.3950043,86.1775742,170.7416687,86.1775742z"/>
		<g>
			<path fill="#FFFFFF" d="M152.4996033,83.2523804h-25.0199661c-0.682869,0-1.2364502-0.5535736-1.2364502-1.2364426V49.784977
				c0-0.6828728,0.5535812-1.2364464,1.2364502-1.2364464h25.0199661c0.6828613,0,1.2364349,0.5535736,1.2364349,1.2364464
				v32.2309608C153.7360382,82.6988068,153.1824646,83.2523804,152.4996033,83.2523804z"/>
		</g>
		<path fill="#666666" d="M146.3736877,56.5840378h-3.1561737c0,0-1.1476898,2.2953949-3.22789,2.2953949
			c-2.0802155,0-3.2279053-2.2953949-3.2279053-2.2953949h-3.1561737l-3.5148315,2.6540527l1.6498108,3.1561699l2.0802155-1.6498146
			v16.6197815l6.1688843-0.0336761l6.168869,0.0336761V60.7444458l2.0802155,1.6498146l1.6498108-3.1561699L146.3736877,56.5840378z
			"/>
		<polygon fill="#F97046" points="154.5474701,62.111248 154.0155792,78.5536118 157.9039001,74.6447678 160.5592957,80.1198883
			163.3890686,79.0565109 160.987915,73.7305222 166.1391754,73.3448792 		"/>
	</g>
</g>
<g>
	<path fill="#FFFFFF" stroke="#9E9E9E" stroke-width="1.5" stroke-miterlimit="10" d="M9.5652466,152.6159515
		c0,52.3984985,28.9876747,98.0201111,71.7967529,121.723465l67.253952-121.723465H9.5652466z"/>
	<g>
		<g>
			<g>
				<rect x="52.2055168" y="198.0898132" fill="#C49967" width="35.0444221" height="22.7887058"/>
				<rect x="50.4532928" y="190.3439026" fill="#A8805A" width="38.9869194" height="7.7459073"/>
				<path fill="#334A5E" d="M87.2492752,221.6353912H52.2047958c-0.4182854,0-0.7567596-0.3384705-0.7567596-0.7567596v-22.7885132
					c0-0.4182892,0.3384743-0.7567596,0.7567596-0.7567596h35.0444794c0.4182892,0,0.7567596,0.3384705,0.7567596,0.7567596
					v22.7885132C88.0060349,221.2969208,87.6675644,221.6353912,87.2492752,221.6353912z M52.9615555,220.1218719h33.5309601
					v-21.2749939H52.9615555V220.1218719z"/>
				<path fill="#334A5E" d="M88.3991928,198.8468781H51.4938583c-0.9917717,0-1.7973061-0.8062744-1.7973061-1.7980499v-5.6638794
					c0-0.9917603,0.8055344-1.7980347,1.7973061-1.7980347h36.9053345c0.9917679,0,1.7973022,0.8062744,1.7973022,1.7980347
					v5.6638794C90.1964951,198.0406036,89.3909607,198.8468781,88.3991928,198.8468781z M51.4938583,191.1004333
					c-0.1566734,0-0.2837868,0.1278534-0.2837868,0.2845154v5.6638794c0,0.1566772,0.1271133,0.2845306,0.2837868,0.2845306
					h36.9053345c0.1566772,0,0.283783-0.1278534,0.283783-0.2845306v-5.6638794c0-0.156662-0.1271057-0.2845154-0.283783-0.2845154
					H51.4938583z"/>
			</g>
			<rect x="66.8268127" y="198.0898132" fill="#334A5E" width="5.8018246" height="11.3943529"/>
		</g>
		<g>
			<g>
				<path fill="#F7DDC4" d="M52.5941124,230.4641418v-4.6678009c0,0-10.4469681-12.0028992-11.1137962-15.5593109
					c-0.4614868-2.4612732,0.0385742-12.108551,0.0129318-16.2773132c-0.0066109-1.0751495,0.8632584-1.9493103,1.9384308-1.9493103
					h0.0000038c1.0705833,0,1.9384613,0.8678741,1.9384613,1.9384613v8.8204651
					c0,2.2320404,0.7313042,5.4736938,2.2227592,7.1342773l7.4252319,7.2323761
					c0.6362228,0.6196899,1.6448975,0.6370544,2.3020744,0.0396271h0.0000038
					c0.6989899-0.6354523,0.7367439-1.7221069,0.0835457-2.404541l-4.815834-5.0312958
					c-0.9466324-0.9889984-0.9165115-2.5570068,0.0672684-3.5090485l0.0445709-0.0431366
					c0.9675751-0.9363556,2.4757118-0.9669342,3.4664154-0.0735321c2.9533157,2.6632233,8.7444496,7.9462585,10.0979042,10.1244202
					c1.4502106,2.3338928,0.8890991,14.2256622,0.8890991,14.2256622H52.5941124z"/>
				<path fill="#334A5E" d="M67.8750458,231.2212524H51.8367653v-5.1428528
					c-1.7027092-1.9672852-10.4453545-12.2064514-11.1001282-15.7020264
					c-0.3236923-1.7226563-0.2069283-6.4073334-0.0931168-10.9375458c0.0517311-2.1187744,0.1019821-4.0971375,0.0931168-5.4746857
					c-0.0044365-0.7220154,0.2734375-1.4019165,0.7818871-1.9148102c0.5099258-0.5128784,1.189827-0.795929,1.91259-0.795929
					c1.4869156,0,2.6959572,1.2090454,2.6959572,2.6952209v8.8209839c0,2.118042,0.7109413,5.1605988,2.0293579,6.6282959
					l7.388752,7.1966095c0.3517761,0.3392181,0.906044,0.3488159,1.2666855,0.0206909
					c0.1847572-0.1685028,0.2926521-0.3998108,0.300045-0.6503448c0.0088692-0.2505188-0.081295-0.4884949-0.255703-0.6702881
					l-4.8154755-5.0312653c-1.2297325-1.2866364-1.189827-3.3396454,0.0886841-4.576767
					c1.2888565-1.2474823,3.2635269-1.287384,4.5435143-0.1352539c3.7512817,3.383255,8.8934059,8.1307373,10.2339897,10.2872009
					c1.5297775,2.4631653,1.0612411,13.4206696,1.002121,14.6614838L67.8750458,231.2212524z M53.3502846,229.7077332h13.077755
					c0.1773605-4.5664215,0.109375-11.5960083-0.8070145-13.0703583c-0.9178696-1.4758301-4.2686005-4.827301-9.9620323-9.9620361
					c-0.7020721-0.6311188-1.7485313-0.6059875-2.4328651,0.0561676c-0.7271996,0.7028198-0.7478905,1.7987823-0.0916405,2.4853363
					l4.8154755,5.0312653c0.4581947,0.4788971,0.6976395,1.1070709,0.6754684,1.7692261
					c-0.0236511,0.6621704-0.3059578,1.2725983-0.796669,1.7182312c-0.9503822,0.8631744-2.4166031,0.8395233-3.3389053-0.0569
					l-7.4242249-7.2335663c-1.6953201-1.8852386-2.4520798-5.2921448-2.4520798-7.6754913v-8.8209839
					c0-0.6518097-0.5306206-1.1817017-1.1824379-1.1817017c-0.3177795,0-0.6148682,0.1241608-0.8380508,0.3488312
					c-0.2231865,0.2246552-0.3443871,0.5224915-0.342907,0.8387909c0.0088692,1.3900909-0.0413857,3.3854675-0.0945969,5.5219727
					c-0.1005058,4.0343323-0.2246628,9.0552521,0.0679893,10.6204987
					c0.5158386,2.752121,8.0730896,11.9071503,10.9405022,15.2024536l0.1862335,0.2135773V229.7077332z"/>
			</g>
			<g>
				<path fill="#F7DDC4" d="M87.2994003,230.4641418v-4.6678009c0,0,10.4469604-12.0028992,11.1137924-15.5593109
					c0.4614868-2.4612732-0.0385742-12.108551-0.0129318-16.2773132c0.0066147-1.0751495-0.8632584-1.9493103-1.9384308-1.9493103
					h-0.0000076c-1.0705795,0-1.9384613,0.8678741-1.9384613,1.9384613v8.8204651
					c0,2.2320404-0.7313004,5.4736938-2.2227554,7.1342773l-7.4252319,7.2323761
					c-0.6362228,0.6196899-1.6448975,0.6370544-2.3020782,0.0396271l0,0
					c-0.6989899-0.6354523-0.7367477-1.7221069-0.0835419-2.404541l4.815834-5.0312958
					c0.9466324-0.9889984,0.9165115-2.5570068-0.0672684-3.5090485l-0.0445709-0.0431366
					c-0.9675827-0.9363556-2.4757156-0.9669342-3.466423-0.0735321c-2.9533157,2.6632233-8.7444458,7.9462585-10.0979004,10.1244202
					c-1.4502106,2.3338928-0.8890991,14.2256622-0.8890991,14.2256622H87.2994003z"/>
				<path fill="#334A5E" d="M88.0562897,231.2212524H72.0194855l-0.0339966-0.721283
					c-0.0591202-1.2408142-0.5291367-12.1983185,1.0006409-14.6607361
					c1.3405838-2.1572113,6.4827118-6.9046936,10.2339935-10.2872009c1.2799835-1.155838,3.256134-1.1137085,4.4991684,0.091629
					c1.3243332,1.2822113,1.3627625,3.3344727,0.1330261,4.6196442l-4.8154755,5.0312653
					c-0.174408,0.1817932-0.2645721,0.4197693-0.2556992,0.6702881c0.0073853,0.2505341,0.1152878,0.481842,0.3000412,0.6503448
					c0.3591614,0.328125,0.9163895,0.3199921,1.2666855-0.0214233l7.425705-7.2328186
					c1.2814636-1.4300232,1.9924088-4.47258,1.9924088-6.5913544v-8.8209839c0-1.4861755,1.2090378-2.6952209,2.6959534-2.6952209
					c0.7227631,0,1.4026642,0.2830505,1.91259,0.795929c0.5084534,0.5128937,0.7863235,1.1927948,0.7818909,1.9155579
					c-0.008873,1.3768005,0.0413818,3.3551636,0.0931168,5.473938c0.1138077,4.5302124,0.2305756,9.2148895-0.0931168,10.9375458
					c-0.6547775,3.495575-9.3974228,13.7347412-11.1001282,15.7020264V231.2212524z M73.4664917,229.7077332h13.0762787v-4.1946869
					l0.1862335-0.2135773c2.8674088-3.2953033,10.4246597-12.4510651,10.9404984-15.2024536
					c0.2926483-1.5652466,0.1684952-6.5861664,0.0679855-10.6204987c-0.0532074-2.1365051-0.1034622-4.1318817-0.0945892-5.5212402
					c0.0014725-0.3170319-0.1197281-0.6148682-0.3429108-0.8395233c-0.2231827-0.2246704-0.5202713-0.3488312-0.8380508-0.3488312
					c-0.6518173,0-1.1824341,0.529892-1.1824341,1.1817017v8.8209839c0,2.3840942-0.7552872,5.7917175-2.4151306,7.6392822
					l-7.461174,7.2697754c-0.9223022,0.8949585-2.390007,0.919342-3.338913,0.0569
					c-0.4907074-0.4456329-0.7730179-1.0560608-0.7966614-1.7182312c-0.022171-0.6621552,0.2172699-1.290329,0.6754608-1.7692261
					l4.8154755-5.0312653c0.6562576-0.6858063,0.6355591-1.7817841-0.0458145-2.4432068
					c-0.7227631-0.696167-1.7928696-0.7198029-2.4786835-0.0975494c-5.6934357,5.1339874-9.0441666,8.4854584-9.9620361,9.9620361
					C73.3556366,218.1117249,73.2891312,225.1413116,73.4664917,229.7077332z"/>
			</g>
		</g>
		<g>
			<g>
				<g>

						<ellipse transform="matrix(0.9980606 -0.0622499 0.0622499 0.9980606 -10.822835 4.815527)" fill="#95D600" cx="71.8715897" cy="176.1003265" rx="10.7015085" ry="10.7015085"/>
				</g>
				<path opacity="0.1" enable-background="new    " d="M64.8233032,176.1002502
					c0-5.2958984,3.8476639-9.6908264,8.8996735-10.5477905c-0.5860291-0.099472-1.1870422-0.1539917-1.8014984-0.1539917
					c-5.9103622,0-10.7013283,4.7914276-10.7013283,10.7017822c0,5.9105225,4.790966,10.7019501,10.7013283,10.7019501
					c0.6144562,0,1.2154694-0.0545197,1.8014984-0.154007C68.6709671,185.7912445,64.8233032,181.3963165,64.8233032,176.1002502z"
					/>
			</g>
			<path fill="#00752C" d="M72.2318192,180.5467224c-0.587822,0.1345215-1.1917953,0.0323334-1.7009354-0.2875214
				l-4.2911072-2.6942902c-0.6249695-0.3921509-0.8134308-1.2167816-0.4210281-1.8414612
				c0.3925705-0.6247101,1.2170258-0.8131256,1.8414536-0.4210205l3.938179,2.4726715l4.0637512-6.4721985
				c0.3924866-0.6250458,1.2169495-0.8134613,1.8412857-0.42099c0.6249695,0.3921661,0.8134308,1.2167969,0.42099,1.8412933
				l-4.2855911,6.8256989C73.3192902,180.0579681,72.8195038,180.4124146,72.2318192,180.5467224z"/>
		</g>
	</g>
</g>
<g>
	<path fill="#FFFFFF" stroke="#9E9E9E" stroke-width="1.5" stroke-miterlimit="10" d="M287.6666565,152.6159515
		c0-47.1337814-23.4561768-88.783699-59.3271027-113.9311371l-79.7236023,113.9311371H287.6666565z"/>
	<g>
		<circle fill="#FFFFFF" cx="198.937149" cy="127.3738937" r="17.4273415"/>
		<g>
			<path fill="#666666" d="M198.2140808,126.970726l7.640152-7.3372421c0.3726349-0.357872,0.9648438-0.3458939,1.3227081,0.0267487
				l0,0c0.3578644,0.3726425,0.3458862,0.9648438-0.0267487,1.3227081l-7.640152,7.3372498L198.2140808,126.970726z"/>
			<path fill="#666666" d="M199.5205994,126.4531708l-8.9460754,0.0039825
				c-0.5166626-0.0014343-0.9366455,0.4162369-0.9380798,0.9328918l0,0
				c-0.0014343,0.516655,0.4162445,0.9366455,0.9328918,0.9380798l8.9460907-0.0039825L199.5205994,126.4531708z"/>
		</g>
		<g>
			<g>

					<rect x="191.0437317" y="112.0124283" transform="matrix(0.8269265 -0.56231 0.56231 0.8269265 -30.4419498 127.1369629)" fill="#D8D6D2" width="0.5343139" height="2.0169864"/>

					<rect x="184.2167358" y="119.3438644" transform="matrix(0.5179544 -0.8554083 0.8554083 0.5179544 -14.0207539 215.8243561)" fill="#D8D6D2" width="0.5343139" height="2.0169864"/>
			</g>
			<g>

					<rect x="205.3331604" y="112.7537613" transform="matrix(0.56231 -0.8269265 0.8269265 0.56231 -3.1463158 220.0975037)" fill="#D8D6D2" width="2.0169864" height="0.5343139"/>

					<rect x="212.4275665" y="120.0852051" transform="matrix(0.8554083 -0.5179544 0.5179544 0.8554083 -31.4759369 127.9521103)" fill="#D8D6D2" width="2.0169864" height="0.5343139"/>
			</g>
			<g>

					<rect x="190.3023987" y="141.5461884" transform="matrix(0.56231 -0.8269265 0.8269265 0.56231 -33.5343552 220.2703247)" fill="#D8D6D2" width="2.0169864" height="0.5343139"/>

					<rect x="183.4753876" y="134.2147522" transform="matrix(0.8554083 -0.5179544 0.5179544 0.8554083 -42.9806442 114.9992218)" fill="#D8D6D2" width="2.0169864" height="0.5343139"/>
			</g>
		</g>
		<g>
			<g>
				<rect x="198.5370636" y="109.9467697" fill="#666666" width="0.8005918" height="2.9740732"/>
				<path fill="#676766" d="M199.5804138,113.1641769h-1.2866974v-3.4603119h1.2866974V113.1641769z M198.7799072,112.6779861
					h0.3143158v-2.4879303h-0.3143158V112.6779861z"/>
			</g>
			<g>
				<rect x="198.5370636" y="141.7168884" fill="#666666" width="0.8005918" height="2.9740732"/>
				<path fill="#676766" d="M199.5804138,144.9342194h-1.2866974v-3.4603271h1.2866974V144.9342194z M198.7799072,144.4480286
					h0.3143158v-2.4879303h-0.3143158V144.4480286z"/>
			</g>
			<g>
				<rect x="181.5098114" y="126.9736099" fill="#666666" width="2.9740732" height="0.8005918"/>
				<path fill="#676766" d="M184.7268982,128.0172272h-3.4603271v-1.2866974h3.4603271V128.0172272z M181.7527618,127.5310364
					h2.4879456v-0.3143158h-2.4879456V127.5310364z"/>
			</g>
			<g>
				<rect x="213.1582031" y="126.9736099" fill="#666666" width="2.9740732" height="0.8005918"/>
				<path fill="#676766" d="M216.3749084,128.0172272h-3.4593658v-1.2866974h3.4593658V128.0172272z M213.4017334,127.5310364
					h2.4869843v-0.3143158h-2.4869843V127.5310364z"/>
			</g>
			<g>
				<path fill="#666666" d="M198.9372101,145.241333c-9.8520355,0-17.8674164-8.0152893-17.8674164-17.867424
					s8.0153809-17.8674316,17.8674164-17.8674316c9.8520508,0,17.8674316,8.0152969,17.8674316,17.8674316
					S208.7892609,145.241333,198.9372101,145.241333z M198.9372101,110.3866501
					c-9.366745,0-16.9872589,7.6204224-16.9872589,16.9872589s7.6205139,16.9872513,16.9872589,16.9872513
					s16.9872589-7.6204224,16.9872589-16.9872513S208.3039551,110.3866501,198.9372101,110.3866501z"/>
				<path fill="#676766" d="M198.9375458,145.4844971c-9.9859161,0-18.1106262-8.1242371-18.1106262-18.1106186
					s8.1247101-18.1106262,18.1106262-18.1106262s18.1106262,8.1242371,18.1106262,18.1106262
					S208.9234619,145.4844971,198.9375458,145.4844971z M198.9375458,109.7494431
					c-9.7181396,0-17.6244354,7.9063034-17.6244354,17.6244354s7.9062958,17.6244278,17.6244354,17.6244278
					c9.7181244,0,17.6244354-7.9062958,17.6244354-17.6244278S208.6556702,109.7494431,198.9375458,109.7494431z
					 M198.9375458,144.6042328c-9.5006714,0-17.2303619-7.7296906-17.2303619-17.2303543
					s7.7296906-17.2303543,17.2303619-17.2303543s17.2303467,7.7296829,17.2303467,17.2303543
					S208.4382172,144.6042328,198.9375458,144.6042328z M198.9375458,110.629715
					c-9.2328949,0-16.7441711,7.5112762-16.7441711,16.7441635s7.5112762,16.7441635,16.7441711,16.7441635
					c9.2328796,0,16.7441559-7.5112762,16.7441559-16.7441635S208.1704254,110.629715,198.9375458,110.629715z"/>
			</g>
		</g>
		<circle fill="#C1272D" cx="209.8616791" cy="137.1041718" r="6.5398436"/>
		<g>
			<polygon fill="#FFFFFF" points="208.7006073,132.9650116 211.0227966,132.9650116 210.5511017,138.2988129
				209.2085876,138.2988129 			"/>
			<circle fill="#FFFFFF" cx="209.8617096" cy="140.0041656" r="0.8345386"/>
		</g>
	</g>
	<g>
		<path fill="#F9745F" d="M217.4266663,98.2268524c-0.0267334-0.5608063-0.0534515-1.1216888-0.0801086-1.6824341
			c-0.0393677,0.1890182-0.1921387,0.3605728-0.0739746,0.5796432c0.0319672,0.0593643,0.0223083,0.1434708,0.0240021,0.2164917
			c0.005722,0.2385254,0.0044861,0.4773178,0.0135345,0.7157745c0.0023193,0.0613327,0.0325623,0.1217117,0.0501099,0.1825638
			C217.3824005,98.2348099,217.4045563,98.2308655,217.4266663,98.2268524z"/>
		<path fill="#F9745F" d="M217.2713623,89.6097336c-0.0991364-2.6094666-0.1983337-5.2189331-0.2976074-7.828392
			c-0.017746,0.000679-0.0356293,0.0014267-0.0533752,0.0021057c0.0520172,1.3122787,0.1040344,2.6245575,0.1561127,3.9368362
			c-0.0091095,0.000412-0.018219,0.000885-0.0273285,0.001358c0.0207367,0.4354324,0.0415344,0.8707962,0.0622101,1.3062286
			c0.0056458-0.0014267,0.0112152-0.0028534,0.016861-0.0042801c0.0389557,0.9831238,0.0779266,1.9662399,0.1169434,2.9493637
			c0.0050354-0.0001984,0.0100708-0.0004044,0.0151062-0.0006104c-0.0080261,0.7354202-0.0159149,1.4708405-0.0238647,2.2063293
			c0.0209351-0.0001373,0.0418091-0.0003357,0.0627594-0.000473c-0.003952-0.8569946-0.0078278-1.7139206-0.0117645-2.5708466
			C217.2820435,89.6081696,217.2767334,89.6089859,217.2713623,89.6097336z"/>
		<path fill="#F9745F" d="M217.6049347,98.2186966c-0.0084991-0.000412-0.0170593-0.0008163-0.0255585-0.0011597
			c-0.0231934,0.2203674-0.0677185,0.4411469-0.0636444,0.6609039c0.0041504,0.2217941,0.0566406,0.4426346,0.0878448,0.6638184
			c0.021347-0.0027161,0.0427094-0.0055008,0.0640564-0.0082932
			C217.6466827,99.0956116,217.625885,98.6571198,217.6049347,98.2186966z"/>
		<path fill="#F9745F" d="M217.2961884,94.6178818c-0.000412,0.2500839-0.0007629,0.5001602-0.0010223,0.7503128
			c0.0197144-0.0002747,0.039505-0.0005417,0.0593567-0.0008163c-0.0003357-0.2509003-0.0007477-0.5017929-0.0011597-0.7526932
			C217.3343201,94.6157074,217.3152161,94.6167908,217.2961884,94.6178818z"/>
		<path fill="#F9745F" d="M247.6486053,99.8744125c0.0220947,0.0040131,0.0442657,0.0079575,0.0664215,0.0120316
			c0.0174713-0.0608521,0.0477295-0.1212311,0.0501099-0.1825638c0.0090485-0.2384491,0.0078278-0.4772415,0.0135345-0.7157669
			c0.0016937-0.0730286-0.0080261-0.157135,0.0240021-0.2164917c0.118103-0.2190781-0.0346832-0.3906937-0.0739746-0.5796509
			C247.7020416,98.7527161,247.6752472,99.3135986,247.6486053,99.8744125z"/>
		<path fill="#F9745F" d="M247.4702454,99.8662567c-0.020874,0.4384232-0.041748,0.876915-0.0626221,1.3152695
			c0.0213623,0.0027847,0.0427094,0.0055771,0.0639954,0.0082932c0.0312653-0.2211838,0.0836945-0.4420242,0.0879059-0.663826
			c0.0040894-0.2197495-0.0405273-0.4405289-0.0637054-0.6608963
			C247.4873199,99.8654404,247.4788208,99.8658447,247.4702454,99.8662567z"/>
		<path fill="#F9745F" d="M247.7790833,96.2654419c-0.019043-0.001091-0.0382233-0.002182-0.0571899-0.0031967
			c-0.0003967,0.2508926-0.0008087,0.5017929-0.0011444,0.7526855c0.0198517,0.0002747,0.039566,0.0005493,0.0593567,0.0008163
			C247.7797546,96.7656021,247.7794952,96.5155182,247.7790833,96.2654419z"/>
		<path fill="#F9745F" d="M217.3465576,104.8210983c-0.0393677,0.1890182-0.1921387,0.3606339-0.0739746,0.5796432
			c0.0319672,0.0593567,0.0223083,0.1434708,0.0240021,0.2164917c0.005722,0.2385941,0.0044861,0.4773178,0.0135345,0.7157745
			c0.0023193,0.0613251,0.0325623,0.1217041,0.0501099,0.1825638c0.022171-0.0040131,0.0443268-0.0080261,0.0664368-0.0120392
			C217.3999329,105.9427185,217.3732147,105.3818436,217.3465576,104.8210983z"/>
		<path fill="#F9745F" d="M217.2874146,97.8840332c-0.0077515,0.0012207-0.0155029,0.0023117-0.0232544,0.0033951
			c-0.0093231,0.856041-0.0184937,1.7119522-0.0277405,2.5679245c0.0209351-0.0001373,0.0418091-0.0003433,0.0627594-0.0004807
			C217.2952271,99.5979462,217.2913513,98.7410278,217.2874146,97.8840332z"/>
		<path fill="#F9745F" d="M217.6049347,106.4953766c-0.0084991-0.0003433-0.0170593-0.0007477-0.0255585-0.0011597
			c-0.0231934,0.2203674-0.0677185,0.4411469-0.0636444,0.660965c0.0041504,0.2217331,0.0566406,0.4425735,0.0878448,0.663826
			c0.021347-0.0027847,0.0427094-0.0055771,0.0640564-0.0083618
			C217.6466827,107.3722916,217.625885,106.9337997,217.6049347,106.4953766z"/>
		<path fill="#F9745F" d="M217.0491638,93.9983215c0.0207367,0.4354324,0.0415344,0.8708649,0.0622101,1.3062286
			c0.0129852-0.0032654,0.0258331-0.0065918,0.0387573-0.0099258c-0.0205994-0.4327774-0.041275-0.8655624-0.0618744-1.2982712
			C217.0751953,93.9970322,217.0622101,93.9977112,217.0491638,93.9983215z"/>
		<path fill="#F9745F" d="M217.353363,102.8913651c-0.019043,0.0010834-0.038147,0.0021057-0.0571747,0.0032654
			c-0.000412,0.2500076-0.0007629,0.5001602-0.0010223,0.7502441c0.0197144-0.0002747,0.039505-0.0005493,0.0593567-0.0008163
			C217.354187,103.393158,217.353775,103.1422577,217.353363,102.8913651z"/>
		<path fill="#F9745F" d="M248.1014404,83.428894c-0.0991974,2.6094666-0.19841,5.2188644-0.2976074,7.828331
			c-0.0053711-0.0007477-0.0106812-0.0014954-0.0160522-0.0023117c-0.0038757,0.856926-0.0078125,1.7138443-0.0117645,2.5707703
			c0.0209503,0.000206,0.0418243,0.000412,0.0627594,0.0005493c-0.0078888-0.7354889-0.0158386-1.4709091-0.0237885-2.2063293
			c0.0050201,0.0001984,0.0100555,0.0004044,0.0150909,0.0006104c0.039032-0.9831238,0.0779877-1.9662476,0.1169434-2.9493637
			c0.0055847,0.0014267,0.0112152,0.0028534,0.0167999,0.0042801c0.0207367-0.4354324,0.0414734-0.8707962,0.0622101-1.3062286
			c-0.0091095-0.000473-0.018158-0.0009537-0.0272675-0.001358c0.0520935-1.3122787,0.1040955-2.6245575,0.1561127-3.9368439
			C248.1370697,83.4303207,248.1192474,83.4295731,248.1014404,83.428894z"/>
		<path fill="#F9745F" d="M247.6486053,108.1510925c0.0220947,0.0040054,0.0442657,0.0080185,0.0664215,0.0120316
			c0.0174713-0.0608521,0.0477295-0.1212311,0.0501099-0.1825638c0.0090485-0.2384491,0.0078278-0.4771805,0.0135345-0.7157669
			c0.0016937-0.0730286-0.0080261-0.157135,0.0240021-0.2164917c0.118103-0.2190094-0.0346832-0.390625-0.0739746-0.5796509
			C247.7020416,107.0293961,247.6752472,107.5902786,247.6486053,108.1510925z"/>
		<path fill="#F9745F" d="M247.8111115,99.5349884c-0.0078278-0.001091-0.0155029-0.0021744-0.0233307-0.0034027
			c-0.0038757,0.856926-0.0078125,1.7139206-0.0117645,2.5708466c0.0209503,0.0001373,0.0418243,0.0003433,0.0627594,0.000473
			C247.8296051,101.246933,247.8203583,100.3910294,247.8111115,99.5349884z"/>
		<path fill="#F9745F" d="M247.4076233,109.4581985c0.0213623,0.0027924,0.0427094,0.0055771,0.0639954,0.0083694
			c0.0312653-0.2212524,0.0836945-0.4421005,0.0879059-0.663826c0.0040894-0.2198257-0.0405273-0.4405975-0.0637054-0.660965
			c-0.0084991,0.0004044-0.0169983,0.0008163-0.0255737,0.001152
			C247.4493713,108.5813522,247.4284973,109.0198441,247.4076233,109.4581985z"/>
		<path fill="#F9745F" d="M247.9251251,96.9421844c0.0128632,0.0033264,0.0257721,0.0066605,0.0386963,0.0099258
			c0.0207367-0.4353638,0.0414734-0.8707962,0.0622101-1.3062286c-0.0130463-0.0006104-0.0260468-0.001297-0.039093-0.001976
			C247.9663391,96.076622,247.9457397,96.5093994,247.9251251,96.9421844z"/>
		<path fill="#F9745F" d="M247.7207489,105.2916107c0.0198517,0.0002747,0.039566,0.0005417,0.0593567,0.0008163
			c-0.000351-0.2500839-0.0006104-0.5002289-0.0010223-0.7502441c-0.019043-0.001152-0.0382233-0.0021744-0.0571899-0.0032654
			C247.7214966,104.7898178,247.7210846,105.0407181,247.7207489,105.2916107z"/>
		<path fill="#F9745F" d="M238.1109772,68.1695328c0.0166626-0.0668411,0.0356293-0.1332703,0.0535736-0.1999054
			c-0.0179443-0.0050964-0.0357513-0.0102005-0.0536346-0.0153656c-0.0011597,0.0040817-0.0024567,0.0088348-0.0036163,0.0129166
			c0.0006866,0.0084991-0.0016937,0.0172043-0.000885,0.0257034
			C238.1120605,68.0523071,238.1083984,68.1105118,238.1109772,68.1695328z"/>
		<g>
			<path fill="#F9745F" d="M247.9351959,82.1113129c-0.0063324-0.062355-0.0266571-0.1232071-0.0489502-0.1839218
				c0.0895386-2.2577362,0.1790924-4.5153351,0.268631-6.7731323c-0.017807-0.000679-0.0356293-0.001358-0.0534363-0.0020447
				c-0.0844574,2.2222443-0.1689606,4.4443512-0.253418,6.6665878c-0.0028534-0.0087051-0.0065918-0.0172729-0.0091705-0.0259705
				c-0.0153046-0.0513382-0.0330505-0.1049194-0.0330505-0.1574097c-0.0002747-0.5294647-0.0011597-1.0588684,0.0066681-1.5881958
				c0.0041504-0.2825165,0.0306549-0.5647583,0.035553-0.8472748c0.001297-0.0767593-0.0203247-0.153801-0.0329742-0.230835
				c0.0109406-0.2913513,0.023056-0.5826416,0.0329132-0.8740616c0.0001373-0.0027847,0.0002747-0.0055771,0.0003967-0.0083618
				h-0.000061c0.0097198-0.2872772,0.0215607-0.5744095,0.0324402-0.8616867
				c0.0216827-0.5755005,0.055542-1.150795,0.0648651-1.7264252c0.0069275-0.4248962-0.0193176-0.8501968-0.0257721-1.2753601
				c-0.0019073-0.1296005,0.0283508-0.2609634,0.0153656-0.3886566c-0.0110168-0.1082458-0.0647278-0.2118683-0.096344-0.3184128
				c-0.0153046-0.0513382-0.0330505-0.1049118-0.0330505-0.157402c-0.0002747-0.5294724-0.0011597-1.0588684,0.0066681-1.5882034
				c0.0041504-0.2825775,0.0306549-0.5647583,0.035553-0.8473358c0.001709-0.1017914-0.0446625-0.2041855-0.0439911-0.3061752
				c0.0012207-0.1892929,0.021286-0.3784561,0.0327148-0.5676804c0.0048828-0.0797577,0.0078125-0.159584,0.0116119-0.2394104
				c-0.0163727-0.001564-0.0327606-0.0031281-0.0490875-0.0047531c-0.0618744,0.1858215-0.1200714,0.3728714-0.1865082,0.5569305
				c-0.093689,0.2595367-0.1694336,0.2839432-0.3946381,0.1592407c0.0718079-0.0413361,0.1001587-0.1122513,0.0464478-0.1891556
				c-0.0235901-0.0337906-0.0532379-0.0636444-0.0808411-0.09478c-0.0135345-0.1026764-0.0312195-0.2048035-0.0533752-0.3064499
				c0.0202637-0.0096588,0.0384827-0.0182877,0.0600281-0.0285568c-0.0238647,0.0023117-0.0420837,0.0040817-0.0647278,0.0062561
				c-0.0158997-0.0729599-0.0278015-0.1465302-0.0403137-0.2199631c0.0203247-0.0152283,0.0392914-0.0295105,0.0600281-0.0450134
				c-0.0297699-0.038414-0.0526123-0.0943756-0.0839691-0.1449585c-0.0052948-0.0809174-0.0069275-0.1622314,0.0053101-0.2453232
				c0.0039368-0.0270615-0.0111542-0.056839-0.0164642-0.0855331c-0.0289612-0.1574097-0.0576477-0.3148117-0.0849915-0.4640579
				c-0.0479279,0.055687-0.1119843,0.1302032-0.1756897,0.2042542c-0.0407257-0.0238724-0.0930176-0.0545349-0.1428528-0.0838394
				c0.0032654-0.0584717,0.0061188-0.1095352,0.0100555-0.1799088c-0.0308685,0.0376663-0.0507202,0.0618057-0.0738983,0.0901566
				c-0.0244751-0.1584244-0.0478668-0.3097763-0.0712585-0.4611359c-0.0108795,0.003334-0.021759,0.0065994-0.0325775,0.0099258
				c-0.0657501,0.2497482-0.1315002,0.4994202-0.193512,0.7352219c-0.0228424-0.2636108-0.0464325-0.5359268-0.0688019-0.7936249
				c-0.0482788,0.2755127-0.0964203,0.5536041-0.1470032,0.8311539c-0.0249481-0.0038071-0.0498352-0.0080185-0.0748596-0.0112839
				c-0.0027924-0.1387787-0.0054474-0.2683029-0.0080261-0.392868c-0.0091858-0.0009537-0.0184326-0.0019073-0.0276031-0.0028534
				c-0.0218964,0.1268082-0.0437164,0.2535477-0.0656128,0.3804245c-0.2098999-0.0225754-0.4212189-0.0364456-0.6315918-0.0558243
				c0.016449-0.0704422,0.0345306-0.14048,0.0516663-0.2107162c0.0172729-0.0704422,0.0374756-0.1401367,0.0563049-0.2102356
				c-0.0178833-0.0050278-0.0357666-0.0101318-0.0536499-0.0152969c-0.039093,0.1395187-0.0791473,0.2823105-0.1206207,0.4299927
				c-0.0266571-0.0027237-0.0535126-0.0043488-0.0800934-0.0075455c-0.000473-0.004425,0.000061-0.0093842-0.000473-0.0138092
				c-0.0119019-0.0976334-0.0428467-0.2115936-0.1328583-0.2340317c0.0018311-0.0297089-0.0025177-0.0586777,0.0018921-0.0886612
				c0.0040131-0.0271301-0.0111542-0.0569153-0.0163879-0.0856094c-0.0289612-0.157402-0.057724-0.3148041-0.0849915-0.4640503
				c-0.0479279,0.055687-0.1120453,0.1302032-0.175766,0.2043152c-0.0406494-0.0239334-0.0929413-0.0545959-0.1428528-0.0838318
				c0.0032654-0.058548,0.0061951-0.1096115,0.0100708-0.179985c-0.0308685,0.037674-0.0506592,0.0618134-0.0739136,0.0901642
				c-0.0244751-0.1584244-0.0478668-0.3097839-0.0712585-0.4611359c-0.0108032,0.003334-0.0216827,0.0066681-0.0325623,0.0099258
				c-0.0657501,0.2497406-0.1314392,0.4994202-0.193512,0.7352905c-0.0228424-0.2636871-0.0464478-0.5359955-0.0687408-0.7936935
				c-0.0505219,0.2883606-0.1006317,0.5794449-0.1538696,0.8698425c-0.0048981,0.0265884-0.0303345,0.0493622-0.0648651,0.1026688
				c-0.0042267-0.2058792-0.0076904-0.3756638-0.0111542-0.5454407c-0.0092468-0.0009537-0.0184326-0.001976-0.0276031-0.0029297
				c-0.0420227,0.2434235-0.0840454,0.4868393-0.1260681,0.7303238c-0.0165253,0.0002747-0.0329742,0.000473-0.0494995,0.0008163
				c-0.0305939-0.04216-0.0611877-0.0843124-0.1049805-0.1446228c-0.0402527,0.2158127-0.099472-0.0171356-0.1519012,0.0234604
				c-0.0067902-0.0238724-0.0135956-0.0480042-0.0203857-0.0718689c-0.0117035,0.0027161-0.0233917,0.0053024-0.0350952,0.0079498
				c-0.0060425,0.0253601-0.0120392,0.0507278-0.0180817,0.076088c-0.0378723,0.7814484-0.0876465,1.5624924-0.1207581,2.3441544
				c-0.0293732,0.6931229-0.0297852,1.3874817-0.0480042,2.0811539c-0.0265808,1.0083466-0.0701752,2.0163498-0.0828094,3.0248337
				c-0.0113678,0.9061584,0.0071259,1.8127136,0.0163727,2.7190704c0.0128632,1.2585678,0.0325775,2.517067,0.043045,3.7756958
				c0.0061951,0.7411346,0.0025787,1.482399-0.0021057,2.2236023c-0.0012207,0.2014618,0.0405884,0.3514557,0.2518463,0.4437943
				c0.0826874,0.0361023,0.1654358,0.1811371,0.1667938,0.2777557c0.019165,1.3792496,0.0323639,2.7587814,0.0307922,4.1381683
				c-0.0016327,1.3786392-0.0376587,2.7574158-0.0282135,4.1359253c0.0083008,1.2211685,0.0609894,2.4420624,0.0893402,3.6631622
				c0.0268707,1.1565781,0.0478668,2.3132858,0.0709991,3.4699249c0.0234528,1.1742554,0.0505066,2.3484421,0.0678558,3.5227585
				c0.0098572,0.666275-0.0240021,1.3342438,0.0117645,1.9988174c0.037735,0.701149,0.1425018,1.3984222,0.2025452,2.0987625
				c0.0265198,0.3092346,0.0148163,0.6218033,0.0205994,0.9328766c0.0032654,0.1741257,0.0069427,0.3483276,0.0110168,0.5493851
				c-0.3634949,0.0501099-0.4191742,0.3593445-0.4906464,0.6719818c-0.0318146,0.1394577-0.1039581,0.2799301-0.1839142,0.4590988
				c0.0279388,0.001564,0.055954,0.0027847,0.0839081,0.0044174c0.5720978,0.0335846,1.1436462,0.0771027,1.7159576,0.1069565
				c0.1313629,0.0068665,0.2648315-0.0233917,0.3970795-0.0387573c0.3643036-0.0424271,0.7044067-0.2239761,1.0827942-0.1880722
				c0.0273438,0.0025787,0.0562286-0.0140076,0.0846558-0.0207367c0.1556396-0.037056,0.3114166-0.0738449,0.4590912-0.1087952
				c-0.058136-0.0449448-0.1357727-0.1051178-0.213089-0.1649475c0.021759-0.0418854,0.0496979-0.0956726,0.0764313-0.1470032
				c0.0585327,0.000267,0.1097412,0.0005417,0.1801758,0.0008163c-0.0392303-0.0289001-0.0643158-0.0474625-0.0938263-0.0692215
				c0.1569214-0.0325699,0.3069153-0.0637054,0.4568481-0.0948486c-0.0038757-0.0106735-0.0076904-0.021286-0.0116272-0.0319595
				c-0.2527313-0.0528336-0.5054626-0.1056595-0.7441864-0.1555023c0.2621155-0.036377,0.5328674-0.0739059,0.7891235-0.1094666
				c-0.2906036-0.0356293-0.5838623-0.0707169-0.8766327-0.1089935c-0.0267944-0.0034714-0.0507965-0.0277405-0.1058655-0.0594254
				c0.2053986-0.0148239,0.3747711-0.0270004,0.5441437-0.039238c0.0005493-0.0091782,0.0010223-0.0184937,0.0015717-0.0276718
				c-0.2453308-0.0295105-0.4905853-0.0589523-0.7359009-0.0883942c-0.0010834-0.016449-0.002182-0.0329056-0.0032654-0.0493622
				c0.0404663-0.0327682,0.0809784-0.0654755,0.138916-0.1122589c-0.2256775-0.0302582,0.0328369-0.1059341-0.0344696-0.15625
				c-0.141098-0.036377-0.3132477,0.0172729-0.4362488-0.0684662c0.0347443-0.1321793,0.0698242-0.2659912,0.1057281-0.4027252
				c0.0059814,0.0025101,0.0144806,0.0050964,0.0144806,0.0069351c0.0023041,0.1531906,0.1285095,0.0997467,0.2028961,0.116539
				c0.1988831,0.0448074,0.4005432,0.0769043,0.6008606,0.1151123c0.0712585,0.0136032,0.1419067,0.0301895,0.2128143,0.0454178
				c0.0042114-0.0181503,0.0083618-0.0362396,0.0125885-0.0543213c-0.2289429-0.0517426-0.4578705-0.1033554-0.7224426-0.1631165
				c0.1241608-0.0059891,0.2158203-0.0014954,0.3040009-0.0168686c0.1161346-0.020256,0.2634735-0.0639801,0.2309113-0.2028198
				c-0.0244141-0.1037598-0.0131989-0.2260818-0.0720825-0.3246078c0.0254974-0.2241058,0.0504608-0.4482803,0.076767-0.6722488
				c0.0273438-0.0144882,0.0666351-0.0352936,0.1370087-0.0725555c-0.0490265,0.001297-0.0879822-0.0060501-0.1272125-0.0131836
				c0.0163879-0.1402054,0.0323029-0.2804794,0.0480042-0.4206848c0.0027161-0.000946,0.0055084-0.0018997,0.0083008-0.0028534
				c-0.0019073-0.0066605-0.0038147-0.0133286-0.005722-0.019989c0.0121765-0.1091309,0.0260468-0.2180557,0.0373993-0.3272552
				c0.0016327-0.0159073,0.002655-1.4154282,0.0033264-3.5782394c0.118988-0.0114212,0.2381134-0.0261765,0.3571167-0.0367126
				c-0.0015717-0.0202637-0.003067-0.0405273-0.0046997-0.060791c-0.1174316-0.0005417-0.2349243-0.0010223-0.3523407-0.001564
				c0.000061-0.2296143,0.0001373-0.4622879,0.0001984-0.7079468c0-0.1007004,0-0.2080612,0.0000763-0.311348
				c0.015152,0.0000687,0.0264435,0.0001373,0.0434418,0.000206c-0.018158-0.0133972-0.0295105-0.021759-0.0434418-0.0320282
				c0-0.0155716,0-0.0320206,0-0.0476608c0.1382904-0.0287628,0.273056-0.0567093,0.4064636-0.0843811
				c-0.0038757-0.0106735-0.0076904-0.021347-0.0116272-0.0320206c-0.134079-0.0280151-0.2628021-0.0549393-0.3947754-0.0824814
				c0-0.0405884,0-0.0805054,0-0.1214371c0.1478271-0.0205307,0.296936-0.0412064,0.4397125-0.0609894
				c-0.1457672-0.0178833-0.292984-0.0366516-0.4397125-0.0546646c0-0.0519485,0.0000763-0.1004257,0.0000763-0.1529236
				l0.0012817-0.000061c0.0005493-0.0092468,0.0010223-0.0185013,0.0015717-0.0277481
				c-0.0009613-0.0001297-0.0019073-0.0001984-0.0028534-0.0003357c0-0.1969147,0-0.4035416,0.000061-0.6076584
				c0.0228424,0.0050278,0.0457611,0.0097198,0.0686035,0.0146179c0.0042114-0.018158,0.0083618-0.0362396,0.0125885-0.0543289
				c-0.0257111-0.0058441-0.0554199-0.0125122-0.081192-0.0183563c0.0000763-0.4569855,0.0001373-0.9275055,0.0001373-1.4152222
				c0.0143433-0.0075531,0.0171356-0.0090485,0.0352173-0.018631c-0.0135956,0.0003357-0.0229797-0.002861-0.0352173-0.0036697
				c0-0.1008377,0-0.1990891,0-0.3010788c0.0055084-0.1506042,0.0128479-0.3011475,0.017334-0.4518204
				c0.0157166-0.5249786-0.0156403-1.0521317,0.0162506-1.5756836c0.0579987-0.9541626,0.1540833-1.9058685,0.2206421-2.8596191
				c0.0326996-0.4682007,0.0281525-0.9389267,0.0522919-1.4078751c0.0826721-1.6080551,0.1752777-3.2155609,0.254425-4.823822
				c0.042984-0.8720169,0.0656128-1.7449875,0.0986023-2.6175537c0.0216827-0.5755005,0.055542-1.1507263,0.0648651-1.7264328
				c0.0069275-0.4248199-0.0193176-0.8501892-0.0257721-1.2753601
				C247.917923,82.370369,247.9481812,82.2389374,247.9351959,82.1113129z M245.8139191,109.3453979
				c-0.0532379-0.0086288-0.0987854-0.0647964-0.1478119-0.0997467c0.0145416-0.0192413,0.0276031-0.0437164,0.041275-0.0660858
				l0.1044312-0.038826c0.0047607,0.0679245,0.0098572,0.1361237,0.0146179,0.2038422
				C245.8224182,109.3441086,245.8179321,109.346077,245.8139191,109.3453979z M246.0579529,109.329422
				c-0.0671844,0.0057831-0.1334076,0.0142136-0.1981354,0.0129852c0.0149536-0.077919,0.0301971-0.157135,0.0454254-0.2363434
				l0.079483-0.0295105c0.0252228-0.0045547,0.0502472-0.0095215,0.0753326-0.0145493
				c0.017334,0.1115799,0.0340729,0.2196198,0.0516052,0.3326263
				C246.0935211,109.3735504,246.0722961,109.3613129,246.0579529,109.329422z"/>
			<path fill="#F9745F" d="M243.1998444,110.5795517c-0.0309448-0.1635284-0.0558319-0.3301163-0.061264-0.4960175
				c-0.0102692-0.3126373-0.1316986-0.5591125-0.3616638-0.7728882c-0.075943-0.0705719-0.1085205-0.2136307-0.1170197-0.3268433
				c-0.1072235-1.4201889-0.2310333-2.8398285-0.2997131-4.2620544c-0.0535736-1.1099319-0.0339203-2.2233276-0.0505219-3.3350906
				c-0.0230408-1.5464554-0.0405121-3.0930405-0.077301-4.6391525c-0.0301971-1.266243-0.1086578-2.5316772-0.1232758-3.7979279
				c-0.0188293-1.6304169,0.0171967-3.2614517,0.0060577-4.8920822c-0.0088501-1.2881393-0.0640564-2.5760117-0.0788116-3.8642197
				c-0.0148926-1.2971191,0.0091858-2.5947113-0.0098572-3.8917618c-0.0261078-1.7772903-0.0884552-3.5541-0.1106873-5.3313904
				c-0.0081024-0.6468277,0.115448-1.2988205,0.0693512-1.9406128c-0.0586853-0.8169403,0.0603027-1.619133,0.0784607-2.4282608
				c0.0184326-0.8224487,0.0696869-1.6441574,0.1147766-2.4659271c-0.1031494-0.0282898-0.2034454-0.0558243-0.3184814-0.0877838
				c-0.0102692-0.0222321-0.0337372-0.0726166-0.0786133-0.1691666c-0.0067291,0.2634735-0.1309509,0.371521-0.3368378,0.4109573
				c-0.0346069-0.1219177-0.0688019-0.2421951-0.1029358-0.3625488c-0.0117035,0.0027237-0.023468,0.0053101-0.0351563,0.0080261
				c-0.0264435,0.1113052-0.0529022,0.2226791-0.0793457,0.3339844c-0.0174103,0.0003433-0.0348206,0.0005493-0.0521545,0.0008163
				c-0.0320282-0.055687-0.0639801-0.1114426-0.1019287-0.1776657c-0.1629028,0.0525589-0.2405548-0.0258408-0.275238-0.1774673
				c-0.0257568-0.1123886-0.112381-0.1660385-0.2092133-0.1056595c-0.1217041,0.0759506-0.2241058,0.1830368-0.3386688,0.2799301
				c-0.0313568-0.0756073-0.0605164-0.1459808-0.0943756-0.2279129c0.0052948,0.1171494,0.0097809,0.217308,0.014267,0.3173904
				c-0.0233765,0.0063934-0.0467072,0.0127869-0.0700989,0.0191803c-0.0670319-0.0998154-0.13414-0.1995621-0.2048645-0.3049545
				c-0.0928802,0.0647278-0.2826538,0.076767-0.2720337,0.29319c0.0010071,0.0205994-0.0467834,0.0422897-0.0696259,0.0656815
				c-0.0113678,0.0116272-0.023941,0.0229111-0.0362396,0.0341339c-0.0257111-0.0150299-0.0491638-0.0288315-0.0756226-0.0443344
				c0.0032654-0.0584717,0.0061188-0.1096039,0.0100708-0.1799088c-0.0308685,0.0376663-0.0506592,0.0618057-0.0739136,0.0901566
				c-0.0244751-0.1584244-0.0478668-0.3097763-0.0712585-0.4611359c-0.0108795,0.003334-0.0216827,0.0066681-0.0325623,0.0099258
				c-0.0656891,0.2497482-0.1314392,0.4994202-0.193512,0.7352905c-0.0228424-0.2636795-0.0464478-0.5359955-0.0687408-0.7936935
				c-0.0505219,0.2883606-0.1006317,0.5793762-0.1539459,0.8698425c-0.0048218,0.0265198-0.0302582,0.0493622-0.0647888,0.1026688
				c-0.0042114-0.2058792-0.0076904-0.3757324-0.0112152-0.5455093c-0.0091858-0.0009537-0.0183716-0.0019073-0.0275421-0.0028534
				c-0.037323,0.2158737-0.0745239,0.4318237-0.1118469,0.6477051c-0.0309448-0.0007477-0.0619507-0.0000687-0.0928802-0.0009537
				c-0.0110931-0.0004044-0.0220947-0.0010834-0.0331116-0.0014267c-0.0133362-0.0183563-0.0264587-0.0364456-0.0427094-0.058815
				c-0.0047607,0.0251617-0.0097198,0.0423584-0.0148926,0.056366c-0.0255585-0.0008163-0.0510559-0.0023117-0.0765533-0.0031967
				c-0.0222321-0.0265121-0.0449524-0.0524216-0.0663605-0.0267181c-0.0023193,0.0074768-0.0016327,0.0161133-0.00354,0.0237961
				c-0.0686798-0.0025177-0.1373444-0.0056458-0.2060242-0.0087051c-0.0298462,0.4469299-0.100769,0.8882751-0.1256409,1.3347855
				c-0.0847931,1.5240173-0.1986847,3.0465317-0.2704926,4.5710907c-0.0321503,0.6836777,0.0129242,1.3706818,0.0148315,2.0562668
				c0.0055695,2.0656509,0.0061188,4.1313705,0.0112915,6.1970215c0.0010834,0.4448166,0.0197144,0.8896255,0.0186157,1.3344421
				c-0.0021667,0.878006-0.019165,1.7559433-0.0180054,2.633873c0.0020294,1.5561752,0.0070038,3.1123505,0.0225677,4.668457
				c0.0114288,1.1474609,0.0437164,2.2948532,0.0630951,3.4422531c0.0240784,1.426033,0.0402527,2.8522034,0.0675201,4.2780991
				c0.0303192,1.5833054,0.0535736,3.1670151,0.1107635,4.7494965c0.0309296,0.8577423,0.1280975,1.7129669,0.1895599,2.5697632
				c0.0065308,0.0902252-0.0263062,0.1831741-0.0475922,0.3167801c-0.3025665-0.7954636-0.3057709-1.5728989-0.330307-2.3508148
				c-0.0614014-1.9455109-0.1431274-3.8903351-0.2066345-5.8357697c-0.0526276-1.6119995-0.1053314-3.2243347-0.1282349-4.8369446
				c-0.0089111-0.6279221,0.0849152-1.2567291,0.0947723-1.8857346c0.0195923-1.249115,0.0146942-2.498703,0.0176239-3.7480927
				c0.0045471-1.952919,0.017746-3.905899,0.0065918-5.8586807c-0.0061951-1.0813751-0.0569763-2.1624756-0.0828857-3.2438507
				c-0.0228424-0.9499359-0.0445404-1.8999481-0.0548096-2.85009c-0.0031891-0.2950287,0.0333252-0.5905304,0.0501862-0.8858948
				c0.0108795-0.19133,0.0726776-0.3607025-0.1107635-0.5541458c-0.099884-0.1053238-0.0244141-0.4102097,0.0205383-0.6143951
				c0.3175201-1.4410553,0.255249-2.9102707,0.352066-4.3681259c0.0341339-0.5138245,0.059082-1.0307846,0.1225281-1.5429077
				c-0.0229187-0.0895538-0.0694885-0.1679459-0.1740723-0.1489792c-0.1316986,0.0238647-0.2915497-0.0156403-0.4021149,0.1096039
				c-0.0148163,0.0167313-0.072403,0.0025177-0.1077576-0.0067291c-0.1512909-0.0396423-0.3016968-0.0827484-0.4721527-0.1302032
				c-0.0104065-0.022171-0.0337982-0.0726242-0.0787354-0.1691055c-0.0066681,0.2635422-0.1309662,0.371521-0.3367767,0.4109573
				c-0.0346069-0.1219177-0.0688171-0.2422638-0.1030121-0.3625412c-0.0116272,0.0026474-0.0233917,0.0053024-0.03508,0.0079498
				c-0.0264587,0.1113739-0.0529785,0.2227478-0.079422,0.334053c-0.017334,0.0003433-0.0347443,0.0005493-0.0520782,0.0008163
				c-0.0320282-0.055687-0.0639191-0.1114426-0.1019897-0.1777344c-0.1628571,0.0526276-0.2404938-0.0257721-0.275238-0.1773911
				c-0.0257111-0.1123962-0.1123352-0.1660461-0.2091522-0.1056671c-0.1217804,0.0759506-0.2241058,0.1829758-0.3387451,0.2799988
				c-0.0312805-0.0757446-0.0604553-0.1461182-0.0943146-0.2279129c0.0052338,0.1170807,0.0097961,0.2172394,0.0142822,0.3173218
				C235.0233154,68.2316666,235,68.23806,234.9766083,68.2444534c-0.0671082-0.0998154-0.1341553-0.1995621-0.2048645-0.3048859
				c-0.0928802,0.0646591-0.2827148,0.0766983-0.27211,0.2931213c0.0010223,0.0205994-0.0467072,0.0422211-0.0695648,0.0656815
				c-0.0439911,0.0450821-0.1006317,0.0847855-0.1272125,0.1389084c-0.0054321,0.0111542-0.0074768,0.0231171-0.0127106,0.0343399
				c-0.0106812-0.0062561-0.0197906-0.0115585-0.0303955-0.0178146c0.0033264-0.0584717,0.0061798-0.1096039,0.0100555-0.1799088
				c-0.0308685,0.0376663-0.0506439,0.0618057-0.0738983,0.0900879c-0.0244751-0.1583557-0.0478058-0.3097076-0.0712585-0.4611359
				c-0.0108185,0.0034027-0.021698,0.0066681-0.0325775,0.0099945c-0.0624084,0.2373047-0.1245575,0.4733047-0.1838531,0.6987762
				c-0.0042877,0-0.0085602-0.0000687-0.0127869,0c-0.0218811-0.2522583-0.0443268-0.5113831-0.0656128-0.7572479
				c-0.0439911,0.2513046-0.0883179,0.504715-0.134079,0.7578583c-0.0296478,0-0.0593567,0.000412-0.0890045,0.0003433
				c-0.0023041-0.1151123-0.0046234-0.2249222-0.0067902-0.331131c-0.0091858-0.0009537-0.0183716-0.0019073-0.0276184-0.0029221
				c-0.0192413,0.1114426-0.0384827,0.2228775-0.057724,0.3343201c-0.2125397-0.001358-0.4252319-0.0093155-0.6379852-0.0161133
				c0.0160522-0.0682678,0.0335236-0.1361237,0.0501862-0.2042542c0.0171967-0.0704422,0.0373993-0.1401367,0.0562897-0.2102356
				c-0.0179443-0.0050964-0.0357666-0.0102005-0.0536346-0.0152969c-0.0389709,0.1388397-0.0788116,0.2810211-0.1200104,0.4280167
				c-0.0268707-0.000946-0.0537262-0.001152-0.0805817-0.0021744c-0.0005341-0.0055771,0.0000763-0.0116959-0.0006104-0.0172653
				c-0.0142822-0.1170197-0.0503845-0.2664032-0.1907196-0.2409744c-0.1316986,0.0238647-0.2915649-0.0156403-0.4020538,0.1095428
				c-0.0148163,0.0167923-0.0724792,0.0025787-0.1078339-0.0066681c-0.1512146-0.0396423-0.3016205-0.0828171-0.4721527-0.1302032
				c-0.0103302-0.022171-0.033783-0.0726242-0.0786591-0.1691055c-0.0066681,0.2617798-0.1298676,0.3696136-0.3331757,0.409729
				c-0.001358,0-0.002655,0-0.0040131,0c-0.0345306-0.1215057-0.0685425-0.2414398-0.1026001-0.3613129
				c-0.0116882,0.0026474-0.0234528,0.0053024-0.0351563,0.0079498c-0.0264435,0.1113739-0.0529022,0.2227478-0.0793457,0.334053
				c-0.0174103,0.0002747-0.0348053,0.0005493-0.0521545,0.0008163c-0.0319519-0.0557556-0.0639038-0.1114426-0.1019135-0.1777344
				c-0.1629181,0.0526276-0.2405701-0.0257721-0.275238-0.1774597c-0.0257721-0.1123276-0.1123352-0.1660461-0.2092285-0.1055984
				c-0.1217041,0.0759506-0.2241058,0.1829758-0.3386688,0.2799301c-0.0312805-0.075676-0.0605164-0.1460495-0.0943756-0.2279129
				c0.0052948,0.1170807,0.0097961,0.2172394,0.0143433,0.3173904c-0.0233917,0.0063934-0.0467834,0.0127182-0.0701752,0.0191116
				c-0.0341187-0.0507278-0.0696259-0.1036224-0.1042938-0.155098c-0.023056-0.1257858-0.0461731-0.2520523-0.0679932-0.3715134
				c-0.0479431,0.055687-0.1119843,0.1302032-0.175766,0.2042542c-0.0406647-0.0238724-0.0929413-0.0545349-0.1428528-0.0838394
				c0.0032654-0.0584717,0.0061798-0.1096039,0.0100555-0.1799088c-0.0308685,0.0376663-0.0506439,0.0618057-0.0738983,0.0901566
				c-0.0244904-0.1584244-0.0478668-0.3097076-0.0712585-0.4611359c-0.0108185,0.003334-0.021698,0.0066681-0.0325775,0.0099258
				c-0.0656738,0.2497482-0.131424,0.4994202-0.193512,0.7352905c-0.0228424-0.2636795-0.0464325-0.5359955-0.0687408-0.7936935
				c-0.0505219,0.2883606-0.1006317,0.5793762-0.1538696,0.8698425c-0.0048981,0.0265198-0.0303192,0.0493622-0.0648651,0.1026688
				c-0.0042114-0.2058792-0.0076752-0.3756638-0.0111542-0.5455093c-0.0092468-0.0009537-0.0184174-0.0019073-0.0276031-0.0028534
				c-0.0380707,0.2205658-0.0761414,0.4411392-0.1142273,0.6617126c-0.037323-0.000206-0.074585,0-0.1119232-0.0003433
				c-0.0161743-0.0223007-0.0336456-0.0463028-0.0543823-0.0748596c-0.0075531,0.0404587-0.0159149,0.0611267-0.0246887,0.0746613
				c-0.0104065-0.0000687-0.020874,0-0.0313416-0.0001373c-0.0055847,0-0.0110779-0.0001373-0.0167236-0.000206
				c-0.0280151-0.0291672-0.0576019-0.0808411-0.0850677-0.0477982c-0.0045471,0.0146179-0.0040741,0.0313416-0.0068665,0.0467072
				c-0.1110992-0.0010834-0.2221985-0.0026474-0.3332977-0.0040741c0.0482025-0.1795044,0.0887909-0.3610458,0.1329956-0.5417786
				c0.0171967-0.0704422,0.037384-0.1401367,0.0562897-0.2101669c-0.0178833-0.0050964-0.0357666-0.0102005-0.0536499-0.0153656
				c-0.0633698,0.2260132-0.1267395,0.4520187-0.1999664,0.7131195c0.000412-0.1243591,0.0095978-0.2156067-0.0012207-0.3044739
				c-0.0142822-0.1170197-0.0503845-0.2664032-0.1907196-0.2410431c-0.1317139,0.0239334-0.2914886-0.0156403-0.4020538,0.1096039
				c-0.0148163,0.0167313-0.0724792,0.0025177-0.1078339-0.0067291c-0.1512909-0.0396423-0.3016205-0.0827484-0.4721527-0.1301422
				c-0.0103302-0.0222321-0.033783-0.0726852-0.0786591-0.1691666c-0.0067444,0.2635422-0.1309662,0.371521-0.336853,0.4109573
				c-0.0346069-0.1219177-0.0688019-0.2421951-0.1029358-0.3625412c-0.0117035,0.0026474-0.0233917,0.0053024-0.0351563,0.0079498
				c-0.0264435,0.1113739-0.0529022,0.2227478-0.0793457,0.334053c-0.0174103,0.0003433-0.0348206,0.0005493-0.0521545,0.0008163
				c-0.0319519-0.055687-0.0639191-0.1114426-0.1019135-0.1777344c-0.1629181,0.0526276-0.2405701-0.0257721-0.275238-0.1773911
				c-0.0257111-0.1123962-0.1123352-0.1660461-0.2092285-0.1056671c-0.0083618,0.0052338-0.0150909,0.0138016-0.0233154,0.01931
				c0.0030518,0.391098,0.0060425,0.7822723,0.0091095,1.1733704c-0.0244141,0.0053024-0.0488129,0.0105362-0.0732269,0.0157776
				c-0.0029297-0.3763504-0.0058441-0.7526245-0.0087738-1.1289063c-0.0810547,0.0646667-0.1604614,0.1310272-0.2424622,0.2004471
				c-0.0313416-0.075676-0.0605164-0.1460495-0.0943756-0.2279129c0.0052948,0.1170807,0.0097809,0.2172394,0.0143433,0.3173218
				c-0.0233917,0.0063934-0.0467834,0.0127869-0.0701752,0.0191803c-0.0670319-0.0998154-0.13414-0.1995621-0.2048645-0.3048859
				c-0.092804,0.0646591-0.2826385,0.0766983-0.2720337,0.2931213c0.0007477,0.0150909-0.0236053,0.0310745-0.0463104,0.0475922
				c0.0019073-0.0330429,0.0036011-0.0635681,0.0058441-0.1044388c-0.0308685,0.037674-0.0505829,0.0618057-0.0738373,0.0901642
				c-0.0245514-0.1584244-0.0478668-0.3097839-0.0713196-0.4611359c-0.0108185,0.003334-0.0216217,0.0065994-0.0325775,0.0099258
				c-0.0656738,0.2497406-0.131424,0.4994125-0.193512,0.7352829c-0.0228424-0.2636795-0.0463715-0.5359879-0.0687408-0.7936859
				c-0.0504456,0.2883606-0.1006317,0.5793762-0.1538696,0.8698425c-0.0048981,0.0265198-0.0302582,0.0493622-0.0647888,0.1026688
				c-0.0042877-0.2058868-0.0077515-0.3756638-0.0112305-0.5454407c-0.0091705-0.0009537-0.0183563-0.001976-0.0276031-0.0029297
				c-0.0322876,0.1873932-0.0646515,0.3747177-0.0970154,0.5621033c-0.2203064,0.003746-0.4406738,0.0052414-0.6609802,0.0098648
				c0.0387573-0.1523743,0.0751343-0.3053589,0.1124725-0.4580765c0.0172577-0.0703735,0.0374603-0.1401367,0.0562897-0.2101669
				c-0.0178833-0.0051041-0.0357666-0.0102005-0.0535736-0.0153656c-0.0609894,0.2173767-0.1223297,0.4361801-0.1920776,0.684761
				c-0.0024567,0-0.0048981,0.0000687-0.0073547,0.0000687c0.0015717-0.1087875,0.0080261-0.1949387-0.0018311-0.2761917
				c-0.0142822-0.117012-0.0503845-0.2664642-0.1907196-0.2409668c-0.1317139,0.0238647-0.2914886-0.0157089-0.4020538,0.1095352
				c-0.0148163,0.0167999-0.072403,0.0025177-0.1078339-0.0067291c-0.1512146-0.0396423-0.3016205-0.0827484-0.4721527-0.1301422
				c-0.0103302-0.0222321-0.033783-0.0726852-0.0786591-0.1691666c-0.0067444,0.2634735-0.1309662,0.371521-0.3367767,0.4109573
				c-0.0346832-0.1219177-0.0688171-0.2421951-0.1030121-0.3625488c-0.0116882,0.0027237-0.0233917,0.0053101-0.03508,0.0080261
				c-0.0264587,0.1113052-0.0529785,0.2226791-0.079422,0.3339844c-0.0174103,0.0003433-0.0347443,0.0005417-0.0520782,0.0008163
				c-0.0320282-0.055687-0.0639801-0.1114426-0.1019897-0.1777344c-0.1629181,0.0526276-0.2404938-0.0257034-0.275238-0.1773987
				c-0.0257111-0.1123886-0.1123352-0.1660385-0.2092285-0.1056595c-0.1217041,0.0759506-0.2240295,0.1830368-0.3386688,0.2799301
				c-0.0312805-0.0756073-0.0604553-0.1459808-0.0943756-0.2279129c0.0052948,0.1171494,0.0098572,0.217308,0.0143433,0.3173904
				c-0.0233917,0.0063934-0.0467834,0.0127869-0.0701752,0.0191727c-0.0670319-0.0998077-0.134079-0.1995621-0.2048645-0.3049469
				c-0.0435181,0.0303879-0.1078949,0.0502472-0.1634521,0.0839005c-0.0779877-0.1661072-0.1733093-0.3243256-0.2666016-0.4962845
				c-0.1699829,0.2518463-0.3253479,0.4795609-0.4777985,0.7093124c-0.0532379,0.080162-0.0909729,0.1718216-0.1506653,0.2462692
				c-0.062561,0.0779266-0.1332092,0.1580887-0.2175903,0.2081299c-0.1611328,0.0953979-0.3383942,0.1633911-0.5019989,0.2551804
				c-0.2320557,0.1302109-0.3071899,0.1071625-0.4021149-0.155838c-0.0664978-0.1840591-0.1246338-0.371109-0.1865082-0.5568695
				c-0.0163727,0.001564-0.0326996,0.0031281-0.0491486,0.0046921c0.0037994,0.0798264,0.0067902,0.1597137,0.0116272,0.2394028
				c0.0114899,0.1892319,0.0315399,0.3783875,0.0327759,0.5676804c0.0006104,0.1019897-0.0457611,0.2044601-0.0439911,0.3061752
				c0.0048218,0.2825851,0.0313416,0.5647583,0.0354919,0.8473434c0.0078735,0.5293274,0.0070038,1.0587311,0.0066528,1.5881958
				c0,0.0524902-0.017746,0.1060715-0.0329742,0.157402c-0.0316772,0.1065521-0.0853271,0.2101746-0.096344,0.3184204
				c-0.0129852,0.1276932,0.0171967,0.2590561,0.0152893,0.388649c-0.0063782,0.4251633-0.0326996,0.8504639-0.0257568,1.2753601
				c0.0093079,0.5756378,0.0431671,1.1509323,0.0648651,1.7264328c0.0108795,0.2872696,0.0227051,0.5744095,0.0324249,0.8616791
				h-0.000061c0.0001373,0.0027924,0.0002747,0.0055771,0.000412,0.0083694
				c0.0098572,0.2914886,0.0219574,0.58284,0.0328979,0.8742599c-0.0125732,0.076973-0.0342712,0.1539383-0.0328979,0.2306366
				c0.0048218,0.2825165,0.0313416,0.5647583,0.0354919,0.8472672c0.0078735,0.529335,0.0070038,1.0587311,0.0066528,1.5882034
				c0,0.0524902-0.017746,0.1060715-0.0329742,0.157402c-0.0025787,0.0087738-0.0063934,0.0174103-0.0092468,0.0261765
				c-0.0843811-2.2223053-0.1688995-4.4444809-0.253418-6.6667862c-0.017746,0.000679-0.0356293,0.001358-0.0533752,0.002037
				c0.0895538,2.2578049,0.1791077,4.5154037,0.2686462,6.7731323c-0.0222931,0.0607224-0.0426331,0.1215744-0.0489502,0.1839218
				c-0.0129852,0.1276245,0.0171967,0.2590561,0.0152893,0.388588c-0.0063782,0.4251633-0.0326996,0.8505325-0.0257568,1.2753601
				c0.0093079,0.5756989,0.0431671,1.1509247,0.0648651,1.7264252c0.0329742,0.8725662,0.0556793,1.7455368,0.098587,2.6175613
				c0.0791473,1.6082535,0.171814,3.2157593,0.2545013,4.8238144c0.0240631,0.468956,0.019516,0.9396744,0.0522156,1.4078827
				c0.0666351,0.953743,0.1626434,1.9054565,0.2207031,2.8596115c0.0318298,0.5235519,0.0005493,1.050705,0.0162506,1.5756836
				c0.0259094,0.8662415,0.0707855,1.7319412,0.0996246,2.5981827c0.0036621,0.1095352,0.0003357,0.2192764,0.0012817,0.3288879
				c-0.0127869,0.0059128-0.0178833,0.0178146-0.0313416,0.0231171c-0.1688232,0.0666351-0.3292999,0.1544113-0.5039673,0.2378387
				c0.190918,0.1438751,0.3636322,0.2742233,0.5379028,0.4044952c-0.0002136,0.0315475,0.000473,0.0631638,0.0003357,0.0947189
				c-0.0014343,0.3339844-0.0100708,0.6679001-0.0110931,1.0018845c-0.0018311,0.5429993,0.0029297,1.0860672-0.0006714,1.6291351
				c-0.0040131,0.607048-0.0184937,1.2140961-0.0184937,1.8211441c-0.0000763,0.1393204,0.0393677,0.2788391,0.0628967,0.4178848
				c0.0649261,0.3830109,0.2757111,0.7327728,0.2585754,1.135025c-0.0012207,0.0290298,0.0179443,0.0586777,0.0266571,0.0883865
				c0.0271912,0.0926132,0.0532379,0.1820221,0.079895,0.2731323c-0.0922699,0.0169296-0.1897736,0.0340652-0.2681122,0.0483475
				c0.0555573,0.2411728,0.1162109,0.44767,0.1479645,0.6585846c0.0326385,0.2169724-0.098999,0.3821259-0.3118896,0.4661636
				c-0.1688232,0.0666351-0.3292999,0.1544189-0.5039673,0.2377777c0.2290649,0.1726379,0.4361725,0.3303146,0.6452637,0.4852676
				c0.0729523,0.0541229,0.1574707,0.0942459,0.2247162,0.1541443c0.0705109,0.0628281,0.1425781,0.1333389,0.1855469,0.2154083
				c0.082077,0.1565857,0.1374207,0.3270493,0.2158813,0.4857407c0.1114502,0.2251968,0.0859528,0.29496-0.1665802,0.371521
				c-0.1768494,0.0535812-0.3560791,0.0992737-0.5342255,0.1484299c0.0006714,0.0155029,0.001358,0.0310059,0.0020447,0.0465775
				c0.07547,0.0003357,0.1508789,0.0014267,0.2262726,0.0008163c0.1789703-0.0014954,0.3582611-0.0111542,0.5368195-0.0029907
				c0.002655,0.0001373,0.0051575,0.001358,0.0078125,0.001564c0.0069427-1.2395325,0.0330505-2.479126,0.0245514-3.7185135
				c-0.0083618-1.2211685-0.0609894-2.4419937-0.0894165-3.6630936c-0.0268555-1.1565781-0.0477905-2.3133545-0.0709229-3.4699326
				c-0.0234528-1.1742477-0.0505066-2.3484344-0.0679169-3.5227509c-0.0098572-0.666275,0.0240631-1.3343124-0.0117035-1.9988861
				c-0.037735-0.7010803-0.1425018-1.3984222-0.2025452-2.0986938c-0.0265198-0.3092346-0.0148315-0.6218033-0.0206757-0.9328766
				c-0.0032654-0.1741943-0.0069275-0.3483963-0.0109406-0.5493851c0.3634949-0.0501175,0.4191742-0.3593521,0.4905701-0.6719818
				c0.0375366-0.1644135,0.1271515-0.3168564,0.2248535-0.5503464c0.062561,0.2694626,0.1170959,0.4751434,0.1565247,0.683609
				c0.0310059,0.1634598,0.0558167,0.3300476,0.061264,0.4960175c0.0103302,0.3126373,0.1316986,0.5591125,0.3617249,0.7728195
				c0.075882,0.0705719,0.1084442,0.2136307,0.1170197,0.3268433c0.1072235,1.4201889,0.2310486,2.8398285,0.2996521,4.2620544
				c0.0535736,1.1099319,0.0339966,2.2233276,0.0505219,3.3351593c0.0230408,1.5463867,0.0405121,3.0929718,0.0773773,4.6391525
				c0.0301819,1.266243,0.1086426,2.5316086,0.1232605,3.7979279c0.0113525,0.9821014,0.0047607,1.9644012-0.001358,2.9467087
				c0.3549957,0.0161133,0.7100677,0.0322952,1.0649872,0.0509949c0.0495758,0.0025864,0.0991364,0.021965,0.1468048,0.0388947
				c0.0989227,0.0350876,0.193985,0.0907745,0.2955017,0.1064758c0.1197357,0.0184937,0.2451172-0.0035324,0.367157,0.0046234
				c0.4004822,0.0269928,0.8002167,0.0726166,1.2010498,0.0870361c0.427887,0.0152969,0.856308,0.0150223,1.2846069,0.018631
				c-0.0032654-0.5979385-0.0027161-1.1958084-0.0087128-1.7936783c-0.0114136-1.1475296-0.0437164-2.2948608-0.0630951-3.4423218
				c-0.0241394-1.426033-0.0402527-2.8521347-0.0675201-4.2780304c-0.0303192-1.583374-0.0535736-3.1670837-0.1107635-4.7495041
				c-0.0310059-0.8577347-0.1281586-1.713028-0.189621-2.5698242c-0.0064697-0.0901566,0.0263672-0.1831741,0.0476532-0.3167801
				c0.3025818,0.7955246,0.3057098,1.5729675,0.330246,2.3508148c0.0614624,1.9455109,0.1432037,3.8904037,0.2067108,5.8358383
				c0.0525513,1.6119995,0.1053162,3.2243347,0.1281586,4.8368759c0.0089111,0.6279907-0.0848541,1.2567291-0.0947113,1.8857346
				c-0.0117645,0.7476654-0.0094452,1.4955292-0.0105438,2.2433243c0.059494,0.0006104,0.118988,0.0016937,0.1784821,0.0025787
				c0.8241577,0.0117645,1.6483154,0.0332489,2.4725342,0.0356979c0.9992371,0.0028534,1.9984741-0.0001373,2.9977112-0.0018997
				c-0.0268555-2.227478-0.0537262-4.4549561-0.0805054-6.6825027c0.0266418-0.000267,0.053299-0.0005417,0.0800171-0.0008774
				c0.0231934,2.2277451,0.0463867,4.4555588,0.0695648,6.6833115c0.4978485-0.000885,0.995697-0.001297,1.4935455-0.0009537
				c0.4433289,0.0003357,0.8868561,0.0277405,1.329834,0.0199203c0.9024048-0.0159073,1.8044128-0.0597,2.7068329-0.0675201
				c0.4951935-0.0043488,0.9906006,0.0511322,1.4863434,0.0620804c0.8179626,0.018158,1.636261,0.018425,2.4542999,0.0337296
				c0.3425446,0.0063858,0.6848297,0.0302505,1.0270386,0.0495605c0.314743,0.017746,0.6291504,0.0422974,0.9439545,0.0597687
				c0.4627686,0.0256348,0.9257355,0.0469131,1.3885803,0.0728912
				C243.2812347,110.9473953,243.2342529,110.7610245,243.1998444,110.5795517z M224.8704224,89.8861237
				c-0.0281525-0.1151886-0.080368-0.2304993-0.0801697-0.3456192c0.000824-0.4471207,0.020874-0.8941116,0.0280914-1.3412399
				c0.0021667-0.1368027,0.0266418-0.2937317-0.0289001-0.4072876c-0.2048035-0.4189758,0.094162-0.7288208,0.1817474-1.0799408
				c0.0082245,1.0521317,0.0163879,2.1043396,0.0246124,3.1565399
				C224.9539795,89.8744278,224.9122314,89.8802719,224.8704224,89.8861237z M224.9627533,84.5056381
				c0.0193176-0.468277,0.038559-0.936615,0.0578613-1.404892c0.0358429-0.0005417,0.0716705-0.001152,0.1074371-0.0017624
				c-0.0180206,0.4698334-0.0360413,0.939743-0.0540619,1.4095078
				C225.0369415,84.5076065,224.9998169,84.5066605,224.9627533,84.5056381z M225.2289581,92.345047
				c-0.0420227-0.4165955-0.1237488-0.8340149-0.1149902-1.249588c0.0087128-0.411911,0.1085968-0.8219757,0.1685028-1.232933
				c0.0158997,0.001358,0.0318146,0.0027847,0.0477905,0.0040817c0.0063934,0.8225861,0.0127869,1.6451721,0.0191803,2.4677658
				C225.3093262,92.3379059,225.2691345,92.3414459,225.2289581,92.345047z M225.2084198,78.5324554
				c-0.0391693-0.0012283-0.0783997-0.0025177-0.11763-0.003746c0.0811768-1.6022034,0.1623077-3.2044067,0.2434845-4.8066101
				c0.0146179-0.001564,0.0292358-0.0030594,0.0438538-0.0046234
				C225.3215637,75.322464,225.2649841,76.9274597,225.2084198,78.5324554z M231.9342957,96.3407669
				c-0.042572-4.0888748-0.0851288-8.177742-0.1277008-12.2666168c0.0200043-0.000206,0.039917-0.0004807,0.059906-0.0007477
				c0.0493011,4.0888062,0.098526,8.1776123,0.1478271,12.2664108
				C231.9876709,96.3401566,231.9609528,96.3404312,231.9342957,96.3407669z"/>
		</g>
	</g>
	<g>
		<path fill="#B78B5F" d="M249.1042175,99.672905l1.0644684-13.1675339
			c0.0336151-0.3693314-0.2750244-0.6774139-0.6437378-0.6375427c-1.1807556,0.1277008-5.8834839-0.0054932-6.0917664,1.8231354
			c-0.5825043,5.1143417-0.854248-1.1385345-1.0789185-1.14505c-2.6217194-0.0760727-3.6320496-0.4351044-4.8885193-0.0908432
			c-1.2268219,0.3361359-4.8562622-0.0077133-8.7167511,0.7772064c-0.4381561,0.0890884-0.8283691,3.9460754-0.8283691,3.9460754
			c-1.1650696,0.027092-0.7286987-3.4803467-1.1711731-3.467598c-3.6394348,0.1048889-8.6515961-2.191864-11.5374908-0.7420578
			c-0.0733948,0.0368729-0.4349213,0.6703796-0.420639,0.7512665l1.8078766,11.7159958L249.1042175,99.672905z"/>

			<path fill="#755944" stroke="#755944" stroke-width="0.25" stroke-linecap="round" stroke-linejoin="round" stroke-miterlimit="10" d="
			M216.3171997,99.1719894l-1.5316772-9.5095673c-0.0491028-0.1874466-0.5056152-2.0818481,0.1996307-3.0279312
			c0.243042-0.3256531,0.600296-0.5068588,1.0332794-0.5238037c2.7267456-0.1064377,4.8323975,0.0241394,7.5258331,1.0026321
			c1.5551147,0.5653763,2.9728699,0.3160248,3.5101471,0.1829758c0.1779327-0.0434494,0.3616486,0.0134048,0.4812012,0.1495285
			c0.1229095,0.1373291,0.157547,0.3373947,0.0888977,0.5157547c-0.3822021,0.990097-0.2794495,1.873085-0.0848236,2.4467621
			c0.0031128-2.2090225,0.9101868-3.3137741,0.9536438-3.3647003l0.0579834-0.0689545l0.0842133-0.0313492
			c1.5054779-0.5640335,4.9121552-0.773735,7.3437805-0.8821487c0.2363586-0.0106735,0.3915558-0.0169907,0.4381561-0.0221252
			c0.0543976-0.0056152,0.1346741-0.0232925,0.2360992-0.0450287c0.5318604-0.1124039,1.5211945-0.3220367,2.5932007,0.0136108
			c1.0765228,0.3362045,2.8720703,0.2116699,3.0734253,0.19664l0.3302765-0.0251846l0.0469208,0.3473663
			c0.026123,0.1764221,0.1774139,1.0010681,0.3347321,1.8262024c0.1872101-1.3473587,0.330368-1.8123703,0.5680695-1.9886322
			c0.2543182-0.187767,1.2486572-0.3856125,5.4144592-0.7907867l0.4728394-0.0467072
			c0.6503906-0.0707855,0.9489746,0.3647537,0.9911346,0.6779556l0.0016022,0.0727158l-0.4162903,5.1629105l-0.5292053,7.7814865
			l-0.6839905-0.0623932l0.5290833-7.7775879l0.41185-5.1052399c-0.0185242-0.040329-0.0666504-0.0849533-0.2294922-0.0675125
			l-0.4808655,0.048111c-3.8591614,0.3746948-4.8970795,0.5713959-5.088562,0.6698914
			c-0.1288757,0.2086868-0.3231964,1.81147-0.4062805,2.4961777c-0.1360321,1.1181259-0.1471558,1.2093887-0.4428711,1.2499008
			l-0.2622986,0.0357895l-0.110199-0.254776c-0.0097198-0.0237427-0.5419006-2.4473648-0.693512-3.547081
			c-0.656189,0.033371-2.0629883,0.0604477-3.0358276-0.2443085c-0.9007263-0.281868-1.7758484-0.0964584-2.2461243,0.0032654
			c-0.1320648,0.0279922-0.2368011,0.049263-0.3076477,0.0563354c-0.0507965,0.0051651-0.2203369,0.0132904-0.4785767,0.0245895
			c-1.3474731,0.0601196-5.3964691,0.241066-7.0399933,0.8057327c-0.196701,0.2861633-0.9118195,1.4861298-0.7070923,3.5929565
			c0.035141,0.3600235-0.1361694,0.502533-0.2413635,0.5554886c-0.0843353,0.04216-0.309082,0.1138687-0.5772705-0.1292267
			c-0.427124-0.3880386-1.1113281-1.779747-0.5713959-3.5342712c-0.7453766,0.1380081-2.0992126,0.2530289-3.562561-0.2788925
			c-2.587677-0.9405289-4.6231232-1.0647964-7.2644806-0.961998c-0.2277374,0.0089569-0.38974,0.0880432-0.5095825,0.248024
			c-0.4332733,0.5806274-0.2042542,1.9824295-0.079483,2.4737015l1.537262,9.5348358L216.3171997,99.1719894z
			 M242.0414734,86.5803757l-0.0286865,0.0028763L242.0414734,86.5803757z"/>
		<g>
			<path fill="#E89B36" d="M214.9820251,102.0740814v5.9204178c0,1.8169022,1.4729004,3.2897873,3.2897949,3.2897873h28.6704102
				c1.8169098,0,3.2897949-1.4728851,3.2897949-3.2897873v-5.9204178c0-1.8169022-1.4728851-3.2897949-3.2897949-3.2897949
				h-28.6704102C216.4549255,98.7842865,214.9820251,100.2571793,214.9820251,102.0740814z"/>
			<path fill="#334A5E" d="M246.9419861,112.0342865h-28.6699219c-2.2275391,0-4.0400391-1.8120117-4.0400391-4.0395508v-5.9204102
				c0-2.2275391,1.8125-4.0400391,4.0400391-4.0400391h28.6699219c2.2275391,0,4.0400391,1.8125,4.0400391,4.0400391v5.9204102
				C250.9820251,110.2222748,249.1695251,112.0342865,246.9419861,112.0342865z M218.2720642,99.5342865
				c-1.4003906,0-2.5400391,1.1396484-2.5400391,2.5400391v5.9204102c0,1.4003906,1.1396484,2.5395508,2.5400391,2.5395508
				h28.6699219c1.4003906,0,2.5400391-1.1391602,2.5400391-2.5395508v-5.9204102
				c0-1.4003906-1.1396484-2.5400391-2.5400391-2.5400391H218.2720642z"/>
		</g>
		<g>
			<path fill="#FFB24D" d="M240.0238342,111.2842865h-7.4862061h-7.4862061c0,0,5.75,3.3572998,4.5,8.6786499
				c-1.2453613,5.3016968-9.9977417,23.1398315,2.9862061,23.1757813
				c12.9839478-0.0359497,4.2315674-17.8740845,2.9862061-23.1757813
				C234.2738342,114.6415863,240.0238342,111.2842865,240.0238342,111.2842865z"/>
			<path fill="#334A5E" d="M232.5396423,143.8887787c-2.9814453-0.0083008-5.1396484-0.9204102-6.4189453-2.7104492
				c-3.0332031-4.2475586-0.265625-12.3886719,1.5654297-17.7758789c0.4990234-1.46875,0.9296875-2.7373047,1.1347656-3.6108398
				c1.1103516-4.7270508-4.0947266-7.8291016-4.1474609-7.8598633l-2.3935547-1.3974609h20.5l-2.3769531,1.3969727
				c-0.0527344,0.03125-5.2548828,3.1513672-4.1484375,7.8603516c0.2050781,0.8735352,0.6357422,2.1420898,1.1347656,3.6103516
				c1.8310547,5.3876953,4.5976563,13.5288086,1.5644531,17.7763672
				C237.6753845,142.9683685,235.5171814,143.8804779,232.5396423,143.8887787z M227.2789001,112.0342865
				c1.7167969,1.5615234,3.8798828,4.3657227,3.0029297,8.1000977c-0.2226563,0.9448242-0.6640625,2.2451172-1.1757813,3.7504883
				c-1.7324219,5.097168-4.3505859,12.800293-1.7646484,16.4213867c0.9960938,1.3945313,2.6962891,2.0756836,5.1982422,2.0825195
				c2.4980469-0.0068359,4.1972656-0.6879883,5.1933594-2.0820313c2.5869141-3.621582-0.03125-11.324707-1.7636719-16.421875
				c-0.5117188-1.5058594-0.9541016-2.8056641-1.1757813-3.7504883c-0.8769531-3.734375,1.2861328-6.5385742,3.0029297-8.1000977
				H227.2789001z"/>
		</g>
		<circle fill="#334A5E" cx="232.4120178" cy="136.2035828" r="1.4010971"/>
	</g>
</g>
</svg>
