<?xml version="1.0" encoding="utf-8"?>
<!-- Generator: Adobe Illustrator 21.0.0, SVG Export Plug-In . SVG Version: 6.00 Build 0)  -->
<svg version="1.1" id="Layer_1" xmlns="http://www.w3.org/2000/svg" xmlns:xlink="http://www.w3.org/1999/xlink" x="0px" y="0px"
	 width="175px" height="51px" viewBox="0 0 175 51" enable-background="new 0 0 175 51" xml:space="preserve">
<g>
	<path fill="#94D60A" d="M51.9090042,17.1682243c-1.3671608,0-2.5859413,0.5287876-3.4969673,1.5036049l-0.0238533-0.2112637
		c-0.066143-0.6928978-0.6552963-1.2151718-1.3702354-1.2151718c-0.7563171,0-1.3714905,0.6151733-1.3714905,1.3714905v15.1364422
		c0,0.785408,0.6634178,1.4486618,1.4484749,1.4486618c0.7854309,0,1.4488487-0.6632538,1.4488487-1.4486618v-4.0554028
		c0.8723488,0.8486805,2.067276,1.3080711,3.4423943,1.3080711c3.2600365,0,5.1297798-2.479866,5.1297798-6.8029919
		C57.1159554,19.7323093,55.2180252,17.1682243,51.9090042,17.1682243z M51.291111,28.3667374
		c-1.0646248,0-2.8503342-0.5450535-2.8503342-4.1957321c0-3.7965965,1.8180542-4.3635254,2.9018555-4.3635254
		c1.0355339,0,2.7731628,0.5481262,2.7731628,4.2196789C54.1157951,27.8032513,52.3459854,28.3667374,51.291111,28.3667374z"/>
	<path fill="#94D60A" d="M64.1375351,17.2533321c-0.2013206,0-0.4255943,0.0343475-0.6874542,0.1059093
		c-0.730484,0.2054901-1.3693428,0.6504269-1.8561974,1.281868l-0.0158958-0.1548767
		c-0.0661583-0.6957855-0.6679535-1.240839-1.3700676-1.240839c-0.7563171,0-1.3716736,0.6151733-1.3716736,1.3714905v10.8887634
		c0,0.785778,0.66362,1.4486599,1.4488449,1.4486599c0.7852402,0,1.4486618-0.6628819,1.4486618-1.4486599V23.250597
		c0-1.3671608,0.2181473-3.1850529,2.1039696-3.1850529h0.2259064c0.7960663,0.0263901,1.4542618-0.6209469,1.4542618-1.4228077
		c0-0.3480778-0.1227112-0.6723003-0.3549423-0.937767C64.9007187,17.4053211,64.5559006,17.2533321,64.1375351,17.2533321z"/>
	<path fill="#94D60A" d="M68.0846786,12.9463797c-1.132576,0-1.809021,0.6184301-1.809021,1.6546869
		c0,1.0366259,0.6932449,1.6803551,1.809021,1.6803551c1.1168671,0,1.7835464-0.6281843,1.7835464-1.6803551
		C69.8682251,13.5648098,69.2015457,12.9463797,68.0846786,12.9463797z"/>
	<path fill="#94D60A" d="M68.0590134,17.2453938c-0.7852249,0-1.4486618,0.6634178-1.4486618,1.4488449v10.811409
		c0,0.785778,0.6634369,1.4486599,1.4486618,1.4486599c0.7854309,0,1.4486771-0.6628819,1.4486771-1.4486599v-10.811409
		C69.5076904,17.9088116,68.8444443,17.2453938,68.0590134,17.2453938z"/>
	<path fill="#94D60A" d="M81.1280823,30.9543076c0.7854309,0,1.4490356-0.6628819,1.4490356-1.4486599v-7.2076435
		c0-3.7821426-2.1581802-5.1297798-4.1775589-5.1297798c-1.5679474,0-2.8306503,0.5584335-3.763176,1.6620884l-0.0408401-0.34408
		c-0.065239-0.6842194-0.6798706-1.240839-1.3703995-1.240839c-0.770256,0-1.3969955,0.6267395-1.3969955,1.3973427v10.8629112
		c0,0.785778,0.6634369,1.4486599,1.4486618,1.4486599c0.7852402,0,1.4486771-0.6628819,1.4486771-1.4486599v-5.7145119
		c0-2.5521507,1.0821533-4.1374397,2.8246689-4.1374397c1.4128876,0,2.1294556,0.9849205,2.1294556,2.9275036v6.924448
		C79.6796112,30.2914257,80.3430252,30.9543076,81.1280823,30.9543076z"/>
	<path fill="#94D60A" d="M91.3572998,29.6863575c0-0.6491508-0.5490341-1.1970921-1.1985397-1.1970921
		c-0.1033707,0-0.2052994,0.0144539-0.3097687,0.0440998c-0.3097458,0.095417-0.5931091,0.1416817-0.8670959,0.1416817
		c-0.5313187,0-1.0742111-0.1734924-1.0742111-1.460228v-7.5354729h1.9496384c0.6317902,0,1.1656494-0.5336742,1.1656494-1.1654663
		c0-0.6178932-0.5338593-1.1398144-1.1656494-1.1398144h-1.9496384V15.244627c0-0.7852421-0.6632462-1.448679-1.448494-1.448679
		c-0.7852249,0-1.4486618,0.6634369-1.4486618,1.448679v2.1294384h-0.6364899c-0.6318054,0-1.1652985,0.5338573-1.1652985,1.1654644
		c0,0.6178932,0.533493,1.1398163,1.1652985,1.1398163h0.6364899v7.6897945c0,2.4646893,1.2401199,3.6625214,3.7913666,3.6625214
		c0.5862656,0,1.0995102-0.0600147,1.6149292-0.1886864C90.9792404,30.7020168,91.3572998,30.2372036,91.3572998,29.6863575z"/>
	<path fill="#94D60A" d="M97.2943802,17.1938915c-3.7120285,0-5.9284058,2.5817776-5.9284058,6.9060879
		c0,4.3242188,2.2163773,6.9060154,5.9284058,6.9060154c3.7116547,0,5.9276657-2.5817966,5.9276657-6.9060154
		C103.2220459,19.7756691,101.0060349,17.1938915,97.2943802,17.1938915z M97.2943802,28.6750469
		c-1.9427719,0-2.9277115-1.5390263-2.9277115-4.5750675c0-2.0869656,0.507843-4.57514,2.9277115-4.57514
		c2.4191284,0,2.9269714,2.4881744,2.9269714,4.57514C100.2213516,27.1360207,99.236763,28.6750469,97.2943802,28.6750469z"/>
	<path fill="#94D60A" d="M118.2067719,17.1938915c-2.152771,0-3.2877045,0.9899921-3.9635925,1.8764248
		c-0.1156616-0.2447033-0.2783127-0.5141506-0.5089111-0.7799873c-0.6679535-0.717289-1.5780716-1.0964375-2.6323929-1.0964375
		c-1.7822876,0-2.783844,0.7494526-3.4348068,1.5769615l-0.0346985-0.2846203
		c-0.0650482-0.6842194-0.6798706-1.240839-1.3702316-1.240839c-0.7702332,0-1.3969727,0.6267395-1.3969727,1.3973427v10.8629112
		c0,0.785778,0.6632462,1.4486599,1.4486618,1.4486599c0.7850571,0,1.4486771-0.6628819,1.4486771-1.4486599v-5.7145119
		c0-3.3984814,1.3539658-4.1117897,2.4896164-4.1117897c1.1533585,0,1.8209457,0.4790993,1.8209457,2.9276886v6.898613
		c0,0.785778,0.6632538,1.4486599,1.4486771,1.4486599c0.7850418,0,1.4486618-0.6628819,1.4486618-1.4486599v-5.7145119
		c0-3.3984814,1.3539658-4.1117897,2.4896164-4.1117897c1.1530075,0,1.8209457,0.4790993,1.8209457,2.9276886v6.898613
		c0,0.785778,0.6632538,1.4486599,1.4486771,1.4486599c0.7850571,0,1.4486618-0.6628819,1.4486618-1.4486599v-7.1817894
		C122.1783066,17.6937542,119.4009781,17.1938915,118.2067719,17.1938915z"/>
	<path fill="#94D60A" d="M129.6074066,17.1938915c-3.7120209,0-5.9280319,2.5913639-5.9280319,6.931942
		c0,4.4530754,2.2518005,6.9058285,6.3400803,6.9058285c1.2296295,0,2.5944366-0.2277145,3.6563721-0.6112118
		c0.4872131-0.1875763,0.778183-0.6064949,0.778183-1.1208286c0-0.6787968-0.4897614-1.1909676-1.1396332-1.1909676
		c-0.213974,0-0.3820496,0.0618114-0.516861,0.111702c-0.030365,0.0108452-0.0599976,0.0224113-0.0925293,0.0332375
		c-0.8248138,0.2841015-1.7378235,0.4474716-2.5055389,0.4474716c-2.0887756,0-3.2030945-1.0857773-3.487915-3.4097672h6.6288757
		c0.9744415,0,1.5679474-0.5495701,1.6279449-1.5077496c0.0007172-0.0059776,0.0007172-0.0121212,0.0007172-0.0180817V23.250597
		C134.9690704,17.9807434,131.6098022,17.1938915,129.6074066,17.1938915z M131.9900513,23.1146889h-5.3168259
		c0.1893845-2.3824501,1.1580658-3.5898495,2.8828659-3.5898495c2.0154114,0,2.4383087,1.6479874,2.4383087,3.0306931
		C131.9944,22.7678871,131.9944,22.9634209,131.9900513,23.1146889z"/>
	<path fill="#94D60A" d="M138.091568,27.4649277c-1.0991364,0-1.809021,0.7001152-1.809021,1.7833576
		c0,1.0200081,0.7228851,1.7320423,1.7573395,1.7320423c1.0669861,0,1.783371-0.6957664,1.783371-1.7320423
		C139.8232574,28.1317863,139.1759033,27.4649277,138.091568,27.4649277z"/>
	<path fill="#94D60A" d="M155.5782013,17.1938915c-2.1523743,0-3.287323,0.9899921-3.9639435,1.8764248
		c-0.1153107-0.2447033-0.2783051-0.5141506-0.5089111-0.7799873c-0.6675873-0.717289-1.5780487-1.0964375-2.6323853-1.0964375
		c-1.7819214,0-2.783844,0.7494526-3.4348145,1.5769615l-0.0343323-0.2846203
		c-0.0654144-0.6842194-0.6798706-1.240839-1.370224-1.240839c-0.7706146,0-1.3973541,0.6267395-1.3973541,1.3973427v10.8629112
		c0,0.785778,0.6636353,1.4486599,1.4486694,1.4486599c0.7854309,0,1.4490356-0.6628819,1.4490356-1.4486599v-5.7145119
		c0-3.3984814,1.3536072-4.1117897,2.4896088-4.1117897c1.1533813,0,1.8209686,0.4790993,1.8209686,2.9276886v6.898613
		c0,0.785778,0.6632538,1.4486599,1.4483032,1.4486599c0.7854156,0,1.4490204-0.6628819,1.4490204-1.4486599v-5.7145119
		c0-3.3984814,1.3539581-4.1117897,2.489624-4.1117897c1.1529999,0,1.8209534,0.4790993,1.8209534,2.9276886v6.898613
		c0,0.785778,0.6632538,1.4486599,1.4486542,1.4486599c0.7850647,0,1.4483185-0.6628819,1.4483185-1.4486599v-7.1817894
		C159.5493927,17.6937542,156.7720642,17.1938915,155.5782013,17.1938915z"/>
	<path fill="#94D60A" d="M171.3418427,28.9331112c-0.002533-0.0036087-0.0046997-0.0068645-0.0072327-0.0101223
		l-3.6856384-5.0548687l3.3578033-4.6268463c0.1333771-0.1993275,0.2034912-0.4331875,0.2034912-0.6758919
		c0-0.7277622-0.5924072-1.3199883-1.3199768-1.3199883c-0.4272308,0-0.8645782,0.2522907-1.1161346,0.6430054l-2.7466125,3.8829823
		l-2.7946777-3.9075584c-0.2620544-0.3928986-0.6694031-0.6184292-1.1168823-0.6184292
		c-0.7275696,0-1.3199768,0.592226-1.3199768,1.3199883c0,0.2428894,0.0701141,0.4765644,0.2096252,0.6851082l3.4048157,4.6967793
		l-3.4832458,4.9005489c-0.1846771,0.2587852-0.2085419,0.5154076-0.2085419,0.7091465
		c0,0.7438431,0.6162567,1.3720455,1.3456421,1.3720455c0.4655609,0,0.8804932-0.2378387,1.1656647-0.6657867l2.9041901-4.1898479
		l2.9996185,4.2372036c0.2620544,0.3928814,0.6690521,0.6184311,1.1168671,0.6184311
		c0.7138519,0,1.2943268-0.5804749,1.2943268-1.2943401C171.5449677,29.3711834,171.4766693,29.1355286,171.3418427,28.9331112z"/>
	<path fill="#94D60A" d="M61.9755669,35.5052414c-0.2033043,0-0.3659706,0.1709595-0.3659706,0.3661423v1.8144455
		c-0.260601-0.3661385-0.6755219-0.5696297-1.1799202-0.5696297c-0.9845695,0-1.5379524,0.7405891-1.5379524,2.0587807
		c0,1.3669777,0.5615082,2.1317902,1.5623436,2.1317902c0.4883156,0,0.894928-0.2197571,1.171627-0.6101227l0.0325165,0.2844543
		c0.0164528,0.1709747,0.1628342,0.3010902,0.3419342,0.3010902c0.1870384,0,0.3415604-0.1546898,0.3415604-0.3419304v-5.0688782
		C62.3417053,35.6762009,62.1790581,35.5052414,61.9755669,35.5052414z M60.6331673,40.7530365
		c-0.6184273,0-0.9683037-0.5450554-0.9683037-1.5213165c0-1.0008354,0.3579979-1.5621567,0.9843864-1.5621567
		c0.634697,0,0.9927139,0.5450554,0.9927139,1.5133591C61.641964,40.1920853,61.2758026,40.7530365,60.6331673,40.7530365z"/>
	<path fill="#94D60A" d="M64.4434967,37.1328201c-0.2034912,0-0.3661423,0.1706047-0.3661423,0.3657875v3.4174461
		c0,0.1955338,0.1626511,0.3661385,0.3661423,0.3661385s0.3661423-0.1706047,0.3661423-0.3661385v-3.4174461
		C64.809639,37.3034248,64.6469879,37.1328201,64.4434967,37.1328201z"/>
	<path fill="#94D60A" d="M64.4516373,35.7737999c-0.2685547,0-0.4801903,0.1221581-0.4801903,0.4311867
		c0,0.3090515,0.2116356,0.4391632,0.4801903,0.4391632c0.2683716,0,0.4718628-0.1301117,0.4718628-0.4391632
		C64.9235001,35.8959579,64.7200089,35.7737999,64.4516373,35.7737999z"/>
	<path fill="#94D60A" d="M67.7901077,38.8410072c-0.5125275-0.1706085-0.7810822-0.300724-0.7810822-0.67519
		c0-0.3661385,0.2764969-0.496254,0.6428223-0.496254c0.3009033,0,0.5940399,0.0892715,0.8461456,0.1951828
		c0.0327148,0.0162659,0.0814972,0.0242233,0.1219864,0.0242233c0.1709595,0,0.3012619-0.138073,0.3012619-0.3007202
		c0-0.138443-0.0815048-0.2522926-0.2034912-0.2927818c-0.3417511-0.1142197-0.6428223-0.1792679-1.0171051-0.1792679
		c-1.033371,0-1.4401627,0.4879456-1.4401627,1.1146851c0,0.854454,0.7648087,1.090107,1.3425827,1.2448196
		c0.3092117,0.0816841,0.7241516,0.2280655,0.7241516,0.6838455c0,0.3903656-0.3092117,0.5934868-0.7324829,0.5934868
		c-0.3171539,0-0.6182404-0.1214371-0.8623886-0.2436142c-0.040657-0.0245743-0.0896454-0.0408401-0.1463852-0.0408401
		c-0.1709747,0-0.3092117,0.1463814-0.3092117,0.317337c0,0.138443,0.0814972,0.2439842,0.2033005,0.2931366
		c0.4232483,0.1626472,0.8869934,0.2277145,1.1474075,0.2277145c0.5940399,0,1.472702-0.1709595,1.472702-1.1880608
		C69.1001587,39.3376312,68.5874481,39.1099167,67.7901077,38.8410072z"/>
	<path fill="#94D60A" d="M72.1131592,37.1161995c-1.1065598,0-1.7819138,0.756855-1.7819138,2.0992546
		c0,1.2856598,0.6184235,2.0913162,1.9122086,2.0913162c0.4149399,0,0.8298645-0.0816841,1.1226425-0.1872253
		c0.105896-0.0404892,0.1872253-0.1301155,0.1872253-0.2685585c0-0.1543388-0.1057205-0.2848244-0.2685547-0.2848244
		c-0.0650482,0-0.1138535,0.0242271-0.1626511,0.040863c-0.2360229,0.0813141-0.5370941,0.1460114-0.8217316,0.1460114
		c-0.813797,0-1.1390991-0.5125237-1.2043304-1.2607155h2.1970215c0.2521057,0,0.4066315-0.1301155,0.4230804-0.3907166v-0.1630173
		C73.716156,37.5882492,72.9838638,37.1161995,72.1131592,37.1161995z M72.9511566,38.9877586h-1.8632431
		c0.040657-0.8139839,0.358017-1.3181953,1.0089798-1.3181953c0.55336,0,0.8625793,0.3661385,0.8625793,1.0496368
		C72.9594727,38.8410072,72.9594727,38.9385872,72.9511566,38.9877586z"/>
	<path fill="#94D60A" d="M77.2116623,37.108242c-0.6428223,0-1.0252228,0.3173409-1.2531052,0.6751709l-0.0406799-0.3419151
		c-0.0162659-0.1706085-0.1707687-0.3086777-0.3417282-0.3086777c-0.1951828,0-0.3498917,0.1626472-0.3498917,0.3498726v3.4333611
		c0,0.1955338,0.1628342,0.3661385,0.3661423,0.3661385c0.2035065,0,0.3661575-0.1706047,0.3661575-0.3661385v-1.8061371
		c0-0.9274635,0.431366-1.3995094,0.9845657-1.3995094c0.634697,0,0.7648163,0.553009,0.7648163,1.0171013v2.1885452
		c0,0.1955338,0.1628265,0.3661385,0.3661346,0.3661385c0.2034912,0,0.3661423-0.1706047,0.3661423-0.3661385V38.637867
		C78.4402161,37.4255829,77.7325134,37.108242,77.2116623,37.108242z"/>
	<path fill="#94D60A" d="M76.0888519,36.1887398c0.0487823-0.0325317,0.1138535-0.0571098,0.1870422-0.0571098
		c0.1628342,0,0.317337,0.1058922,0.4800034,0.1951637c0.1790848,0.09795,0.3581848,0.1955528,0.5777588,0.1955528
		c0.1953659,0,0.3661346-0.0813332,0.5045776-0.2439842c0.2114487-0.2605972,0.1789169-0.4640884,0.09758-0.5045624
		c-0.0894547-0.0491714-0.1465607,0.0809631-0.3498688,0.2197571c-0.0487976,0.0325165-0.1138458,0.0484314-0.1872253,0.0484314
		c-0.1707916,0-0.3415604-0.1134987-0.4881287-0.1951828c-0.1789169-0.09758-0.358017-0.2031403-0.5694656-0.2031403
		c-0.2197571,0-0.4232483,0.1134987-0.5696259,0.3332558c-0.1384277,0.2197571-0.1140366,0.3827744-0.0326996,0.4232483
		C75.8284225,36.4489708,75.8853607,36.3188553,76.0888519,36.1887398z"/>
	<path fill="#94D60A" d="M83.0995789,40.6474953c-0.1140366-0.0325317-0.2036591-0.1138458-0.2036591-0.3252945v-2.0016747
		c0-0.8136101-0.5775909-1.2043266-1.4643936-1.2043266c-0.3010864,0-0.7810745,0.0487823-1.2205963,0.1951828
		c-0.1138611,0.0408401-0.2034912,0.1546898-0.2034912,0.2848053c0,0.1713295,0.1384277,0.3014412,0.3012619,0.3014412
		c0.040657,0,0.0813141,0,0.1138458-0.0166168c0.2683716-0.1055374,0.6019974-0.2114487,0.9274597-0.2114487
		c0.4639282,0,0.8136139,0.1709595,0.8136139,0.7239685v0.4232483l-0.5774002,0.0083122
		c-1.2289047,0.0159149-1.7414246,0.4474716-1.7414246,1.2693939c0,0.7402344,0.4395142,1.2122841,1.2610626,1.2122841
		c0.6267395,0,0.9766312-0.2689095,1.1148682-0.5450554c0.0162735,0.1055374,0.0569305,0.2193871,0.1626511,0.3173409
		c0.1547089,0.1380692,0.3744659,0.195179,0.5940399,0.2194061c0.1953659,0.0242043,0.3661423-0.1301155,0.3661423-0.3256683
		C83.3435593,40.8184547,83.2378311,40.6883392,83.0995789,40.6474953z M82.1556778,39.8747253
		c0,0.7890396-0.7487259,0.8783112-0.9439087,0.8783112c-0.3173599,0-0.6021652-0.2519226-0.6021652-0.6997452
		c0-0.5775871,0.4557877-0.7077217,1.0496216-0.7156601l0.4964523-0.0079575V39.8747253z"/>
	<path fill="#94D60A" d="M89.0390091,40.6966476c-0.1055374,0.0321808-0.2031403,0.0484314-0.3007202,0.0484314
		c-0.2768707,0-0.4312057-0.1626511-0.4312057-0.5529938v-2.4737206h0.7077026c0.1463776,0,0.2765121-0.1221771,0.2765121-0.2768669
		c0-0.1460304-0.1301346-0.2681885-0.2765121-0.2681885h-0.7077026v-0.7648125c0-0.1951828-0.1630173-0.3665085-0.3661423-0.3665085
		c-0.2036743,0-0.3663254,0.1713257-0.3663254,0.3665085v0.7648125h-0.2927628
		c-0.1464005,0-0.2767029,0.1221581-0.2767029,0.2764969c0,0.1463814,0.1303024,0.2685585,0.2767029,0.2685585h0.2927628v2.5221481
		c0,0.8385429,0.4718628,1.0662575,1.1065598,1.0662575c0.1709595,0,0.3256531-0.0166206,0.4883194-0.0571098
		c0.1301117-0.0325356,0.2280655-0.138073,0.2280655-0.2768669C89.3975601,40.7859192,89.2103348,40.6474953,89.0390091,40.6966476z
		"/>
	<path fill="#94D60A" d="M93.5227127,37.1328201c-0.2034912,0-0.3661423,0.1706047-0.3661423,0.3657875v1.806488
		c0,0.9274597-0.4312057,1.3995094-0.9845657,1.3995094c-0.634697,0-0.7648163-0.5533638-0.7648163-1.0171013v-2.1888962
		c0-0.1951828-0.1626663-0.3657875-0.3665085-0.3657875c-0.2031403,0-0.3657837,0.1706047-0.3657837,0.3657875v2.2785378
		c0,1.2122841,0.7077026,1.5296249,1.2285461,1.5296249c0.643013,0,1.0254135-0.3173409,1.2531281-0.6751709l0.0404739,0.3411942
		c0.0166397,0.1709557,0.1713257,0.3093987,0.3419342,0.3093987c0.1951828,0,0.3498688-0.1626472,0.3498688-0.3498726v-3.433712
		C93.8888474,37.3034248,93.7262039,37.1328201,93.5227127,37.1328201z"/>
	<path fill="#94D60A" d="M100.2596588,37.108242c-0.4879456,0-0.894928,0.2197571-1.1714478,0.6101227l-0.0325317-0.2848244
		c-0.0162659-0.1706085-0.1626511-0.3007202-0.3415604-0.3007202c-0.1872253,0-0.3419189,0.1543388-0.3419189,0.3412094v4.7847748
		c0,0.1951828,0.1626511,0.3657875,0.3661423,0.3657875s0.3661346-0.1706047,0.3661346-0.3657875v-1.5299759
		c0.2602539,0.3661423,0.6751709,0.5696335,1.1797562,0.5696335c0.9766083,0,1.5299911-0.7406082,1.5299911-2.0584335
		C101.8142242,37.8730545,101.2529068,37.108242,100.2596588,37.108242z M100.064476,40.745079
		c-0.6343307,0-0.9925308-0.5450554-0.9925308-1.5133591c0-1.0087929,0.3661423-1.5704651,1.0091476-1.5704651
		c0.6180801,0,0.9679489,0.5450554,0.9679489,1.5216675C101.0490417,40.1837578,100.6912155,40.745079,100.064476,40.745079z"/>
	<path fill="#94D60A" d="M104.6016769,40.745079c-0.0650635,0.0166359-0.1301117,0.0245934-0.195549,0.0245934
		c-0.2110825,0-0.3332367-0.0896416-0.3332367-0.4228973v-4.4753914c0-0.1951828-0.1626511-0.3661423-0.3661575-0.3661423
		c-0.2034912,0-0.3661423,0.1709595-0.3661423,0.3661423v4.5809326c0,0.7893867,0.4149399,0.8703499,0.9925308,0.8703499
		c0.114212,0,0.2360229-0.0079384,0.3665085-0.0325165c0.1301117-0.0159149,0.2356491-0.1301308,0.2356491-0.2682037
		C104.9352798,40.8509865,104.764328,40.7125626,104.6016769,40.745079z"/>
	<path fill="#94D60A" d="M109.2845383,40.6474953c-0.1138611-0.0325317-0.2034912-0.1138458-0.2034912-0.3252945v-2.0016747
		c0-0.8136101-0.5775833-1.2043266-1.4645767-1.2043266c-0.3010864,0-0.7810745,0.0487823-1.2202377,0.1951828
		c-0.1142044,0.0408401-0.2038422,0.1546898-0.2038422,0.2848053c0,0.1713295,0.1384201,0.3014412,0.3010712,0.3014412
		c0.0408401,0,0.0813293,0,0.1138687-0.0166168c0.2689056-0.1055374,0.6021576-0.2114487,0.9274597-0.2114487
		c0.4640884,0,0.8139648,0.1709595,0.8139648,0.7239685v0.4232483l-0.5775909,0.0083122
		c-1.2289047,0.0159149-1.7414246,0.4474716-1.7414246,1.2693939c0,0.7402344,0.4395142,1.2122841,1.2614365,1.2122841
		c0.6260223,0,0.976265-0.2689095,1.1146851-0.5450554c0.0159149,0.1055374,0.0567551,0.2193871,0.1626511,0.3173409
		c0.1547089,0.1380692,0.3740921,0.195179,0.5938492,0.2194061c0.1955566,0.0242043,0.3661423-0.1301155,0.3661423-0.3256683
		C109.5285034,40.8184547,109.422966,40.6883392,109.2845383,40.6474953z M108.3408127,39.8747253
		c0,0.7890396-0.7489166,0.8783112-0.9440994,0.8783112c-0.317337,0-0.6021576-0.2519226-0.6021576-0.6997452
		c0-0.5775871,0.45578-0.7077217,1.0496292-0.7156601l0.4966278-0.0079575V39.8747253z"/>
	<path fill="#94D60A" d="M113.4010086,37.1328201c-0.1709518,0-0.3093948,0.1134949-0.3498688,0.2602463l-0.8790283,3.1730957
		l-1.0087967-3.1814232c-0.0487976-0.1463814-0.1789169-0.2519188-0.3415604-0.2519188
		c-0.1955338,0-0.3581848,0.1626472-0.3581848,0.3657875c0,0.0408401,0.0083084,0.0813141,0.0162659,0.1142159l1.1067276,3.3032303
		c0.0730209,0.2276955,0.2197571,0.3256493,0.4395142,0.3256493l-0.0491486,0.1626472
		c-0.1380692,0.4720497-0.496254,0.5696487-0.8869934,0.5696487c-0.1626434,0-0.3093796,0.138073-0.3093796,0.3090324
		c0,0.1709557,0.1550446,0.3090286,0.3260193,0.3010712c0.9354172-0.0570908,1.2527542-0.399025,1.4725189-1.1146851
		l1.1634827-3.87323c0.0083084-0.0325317,0.0083084-0.0730057,0.0083084-0.1055374
		C113.750885,37.2954674,113.5961914,37.1328201,113.4010086,37.1328201z"/>
	<path fill="#94D60A" d="M116.6474991,37.1161995c-1.106369,0-1.7819138,0.756855-1.7819138,2.0992546
		c0,1.2856598,0.6184311,2.0913162,1.9120331,2.0913162c0.4149399,0,0.8298798-0.0816841,1.1226425-0.1872253
		c0.1062622-0.0404892,0.1872253-0.1301155,0.1872253-0.2685585c0-0.1543388-0.105545-0.2848244-0.2681885-0.2848244
		c-0.0650711,0-0.1142197,0.0242271-0.1630173,0.040863c-0.2360077,0.0813141-0.5367279,0.1460114-0.8215561,0.1460114
		c-0.8136063,0-1.1392746-0.5125237-1.2043228-1.2607155h2.1968536c0.2522888,0,0.4069824-0.1301155,0.4228745-0.3907166v-0.1630173
		C118.2501297,37.5882492,117.5182266,37.1161995,116.6474991,37.1161995z M117.485321,38.9877586h-1.8628769
		c0.0404892-0.8139839,0.3578262-1.3181953,1.0087891-1.3181953c0.5533676,0,0.8623962,0.3661385,0.8623962,1.0496368
		C117.4936295,38.8410072,117.4936295,38.9385872,117.485321,38.9877586z"/>
	<path fill="#94D60A" d="M121.1518021,37.1649818c-0.260231,0.0733757-0.5125198,0.260601-0.6751709,0.593853l-0.0325317-0.317337
		c-0.0162659-0.1706085-0.1626511-0.3086777-0.3419342-0.3086777c-0.1872253,0-0.3415604,0.1543388-0.3415604,0.3412094v3.4420242
		c0,0.1955338,0.1626434,0.3661385,0.3661575,0.3661385c0.2034912,0,0.3661346-0.1706047,0.3661346-0.3661385v-1.9774666
		c0-0.8866158,0.3661423-1.0980644,0.7565079-1.0980644h0.0733566c0.195549,0.0079575,0.3661575-0.1546936,0.3661575-0.35783
		c0-0.0896263-0.0325317-0.1713104-0.0892944-0.2363777C121.4857788,37.1161995,121.3310928,37.1161995,121.1518021,37.1649818z"/>
	<path fill="#94D60A" d="M126.060936,40.6474953c-0.1138687-0.0325317-0.2031403-0.1138458-0.2031403-0.3252945v-2.0016747
		c0-0.8136101-0.5783081-1.2043266-1.4649277-1.2043266c-0.3010864,0-0.7810745,0.0487823-1.2205887,0.1951828
		c-0.1138458,0.0408401-0.2031403,0.1546898-0.2031403,0.2848053c0,0.1713295,0.1380692,0.3014412,0.3007202,0.3014412
		c0.041214,0,0.0816879,0,0.1142197-0.0166168c0.2681885-0.1055374,0.6021652-0.2114487,0.9274597-0.2114487
		c0.4637375,0,0.8139801,0.1709595,0.8139801,0.7239685v0.4232483l-0.5783081,0.0083122
		c-1.2281799,0.0159149-1.7407227,0.4474716-1.7407227,1.2693939c0,0.7402344,0.4391632,1.2122841,1.2607193,1.2122841
		c0.6267395,0,0.9766235-0.2689095,1.1147003-0.5450554c0.0166168,0.1055374,0.057106,0.2193871,0.163002,0.3173409
		c0.154335,0.1380692,0.3740921,0.195179,0.5938492,0.2194061c0.1951828,0.0242043,0.3665085-0.1301155,0.3665085-0.3256683
		C126.3052673,40.8184547,126.1990128,40.6883392,126.060936,40.6474953z M125.1168442,39.8747253
		c0,0.7890396-0.7481918,0.8783112-0.9437332,0.8783112c-0.3169861,0-0.6018066-0.2519226-0.6018066-0.6997452
		c0-0.5775871,0.4554291-0.7077217,1.0496368-0.7156601l0.495903-0.0079575V39.8747253z"/>
	<path fill="#94D60A" d="M131.9192047,37.1161995c-1.1956482,0-1.7819214,0.8623924-1.7819214,2.0913162
		c0,1.2281799,0.5862732,2.0909462,1.7819214,2.0909462c1.1963806,0,1.7819061-0.8627663,1.7819061-2.0909462
		C133.7011108,37.9785919,133.1155853,37.1161995,131.9192047,37.1161995z M131.9192047,40.745079
		c-0.6994019,0-1.0171051-0.5855293-1.0171051-1.5375633c0-0.9440994,0.3177032-1.5379524,1.0171051-1.5379524
		c0.6997681,0,1.0171051,0.593853,1.0171051,1.5379524C132.9363098,40.1595497,132.6189728,40.745079,131.9192047,40.745079z"/>
	<path fill="#94D60A" d="M137.2035065,37.108242c-0.6430054,0-1.0250549,0.3173409-1.253479,0.6751709l-0.0404816-0.3419151
		c-0.0158997-0.1706085-0.1709595-0.3086777-0.341568-0.3086777c-0.1951904,0-0.3502502,0.1626472-0.3502502,0.3498726v3.4333611
		c0,0.1955338,0.1630249,0.3661385,0.3665161,0.3661385c0.2031403,0,0.3657837-0.1706047,0.3657837-0.3661385v-1.8061371
		c0-0.9274635,0.4315643-1.3995094,0.9845734-1.3995094c0.6350555,0,0.7651672,0.553009,0.7651672,1.0171013v2.1885452
		c0,0.1955338,0.1626434,0.3661385,0.3661499,0.3661385c0.203125,0,0.3661346-0.1706047,0.3661346-0.3661385V38.637867
		C138.4320526,37.4255829,137.7239838,37.108242,137.2035065,37.108242z"/>
	<path fill="#94D60A" d="M142.1556549,38.6212463h-1.839035c-0.1547089,0-0.2848206,0.1221581-0.2848206,0.2768669
		c0,0.1626511,0.1301117,0.2848091,0.2848206,0.2848091h1.839035c0.1543427,0,0.2848053-0.1221581,0.2848053-0.2848091
		C142.4404602,38.7434044,142.3099976,38.6212463,142.1556549,38.6212463z"/>
	<path fill="#94D60A" d="M145.3222504,40.745079c-0.0650635,0.0166359-0.1301117,0.0245934-0.1951752,0.0245934
		c-0.2114563,0-0.3336182-0.0896416-0.3336182-0.4228973v-4.4753914c0-0.1951828-0.1626434-0.3661423-0.3661346-0.3661423
		c-0.2035065,0-0.3661499,0.1709595-0.3661499,0.3661423v4.5809326c0,0.7893867,0.4149323,0.8703499,0.9925232,0.8703499
		c0.1138611,0,0.2360229-0.0079384,0.3661346-0.0325165c0.1301422-0.0159149,0.2360229-0.1301308,0.2360229-0.2682037
		C145.6558533,40.8509865,145.4848938,40.7125626,145.3222504,40.745079z"/>
	<path fill="#94D60A" d="M147.3539276,35.7737999c-0.2685699,0-0.4799957,0.1221581-0.4799957,0.4311867
		c0,0.3090515,0.2114258,0.4391632,0.4799957,0.4391632c0.2685547,0,0.4720459-0.1301117,0.4720459-0.4391632
		C147.8259735,35.8959579,147.6224823,35.7737999,147.3539276,35.7737999z"/>
	<path fill="#94D60A" d="M147.3459625,37.1328201c-0.2034912,0-0.3661346,0.1706047-0.3661346,0.3657875v3.4174461
		c0,0.1955338,0.1626434,0.3661385,0.3661346,0.3661385c0.2035065,0,0.3661652-0.1706047,0.3661652-0.3661385v-3.4174461
		C147.7121277,37.3034248,147.549469,37.1328201,147.3459625,37.1328201z"/>
	<path fill="#94D60A" d="M151.4281006,37.108242c-0.6426239,0-1.0250397,0.3173409-1.2530975,0.6751709l-0.040863-0.3419151
		c-0.0158997-0.1706085-0.1705933-0.3086777-0.341568-0.3086777c-0.1951599,0-0.3498688,0.1626472-0.3498688,0.3498726v3.4333611
		c0,0.1955338,0.1626434,0.3661385,0.3661346,0.3661385s0.3661652-0.1706047,0.3661652-0.3661385v-1.8061371
		c0-0.9274635,0.4311829-1.3995094,0.9845581-1.3995094c0.6347046,0,0.7648163,0.553009,0.7648163,1.0171013v2.1885452
		c0,0.1955338,0.1630096,0.3661385,0.3661499,0.3661385c0.203476,0,0.3661346-0.1706047,0.3661346-0.3661385V38.637867
		C152.656662,37.4255829,151.9489594,37.108242,151.4281006,37.108242z"/>
	<path fill="#94D60A" d="M155.9020538,37.1161995c-1.1067352,0-1.7822571,0.756855-1.7822571,2.0992546
		c0,1.2856598,0.6184235,2.0913162,1.9123688,2.0913162c0.4149475,0,0.829895-0.0816841,1.1226501-0.1872253
		c0.1059113-0.0404892,0.1872406-0.1301155,0.1872406-0.2685585c0-0.1543388-0.1059113-0.2848244-0.2685547-0.2848244
		c-0.0650635,0-0.1138458,0.0242271-0.1626434,0.040863c-0.2360229,0.0813141-0.5371246,0.1460114-0.8219299,0.1460114
		c-0.8136139,0-1.1389008-0.5125237-1.2039795-1.2607155h2.1968536c0.2519226,0,0.4066315-0.1301155,0.4228973-0.3907166v-0.1630173
		C157.5046997,37.5882492,156.7724152,37.1161995,155.9020538,37.1161995z M156.7398987,38.9877586h-1.8632507
		c0.0404816-0.8139839,0.3578339-1.3181953,1.0087891-1.3181953c0.55336,0,0.8623962,0.3661385,0.8623962,1.0496368
		C156.7478333,38.8410072,156.7478333,38.9385872,156.7398987,38.9877586z"/>
	<path fill="#94D60A" d="M15.7567959,14.3811235c0.4400711-0.8654661,0.950592-1.6606455,1.5177059-2.3636484
		c1.2968578-1.6082363,2.9651089-2.8449306,4.8245449-3.5763025c0.2895241-0.1136818,0.4315586-0.4406071,0.317894-0.7299471
		c-0.1136818-0.2891545-0.4407921-0.4317427-0.7299461-0.3176908c-2.0408859,0.8027496-3.8697891,2.1572704-5.2889881,3.9171267
		c-0.6159134,0.7637386-1.1692762,1.6252432-1.6447487,2.5601063c-0.1409597,0.2772369-0.0305529,0.6160803,0.2464991,0.75704
		c0.0818701,0.0415821,0.1689768,0.0612726,0.2548256,0.0612726C15.4597025,14.6890802,15.6574011,14.5764904,15.7567959,14.3811235
		z"/>
	<circle fill="#94D60A" cx="23.3398857" cy="7.4251566" r="0.5712634"/>
	<path fill="#94D60A" d="M33.6211433,11.5302525c1.2820396,2.2700443,1.734024,4.8747883,1.3111343,7.5400639
		c-0.2860832,1.8043251-0.9498749,3.5967331-1.9570351,5.3314762c1.6180038-2.1256428,2.6490173-4.3770905,3.0081139-6.6413422
		c0.3697548-2.32932-0.022953-4.6049728-1.1352959-6.5816994c-1.6429367-2.6784887-4.6452789-4.3340826-8.1133213-4.5041337
		C29.6617069,7.3770828,32.1269341,9.0843639,33.6211433,11.5302525z"/>
	<path fill="#94D60A" d="M8.4729834,21.6340313c-1.4448671,2.1580105-0.8255301,4.5029488,0.0939913,6.1735516
		C7.7038407,24.6361885,8.4729834,21.6340313,8.4729834,21.6340313z"/>
	<path fill="#94D60A" d="M9.4947863,19.4991722c-0.0706549,0-0.1452894,0.0072346-0.2222738,0.0188007
		c-2.7415571,0.3220406-6.2936358,4.7327385-5.471715,8.8935871c0.843962,4.2708092,5.5369482,3.0368366,6.077672,1.1537132
		c0.3104734-0.7908306,0.1608353-1.7837105,0.013917-2.7581749c-0.0946951-0.6281834-0.192647-1.2776108-0.206933-1.9607391
		L9.6821957,24.795229c-0.0446358-0.3961563-0.0466156-0.8230133-0.0070505-1.2984867
		c0.1742144-1.8365059,0.4642763-2.2798157,0.6034403-2.4930592c0.1097031-0.1679039,0.2755899-0.4214535,0.151619-0.8481255
		C10.3109341,19.7445965,9.9612284,19.4991722,9.4947863,19.4991722z M8.560461,24.8955116
		c0.0177097,0.7463989,0.124526,1.45401,0.2186651,2.0793056c0.2826595,1.8744431,0.3153591,2.5398598-0.9617887,2.8770943
		c-0.2651157,0.0697479-0.517055,0.1051693-0.7487302,0.1051693h-0.00037c-0.6977654,0-1.2283664-0.3184319-1.5766106-0.9451714
		c-0.7543378-1.3579445-0.4633694-3.6911507,0.6912508-5.5502357c0.1023006-0.1557827,0.2110968-0.3095837,0.3327179-0.469698
		l0.0133796-0.0186157c0.8298602-1.1907635,1.9716744-2.0040245,2.6168456-2.2611809
		c-0.1996965,0.3977642-0.4438457,1.1229935-0.592226,2.6846142C8.5082369,23.9425697,8.5104017,24.4332352,8.560461,24.8955116z"/>
	<circle fill="#94D60A" cx="21.1293011" cy="17.9685955" r="1.0393748"/>
	<circle fill="#94D60A" cx="30.3917313" cy="20.9207268" r="0.9471599"/>
	<path fill="#94D60A" d="M36.2808228,27.4511948c-0.6177063,0.1402378-1.166378,0.5526428-1.8016167,1.0308361
		c-0.4073448,0.3068638-0.8287888,0.6238518-1.3028221,0.8931313l-0.0435448,0.027462
		c-0.0244064,0.0169888-0.0506134,0.0329037-0.0755386,0.0495224l0.001442,0.000721
		c-0.0130081,0.0079575-0.0254822,0.0155449-0.0383263,0.0231323c-0.1062584,0.069397-0.2175751,0.1362591-0.3364906,0.2002354
		c-1.858902,1.0424175-2.9217319,0.6506119-3.1582928,1.2954121c-0.2114487,0.5761452,0.3617897,1.3185444,1.0516167,1.7255459
		c0.7142162,0.3766136,1.6154728,0.6542015,2.4077473,0.7456589c0.1830788,0.028553,0.355484,0.0487823,0.5268097,0.0632515
		l0.0122871,0.0007248c0.6710205,0.0411911,1.3424034-0.012661,1.9953499-0.1604843c0.0001793,0,0.0001793,0,0.0005417,0
		c1.7566223-0.3983231,3.0779648-1.3969917,3.448616-2.6074638c0.2674675-0.8721638,0.0113831-1.7819138-0.7205238-2.5622711
		C37.6467247,27.5357685,36.9847336,27.2914333,36.2808228,27.4511948z M37.8922272,30.4092541
		c-0.2449646,0.8002319-1.298214,1.5390244-2.6209145,1.8390217c-0.0001831,0-0.0005417,0-0.0005417,0
		c-0.5468636,0.1236229-1.109272,0.1691475-1.6716766,0.1351891c-0.1460228-0.0123062-0.2942162-0.0300179-0.4527092-0.0549469
		l-0.0229454-0.0028839c-0.9901772-0.1120567-1.8524036-0.4894085-2.3332996-0.8013268
		c0.1003036-0.013731,0.2130585-0.0336246,0.3402882-0.0629005c0.4238033-0.096138,0.9278297-0.2685394,1.5471649-0.5313225
		c0.4097023-0.1792679,0.7624664-0.3719139,1.0767403-0.5884323c0.5282478-0.302166,0.9921608-0.6509457,1.4020386-0.9599953
		c0.1039162-0.0784264,0.2043991-0.1535988,0.3027115-0.2259007c0.8877029-0.6014423,1.5213127-0.6795006,1.9680519-0.2081909
		C37.8839149,29.4337139,38.0404205,29.9260082,37.8922272,30.4092541z"/>
	<path fill="#94D60A" d="M23.9252472,22.9381237c0.5188484,0.786871,1.088295,0.7973461,1.9140091,0.5067482
		C24.7319736,23.5198746,23.9252472,22.9381237,23.9252472,22.9381237z"/>
	<path fill="#94D60A" d="M37.743679,18.1490002c0.5322304-3.3538437-0.2626915-6.532733-2.2992363-9.1933079
		c-2.0390816-2.6643877-5.7552547-4.3196111-9.6982517-4.3196111c-6.352911,0-11.5528107,4.0452609-13.9101486,10.8214188
		c-2.8812399,8.2821331,0.0314417,16.7560768,3.4011822,21.4960518c1.2157078,1.7103539,2.5069752,2.9659958,3.6858196,3.623455
		h-0.00037c0.0065155,0.0032578,0.0128441,0.0068855,0.0193386,0.0101242
		c0.2275314,0.125782,0.4509163,0.2295265,0.6686745,0.3090477c1.2908974,0.4897385,2.4520321,0.2482948,3.3858223-1.3290405
		c0.0272961-0.0448189,0.0533142-0.0899925,0.0784283-0.1359062c0.001461-0.0028877,0.0030708-0.0050507,0.0045338-0.0075874
		c0,0-0.000185,0-0.00037,0c0.3133793-0.5725174,0.4602966-1.1999969,0.6113796-1.846241
		c0.3845711-1.6460266,0.8633175-3.6946869,4.4714146-6.1781597C33.5765038,27.6723976,36.979496,22.9666786,37.743679,18.1490002z
		 M13.5790949,15.1647377c0.5994625-1.5007181,1.3843346-2.8886604,2.3620386-4.1011124
		c5.6289406-6.9798346,15.7343674-6.2368965,19.4725857-0.1174755c1.1951141,2.1164284,1.6163712,4.5166063,1.2182465,7.0264702
		c-0.3809624,2.4008808-1.4820976,4.7799072-3.200943,7.0170498c-1.0116768,1.1946678-2.7516766,1.9847775-4.6375027,2.128994
		c-6.5059719,0.3795185-10.8684235-2.4569931-13.5302763-5.1974583
		C13.6848192,20.2422943,12.5396004,17.7078552,13.5790949,15.1647377z M22.7153111,36.818367
		c-0.0430069,0.1724014-0.083313,0.3415642-0.1210842,0.5031204c-0.0334396,0.1420517-0.0652504,0.2783279-0.097414,0.4091644
		c-0.000185,0.000721-0.000185,0.000721-0.000351,0.001442c-0.0740986,0.300724-0.1509171,0.5717964-0.2499409,0.8197556
		c-0.4510822,1.2278137-1.213728,2.0146828-2.9542656,0.9397507c-0.014452-0.0086784-0.0294609-0.0188026-0.0440979-0.0281868
		c-0.0384922-0.0242233-0.0764484-0.0469856-0.1158295-0.0730209c0-0.0003548,0.000351-0.0007248,0.000351-0.0007248
		c-0.5175915-0.3397484-1.1067448-0.8407021-1.7428856-1.5411873c-0.0814991-0.0903664-0.1613712-0.1814537-0.2410755-0.273983
		c-0.3220406-0.3730049-0.6542034-0.7951584-0.9939709-1.2733536c-0.3195047-0.4492836-0.633605-0.9372292-0.9393969-1.4533615
		c0.3534994,0.2165031,0.7467499,0.4326324,1.1797514,0.631794c1.295599,0.595295,2.6172161,0.8927612,3.929266,0.8927612
		c0.496439,0,0.991436-0.0433617,1.4831734-0.1286736l-0.000536,0.0007248
		c0.9294415-0.2132454,1.0440292,0.000721,0.9074001,0.5739784C22.7147751,36.818367,22.714941,36.818367,22.7153111,36.818367z
		 M27.5235901,30.4714146c-2.1283646,1.4652977-3.2701607,2.8282948-3.9386482,4.0467243
		c-2.1804028,0.994339-4.4285927,0.9805908-6.684536-0.0455437c-1.7477541-0.7951813-2.8476334-1.92939-2.8586636-1.9409561
		l-0.0070314,0.0068665c-1.4873571-3.4546642-2.1144476-7.3803959-1.8455381-11.1298199
		c0.800787,1.0488949,2.0148668,2.3889446,3.7044373,3.6221962c2.3040218,1.6815205,5.8445339,3.3806782,10.7440834,3.3806782
		c1.225647,0,2.5386028-0.1095181,3.9364834-0.3491707C29.6483459,28.9005775,28.6334076,29.707695,27.5235901,30.4714146z"/>
	<path fill="#94D60A" d="M23.2699528,22.0162716c1.3309994,1.3995075,3.6601524,1.4522686,4.7193565,0.6551075
		c0.096508-0.0764465,0.1821728-0.1565037,0.2555485-0.2390957c0.013361-0.0158958,0.027832-0.0310898,0.040657-0.0473557
		c0.2224598-0.2707062,0.3121014-0.5622101,0.2092838-0.8181286c-0.125618-0.2306023-0.3972301-0.3609028-0.7874088-0.2717953
		l0.0001678-0.0014439c-0.5670948,0.1261368-1.3039074,0.0865707-2.0627422-0.1501751
		c-0.7590389-0.2369308-1.3874073-0.6233158-1.7821007-1.0496368l-0.000536,0.0012589
		c-0.4913883-0.5367451-1.0729542-0.2551785-1.200182,0.3565712l-0.0005379-0.000721
		c-0.001627,0.0075874-0.0027199,0.0155449-0.0043488,0.0232983c-0.0010719,0.0063286-0.0023499,0.0126572-0.0034237,0.0191727
		c-0.1006718,0.5276947,0.1424046,1.0788937,0.6160812,1.5231094
		C23.2699528,22.0162716,23.2699528,22.0162716,23.2699528,22.0162716z"/>
	<path fill="#94D60A" d="M22.6695843,28.8427467c-0.4397011-0.0628834-0.8557129,0.0513363-1.1931324,0.3224106l0.0019989-0.068676
		c0.0106602-0.2262535-0.1546898-0.4207134-0.3847561-0.453598c-0.2428894-0.0346985-0.469162,0.1348152-0.5036755,0.3777046
		l-0.6961365,4.865387c-0.0359573,0.2526436,0.1467514,0.496254,0.39921,0.5323982
		c0.2524757,0.0361595,0.496273-0.1467323,0.5322304-0.399025l0.1865025-1.3037224
		c0.2412605,0.3130074,0.6045132,0.5157776,1.0463791,0.5786629c1.047823,0.1500053,1.7629452-0.5609512,1.9617367-1.9507084
		C24.2254124,29.9061146,23.7333221,28.9949207,22.6695843,28.8427467z M23.0637417,31.1487675
		c-0.1736794,1.2140789-0.7684212,1.3138447-1.1076527,1.2650471c-0.3421001-0.0484314-0.8911343-0.3057747-0.7232475-1.4793816
		c0.1745834-1.2205944,0.7848911-1.3189163,1.1333199-1.2693939C22.6990452,29.7127476,23.2323475,29.969017,23.0637417,31.1487675z
		"/>
	<ellipse fill="#94D60A" cx="21.1292953" cy="45.3964539" rx="3.8856938" ry="1.2394885"/>
</g>
<g>
</g>
<g>
</g>
<g>
</g>
<g>
</g>
<g>
</g>
</svg>
