<?xml version="1.0" encoding="utf-8"?>
<!-- Generator: Adobe Illustrator 21.0.0, SVG Export Plug-In . SVG Version: 6.00 Build 0)  -->
<svg version="1.1" id="Layer_1" xmlns="http://www.w3.org/2000/svg" xmlns:xlink="http://www.w3.org/1999/xlink" x="0px" y="0px"
	 width="200px" height="270px" viewBox="0 0 200 270" style="enable-background:new 0 0 200 270;" xml:space="preserve">
<style type="text/css">
	.st0{fill:#F0A929;}
	.st1{fill:#FFFFFF;}
	.st2{fill:#E21C2A;}
	.st3{fill:#215382;}
</style>
<g transform="translate(-26.7 -466)">
	<path class="st0" d="M54.67964,519.19415c0-2.44135,1.95309-4.39441,4.39446-4.39441h135.25182
		c2.44138,0,4.39447,1.95306,4.39447,4.39441v57.61633c0,2.44135-1.95309,4.39441-4.39447,4.39441H59.31824
		c-2.44137,0-4.39446-1.95306-4.39446-4.39441v-57.61633H54.67964z"/>
	<path class="st1" d="M54.67964,521.39136h144.28487v53.466H54.67964V521.39136L54.67964,521.39136z"/>
	<path class="st2" d="M176.99219,535.30719c-6.59169,0-11.96271,5.37109-11.96271,11.96271
		c0,6.59174,5.371,11.96271,11.96271,11.96271c6.59169,0,11.96271-5.37103,11.96271-11.96271
		C189.19902,540.67816,183.58389,535.30719,176.99219,535.30719L176.99219,535.30719z"/>
	<path class="st2" d="M78.36091,535.30719c-6.5917,0-11.96271,5.37109-11.96271,11.96271
		c0,6.59174,5.37101,11.96271,11.96271,11.96271s11.96271-5.37103,11.96271-11.96271
		C90.32362,540.67816,84.95261,535.30719,78.36091,535.30719z"/>
	<path class="st2" d="M176.25978,524.56512c-10.98615-0.24414-16.35716,6.83582-23.92542,15.62476l-7.07997,8.30066
		l11.23029,13.42749c2.68552,4.15039-2.44136,8.30066-5.61514,4.39447l-10.49788-12.45105l-10.25375,11.71857
		c-3.17378,3.66205-8.30066-0.48828-5.61515-4.63861l10.98615-12.93921l-7.3241-8.5448l4.6386-5.85925l7.32411,8.78894
		l6.34756-7.3241c3.17378-3.66205,6.34755-8.5448,10.49789-10.98615H54.4355v46.87427h23.92541
		c10.98616,0,16.11303-6.59167,23.43714-15.62469l6.83583-8.5448l-11.71857-13.18341
		c-2.6855-4.15033,2.19724-8.3006,5.61514-4.63855l10.74203,12.20685l10.00961-11.96271
		c3.17378-3.90619,8.30066,0.24414,5.61514,4.39441l-10.74202,13.18341l7.3241,8.5448l-4.6386,5.61511l-7.3241-8.30066
		l-6.10342,7.56824c-2.92964,3.66205-6.10342,8.30066-10.25375,10.98621h101.56091v-46.87433h-22.46057V524.56512z
		 M97.15945,547.2699c0,10.49786-8.54479,19.04266-19.04267,19.04266s-19.04267-8.5448-19.04267-19.04266
		s8.54479-19.04266,19.04267-19.04266C88.61465,528.22717,97.15945,536.77197,97.15945,547.2699z M176.99219,566.06842
		c-10.49789,0-19.04268-8.5448-19.04268-19.04266s8.54478-19.04266,19.04268-19.04266s19.04268,8.5448,19.04268,19.04266
		S187.49008,566.06842,176.99219,566.06842z"/>
</g>
<rect id="XMLID_11_" x="27.73551" y="137.80992" class="st3" width="144.28488" height="3.19014"/>
<g id="XMLID_2_">
	<g>
		<path id="XMLID_31_" class="st3" d="M44.81371,169.68764h20.07128c2.92429,0,5.58273,0.26584,7.84241,0.93045
			c2.25968,0.66461,4.12061,1.59508,5.44983,2.9243c1.32922,1.32921,2.25967,2.92429,2.65845,4.91812
			c0.39877,1.99384,0.26584,4.25351-0.39877,6.91196v0.13292c-0.79755,2.65845-1.86091,5.05106-3.45599,7.04489
			c-1.59507,2.12675-3.45599,3.85475-5.58274,5.18398c-2.12676,1.46214-4.65228,2.39259-7.31072,3.19014
			c-2.65845,0.66461-5.58274,1.06337-8.50702,1.06337h-4.78521l-3.32306,12.09595H32.58487L44.81371,169.68764z M57.70718,191.48689
			c1.8609,0,3.5889-0.39876,4.91812-1.19629c1.46216-0.79755,2.25967-1.99384,2.79138-3.72183v-0.13292
			c0.39877-1.59508,0.26584-2.79137-0.66461-3.72183c-0.93045-0.79753-2.25968-1.19629-4.25351-1.19629h-3.98767l-2.79138,9.96918
			C53.71951,191.48691,57.70718,191.48691,57.70718,191.48689z"/>
		<path id="XMLID_30_" class="st3" d="M98.11558,169.42178h14.75439l6.38028,44.92775H103.0337l-0.66461-5.98151H86.81718
			l-3.98766,5.98151H66.87883L98.11558,169.42178z M101.57155,197.73425l-1.06339-10.89964l-7.04488,10.89964H101.57155z"/>
		<path id="XMLID_29_" class="st3" d="M129.21939,198.53178l-8.90578-28.84415h16.74822l3.5889,14.62146l11.69717-14.62146h16.48236
			l-24.72357,28.57829l-4.38644,15.95068h-14.88729L129.21939,198.53178z"/>
	</g>
</g>
<g>
	<g>
		<g id="Conekta_9_">
			<g id="Logotipo_9_">
				<path class="st3" d="M96.12174,230.1673c0.13293,0,0.13293,0,0.13293,0.13292l0.53168,0.53169
					c-0.26584,0.39877-0.66461,0.66461-1.06339,0.79753c-0.39877,0.26585-0.93045,0.26585-1.59506,0.26585
					c-0.53168,0-1.06338-0.13293-1.46215-0.26585s-0.79755-0.39876-1.1963-0.79753c-0.26584-0.39877-0.53168-0.79753-0.66461-1.1963
					c-0.13293-0.39876-0.26584-0.93045-0.26584-1.46214s0.13293-1.06337,0.26584-1.59506
					c0.13293-0.39877,0.39877-0.79753,0.79755-1.1963c0.39877-0.39877,0.79754-0.53169,1.19629-0.79753
					c0.53168-0.13292,0.93045-0.26585,1.59506-0.26585c0.53168,0,1.06339,0.13292,1.46216,0.26585
					c0.39877,0.13292,0.79754,0.39876,1.06339,0.66461l-0.53168,0.66461c0,0,0,0.13292-0.13293,0.13292h-0.13293
					c-0.13293,0-0.13293,0-0.26584-0.13292c-0.13293,0-0.13293-0.13292-0.26584-0.26585
					c-0.13293-0.13292-0.26585-0.13292-0.53168-0.26584c-0.13293,0-0.39877-0.13292-0.79754-0.13292
					c-0.39877,0-0.66461,0-0.93046,0.13292c-0.26584,0.13292-0.53168,0.26584-0.79754,0.53169
					c-0.26584,0.26584-0.39877,0.53169-0.53168,0.79753c-0.13293,0.26584-0.13293,0.66461-0.13293,1.06337
					c0,0.39877,0,0.79753,0.13293,1.06339c0.13293,0.26584,0.26585,0.66461,0.53168,0.79753
					c0.26584,0.26584,0.39877,0.39876,0.66461,0.53169c0.26584,0.13292,0.53168,0.13292,0.93045,0.13292
					c0.13293,0,0.39877,0,0.53168,0c0.13293,0,0.26584,0,0.39877-0.13292c0.13293,0,0.26585-0.13292,0.39877-0.13292
					c0.13293-0.13292,0.26584-0.13292,0.39877-0.26585C95.8559,230.30022,95.8559,230.30022,96.12174,230.1673
					C95.98882,230.1673,95.98882,230.1673,96.12174,230.1673z"/>
				<path class="st3" d="M105.02753,228.30638c0,0.53169-0.13293,1.06339-0.26584,1.46214
					c-0.13293,0.39877-0.39877,0.93047-0.79755,1.1963c-0.26584,0.39877-0.79754,0.66461-1.19629,0.79753
					c-0.53168,0.13292-0.93045,0.26585-1.59506,0.26585c-0.53168,0-1.06339-0.13292-1.59506-0.26585
					c-0.53168-0.13292-0.93046-0.39876-1.1963-0.79753c-0.39877-0.39876-0.53168-0.79753-0.79754-1.1963
					c-0.13293-0.39876-0.26585-0.93045-0.26585-1.46214s0.13293-1.06337,0.26585-1.46214
					c0.13293-0.39876,0.39877-0.93045,0.79754-1.1963c0.39877-0.39876,0.79754-0.66461,1.1963-0.79753
					c0.53168-0.13292,0.93045-0.26584,1.59506-0.26584c0.53168,0,1.06338,0.13292,1.59506,0.26584
					c0.53168,0.13292,0.93045,0.39877,1.19629,0.79753c0.26585,0.39877,0.53168,0.79753,0.79755,1.1963
					C105.02753,227.24301,105.02753,227.64177,105.02753,228.30638z M103.69831,228.30638c0-0.39876,0-0.79753-0.13293-1.06337
					c-0.13293-0.26585-0.26585-0.53169-0.53168-0.79753c-0.26584-0.26585-0.39877-0.39877-0.79754-0.53169
					c-0.26584-0.13292-0.66461-0.13292-0.93045-0.13292c-0.39877,0-0.66461,0-0.93046,0.13292
					c-0.26584,0.13292-0.53168,0.26584-0.79754,0.53169c-0.26584,0.26584-0.39877,0.53168-0.53168,0.79753
					c-0.13293,0.26584-0.13293,0.66461-0.13293,1.06337c0,0.39877,0,0.79753,0.13293,1.06339
					c0.13293,0.26584,0.26585,0.53169,0.53168,0.79753s0.39877,0.39876,0.79754,0.53169
					c0.26585,0.13292,0.66461,0.13292,0.93046,0.13292c0.39877,0,0.66461,0,0.93045-0.13292s0.53168-0.26585,0.79754-0.53169
					c0.26584-0.26585,0.39877-0.53169,0.53168-0.79753C103.56538,228.97099,103.69831,228.70515,103.69831,228.30638z"/>
				<path class="st3" d="M107.02137,224.58456C107.1543,224.58456,107.1543,224.58456,107.02137,224.58456
					c0.13293,0,0.13293,0.13292,0.26584,0.13292c0,0,0,0.13292,0.13293,0.13292l3.98767,4.91812c0-0.13292,0-0.26584,0-0.39876
					s0-0.26585,0-0.26585v-4.51936h1.19629v7.31075h-0.66461c-0.13293,0-0.26584,0-0.26584,0
					c-0.13293,0-0.13293-0.13293-0.26584-0.13293l-3.98767-4.91812c0,0.13292,0,0.26585,0,0.26585c0,0.13292,0,0.26584,0,0.26584
					v4.51936h-1.1963v-7.44365h0.79755C107.02137,224.58456,107.02137,224.58456,107.02137,224.58456z"/>
				<path class="st3" d="M118.71854,224.58456v1.06337h-3.32305v1.99384h2.65845v1.06339h-2.65845v2.12675h3.32305v1.06339h-4.78521
					v-7.44365h4.78521V224.58456z"/>
				<path class="st3" d="M121.37698,227.64177h0.26585c0.13293,0,0.26584,0,0.26584,0c0.13293,0,0.13293-0.13292,0.26584-0.13292
					l2.12677-2.65845c0.13293-0.13292,0.13293-0.13292,0.26584-0.26584c0.13293,0,0.26584,0,0.39877,0h1.19629l-2.52551,3.05721
					c-0.13293,0.13292-0.13293,0.13292-0.26585,0.26585c-0.13293,0-0.13293,0.13292-0.26584,0.13292
					c0.13293,0,0.26584,0.13292,0.26584,0.13292c0.13293,0.13292,0.13293,0.13292,0.26585,0.26584l2.65845,3.45598h-1.1963
					c-0.13293,0-0.26584,0-0.39877-0.13292c-0.13293,0-0.13293-0.13292-0.26584-0.26584l-2.12676-2.79137
					c-0.13293-0.13292-0.13293-0.13292-0.26585-0.13292c-0.13293,0-0.26584,0-0.39877,0h-0.39877v3.32306h-1.46215v-7.44365h1.46215
					v3.19012H121.37698z"/>
				<path class="st3" d="M132.94122,224.58456v1.1963h-2.79138v6.11443h-1.46214v-6.24736h-2.39261l0.93045-1.1963h5.71568
					V224.58456z"/>
				<path class="st3" d="M138.92273,231.89529h-1.06339c-0.13292,0-0.26584,0-0.26584-0.13293
					c-0.13293,0-0.13293-0.13292-0.13293-0.26584l-0.53168-1.46214h-3.05722l-0.53168,1.46214
					c0,0.13292-0.13293,0.13292-0.13293,0.26584c-0.13292,0-0.13292,0.13293-0.26584,0.13293h-1.06339l2.92429-7.44365h1.46216
					L138.92273,231.89529z M134.13751,229.10391h2.39261l-0.93045-2.52551c0-0.13292-0.13293-0.26585-0.13293-0.39877
					s-0.13292-0.26584-0.13292-0.53169c0,0.13292-0.13293,0.39877-0.13293,0.53169s-0.13293,0.26585-0.13293,0.39877
					L134.13751,229.10391z"/>
			</g>
			<g id="Símbolo_9_">
				<g>
					<polygon class="st3" points="145.17007,231.62944 142.64456,228.30638 145.17007,224.8504 146.76514,227.11009 
						145.96762,228.30638 146.76514,229.36977 					"/>
				</g>
				<polygon class="st3" points="147.29684,233.88911 151.55035,228.30638 147.29684,222.59073 144.10669,222.59073 
					148.22729,228.30638 144.10669,233.88911 				"/>
			</g>
		</g>
		<g>
			<path class="st3" d="M32.58487,233.49036l0.79754-6.91196h0.66461c0.13293,0,0.26584,0,0.26584,0.13292
				c0.13293,0,0.13293,0.13292,0.13293,0.26584c0,0,0,0,0,0.13292s0,0.13292,0,0.26585c0,0.13292,0,0.26584,0,0.53169
				c0.26584-0.39877,0.53168-0.66461,0.79754-0.93047c0.26584-0.26584,0.66461-0.26584,0.93045-0.26584
				c0.26584,0,0.39877,0,0.53168,0.13292c0.13293,0.13292,0.26584,0.13292,0.39877,0.39876
				c0.13293,0.13292,0.26584,0.39877,0.26584,0.66461c0.13293,0.26585,0.13293,0.53169,0.13293,0.79753
				c0,0.26585,0,0.53169-0.13293,0.79753c0,0.26585-0.13293,0.53169-0.26584,0.79753
				c-0.13293,0.26585-0.26584,0.53169-0.39877,0.66461c-0.13293,0.26585-0.26584,0.39877-0.53168,0.53169
				c-0.13293,0.13292-0.39877,0.26585-0.66461,0.39877c-0.26584,0.13292-0.39877,0.13292-0.66461,0.13292
				c-0.26584,0-0.39877,0-0.66461-0.13292c-0.13293-0.13292-0.39877-0.13292-0.53168-0.39877l-0.26584,2.12675h-0.79756V233.49036z
				 M35.77499,227.50885c-0.13293,0-0.26584,0-0.39877,0.13292s-0.26584,0.26585-0.39877,0.39877
				c-0.13293,0.13292-0.26584,0.39876-0.39877,0.53169c-0.13293,0.26584-0.26584,0.39876-0.26584,0.66461l-0.13293,1.19629
				c0.13293,0.13293,0.26584,0.26585,0.39877,0.26585s0.26584,0.13292,0.39877,0.13292c0.26584,0,0.39877-0.13292,0.66461-0.26584
				c0.13293-0.13293,0.39877-0.26585,0.53168-0.53169c0.13293-0.26585,0.26584-0.53169,0.26584-0.79753
				c0.13293-0.26585,0.13293-0.53169,0.13293-0.79755c0-0.39876,0-0.6646-0.13293-0.79753
				C36.17376,227.64177,36.04085,227.50885,35.77499,227.50885z"/>
			<path class="st3" d="M40.5602,231.89529c-0.26584,0-0.53168,0-0.79754-0.13293c-0.26586-0.13292-0.39877-0.26584-0.66461-0.39876
				c-0.26584-0.13292-0.26584-0.39877-0.39877-0.66461c-0.13293-0.26585-0.13293-0.53169-0.13293-0.93047
				c0-0.39876,0.13293-0.93045,0.26584-1.19629c0.13293-0.39877,0.39877-0.66461,0.53168-1.06339
				c0.13291-0.39876,0.53168-0.53169,0.93045-0.66461c0.26584-0.13292,0.66461-0.26584,1.06338-0.26584
				c0.26584,0,0.53168,0,0.79754,0.13292c0.26584,0.13292,0.39877,0.26584,0.66461,0.39876
				c0.13293,0.13292,0.26584,0.39877,0.39877,0.66461c0.13293,0.26585,0.13293,0.53169,0.13293,0.93047
				c0,0.39876-0.13293,0.79753-0.26584,1.1963c-0.13293,0.39876-0.39877,0.66461-0.53168,1.06337
				c-0.26584,0.26585-0.53168,0.53169-0.93045,0.66461C41.35775,231.76236,40.95898,231.89529,40.5602,231.89529z
				 M40.69313,230.96483c0.26584,0,0.39877,0,0.53168-0.13292c0.13293-0.13292,0.26584-0.26584,0.39877-0.53169
				c0.13293-0.26584,0.26584-0.39876,0.26584-0.66461c0-0.26584,0.13293-0.53169,0.13293-0.79753
				c0-0.39877-0.13293-0.66461-0.26584-0.93045c-0.13293-0.13292-0.39877-0.26585-0.66461-0.26585
				c-0.26584,0-0.39877,0-0.53168,0.13292c-0.13293,0.13292-0.26584,0.26585-0.39877,0.53169
				c-0.13293,0.26585-0.26584,0.39877-0.26584,0.66461c0,0.26585-0.13293,0.53169-0.13293,0.79753
				c0,0.39877,0.13293,0.66461,0.26584,0.93047C40.16143,230.83191,40.42727,230.96483,40.69313,230.96483z"/>
			<path class="st3" d="M44.41494,226.5784h0.93045c0.13293,0,0.13293,0,0.26584,0l0.13293,0.13292l0.26584,2.79137
				c0,0.13292,0,0.26584,0,0.39876s0,0.26585,0,0.39877c0-0.13292,0.13293-0.26585,0.13293-0.39877s0.13293-0.26584,0.13293-0.39876
				l1.06339-2.79137c0-0.13292,0.13293-0.13292,0.13293-0.13292s0.13293,0,0.26584,0h0.53168c0.13293,0,0.13293,0,0.26584,0
				c0.13291,0,0.13293,0.13292,0.13293,0.13292l0.39877,2.79137c0,0.13292,0,0.26584,0,0.39876s0,0.26585,0,0.39877
				c0-0.13292,0.13293-0.26585,0.13293-0.39877s0.13293-0.26584,0.13293-0.39876l1.06338-2.79137
				c0-0.13292,0-0.13292,0.13293-0.13292c0,0,0.13293,0,0.26584,0h0.93045l-2.12677,5.18396h-1.0634
				c-0.13293,0-0.13293-0.13292-0.13293-0.26584l-0.53168-2.92429c0-0.13293,0-0.26585,0-0.39877
				c0,0.13292,0,0.13292-0.13293,0.13292c0,0,0,0.13292-0.13293,0.13292l-1.19629,2.9243c0,0.13292-0.13293,0.26584-0.26584,0.26584
				h-0.93045L44.41494,226.5784z"/>
			<path class="st3" d="M56.51088,227.7747c0,0.26584,0,0.39876-0.13293,0.6646c-0.13293,0.13293-0.26584,0.39877-0.53168,0.53169
				c-0.26584,0.13292-0.53168,0.26585-0.93045,0.39877c-0.39877,0.13292-0.93045,0.13292-1.59507,0.26584l0,0
				c0,0.79753,0.39877,1.1963,1.06339,1.1963c0.13293,0,0.26584,0,0.39877,0s0.26584,0,0.26584-0.13292
				c0.13293,0,0.13293-0.13292,0.26584-0.13292c0.13293,0,0.13293-0.13292,0.13293-0.13292l0.13293-0.13292h0.13293h0.13293
				c0,0,0.13293,0,0.13293,0.13292l0.26584,0.39877c-0.13293,0.13292-0.39877,0.39876-0.53168,0.39876
				c-0.13293,0.13292-0.39877,0.26585-0.53168,0.26585c-0.13293,0.13292-0.39877,0.13292-0.53168,0.13292
				c-0.13293,0-0.39877,0-0.66461,0c-0.26584,0-0.53168,0-0.79754-0.13292s-0.39877-0.26585-0.66461-0.39877
				c-0.13293-0.13292-0.26584-0.39876-0.39877-0.66461c-0.13293-0.26584-0.13293-0.53169-0.13293-0.93045
				c0-0.26585,0-0.53169,0.13293-0.79753c0-0.26585,0.13293-0.53169,0.26584-0.79753
				c0.13293-0.26585,0.26584-0.39877,0.39877-0.66461c0.13293-0.13292,0.39877-0.39877,0.53168-0.53169
				c0.26584-0.13292,0.39877-0.26585,0.66461-0.39877c0.26584-0.13292,0.53168-0.13292,0.79754-0.13292
				c0.26584,0,0.53168,0,0.66461,0.13292c0.26584,0.13292,0.39877,0.13292,0.53168,0.26585
				c0.13293,0.13292,0.26584,0.26584,0.26584,0.39876C56.51088,227.50885,56.51088,227.64177,56.51088,227.7747z
				 M54.78289,227.37593c-0.13293,0-0.26584,0-0.53168,0.13292c-0.13293,0.13292-0.26584,0.13292-0.39877,0.26584
				s-0.26584,0.26585-0.26584,0.39877c-0.13293,0.13292-0.13293,0.39876-0.26584,0.53169c0.39877,0,0.79754-0.13292,1.06339-0.13292
				c0.26584-0.13293,0.39877-0.13293,0.53168-0.26585c0.13293-0.13292,0.26584-0.13292,0.26584-0.26584
				s0.13293-0.13292,0.13293-0.26585v-0.13292c0,0,0-0.13292-0.13293-0.13292l-0.13293-0.13292
				C55.04873,227.37593,54.91582,227.37593,54.78289,227.37593z"/>
			<path class="st3" d="M57.44134,231.76236l0.66461-5.18396h0.66461c0.13293,0,0.26584,0,0.26584,0.13292
				c0.13293,0,0.13293,0.13292,0.13293,0.26584c0,0,0,0,0,0.13292c0,0,0,0.13292,0,0.26585c0,0.13292,0,0.26584,0,0.53169
				c0.26584-0.39877,0.39877-0.66461,0.66461-0.93047c0.26584-0.26584,0.53168-0.39876,0.79754-0.39876
				c0.13293,0,0.26584,0,0.39877,0.13292l-0.26584,1.1963c-0.13293-0.13292-0.26584-0.13292-0.53168-0.13292
				c-0.26584,0-0.53168,0.13292-0.79754,0.39876c-0.26584,0.26584-0.39877,0.79753-0.53168,1.32922l-0.26584,2.25967H57.44134z"/>
			<path class="st3" d="M65.81544,227.7747c0,0.26584,0,0.39876-0.13293,0.6646c-0.13293,0.13293-0.26584,0.39877-0.53168,0.53169
				c-0.26584,0.13293-0.53168,0.26585-0.93045,0.39877c-0.39877,0.13292-0.93045,0.13292-1.59506,0.26584l0,0
				c0,0.79753,0.39877,1.1963,1.06338,1.1963c0.13293,0,0.26584,0,0.39877,0c0.13293,0,0.26585,0,0.26585-0.13292
				c0.13293,0,0.13293-0.13292,0.26584-0.13292c0.13293,0,0.13293-0.13292,0.13293-0.13292l0.13293-0.13292h0.13293h0.13293
				c0,0,0.13293,0,0.13293,0.13292l0.26584,0.39877c-0.13293,0.13292-0.39877,0.39876-0.53168,0.39876
				c-0.13293,0.13292-0.39877,0.26585-0.53168,0.26585c-0.13293,0.13292-0.39877,0.13292-0.53168,0.13292
				c-0.13293,0-0.39877,0-0.66461,0c-0.26584,0-0.53168,0-0.79754-0.13292s-0.39877-0.26585-0.66461-0.39877
				c-0.13293-0.13292-0.26584-0.39876-0.39877-0.66461c-0.13293-0.26584-0.13293-0.53169-0.13293-0.93045
				c0-0.26585,0-0.53169,0.13293-0.79753c0-0.26585,0.13293-0.53169,0.26584-0.79753
				c0.13293-0.26585,0.26584-0.39877,0.39877-0.66461c0.13293-0.13292,0.39877-0.39877,0.53168-0.53169
				c0.26584-0.13292,0.39877-0.26585,0.66461-0.39877c0.26584-0.13292,0.53168-0.13292,0.79755-0.13292
				c0.26584,0,0.53168,0,0.66461,0.13292c0.26584,0.13292,0.39877,0.13292,0.53168,0.26585
				c0.13293,0.13292,0.26584,0.26584,0.26584,0.39876C65.81544,227.50885,65.81544,227.64177,65.81544,227.7747z
				 M64.08746,227.37593c-0.13293,0-0.26584,0-0.53168,0.13292c-0.13293,0.13292-0.26584,0.13292-0.39877,0.26584
				s-0.26584,0.26585-0.26584,0.39877c-0.13293,0.13292-0.13293,0.39876-0.26584,0.53169c0.39877,0,0.79754-0.13292,1.06338-0.13292
				c0.26584-0.13293,0.39877-0.13293,0.53168-0.26585c0.13293-0.13292,0.26584-0.13292,0.26584-0.26584
				s0.13293-0.13292,0.13293-0.26585v-0.13292c0,0,0-0.13292-0.13293-0.13292l-0.13293-0.13292
				C64.22038,227.37593,64.22038,227.37593,64.08746,227.37593z"/>
			<path class="st3" d="M70.3348,231.76236c-0.13293,0-0.26585,0-0.26585-0.13292s-0.13293-0.13292-0.13293-0.26584v-0.79753
				c-0.26584,0.39876-0.53168,0.66461-0.79754,0.93045c-0.26585,0.26585-0.66461,0.26585-0.93046,0.26585
				c-0.26584,0-0.39877,0-0.53168-0.13292c-0.13293-0.13292-0.26584-0.13292-0.39877-0.39877
				c-0.13293-0.26584-0.26584-0.39876-0.26584-0.66461c-0.13293-0.26584-0.13293-0.53169-0.13293-0.79753s0-0.53169,0.13293-0.79753
				c0-0.26584,0.13293-0.53169,0.26584-0.79753c0.13293-0.26584,0.26584-0.53169,0.39877-0.66461
				c0.13293-0.26584,0.26584-0.39876,0.53168-0.53169c0.13293-0.13292,0.39877-0.26584,0.66461-0.39876
				c0.26585-0.13292,0.39877-0.13292,0.66461-0.13292c0.26585,0,0.39877,0,0.66461,0.13292
				c0.13293,0.13292,0.39877,0.13292,0.53168,0.39876l0.39877-2.65845h1.1963l-0.93045,7.44365
				C71.39816,231.76237,70.3348,231.76237,70.3348,231.76236z M68.60683,230.83191c0.13293,0,0.26584,0,0.39877-0.13292
				c0.13293-0.13292,0.26585-0.26585,0.39877-0.39877c0.13293-0.13292,0.26584-0.39876,0.39877-0.53169
				c0.13293-0.26584,0.26584-0.39876,0.26584-0.66461l0.13293-1.19629c-0.13293-0.13292-0.26585-0.26585-0.39877-0.26585
				c-0.13293,0-0.26584-0.13292-0.39877-0.13292c-0.26584,0-0.39877,0.13292-0.66461,0.26585
				c-0.13293,0.13292-0.39877,0.26584-0.53168,0.53168c-0.13293,0.26585-0.26585,0.53169-0.26585,0.79753
				c-0.13293,0.26585-0.13293,0.53169-0.13293,0.79755c0,0.39876,0,0.66461,0.13293,0.79753
				C68.20805,230.83191,68.34097,230.83191,68.60683,230.83191z"/>
			<path class="st3" d="M75.12001,231.76236l0.93045-7.44365h1.1963l-0.39877,3.32306
				c0.26584-0.39876,0.53168-0.66461,0.79754-0.79753c0.26585-0.13292,0.66461-0.26584,0.93046-0.26584
				c0.26584,0,0.39877,0,0.53168,0.13292c0.13293,0.13292,0.26585,0.13292,0.39877,0.39877
				c0.13293,0.26584,0.26584,0.39876,0.26584,0.66461c0.13293,0.26584,0.13293,0.53168,0.13293,0.79753
				c0,0.26584,0,0.53168-0.13293,0.79753c0,0.26584-0.13293,0.53169-0.26584,0.79753
				c-0.13293,0.26584-0.26584,0.53169-0.39877,0.66461c-0.13293,0.26584-0.26584,0.39876-0.53168,0.53169
				c-0.13293,0.13292-0.39877,0.26584-0.66461,0.39876c-0.26585,0.13292-0.39877,0.13292-0.66461,0.13292
				s-0.53168,0-0.66461-0.13292c-0.26584-0.13292-0.39877-0.26584-0.53168-0.39876v0.13292
				c0,0.13292-0.13293,0.26584-0.13293,0.26584s-0.13293,0.13292-0.26584,0.13292h-0.53168V231.76236z M78.17723,227.50885
				c-0.13293,0-0.26585,0-0.39877,0.13292c-0.13293,0.13292-0.26584,0.26585-0.39877,0.39877
				c-0.13293,0.13292-0.26584,0.39876-0.39877,0.53169c-0.13293,0.26584-0.26585,0.39876-0.26585,0.66461l-0.26584,1.32922
				c0.13293,0.13292,0.26584,0.26584,0.39877,0.26584c0.13293,0,0.26584,0.13292,0.39877,0.13292
				c0.26585,0,0.39877-0.13292,0.66461-0.26584c0.13293-0.13292,0.39877-0.26585,0.53168-0.53169
				c0.13293-0.26585,0.26584-0.53169,0.26584-0.79753c0.13293-0.26585,0.13293-0.53169,0.13293-0.79753
				c0-0.39877,0-0.66461-0.13293-0.79753C78.44307,227.64177,78.31013,227.50885,78.17723,227.50885z"/>
			<path class="st3" d="M82.56367,233.2245c-0.13293,0.13293-0.26584,0.26585-0.39877,0.26585h-0.93046l1.1963-2.12675
				l-1.32922-4.7852h1.06339c0.13293,0,0.13293,0,0.26584,0.13292l0.13293,0.13292l0.66461,2.65845c0,0.13292,0,0.13292,0,0.26584
				c0,0.13293,0,0.13293,0,0.26585c0-0.13292,0.13293-0.13292,0.13293-0.26585c0-0.13292,0.13293-0.13292,0.13293-0.26584
				l1.32922-2.65845c0-0.13292,0.13293-0.13292,0.13293-0.13292h0.13293h1.06339L82.56367,233.2245z"/>
		</g>
	</g>
</g>
<g>
</g>
<g>
</g>
<g>
</g>
<g>
</g>
<g>
</g>
</svg>
