<?xml version="1.0" encoding="utf-8"?>
<!-- Generator: Adobe Illustrator 21.0.0, SVG Export Plug-In . SVG Version: 6.00 Build 0)  -->
<svg version="1.1" id="Layer_1" xmlns="http://www.w3.org/2000/svg" xmlns:xlink="http://www.w3.org/1999/xlink" x="0px" y="0px"
	 width="200px" height="270px" viewBox="0 0 200 270" style="enable-background:new 0 0 200 270;" xml:space="preserve">
<style type="text/css">
	.st0{fill:#253B80;}
	.st1{fill:#179BD7;}
	.st2{fill:#222D65;}
</style>
<path class="st0" d="M106.80019,231.0083l5.91149-37.47592l0.38018-2.07651c0.5919-3.74097,3.81657-6.49591,7.60408-6.49641h4.69402
	c7.19634,0.07347,14.37325-0.76053,21.36098-2.48228c6.41696-1.59346,12.48816-4.34779,17.91356-8.12692
	c5.49347-3.93481,10.10135-8.97726,13.5265-14.80217c4.00713-6.9819,6.77991-14.60269,8.19637-22.52719
	c1.45364-6.67601,1.73445-13.55408,0.82986-20.32639c-0.81468-5.79489-3.27057-11.23566-7.07764-15.67984
	c-2.42383-2.69789-5.319-4.93153-8.54362-6.59147l-0.07681-0.0441v-0.09849c1.21236-6.43448,1.16641-13.04292-0.13528-19.45992
	c-1.35989-5.6218-4.11171-10.81136-8.0023-15.09124c-8.48878-9.66966-23.92365-14.57585-45.88055-14.57585H57.20169
	c-4.17058,0.00085-7.72102,3.03503-8.37186,7.15451L23.72166,211.51907c-0.42965,2.74316,1.44584,5.31525,4.18901,5.74489
	c0.25657,0.04019,0.51587,0.06042,0.77558,0.06055h37.40639l-0.03291,0.17914l-2.57005,16.29015
	c-0.37405,2.39125,1.26122,4.63297,3.65247,5.007c0.22121,0.03462,0.44477,0.0522,0.66868,0.05264h31.37429
	c3.63826-0.00034,6.73591-2.64673,7.30435-6.24033L106.80019,231.0083z"/>
<path class="st0" d="M85.30399,94.48903c0.57686-3.66967,3.73944-6.37317,7.45418-6.37212h47.26248
	c5.21931-0.03593,10.4332,0.34427,15.59209,1.13697c1.36365,0.21935,2.69072,0.47156,3.9812,0.7566
	c1.29048,0.28505,2.5407,0.60553,3.75066,0.96146c0.60689,0.17546,1.20279,0.36069,1.7877,0.55568
	c2.25049,0.73711,4.43568,1.66036,6.53294,2.76017c2.36531-15.09125-0.0183-25.36043-8.17805-34.66084
	c-8.98601-10.23995-25.22153-14.62693-45.99386-14.62693H57.20169c-4.24536,0.00048-7.85957,3.08915-8.5217,7.28255
	L23.57177,211.49353c-0.44493,2.82341,1.48321,5.47293,4.30663,5.91786c0.26722,0.0421,0.53733,0.06319,0.80786,0.06308h37.22338
	l9.35157-59.29378L85.30399,94.48903z"/>
<path class="st1" d="M171.67274,94.28792L171.67274,94.28792c-0.17912,1.15158-0.38017,2.32153-0.61781,3.53151
	c-7.94753,40.82454-35.15437,54.9397-69.90297,54.9397H83.46143c-4.23891,0.00223-7.84376,3.09343-8.49246,7.28242l0,0
	l-9.05934,57.43292l-2.56985,16.29399c-0.38976,2.46895,1.29577,4.78642,3.76474,5.17618
	c0.23363,0.03688,0.46978,0.05539,0.70631,0.05536h31.37429c3.71455,0.00056,6.87687-2.70264,7.45425-6.37206l0.3071-1.5939
	l5.91143-37.47945l0.38018-2.06934c0.57735-3.66942,3.73969-6.37267,7.45425-6.37206h4.69408
	c30.39452,0,54.19753-12.34938,61.15092-48.06305c2.90637-14.92305,1.40384-27.37842-6.28069-36.13776
	C177.82307,98.19945,174.91394,95.95437,171.67274,94.28792z"/>
<path class="st2" d="M163.34842,90.97207c-1.21011-0.35463-2.46381-0.67253-3.75067-0.96146
	c-1.29048-0.28514-2.61754-0.53734-3.98119-0.7566c-5.15913-0.79061-10.37285-1.17079-15.59209-1.13697H92.75836
	c-3.71474-0.00105-6.87733,2.70245-7.45418,6.37212l-10.04272,63.69537l-0.2888,1.86078
	c0.64758-4.18961,4.2531-7.2814,8.49247-7.28242h17.69051c34.74491,0,61.95156-14.11511,69.90298-54.9397
	c0.23396-1.21011,0.43507-2.37973,0.61781-3.53151c-2.09726-1.09981-4.28246-2.02305-6.53294-2.76016
	C164.55121,91.33401,163.95531,91.14758,163.34842,90.97207z"/>
<g>
</g>
<g>
</g>
<g>
</g>
<g>
</g>
<g>
</g>
</svg>
