<?xml version="1.0" encoding="utf-8"?>
<!-- Generator: Adobe Illustrator 21.0.0, SVG Export Plug-In . SVG Version: 6.00 Build 0)  -->
<svg version="1.1" id="Layer_1" xmlns="http://www.w3.org/2000/svg" xmlns:xlink="http://www.w3.org/1999/xlink" x="0px" y="0px"
	 width="300px" height="300px" viewBox="0 0 300 300" enable-background="new 0 0 300 300" xml:space="preserve">
<g>
	<path fill="#FFFFFF" stroke="#9E9E9E" stroke-miterlimit="10" d="M64.1974411,35.5956612
		C29.4669151,61.6849518,7,103.2177048,7,150h143L64.1974411,35.5956612z"/>
	<g>
		<path fill="#3D465B" d="M82.7066879,84.9805756H42.1015663c-1.2884293,0-2.3426018,1.0541763-2.3426018,2.3426056
			s1.0541725,2.3426056,2.3426018,2.3426056v-2.3426056h40.6051216v2.3426056c1.2884369,0,2.3426056-1.0541763,2.3426056-2.3426056
			S83.9951248,84.9805756,82.7066879,84.9805756z"/>
		<polygon fill="#F0EDE0" stroke="#555555" stroke-miterlimit="10" points="43.6633034,124.8048325 48.3485107,129.490036 
			53.0337143,124.8048325 57.7189217,129.490036 62.404129,124.8048325 67.0893326,129.490036 71.7745438,124.8048325 
			76.4597473,129.490036 81.1449585,124.8048325 82.7066879,126.3665695 82.7066879,87.3231812 42.1015663,87.3231812 
			42.1015663,126.3665695 		"/>
		<path fill="#D4C3A5" d="M73.3362808,116.9961548H61.6232605c-0.4310379,0-0.7808685-0.3490448-0.7808685-0.7808685
			c0-0.4318161,0.3498306-0.7808685,0.7808685-0.7808685h11.7130203c0.4310379,0,0.7808609,0.3490524,0.7808609,0.7808685
			C74.1171417,116.64711,73.7673187,116.9961548,73.3362808,116.9961548z"/>
		<path fill="#D4C3A5" d="M77.2406158,116.9961548c-0.2030258,0-0.4060516-0.0858917-0.5544128-0.2264481
			c-0.1405563-0.1483688-0.2264557-0.3513947-0.2264557-0.5544205c0-0.2116165,0.0858994-0.4068298,0.2264557-0.5544128
			c0.29673-0.2889175,0.8121033-0.2889175,1.1088257,0c0.1405563,0.147583,0.2264557,0.3427963,0.2264557,0.5544128
			c0,0.2030258-0.0858994,0.4060516-0.2264557,0.5544205C77.6466675,116.9102631,77.4436417,116.9961548,77.2406158,116.9961548z"/>
		<path fill="#D4C3A5" d="M77.2406158,106.0640106H65.5276031c-0.4310379,0-0.7808685-0.3490524-0.7808685-0.7808685
			c0-0.4318237,0.3498306-0.7808685,0.7808685-0.7808685h11.7130127c0.4310379,0,0.7808685,0.3490448,0.7808685,0.7808685
			C78.0214844,105.7149582,77.6716537,106.0640106,77.2406158,106.0640106z"/>
		<path fill="#D4C3A5" d="M77.2406158,111.5300827h-7.8086777c-0.4310379,0-0.7808685-0.3490448-0.7808685-0.7808685
			s0.3498306-0.7808685,0.7808685-0.7808685h7.8086777c0.4310379,0,0.7808685,0.3490448,0.7808685,0.7808685
			S77.6716537,111.5300827,77.2406158,111.5300827z"/>
		<path fill="#D4C3A5" d="M63.1849976,111.5300827h-1.5617371c-0.4310379,0-0.7808685-0.3490448-0.7808685-0.7808685
			s0.3498306-0.7808685,0.7808685-0.7808685h1.5617371c0.4310379,0,0.7808685,0.3490448,0.7808685,0.7808685
			S63.6160355,111.5300827,63.1849976,111.5300827z"/>
		<path fill="#D4C3A5" d="M73.3362808,100.5979309H61.6232605c-0.4310379,0-0.7808685-0.3490448-0.7808685-0.7808685
			c0-0.4318161,0.3498306-0.7808685,0.7808685-0.7808685h11.7130203c0.4310379,0,0.7808609,0.3490524,0.7808609,0.7808685
			C74.1171417,100.2488861,73.7673187,100.5979309,73.3362808,100.5979309z"/>
		<path fill="#D4C3A5" d="M77.2406158,100.5979309c-0.2030258,0-0.4060516-0.0858917-0.5544128-0.2264481
			c-0.1405563-0.1483688-0.2264557-0.3513947-0.2264557-0.5544205c0-0.2116089,0.0858994-0.4068298,0.2264557-0.5544128
			c0.2889175-0.2889252,0.8199081-0.2889252,1.1088257,0c0.1405563,0.147583,0.2264557,0.351387,0.2264557,0.5544128
			s-0.0858994,0.4060516-0.2264557,0.5544205C77.6466675,100.5120392,77.4514542,100.5979309,77.2406158,100.5979309z"/>
		<path fill="#D4C3A5" d="M62.404129,106.0640106c-0.2030258,0-0.4060516-0.0858994-0.5544167-0.2264557
			c-0.1405563-0.1483612-0.2264519-0.3435822-0.2264519-0.5544128c0-0.2116165,0.0858955-0.4068375,0.2264519-0.5544205
			c0.29673-0.2889175,0.819912-0.2889175,1.1088333,0c0.1405563,0.147583,0.2264519,0.342804,0.2264519,0.5544205
			c0,0.2108307-0.0858955,0.4060516-0.2264519,0.5544128C62.8101807,105.9781113,62.6071548,106.0640106,62.404129,106.0640106z"/>
		<path fill="#D4C3A5" d="M66.3084717,111.5300827c-0.2030258,0-0.4060516-0.0858994-0.5544205-0.2264557
			c-0.1405563-0.1483612-0.2264481-0.351387-0.2264481-0.5544128s0.0858917-0.4068298,0.2264481-0.5544128
			c0.29673-0.2889252,0.8199081-0.2889252,1.1088333,0c0.1405563,0.1405563,0.2264481,0.3427963,0.2264481,0.5544128
			c0,0.2108307-0.0858917,0.4060516-0.2264481,0.5544128C66.7145157,111.4441833,66.5114899,111.5300827,66.3084717,111.5300827z"/>
		<path fill="#24AE5F" d="M53.8145828,104.5022736c0,0.4318161,0.3498306,0.7808685,0.7808685,0.7808685
			s0.7808685-0.3490524,0.7808685-0.7808685c0-1.8850174-1.3438759-3.4623718-3.1234703-3.82547v-0.8597412
			c0-0.4318161-0.3498306-0.7808685-0.7808685-0.7808685s-0.7808685,0.3490524-0.7808685,0.7808685v0.8620834
			c-0.8519249,0.1733475-1.628109,0.625473-2.2004852,1.3024826c-0.4771118,0.5637894-0.6980972,1.2853088-0.6200104,2.0326004
			c0.0796509,0.764473,0.4732094,1.4734955,1.0799408,1.9451447l1.7405548,1.3540192v4.2463608
			c-0.9065857-0.3232803-1.5617371-1.1822281-1.5617371-2.1989212c0-0.4318161-0.3498268-0.7808685-0.7808647-0.7808685
			c-0.4310417,0-0.7808685,0.3490524-0.7808685,0.7808685c0,1.8850174,1.3438721,3.4623642,3.1234703,3.82547v0.6863861
			c0,0.4318161,0.3498306,0.7808609,0.7808685,0.7808609s0.7808685-0.3490448,0.7808685-0.7808609V113.18396
			c0.8519249-0.1733551,1.628109-0.625473,2.2012634-1.3024902c0.4771118-0.5653458,0.6973152-1.2868652,0.6192284-2.0341568
			c-0.0804291-0.7636871-0.4732056-1.4719391-1.079937-1.9428024l-1.7405548-1.3540268v-4.2463531
			C53.1594353,102.6266251,53.8145828,103.4855804,53.8145828,104.5022736z M53.0344963,109.1367188
			c0.272522,0.2116165,0.4497795,0.5309906,0.4856987,0.8730164c0.033577,0.3201523-0.0585632,0.627037-0.2584648,0.862854
			c-0.2717438,0.3209381-0.6231346,0.5458298-1.0088806,0.6832581v-3.0281982L53.0344963,109.1367188z M49.909462,104.7271652
			c-0.273304-0.2124023-0.4497795-0.5317764-0.4856987-0.8745728c-0.032795-0.3193817,0.058567-0.6254807,0.2584686-0.8620834
			c0.27174-0.3209305,0.6231308-0.5458221,1.0088806-0.6832581v3.0274277L49.909462,104.7271652z"/>
		<g>
			<path fill="#A5A5A4" d="M44.4441719,93.5701218c-0.2030258,0-0.4060516-0.0858917-0.5544167-0.2264481
				c-0.1405563-0.1483688-0.2264519-0.3513947-0.2264519-0.5544205s0.0858955-0.4068298,0.2264519-0.5544128
				c0.29673-0.2889252,0.819912-0.2889252,1.1088333,0c0.1405525,0.147583,0.2264481,0.351387,0.2264481,0.5544128
				s-0.0858955,0.4060516-0.2264481,0.5544205C44.8502235,93.48423,44.6471977,93.5701218,44.4441719,93.5701218z"/>
			<path fill="#A5A5A4" d="M76.5924911,92.7892532c0-0.4294739,0.3435822-0.7808685,0.7808685-0.7808685l0,0
				c0.4294815,0,0.7808685,0.3513947,0.7808685,0.7808685l0,0c0,0.4294815-0.351387,0.7808685-0.7808685,0.7808685l0,0
				C76.9360809,93.5701218,76.5924911,93.2187347,76.5924911,92.7892532z M73.5939636,92.7892532
				c0-0.4294739,0.3513947-0.7808685,0.7808685-0.7808685l0,0c0.4372864,0,0.7808685,0.3513947,0.7808685,0.7808685l0,0
				c0,0.4294815-0.3435822,0.7808685-0.7808685,0.7808685l0,0C73.9453506,93.5701218,73.5939636,93.2187347,73.5939636,92.7892532z
				 M70.603241,92.7892532c0-0.4294739,0.351387-0.7808685,0.7808685-0.7808685l0,0
				c0.4294739,0,0.7808685,0.3513947,0.7808685,0.7808685l0,0c0,0.4294815-0.3513947,0.7808685-0.7808685,0.7808685l0,0
				C70.954628,93.5701218,70.603241,93.2187347,70.603241,92.7892532z M67.6125183,92.7892532
				c0-0.4294739,0.3435745-0.7808685,0.7808685-0.7808685l0,0c0.4294739,0,0.7808609,0.3513947,0.7808609,0.7808685l0,0
				c0,0.4294815-0.351387,0.7808685-0.7808609,0.7808685l0,0C67.9561005,93.5701218,67.6125183,93.2187347,67.6125183,92.7892532z
				 M64.6139832,92.7892532c0-0.4294739,0.3513947-0.7808685,0.7808685-0.7808685l0,0
				c0.4372864,0,0.7808685,0.3513947,0.7808685,0.7808685l0,0c0,0.4294815-0.3435822,0.7808685-0.7808685,0.7808685l0,0
				C64.9653778,93.5701218,64.6139832,93.2187347,64.6139832,92.7892532z M61.6232605,92.7892532
				c0-0.4294739,0.3513908-0.7808685,0.7808685-0.7808685l0,0c0.4294777,0,0.7808685,0.3513947,0.7808685,0.7808685l0,0
				c0,0.4294815-0.3513908,0.7808685-0.7808685,0.7808685l0,0C61.9746513,93.5701218,61.6232605,93.2187347,61.6232605,92.7892532z
				 M58.6325378,92.7892532c0-0.4294739,0.3435822-0.7808685,0.7808685-0.7808685l0,0
				c0.4294777,0,0.7808685,0.3513947,0.7808685,0.7808685l0,0c0,0.4294815-0.3513908,0.7808685-0.7808685,0.7808685l0,0
				C58.97612,93.5701218,58.6325378,93.2187347,58.6325378,92.7892532z M55.6340065,92.7892532
				c0-0.4294739,0.3513908-0.7808685,0.7808685-0.7808685l0,0c0.4372826,0,0.7808647,0.3513947,0.7808647,0.7808685l0,0
				c0,0.4294815-0.3435822,0.7808685-0.7808647,0.7808685l0,0C55.9853973,93.5701218,55.6340065,93.2187347,55.6340065,92.7892532z
				 M52.6432838,92.7892532c0-0.4294739,0.3513908-0.7808685,0.7808647-0.7808685l0,0
				c0.4294777,0,0.7808685,0.3513947,0.7808685,0.7808685l0,0c0,0.4294815-0.3513908,0.7808685-0.7808685,0.7808685l0,0
				C52.9946747,93.5701218,52.6432838,93.2187347,52.6432838,92.7892532z M49.6525574,92.7892532
				c0-0.4294739,0.3435822-0.7808685,0.7808685-0.7808685l0,0c0.4294777,0,0.7808685,0.3513947,0.7808685,0.7808685l0,0
				c0,0.4294815-0.3513908,0.7808685-0.7808685,0.7808685l0,0C49.9961395,93.5701218,49.6525574,93.2187347,49.6525574,92.7892532z
				 M46.654026,92.7892532c0-0.4294739,0.3513908-0.7808685,0.7808685-0.7808685l0,0
				c0.4372864,0,0.7808685,0.3513947,0.7808685,0.7808685l0,0c0,0.4294815-0.3435822,0.7808685-0.7808685,0.7808685l0,0
				C47.0054169,93.5701218,46.654026,93.2187347,46.654026,92.7892532z"/>
			<path fill="#A5A5A4" d="M80.36409,93.5701218c-0.2108383,0-0.4060516-0.0858917-0.5544205-0.2342606
				c-0.1405563-0.1405563-0.2264481-0.3435822-0.2264481-0.546608s0.0858917-0.4068298,0.2264481-0.5544128
				c0.2811127-0.2889252,0.8121033-0.2889252,1.1088333,0c0.1405563,0.147583,0.2264557,0.351387,0.2264557,0.5544128
				s-0.0858994,0.4060516-0.2264557,0.5544205C80.7701416,93.48423,80.5671082,93.5701218,80.36409,93.5701218z"/>
		</g>
	</g>
</g>
<g>
	<path fill="#FFFFFF" stroke="#9E9E9E" stroke-miterlimit="10" d="M231.9878845,32.8330154
		C208.7727203,16.5579891,180.5042877,7,150,7c-32.1943893,0-61.901886,10.6415863-85.8025589,28.5956612L150,150
		L231.9878845,32.8330154z"/>
	<g>
		<path fill="#4FC2E9" d="M136.9528198,62.9973106c0-12.3024101,9.9751892-22.2765694,22.2776031-22.2765694
			c12.3043823,0,22.2776184,9.9741592,22.2776184,22.2765694S171.53479,85.2728348,159.230423,85.2728348
			C146.928009,85.2727051,136.9528198,75.2995911,136.9528198,62.9973106z"/>
		<path fill="#E0369B" d="M114.6772919,62.9973106c0-12.3024101,9.9732437-22.2765694,22.275528-22.2765694
			c12.3043671,0,22.2776031,9.9741592,22.2776031,22.2765694s-9.9732361,22.2755241-22.2776031,22.2755241
			C124.6504059,85.2727051,114.6772919,75.2995911,114.6772919,62.9973106z"/>
		<path fill="#5D9CEC" d="M148.0926056,43.7013969c-6.6590118,3.8526535-11.1397858,11.051136-11.1397858,19.2957802
			c0,8.2437363,4.4807739,15.4431305,11.1397858,19.2937012c6.6570435-3.8505707,11.1378174-11.0500946,11.1378174-19.2937012
			C159.230423,54.752533,154.749527,47.5540504,148.0926056,43.7013969z"/>
		<path fill="#FCD829" d="M148.0926056,68.5651169c-12.3043823,0-22.2774887-9.9732475-22.2774887-22.2744827
			c-0.0001297-12.3034554,9.9731216-22.2776127,22.2774887-22.2776127c12.3023987,0,22.27565,9.9741573,22.27565,22.2776127
			C170.3681183,58.5919991,160.3950195,68.5651169,148.0926056,68.5651169z"/>
		<path fill="#A0D468" d="M136.9528198,62.9973106c0,0.9056854,0.0570526,1.7988319,0.1611023,2.6798439
			c3.2407227,1.8397064,6.9873657,2.8879623,10.9786835,2.8879623c12.3023987,0,22.27565-9.9732475,22.27565-22.2744827
			c0-0.9075127-0.0550995-1.8019714-0.1591492-2.6798477c-3.2407227-1.8386536-6.9875031-2.8900452-10.9786835-2.8900452
			C146.928009,40.7206116,136.9528198,50.6949005,136.9528198,62.9973106z"/>
		<path fill="#ED5564" d="M136.9528198,40.7206116c-3.9913177,0-7.7358704,1.0513878-10.9767227,2.8900452
			c-0.1060104,0.878006-0.1611099,1.7723351-0.1611099,2.6798477c0,12.3013649,9.9732513,22.2744751,22.2774811,22.2744751
			c3.9913025,0,7.7379456-1.0482483,10.9767151-2.8879547c0.1060181-0.8810043,0.1611176-1.774292,0.1611176-2.6798477
			C159.230423,50.6949005,149.2571869,40.7206116,136.9528198,40.7206116z"/>
		<path fill="#231F20" d="M148.724762,68.5568924c0.1672516-0.0040512,0.3344879-0.0122757,0.5018616-0.0203705
			c0.0184174,0,0.0366974,0,0.0571899-0.0040512c0.1509247-0.0080948,0.2997589-0.0163193,0.4505615-0.0285873
			c0.0407257,0,0.0836792-0.0040512,0.1244202-0.0080948c0.1611023-0.0122757,0.3223419-0.0245438,0.4834595-0.040741
			c0.0326385-0.0040436,0.0673676-0.0080948,0.1000061-0.0122681c0.1365662-0.0163193,0.2711639-0.028595,0.4056396-0.0449142
			c0.0428314-0.0080948,0.0856476-0.0122681,0.128479-0.0163193c0.1550903-0.0203629,0.3100739-0.0449066,0.463089-0.0652771
			c0.0449066-0.0080948,0.0917816-0.0163193,0.1366882-0.0203705c0.122345-0.0202332,0.2425842-0.0407333,0.3629608-0.0610962
			c0.0467377-0.0080948,0.0937347-0.0163193,0.1406097-0.0245438c0.1468811-0.028595,0.2916718-0.0571823,0.4385376-0.0856476
			c0.0550995-0.0080948,0.110199-0.0203705,0.1652985-0.0326385c0.1100464-0.0245438,0.2181549-0.0489655,0.3262634-0.0733795
			c0.0510406-0.0080948,0.1018372-0.0203629,0.1528778-0.0326385c0.1386566-0.0326385,0.2753448-0.0652771,0.4120483-0.1019669
			c0.0652771-0.0163193,0.1284637-0.0326385,0.1937408-0.0489578c0.0958405-0.0245438,0.1916656-0.053009,0.2874908-0.0775528
			c0.087738-0.0245438,0.1773071-0.0488281,0.2650452-0.0774155c0.0979156-0.0245438,0.1937408-0.053009,0.2897034-0.0856476
			c0.0714111-0.0203705,0.1447906-0.0449142,0.2162018-0.0652847c0.081604-0.0285873,0.1652832-0.053009,0.2467651-0.0815964
			c0.1121521-0.0366898,0.2242889-0.0733795,0.336441-0.1142426c0.0714264-0.0245438,0.1407471-0.0489578,0.2121582-0.0733719
			c0.0795135-0.0284576,0.1591492-0.0570526,0.2365723-0.0855179c0.0673676-0.0245438,0.1326447-0.0489578,0.197937-0.0775528
			c0.1304169-0.0489578,0.2609863-0.0979156,0.3914032-0.1509247c0.053009-0.0245438,0.1081085-0.0449066,0.1611176-0.0693283
			c0.0856476-0.0326385,0.1712952-0.0693283,0.2549744-0.1060104c0.034729-0.0163193,0.0693359-0.028595,0.1040649-0.0449142
			c0.1591492-0.0693283,0.318161-0.1386566,0.475235-0.2120285c0.0449066-0.0203629,0.0876007-0.0407333,0.1325073-0.0612259
			c0.2795258-0.134613,0.5569611-0.2733917,0.8300934-0.4160919c0.0366974-0.0163193,0.0733795-0.0366898,0.110199-0.0571823
			c0.1834259-0.0979233,0.365036-0.1958389,0.5466461-0.2978058c0.0020905-0.0040512,0.0040436-0.0040512,0.006134-0.0040512
			c0.1060181-0.8810043,0.1611176-1.774292,0.1611176-2.6798477c0-8.2446442-4.4807739-15.4431267-11.1378326-19.295784
			c-6.6590118,3.8526573-11.1397858,11.051136-11.1397858,19.295784c0,0.9056892,0.0570526,1.7988358,0.1611023,2.6798477
			c0.0081024,0.0040512,0.0184174,0.0080948,0.0265045,0.0122757c0.1733856,0.0979156,0.3487244,0.1958313,0.5261536,0.2897034
			c0.0366974,0.0203705,0.07547,0.040741,0.1121521,0.0612335c0.2732544,0.1427002,0.5486145,0.2773056,0.8280029,0.4078674
			c0.0447845,0.0245438,0.0896912,0.0449066,0.134613,0.0652771c0.1530151,0.069191,0.3079834,0.1386566,0.4629517,0.2079773
			c0.0387726,0.0163193,0.0775604,0.0326385,0.116333,0.0489578c0.0836945,0.0366898,0.1672516,0.0733795,0.2528839,0.1060181
			c0.0550995,0.0245438,0.110199,0.0449066,0.1651611,0.0693283c0.1265106,0.0530014,0.2570648,0.1019669,0.3855438,0.1509247
			c0.0673676,0.0245438,0.1326447,0.053009,0.1998901,0.0775528c0.0794983,0.0285873,0.1591492,0.0571823,0.2386627,0.0855103
			c0.0693207,0.0245438,0.1407318,0.0489655,0.2121582,0.0733795c0.1100616,0.0407333,0.2223358,0.0775528,0.3344879,0.1142349
			c0.0815887,0.028595,0.1651459,0.053009,0.2488403,0.081604c0.0712891,0.0245438,0.1427002,0.0449066,0.2162018,0.0652771
			c0.0958405,0.0326385,0.1916656,0.0612335,0.2895813,0.0898209c0.087738,0.0245438,0.1753387,0.0488281,0.2630768,0.0733795
			c0.0958252,0.0245438,0.1916656,0.053009,0.2895813,0.0775528c0.0631866,0.0163193,0.1284637,0.0326385,0.1937561,0.0489578
			c0.1345978,0.0366821,0.2732544,0.0693283,0.4099426,0.1019669c0.0509186,0.0122681,0.1019745,0.0245438,0.1528931,0.0326385
			c0.1101837,0.0245438,0.2181549,0.0489578,0.3263855,0.0733719c0.0550995,0.0122757,0.1121521,0.0245438,0.1672516,0.0326462
			c0.1447906,0.0285873,0.2916718,0.0571823,0.4364624,0.0856476c0.0468597,0.0080948,0.0937347,0.0163193,0.1407471,0.0245361
			c0.1203613,0.0203705,0.2427063,0.040741,0.365036,0.0611038c0.0449066,0.0040512,0.0898285,0.0122681,0.134613,0.0203705
			c0.1550903,0.0203629,0.3079834,0.0449066,0.4629517,0.0652771c0.0428314,0.0040436,0.087616,0.0080948,0.1305695,0.0163193
			c0.1345978,0.0163193,0.2692108,0.028595,0.4038086,0.0449142c0.034729,0.0040436,0.0673676,0.0080948,0.1019745,0.0122681
			c0.1611023,0.0163193,0.3201294,0.028595,0.4833221,0.0407333c0.040741,0.0040512,0.081604,0.0081024,0.1223297,0.0081024
			c0.1509247,0.0122681,0.3018494,0.0203629,0.452774,0.0285873c0.0184174,0.0040512,0.0387878,0.0040512,0.0570679,0.0040512
			c0.1672363,0.0080948,0.3344879,0.0163193,0.5017242,0.0203629c0.040741,0,0.0795135,0,0.1202545,0.0040512
			c0.1693268,0.0040512,0.3406219,0.0040512,0.5119171,0.0040512c0.1714172,0,0.3406219,0,0.509964-0.0040512
			C148.643158,68.5568924,148.6838989,68.5568924,148.724762,68.5568924z"/>
	</g>
</g>
<g>
	<path fill="#FFFFFF" stroke="#9E9E9E" stroke-miterlimit="10" d="M293,150
		c0-48.4724731-24.1223755-91.3053207-61.0121155-117.1669846L150,150H293z"/>
	<g>
		<path fill="#4EB9FF" d="M252.004837,85.4477234c-6.7194519,0-32.9212952,0-32.9212952,0v48.6664124c0,0,26.2018433,0,32.9212952,0
			v-24.3332672c6.7194672,0,12.1666412-5.4471817,12.1666412-12.1666336
			C264.1714783,90.8947754,258.7243042,85.4477234,252.004837,85.4477234z"/>
		<path fill="#9AD7FF" d="M252.004837,109.7808685h-32.8978577c11.3136597,0,20.485199,12.4608154,20.485199,27.832077h32.8978729
			C272.4900513,122.241684,263.318512,109.7808685,252.004837,109.7808685z"/>
		<circle fill="#3B8BC0" cx="219.0835419" cy="97.6138535" r="12.1666346"/>
		<circle fill="#174461" cx="219.0835419" cy="97.6138535" r="4.771214"/>
		<circle fill="#3B8BC0" cx="219.0835419" cy="121.946991" r="12.1666336"/>
		<circle fill="#174461" cx="219.0835419" cy="121.946991" r="4.771214"/>
	</g>
</g>
<g>
	<path fill="#FFFFFF" stroke="#9E9E9E" stroke-miterlimit="10" d="M150,150L80.8359146,275.1806335
		C101.3341904,286.5305481,124.9100189,293,150,293c78.9766846,0,143-64.0233154,143-143H150z"/>
	<g>
		<path fill="#FF7058" d="M224.9063568,201.4893646h-15.0566559v27.2894745h24.6691437v-12.2829437l-2.8770905-9.9435883
			C230.7744751,203.5537262,228.0279694,201.4893646,224.9063568,201.4893646"/>
		<path fill="#84DBFF" d="M230.91716,216.3698578l-2.5640717-8.8635559
			c-0.4420471-1.5236359-1.8592987-2.5899963-3.4467316-2.5899963h-11.6297302v11.4535522H230.91716z"/>
		<polygon fill="#CDD6E0" points="230.9203033,216.3652954 213.2706604,216.3652954 213.2706604,204.9117432 		"/>
		<path fill="#F2F2F2" d="M230.91716,216.3698578l-2.5640717-8.8635559
			c-0.4420471-1.5236359-1.8592987-2.5899963-3.4467316-2.5899963h-11.6297302L230.91716,216.3698578z"/>
		<path fill="#FFD15C" d="M167.3107452,187.7891541h37.9818573c2.5155182,0,4.5570984,2.0400238,4.5570984,4.5570984v36.4310303
			h-47.0960541v-36.4310303C162.7536469,189.8293152,164.7936554,187.7891541,167.3107452,187.7891541"/>
		<polygon fill="#F2F2F2" points="193.6204376,187.7968445 193.6204376,199.8381348 191.8582764,198.0760956 
			190.0112152,199.9232941 188.1655884,198.0760956 186.3199768,199.9232941 184.4712219,198.0760956 182.6013794,199.9232941 
			180.7571716,198.0760956 178.9739227,199.8594818 178.9739227,187.7968445 		"/>
		<path fill="#334A5E" d="M235.6733551,228.7757111v5.1495209h-72.9135742v-5.1495209h7.6103516
			c1.7772675-3.1899719,5.1950836-5.3470459,9.1141968-5.3470459c3.9038696,0,7.3216858,2.157074,9.1141968,5.3470459h24.4868622
			c1.7772675-3.1899719,5.1784363-5.3470459,9.0975342-5.3470459s7.3216858,2.157074,9.1141968,5.3470459H235.6733551z"/>
		<path fill="#40596B" d="M229.4604645,233.8933258c0,4.0193634-3.2583313,7.2776947-7.2776947,7.2776947
			s-7.274704-3.2583313-7.274704-7.2776947s3.2567596-7.2776794,7.274704-7.2776794
			C226.2037048,226.6156464,229.4604645,229.8739624,229.4604645,233.8933258"/>
		<path fill="#ACB3BA" d="M225.108429,233.8933258c0,1.6147766-1.3094482,2.9226685-2.9226685,2.9226685
			c-1.6147766,0-2.9256592-1.3078766-2.9256592-2.9226685c0-1.6147766,1.3094635-2.9226685,2.9256592-2.9226685
			C223.7989807,230.9692383,225.108429,232.2786865,225.108429,233.8933258"/>
		<path fill="#40596B" d="M186.7558899,233.8933258c0,4.0193634-3.259903,7.2776947-7.2776947,7.2776947
			c-4.0193634,0-7.2776794-3.2583313-7.2776794-7.2776947s3.258316-7.2776794,7.2776794-7.2776794
			C183.4959869,226.6156464,186.7558899,229.8739624,186.7558899,233.8933258"/>
		<path fill="#ACB3BA" d="M182.4008636,233.8933258c0,1.6147766-1.3078918,2.9226685-2.9226685,2.9226685
			s-2.9240875-1.3078766-2.9240875-2.9226685c0-1.6147766,1.3094482-2.9226685,2.9240875-2.9226685
			S182.4008636,232.2786865,182.4008636,233.8933258"/>
	</g>
</g>
<g>
	<path fill="#FFFFFF" stroke="#9E9E9E" stroke-miterlimit="10" d="M7,150
		c0,53.8867035,29.8109779,100.8040619,73.8359146,125.1806335L150,150H7z"/>
	<g>
		<path fill="#B79363" d="M75.1109085,215.2303009c0-4.100296,3.3236237-7.4242554,7.4239197-7.4242554
			c1.541214,0,2.9726639,0.4698181,4.1591034,1.27388v-35.5037384c0-0.3326721-0.272171-0.60495-0.60495-0.60495H50.4225082
			c-0.3326683,0-0.60495,0.272171-0.60495,0.60495v45.2702332c0,0.3326569,0.272171,0.60495,0.60495,0.60495h26.0061569
			C75.5984573,218.2526855,75.1109085,216.7986755,75.1109085,215.2303009z"/>
		<path opacity="0.1" enable-background="new    " d="M52.4231033,218.846405v-45.2702179
			c0-0.3326721,0.272171-0.60495,0.6049461-0.60495h-2.6055412c-0.3326683,0-0.60495,0.272171-0.60495,0.60495v45.2702332
			c0,0.3326569,0.272171,0.60495,0.60495,0.60495h2.6056519C52.695385,219.451355,52.4231033,219.179184,52.4231033,218.846405z"/>
		<path fill="#FFF9F3" d="M75.1109085,215.2303009c0-4.0529327,3.247757-7.3450165,7.2826157-7.4206543v-30.7951355
			c0-0.3323212-0.2719498-0.6042786-0.6041641-0.6042786H54.7223549c-0.3323288,0-0.6041641,0.2718353-0.6041641,0.6042786
			v37.6916504c0,0.3322144,0.2718353,0.6042786,0.6041641,0.6042786h20.3906822
			C75.1127014,215.2837219,75.1109085,215.2572327,75.1109085,215.2303009z"/>
		<path opacity="0.1" enable-background="new    " d="M56.7566185,214.7061615v-37.6916504
			c0-0.3323212,0.271946-0.6042786,0.6041641-0.6042786h-2.6384277c-0.3323288,0-0.6041641,0.2718353-0.6041641,0.6042786
			v37.6916504c0,0.3322144,0.2718315,0.6042786,0.6041641,0.6042786h2.6385384
			C57.0286789,215.3105469,56.7566185,215.0386047,56.7566185,214.7061615z"/>
		<path fill="#FFCB00" d="M54.1179657,205.7097168v8.9964447c0,0.3322144,0.2718353,0.6042786,0.6041641,0.6042786h8.996109
			L54.1179657,205.7097168z"/>
		<path fill="#E5AE00" d="M73.8451157,172.5005188c0.0934982-0.4073029,0.1441116-0.8307648,0.1441116-1.2661285
			c0.0001144-3.1438141-2.5669327-5.692337-5.733429-5.692337c-3.1663818,0-5.7335358,2.5485229-5.7335358,5.692337
			c0,0.4353638,0.0510674,0.8588257,0.1442223,1.2661285H73.8451157z"/>
		<path fill="#72563C" d="M70.1451721,172.5005188c0.2462387-0.3613892,0.3900146-0.7969818,0.3900146-1.2661285
			c0-1.2499542-1.0205536-2.2632141-2.2796097-2.2632141s-2.2796173,1.0133667-2.2796173,2.2632141
			c0,0.4691467,0.1438904,0.9046173,0.3900223,1.2661285H70.1451721z"/>
		<circle fill="#35D34F" cx="82.5351639" cy="215.2300873" r="7.7764487"/>
		<path opacity="0.1" enable-background="new    " d="M77.3772736,215.2303009c0-3.8480988,2.795784-7.0415344,6.4666672-7.6642151
			c-0.4258194-0.0722809-0.8625259-0.1118927-1.3089981-0.1118927c-4.2945786,0-7.7757797,3.4815369-7.7757797,7.7761078
			c0,4.2946777,3.4812012,7.7762146,7.7757797,7.7762146c0.4464722,0,0.8831787-0.0396118,1.3089981-0.1118927
			C80.1730576,222.2719421,77.3772736,219.0785217,77.3772736,215.2303009z"/>
		<path fill="#00752C" d="M81.838295,218.6255341c-0.3970871,0.0001068-0.7698212-0.1540985-1.049736-0.4341278
			l-2.3594131-2.3591919c-0.3436661-0.3434296-0.3436661-0.9004517-0.0001144-1.2438965
			c0.3436661-0.3434448,0.9005737-0.3434448,1.2439041-0.0001221l2.1653595,2.1651306l3.5583115-3.5586395
			c0.3436661-0.3436584,0.9005737-0.3436584,1.2437897-0.0001068c0.3436661,0.3434296,0.3436661,0.9004669,0.0001144,1.2437897
			l-3.7525864,3.7530365C82.6081161,218.4713287,82.2352676,218.6255341,81.838295,218.6255341z"/>
		<path fill="#FFCB00" d="M78.0881805,177.2084503c0,0.3326721-0.272171,0.60495-0.60495,0.60495H59.0283737
			c-0.3326645,0-0.6049461-0.272171-0.6049461-0.60495v-4.8855896c0-0.3326721,0.272171-0.60495,0.6049461-0.60495h18.4549637
			c0.3326645,0,0.60495,0.272171,0.60495,0.60495v4.8855896H78.0881805z"/>
		<path opacity="0.1" enable-background="new    " d="M60.6821632,177.2084503v-4.8855896
			c0-0.3326721,0.272171-0.60495,0.6049461-0.60495h-2.2588463c-0.3326683,0-0.60495,0.272171-0.60495,0.60495v4.8855896
			c0,0.3326721,0.272171,0.60495,0.60495,0.60495h2.2588463C60.9544449,177.8132935,60.6821632,177.5411224,60.6821632,177.2084503z
			"/>
		<path fill="#00A9FF" d="M62.6007118,186.4171448c0,0.1331024-0.1089783,0.2419739-0.2420921,0.2419739h-2.9092522
			c-0.13311,0-0.2420883-0.1088715-0.2420883-0.2419739v-2.884903c0-0.1331024,0.1089783-0.2419739,0.2420883-0.2419739h2.9092522
			c0.1331139,0,0.2420921,0.1088715,0.2420921,0.2419739V186.4171448L62.6007118,186.4171448z"/>
		<path fill="#BFBFBF" d="M76.6901703,185.8541718H65.5214081c-0.4858627,0-0.8795853-0.3938446-0.8795853-0.8795929
			s0.3937225-0.8795929,0.8795853-0.8795929h11.1687622c0.4858704,0,0.8795929,0.3938446,0.8795929,0.8795929
			C77.5697632,185.4604492,77.1760406,185.8541718,76.6901703,185.8541718z"/>
		<path fill="#76D8FF" d="M62.6007118,192.9439545c0,0.1331177-0.1089783,0.2419891-0.2420921,0.2419891h-2.9092522
			c-0.13311,0-0.2420883-0.1088715-0.2420883-0.2419891v-2.8847809c0-0.1331024,0.1089783-0.2419739,0.2420883-0.2419739h2.9092522
			c0.1331139,0,0.2420921,0.1088715,0.2420921,0.2419739V192.9439545L62.6007118,192.9439545z"/>
		<path fill="#BFBFBF" d="M76.6901703,192.3809814H65.5214081c-0.4858627,0-0.8795853-0.3938293-0.8795853-0.8795776
			c0-0.4857635,0.3937225-0.8795929,0.8795853-0.8795929h11.1687622c0.4858704,0,0.8795929,0.3938293,0.8795929,0.8795929
			C77.5697632,191.9872742,77.1760406,192.3809814,76.6901703,192.3809814z"/>
		<path fill="#00A9FF" d="M62.6007118,199.4706726c0,0.1331024-0.1089783,0.2419739-0.2420921,0.2419739h-2.9092522
			c-0.13311,0-0.2420883-0.1088715-0.2420883-0.2419739v-2.8847809c0-0.1331177,0.1089783-0.2419891,0.2420883-0.2419891h2.9092522
			c0.1331139,0,0.2420921,0.1089783,0.2420921,0.2419891V199.4706726L62.6007118,199.4706726z"/>
		<path fill="#BFBFBF" d="M76.6901703,198.9078064H65.5214081c-0.4858627,0-0.8795853-0.3938293-0.8795853-0.8795929
			c0-0.4857483,0.3937225-0.8795776,0.8795853-0.8795776h11.1687622c0.4858704,0,0.8795929,0.3938293,0.8795929,0.8795776
			C77.5697632,198.5139771,77.1760406,198.9078064,76.6901703,198.9078064z"/>
		<path fill="#76D8FF" d="M62.6007118,205.9973755c0,0.1331177-0.1089783,0.2419739-0.2420921,0.2419739h-2.9092522
			c-0.13311,0-0.2420883-0.1088562-0.2420883-0.2419739v-2.8847809c0-0.1331177,0.1089783-0.2419891,0.2420883-0.2419891h2.9092522
			c0.1331139,0,0.2420921,0.1088715,0.2420921,0.2419891V205.9973755L62.6007118,205.9973755z"/>
		<path fill="#BFBFBF" d="M76.6901703,205.4346313H65.5214081c-0.4858627,0-0.8795853-0.3938293-0.8795853-0.8795929
			c0-0.4857483,0.3937225-0.8795929,0.8795853-0.8795929h11.1687622c0.4858704,0,0.8795929,0.3938446,0.8795929,0.8795929
			C77.5697632,205.040802,77.1760406,205.4346313,76.6901703,205.4346313z"/>
		<path fill="#E5AE00" d="M70.1644745,175.6451263h-3.8172302c-0.4858704,0-0.8795929-0.3938293-0.8795929-0.8795776
			c0-0.4857635,0.3937225-0.8795929,0.8795929-0.8795929h3.8172302c0.4858704,0,0.8795929,0.3938293,0.8795929,0.8795929
			C71.0439529,175.2514038,70.6502304,175.6451263,70.1644745,175.6451263z"/>
	</g>
</g>
</svg>
