<?xml version="1.0" encoding="utf-8"?>
<!-- Generator: Adobe Illustrator 21.0.0, SVG Export Plug-In . SVG Version: 6.00 Build 0)  -->
<svg version="1.1" id="Layer_1" xmlns="http://www.w3.org/2000/svg" xmlns:xlink="http://www.w3.org/1999/xlink" x="0px" y="0px"
	 width="200px" height="270px" viewBox="0 0 200 270" style="enable-background:new 0 0 200 270;" xml:space="preserve">
<style type="text/css">
	.st0{fill:#95D600;}
	.st1{fill:#FFFFFF;}
	.st2{fill:#73A950;}
	.st3{fill:#4A7628;}
	.st4{fill:#CECDCE;}
	.st5{fill:#FF4C00;}
	.st6{fill:#CC3524;}
</style>
<g>
	<path class="st0" d="M176.9794159,157.3718262c-1.1440887,3.7374268-6.0632324,7.187912-12.240799,8.589035
		c-0.0008545,0-0.002533,0-0.002533,0c-2.5541077,0.5773468-5.1807709,0.789978-7.8074493,0.6313782
		c-0.6819916-0.0574799-1.3741302-0.1401825-2.1143494-0.2566223l-0.1071625-0.0134735
		c-4.6245422-0.5233307-8.6515198-2.2857513-10.897522-3.7425385c0.4684601-0.0641174,0.9950867-0.1570587,1.5892792-0.2937622
		c1.9793549-0.4490051,4.333374-1.2541962,7.2259674-2.4815063c1.9134827-0.8372498,3.5610199-1.7369995,5.0288239-2.7482147
		c2.4671631-1.4112396,4.6338501-3.0402069,6.5481415-4.4835815c0.485321-0.3663025,0.9546051-0.717392,1.4137726-1.055069
		c4.1459656-2.8090057,7.1052094-3.1735535,9.1916809-0.9723358
		C176.9406128,152.8156586,177.6715546,155.1148682,176.9794159,157.3718262z"/>
	<path class="st0" d="M28.8830833,124.9236526c-5.3925896,8.6827011-6.7515411,19.5797958-3.228447,25.9219894
		c1.6264553,2.9271393,4.1045914,4.4143677,7.3634491,4.4143677h0.0017281c1.082016,0,2.2586861-0.1654205,3.4968987-0.4911804
		c5.9648399-1.5750122,5.8121223-4.6828156,4.4919777-13.4372711c-0.4396629-2.9203949-0.9385376-6.225235-1.0212517-9.7112579
		c-0.2337952-2.1590424-0.2439156-4.4506531-0.0320778-6.9996643c0.6930122-7.2934494,1.833271-10.6805573,2.7659569-12.5383224
		c-3.013237,1.2010422-8.3459892,4.9993286-12.2217903,10.5607071l-0.0624886,0.0869522
		C29.8689861,123.4777374,29.3608627,124.1960678,28.8830833,124.9236526z"/>
	<path class="st0" d="M96.8695221,202.7140808c-2.1109695,0-4.4743423-0.82547-7.2250748-2.5254211l-0.3772659-0.2362823
		c-0.1308594-0.0827179-0.2624969-0.1654358-0.3967285-0.2532654l-0.9731979-0.6448669l0.015213-0.0168457
		c-2.4097672-1.7133942-4.8870468-3.9670105-7.3786697-6.7118225c-0.3873825-0.425415-0.7663803-0.859314-1.1428604-1.2948303
		c-1.5842819-1.8382874-3.1668167-3.8640747-4.7038269-6.028183c-2.8183212-3.963623-5.4610291-8.3577423-7.8555908-13.0574188
		c-8.1721039-16.5804901-12.068222-36.2970276-10.9777222-55.5287018
		c1.1166916-19.6925125,7.4639626-37.646225,17.8744354-50.5542679
		c12.1053238-15.0105629,29.733345-23.6206894,48.3648529-23.6206894c18.8678818,0,35.426384,8.6675186,44.2956467,23.1843109
		c5.7006989,10.0948181,7.7103882,21.6785889,5.8306885,33.5307236
		c-3.3871613,21.3510208-18.6517944,42.3310928-42.9823456,59.0770035
		c-18.1926041,12.5223083-20.7365952,23.4139557-22.5943298,31.3648682
		c-0.1594772,0.6785583-0.3080444,1.3133087-0.4583359,1.9243774l-0.0101242,0.0405273
		c-0.4135818,1.6745911-0.7840881,2.8832397-1.2035599,3.9332733
		C104.3047028,197.1095886,102.2452545,202.7140808,96.8695221,202.7140808z"/>
	<g>
		<path class="st1" d="M71.2518463,83.9518509c-0.4009399,0-0.8077698-0.0919571-1.190155-0.2861557
			c-1.2939453-0.6583557-1.8095932-2.2408829-1.1512604-3.5357132c2.2206573-4.3662109,4.8051147-8.3898163,7.6816864-11.9567947
			c6.628273-8.2192764,15.1700287-14.5454712,24.7018661-18.2946587c1.3504868-0.5326805,2.8782272,0.1332817,3.4091568,1.4837456
			c0.5308609,1.3513451-0.1324997,2.878231-1.4847107,3.4091606c-8.6843872,3.4158211-16.4758224,9.1917191-22.5327148,16.7028847
			c-2.6486588,3.2833252-5.0330353,6.9971619-7.0883408,11.0392609
			C73.1332016,83.4259949,72.2098541,83.9518509,71.2518463,83.9518509z"/>
	</g>
	<circle class="st1" cx="109.0137177" cy="50.0261955" r="2.6680455"/>
	<g>
		<path class="st1" d="M162.7618561,67.557106c-7.6732178-12.5097046-21.6954651-20.242054-37.8927231-21.0362473
			c13.6702042,3.2808151,25.1838913,11.2545624,32.1624832,22.6779175
			c5.9876556,10.6020889,8.0986328,22.7673645,6.1235504,35.2153625
			c-1.3361206,8.4269714-4.4363251,16.7983017-9.1401978,24.9002991
			c7.5567627-9.9276581,12.3720703-20.4429092,14.0491638-31.0179367
			C169.7911072,87.4175262,167.9569855,76.7892685,162.7618561,67.557106z"/>
	</g>
	<path class="st2" d="M169.569931,162.1001892c-2.5523987,0.5773621-5.1799164,0.789978-7.8065948,0.6330109
		c-0.6819916-0.0573883-1.374115-0.1418304-2.1151886-0.2565918l-0.1072083-0.013504
		c-3.0428009-0.3460693-5.8222656-1.2255859-8.0117188-2.2046814c-2.3996429,0.9757233-4.407608,1.6375275-6.1303558,2.0274048
		c-0.5942078,0.136734-1.1208191,0.2296448-1.5892944,0.2937775c2.2459717,1.4567871,6.2729492,3.2191925,10.897522,3.7425385
		l0.1071777,0.0134583c0.7402039,0.1164398,1.4323425,0.1991425,2.1143341,0.2566223
		c2.6266785,0.1585999,5.2533569-0.0540161,7.8074493-0.6313782c0,0,0.0016937,0,0.002533,0
		c4.7579193-1.0787354,8.7620697-3.3762207,10.8772736-6.0821991c-1.7767487,0.9486542-3.8269348,1.7201385-6.043396,2.2198029
		L169.569931,162.1001892z"/>
	<path class="st1" d="M39.5788612,116.387764c0,0-3.5922241,14.0213699,0.4389687,28.8331528
		C35.7232819,137.4184723,32.8307114,126.4666061,39.5788612,116.387764z"/>
	<g>
		<path class="st3" d="M44.35112,106.4170532c-0.3299942,0-0.6785774,0.0338058-1.0381088,0.0878067
			c-12.8042583,1.5040588-29.3940163,22.1039352-25.5552711,41.5368729
			c3.941658,19.9465179,25.8599472,14.1833344,28.3853531,5.3883514c1.4500542-3.6935272,0.7511635-8.3307037,0.0650024-12.8818817
			c-0.4422684-2.9338837-0.8997345-5.96698-0.9664688-9.1575012l-0.0152168-0.2388153
			c-0.208477-1.8502197-0.2177238-3.8438187-0.0329285-6.064476c0.8136559-8.5772858,2.1683617-10.6477203,2.8183212-11.6436768
			c0.5123672-0.7841873,1.2871208-1.9683762,0.7081146-3.9611206
			C48.1628876,107.5632858,46.5296059,106.4170532,44.35112,106.4170532z M39.9874191,131.620285
			c0.0827103,3.4859924,0.5815887,6.7908478,1.0212517,9.7112579c1.3201408,8.7544556,1.4728622,11.8622589-4.4919815,13.4372711
			c-1.2382126,0.3257446-2.4148598,0.4911652-3.4968948,0.4911652h-0.001709c-3.2588615,0-5.7369938-1.4871979-7.3634491-4.4143677
			c-3.5230942-6.3421783-2.1641426-17.2392578,3.228447-25.9219742c0.4777794-0.7275696,0.9859028-1.4459,1.5539341-2.1937027
			l0.0624886-0.0869522c3.8757992-5.5613785,9.2085743-9.3596497,12.2217884-10.5606995
			c-0.932663,1.8577347-2.0729446,5.244873-2.7659531,12.5383148
			C39.7434998,127.1696243,39.753624,129.4612579,39.9874191,131.620285z"/>
		<circle class="st3" cx="98.6893234" cy="99.2686005" r="4.8543267"/>
		<circle class="st3" cx="141.9488678" cy="113.0563202" r="4.4236531"/>
		<path class="st3" d="M176.2856445,100.1111679c2.4857483-15.6638947-1.2268829-30.5106812-10.7384338-42.9367027
			C156.0238037,44.7306175,138.6676941,37,120.252182,37c-29.6708298,0-53.9565964,18.8931084-64.9663849,50.5407104
			c-13.4566383,38.6811295,0.1468391,78.2581177,15.8849831,100.3958282
			c5.6779022,7.9880829,11.7086639,13.8524933,17.2143784,16.9230957h-0.0017319
			c0.0304337,0.015213,0.0599747,0.0321655,0.0903168,0.047287c1.0626678,0.5874634,2.1059647,1.0720062,3.1230011,1.4433746
			c6.0290527,2.2873077,11.4520569,1.1596527,15.8132477-6.2071838c0.1274948-0.2093201,0.2490158-0.4202728,0.3662949-0.6347351
			c0.0068283-0.0134888,0.0143509-0.0235901,0.0211639-0.0354462c0,0-0.0008545,0-0.0017319,0
			c1.4636154-2.6739044,2.1497803-5.6045074,2.8554077-8.6227722c1.7961197-7.6876373,4.0320663-17.2557678,20.8834229-28.85466
			C156.8231201,144.5895538,172.7165833,122.6118088,176.2856445,100.1111679z M165.4037323,66.4707565
			c5.5816956,9.8846359,7.5491333,21.0945129,5.6897278,32.8166351c-1.7792664,11.21315-6.9220428,22.3242416-14.9497986,32.7726364
			c-4.7249603,5.5796204-12.8515015,9.2697754-21.6591187,9.9433289
			c-30.3857117,1.7725067-50.7602539-11.4752045-63.1922455-24.2743759
			c-7.3719177-7.8412323-12.7206039-19.6781616-7.8656998-31.5556183
			c2.799736-7.0090103,6.4654465-13.4912949,11.0317459-19.1539688
			C100.7479172,34.4205666,147.9446411,37.890419,165.4037323,66.4707565z M105.0761871,191.5659332
			c-0.0008774,0.0033569-0.0008774,0.0033569-0.0016403,0.0067291c-0.3460693,1.4044952-0.7048416,2.6705475-1.1673279,3.8286285
			c-2.1067505,5.734375-5.6686249,9.4094391-13.7976837,4.3890076c-0.0674896-0.0405273-0.1375885-0.0878448-0.2059631-0.1316376
			c-0.1797714-0.1131287-0.3570404-0.2194366-0.5409622-0.3410492c0-0.0016479,0.0016403-0.0033569,0.0016403-0.0033569
			c-2.4173813-1.5867767-5.1689911-3.9264679-8.1400299-7.1980133c-0.3806305-0.4220428-0.7536774-0.8474731-1.1259384-1.2796173
			c-1.5040588-1.7420959-3.0554123-3.7137299-4.6422806-5.947113c-1.4922256-2.0983582-2.9592133-4.3772736-4.3873825-6.7878265
			c1.6509933,1.0111542,3.4876556,2.0205841,5.5099335,2.9507446c6.0510101,2.7802734,12.2235489,4.1696014,18.3513565,4.1696014
			c2.3185883,0,4.6304321-0.2024994,6.9270706-0.6009521l-0.0025177,0.0033569
			c4.3408966-0.9959717,4.8760681,0.0033569,4.2379608,2.6807251c0.0017395,0,0.0025177,0,0.0042267,0
			c-0.2008667,0.805191-0.389122,1.5952606-0.5655212,2.3497925
			C105.3749771,190.3183899,105.2264099,190.9548645,105.0761871,191.5659332z"/>
		<path class="st3" d="M178.6413879,146.9444427c-2.8085327-2.9930267-5.9003448-4.1341553-9.187912-3.3880005
			c-2.884964,0.6549683-5.4474945,2.5810699-8.4143219,4.8144379c-1.9024963,1.433197-3.8708191,2.9136658-6.0847473,4.1713257
			l-0.2033844,0.1282501c-0.1139984,0.0793457-0.2363739,0.1536865-0.3527985,0.2312775l0.0067596,0.0033722
			c-0.0607605,0.0371704-0.1190033,0.0725861-0.1790009,0.108017c-0.4962921,0.3241272-1.0161591,0.6364136-1.571579,0.9351807
			c-8.6818695,4.8685455-13.6457367,3.0386505-14.7505798,6.0501251c-0.9875641,2.6908569,1.6896973,6.1581879,4.9115143,8.0590515
			c3.3357086,1.7589569,7.5449677,3.0554199,11.245224,3.4825439c0.8550568,0.1333466,1.6602478,0.2278137,2.4604187,0.2954254
			l0.0574036,0.0033722c3.1339417,0.1923981,6.269577-0.0591278,9.3191376-0.749527c0.0008392,0,0.0008392,0,0.002533,0
			c8.2041779-1.860321,14.375412-6.5245514,16.1065369-12.1779938
			C183.2557373,154.8379669,182.0597229,150.5890198,178.6413879,146.9444427z M176.9794159,157.3718262
			c-1.1440887,3.7374268-6.0632324,7.187912-12.240799,8.589035c-0.0008545,0-0.002533,0-0.002533,0
			c-2.5541077,0.5773468-5.1807709,0.789978-7.8074493,0.6313782c-0.6819916-0.0574799-1.3741302-0.1401825-2.1143494-0.2566223
			l-0.1071625-0.0134735c-4.6245422-0.5233307-8.6515198-2.2857513-10.897522-3.7425385
			c0.4684601-0.0641174,0.9950867-0.1570587,1.5892792-0.2937622c1.9793549-0.4490051,4.333374-1.2541962,7.2259674-2.4815063
			c1.9134827-0.8372498,3.5610199-1.7369995,5.0288239-2.7482147c2.4671631-1.4112396,4.6338501-3.0402069,6.5481415-4.4835815
			c0.485321-0.3663025,0.9546051-0.717392,1.4137726-1.055069c4.1459656-2.8090057,7.1052094-3.1735535,9.1916809-0.9723358
			C176.9406128,152.8156586,177.6715546,155.1148682,176.9794159,157.3718262z"/>
		<path class="st3" d="M120.6868439,124.8451767c-5.1714783,0.3503113-8.9392471-2.3667374-8.9392471-2.3667374
			C114.1708527,126.1534653,116.8304062,126.2024002,120.6868439,124.8451767z"/>
	</g>
	<ellipse class="st4" cx="98.6893005" cy="227.2155914" rx="18.1478653" ry="5.7842402"/>
	<path class="st5" d="M74.2363815,132.252533c-7.8910217-5.7598267-13.561306-12.0184402-17.3013344-16.9172211
		c-1.2559242,17.5114288,1.6728706,35.8462982,8.6194649,51.9810486l0.0328369-0.0320435
		c0.0515137,0.0540161,5.1884232,5.3512573,13.3511887,9.065094c10.5362396,4.7924957,21.0362473,4.8566895,31.2196732,0.2127228
		c3.1221237-5.6906128,8.4548035-12.056366,18.395195-18.8999634c5.1833344-3.5668945,9.9235229-7.3364868,14.2475586-11.2511597
		c-6.5287018,1.119278-12.6607819,1.6307526-18.3850708,1.6307526
		C101.5328903,148.0417328,84.9971619,140.1059418,74.2363815,132.252533z"/>
	<path class="st5" d="M133.0893707,116.0737762c-0.5866852-1.0770111-1.8552551-1.685585-3.677536-1.2694168l0.0007782-0.0067291
		c-2.6485901,0.5891113-6.0898209,0.4043121-9.6338959-0.7013779c-3.5450211-1.1065674-6.4797821-2.9111557-8.3231812-4.9022369
		l-0.0025177,0.0058746c-2.2949982-2.5068436-5.0111465-1.1917953-5.6053772,1.6653366l-0.0025101-0.0033722
		c-0.0076141,0.0354385-0.0127029,0.0726166-0.0203094,0.1088181c-0.0050125,0.0295639-0.0109787,0.0591049-0.0160065,0.0895386
		c-0.4701691,2.4645767,0.6650848,5.038887,2.8773499,7.1135788c0.0008545-0.0007782,0.0008545-0.0007782,0.0008545-0.0007782
		c6.2163467,6.5363083,17.0944977,6.7827377,22.0414505,3.0596542c0.4507294-0.3570404,0.8508301-0.7309418,1.1935272-1.1166992
		c0.0624084-0.0742493,0.1299896-0.145195,0.1898956-0.2211761
		C133.1509094,118.6304703,133.5695953,117.2690125,133.0893707,116.0737762z"/>
	<path class="st1" d="M105.8831024,150.0555725c-2.0536041-0.2937012-3.9965591,0.2397766-5.5724411,1.5057831l0.0093384-0.3207397
		c0.0497894-1.0567017-0.7224808-1.96492-1.7969742-2.118515c-1.134407-0.1620483-2.1911926,0.6296539-2.3523788,1.7640533
		l-3.2512512,22.7234497c-0.1679382,1.1799469,0.6854019,2.3177185,1.8644714,2.4865112
		c1.179184,0.1688843,2.3178024-0.6853027,2.4857407-1.8636169l0.871048-6.0889435
		c1.1267929,1.4618835,2.823349,2.4089203,4.8870468,2.7025909c4.8937836,0.7006226,8.2337189-2.619873,9.1621628-9.1106415
		C113.149498,155.0219727,110.8512268,150.7662964,105.8831024,150.0555725z M104.4659958,153.8960266
		c1.5547256,0.2228241,4.0454712,1.4197083,3.2580109,6.9296417c-0.8111343,5.6702881-3.5888519,6.1362152-5.1732101,5.9083099
		c-1.5977478-0.2261963-4.1619797-1.4281158-3.377861-6.9093628
		C99.9882736,154.1239624,102.8386688,153.6647491,104.4659958,153.8960266z"/>
	<path class="st6" d="M63.5321388,122.9519958c-2.6393394-2.7094421-4.8397789-5.3150406-6.597065-7.616684
		c-1.255928,17.5114288,1.6728706,35.8462982,8.6194611,51.9810486l0.0328369-0.0320435
		c0.0481491,0.0506439,4.5655212,4.7098541,11.8554993,8.3509827c-1.1335297-1.8551483-2.2350006-3.7627563-3.2757187-5.7478943
		C67.0290375,155.8171234,63.3194237,139.317627,63.5321388,122.9519958z"/>
	<path class="st2" d="M36.4736633,149.6538544h-0.0008507c-3.2597389,0-5.7369976-1.4855652-7.3643055-4.4143677
		c-3.0951672-5.5724335-2.418251-14.6573334,1.4475422-22.6715927c-0.0177097,0.0261917-0.0388088,0.0490036-0.0565186,0.0750961
		l-0.0624886,0.0869522c-0.5680313,0.7477951-1.0761566,1.4661255-1.553936,2.1937103
		c-5.3926125,8.6827011-6.751564,19.5797958-3.2284698,25.9219894c1.6264553,2.9271393,4.1045914,4.4143677,7.3634491,4.4143677
		h0.0017281c1.082016,0,2.2586861-0.1654205,3.4968987-0.4911804c0.4405403-0.1165161,0.8372421-0.2431183,1.2120171-0.3781433
		c0.1122742-0.0405273,0.21521-0.0844421,0.3216057-0.1266022c0.2616234-0.1030273,0.5081215-0.2110596,0.7376747-0.3258514
		c0.0970535-0.0489349,0.1949844-0.0979309,0.2869453-0.1484985c0.2549591-0.1418304,0.4887543-0.2937622,0.7022552-0.4541016
		c0.0355339-0.0270386,0.0777092-0.0506592,0.1114197-0.0776978c0.2414017-0.1924133,0.4516106-0.4001007,0.6407127-0.6211853
		c0.0489082-0.0574036,0.089447-0.1216125,0.1350098-0.1806488c0.1333733-0.1738739,0.2548943-0.3561707,0.3612862-0.550293
		c0.0421753-0.077713,0.0843506-0.1570282,0.1223755-0.2380371c0.1020775-0.2127228,0.1890144-0.4389038,0.2624779-0.6769104
		c0.0185852-0.0591278,0.0430489-0.1147919,0.059906-0.1756287c0.0844421-0.3071594,0.1494446-0.6346436,0.1949844-0.9841003
		c0.0076103-0.0624847,0.0101013-0.1299896,0.0177116-0.1941376c0.032074-0.2971344,0.0531502-0.6077881,0.0616112-0.9352722
		c0.0008545-0.043808,0.0008545-0.0894623,0.0017281-0.1316376c-0.5217056,0.2210846-1.1074219,0.4169464-1.7758751,0.5924683
		C38.7323456,149.4900665,37.5556984,149.6538544,36.4736633,149.6538544z"/>
	<path class="st1" d="M174.8072662,150.5451202c-2.0864563-2.2012177-5.0457001-1.8366394-9.1916809,0.9723511
		c-0.4591522,0.3376617-0.9284515,0.6887665-1.4137726,1.0550537c-1.111618,0.837326-2.3186188,1.7354279-3.6100006,2.6199799
		l-0.0278473,0.0287018c8.1670074-5.7699432,13.7258911-4.9529114,16.3665161,2.2636871
		c0.012619-0.0388031,0.0370789-0.075882,0.0489197-0.1130524
		C177.6715546,155.1148682,176.9406128,152.8156586,174.8072662,150.5451202z"/>
	<path class="st2" d="M71.0686264,178.1016846c1.4281693,2.410553,2.8951492,4.6894836,4.3873825,6.7878265
		c1.5868683,2.2333832,3.1382141,4.2050171,4.6422729,5.947113c0.372261,0.4321442,0.745285,0.8575745,1.125946,1.2796173
		c2.9710617,3.2715759,5.7226486,5.6112366,8.1400299,7.1980133c0,0-0.0016327,0.0017548-0.0016327,0.0033569
		c0.1839371,0.1216125,0.3611908,0.2279053,0.5409546,0.3410492c0.0683746,0.0437927,0.1384735,0.0911102,0.2059631,0.1316376
		c8.1290512,5.0204315,11.6909561,1.3453674,13.7976837-4.3890076c0.4624863-1.1580811,0.8212585-2.4241333,1.1673355-3.8286285
		c0.0007782-0.0033569,0.0007782-0.0033569,0.0016327-0.0067291c0.0700989-0.2853241,0.1426849-0.5959625,0.2126923-0.8930054
		c-1.3166809,5.2533417-4.7545471,8.4776154-12.0344162,3.5771027c-1.9708862-1.4788208-3.9788284-3.2901459-5.9995041-5.4525604
		c-0.3705292-0.3950806-0.7317963-0.7967987-1.0922318-1.2002716c-1.1579895-1.3049469-2.3084641-2.7381134-3.4453812-4.2253265
		c-2.0552368-0.6211853-4.1045914-1.384201-6.1388168-2.319458
		C74.5562515,180.1222687,72.7196121,179.1128387,71.0686264,178.1016846z"/>
</g>
</svg>
