<?xml version="1.0" encoding="utf-8"?>
<!-- Generator: Adobe Illustrator 21.0.0, SVG Export Plug-In . SVG Version: 6.00 Build 0)  -->
<svg version="1.1" id="Layer_1" xmlns="http://www.w3.org/2000/svg" xmlns:xlink="http://www.w3.org/1999/xlink" x="0px" y="0px"
	 width="140px" height="140px" viewBox="0 0 140 140" enable-background="new 0 0 140 140" xml:space="preserve">
<g>
	<path fill="#EDBE44" d="M104.004776,64.2909088H37.2316895c0-4.971199-4.0673409-9.0385437-9.0385399-9.0385437V35.0468407
		c4.991848,0,9.0385399-4.0466938,9.0385399-9.0385418h66.7730865c0,4.991848,4.0466919,9.0385418,9.0385361,9.0385418v20.2055244
		C108.0514679,55.2523651,104.004776,59.299057,104.004776,64.2909088z"/>
	<g id="_x34_IjwN9.tif">
		<g>
			<path d="M122.6098175,76.0871201c-35.1286469,0-70.1462631,0-105.219635,0c0-19.5748825,0-39.0749893,0-58.6713638
				c35.0604057,0,70.1014938,0,105.219635,0C122.6098175,36.9547424,122.6098175,56.4789352,122.6098175,76.0871201z
				 M21.7555237,71.7181549c32.1873283,0,64.3265686,0,96.4919434,0c0-16.6912384,0-33.3087692,0-49.9388809
				c-32.2043381,0-64.3406601,0-96.4919434,0C21.7555237,38.4587555,21.7555237,55.0515213,21.7555237,71.7181549z"/>
			<path d="M120.4877853,87.6166916c0,1.4916687,0,2.8389053,0,4.2715073c-33.6277771,0-67.2242279,0-100.9021759,0
				c0-1.4123077,0-2.805397,0-4.2715073C53.2139282,87.6166916,86.8111954,87.6166916,120.4877853,87.6166916z"/>
			<path d="M120.458374,102.9755402c0,1.4282379,0,2.7955933,0,4.2582779c-33.6188812,0-67.2037811,0-100.8714828,0
				c0-1.4088287,0-2.8016052,0-4.2582779C53.2177391,102.9755402,86.806076,102.9755402,120.458374,102.9755402z"/>
			<path d="M120.4776382,118.3477631c0,1.4635391,0,2.8063278,0,4.2364807c-33.6312485,0-67.2179489,0-100.8870163,0
				c0-1.3882065,0-2.7814255,0-4.2364807C53.2097702,118.3477631,86.7977142,118.3477631,120.4776382,118.3477631z"/>
			<path d="M70.5587692,62.1751785c-3.2380676-0.0280151-5.390213-1.2417946-7.2251015-3.1092377
				c-6.322525-6.4347305-6.2331276-18.4841309,0.1742058-24.8508034c4.2747803-4.2476559,9.8964157-3.8561707,13.9218674,0.9695053
				c5.4131012,6.489193,5.2513809,17.2141037-0.3762665,23.4801674
				C75.1810532,60.7496376,72.9236069,62.116024,70.5587692,62.1751785z M76.9326172,46.2182388
				c-0.0299454-2.7541504-0.5679245-5.8537025-2.7327118-8.4393692c-2.240448-2.676033-5.9366837-2.7472801-8.2390671-0.1279144
				c-0.6298141,0.716526-1.1570282,1.5622482-1.5658188,2.4269257c-1.3919983,2.9443703-1.5035515,6.0783157-1.1380539,9.2438698
				c0.2447357,2.1196136,0.8798065,4.1188698,2.179184,5.859005c2.5397415,3.4012413,6.6624908,3.4031372,9.1614456-0.0189629
				C76.4349899,52.6456375,76.9250183,49.7423172,76.9326172,46.2182388z"/>
			<path d="M44.6415634,49.0323601c-2.7007828,0.0000725-5.4020309-0.0281715-8.1020775,0.0164337
				c-0.8652649,0.0142975-1.1824799-0.2752037-1.118309-1.1328125c0.0592804-0.7921677,0.0664635-1.5955429,0.0072136-2.3872948
				c-0.0647049-0.8646431,0.2637062-1.1423302,1.1215477-1.1351089c3.8084412,0.0320778,7.6173363,0.0085411,11.4260674,0.007431
				c1.5927353-0.0004616,3.1861496,0.0332603,4.7779083-0.0046997c0.7771912-0.0185394,1.0547485,0.2978973,1.0268707,1.0410042
				c-0.0324287,0.8644028-0.0390549,1.7320747-0.0027847,2.5960579c0.0319595,0.761116-0.2643204,1.0240898-1.0342789,1.0134239
				C50.0434532,49.009388,47.3423462,49.0322838,44.6415634,49.0323601z"/>
			<path d="M95.3831558,49.0327225c-2.7008133,0.0004807-5.4019318-0.0225258-8.1022263,0.0150375
				c-0.7718658,0.0107346-1.065361-0.2590332-1.0353775-1.0157471c0.0356064-0.8988686,0.0289078-1.8004532,0.008522-2.7001381
				c-0.0147476-0.6510239,0.2390137-0.930809,0.9163818-0.928997c5.5053482,0.0147476,11.0107727,0.0134621,16.5161438,0.0012665
				c0.6585083-0.0014572,0.9440384,0.2366104,0.9148026,0.9162979c-0.0386658,0.8987236-0.0526581,1.8022308-0.0048599,2.6998291
				c0.0406189,0.7629051-0.2318802,1.0353584-1.0072403,1.0254974
				C100.8543091,49.010994,98.1185913,49.0322418,95.3831558,49.0327225z"/>
			<path fill="#FFFFFF" d="M95.3831558,38.3663406c-2.7008133,0.0004845-5.4019318-0.022522-8.1022263,0.0150414
				c-0.7718658,0.0107346-1.065361-0.2590332-1.0353775-1.0157509c0.0356064-0.8988647,0.0289078-1.8004494,0.008522-2.7001343
				c-0.0147476-0.6510239,0.2390137-0.9308128,0.9163818-0.928997c5.5053482,0.0147438,11.0107727,0.0134621,16.5161438,0.0012665
				c0.6585083-0.0014572,0.9440384,0.2366104,0.9148026,0.9162941c-0.0386658,0.8987274-0.0526581,1.8022346-0.0048599,2.6998291
				c0.0406189,0.7629051-0.2318802,1.0353622-1.0072403,1.0255013
				C100.8543091,38.3446159,98.1185913,38.3658638,95.3831558,38.3663406z"/>
			<path fill="#FFFFFF" d="M95.3831558,59.101181c-2.7008133,0.0004845-5.4019318-0.022522-8.1022263,0.0150414
				c-0.7718658,0.0107346-1.065361-0.2590332-1.0353775-1.0157509c0.0356064-0.8988647,0.0289078-1.8004494,0.008522-2.7001343
				c-0.0147476-0.6510239,0.2390137-0.9308128,0.9163818-0.928997c5.5053482,0.0147438,11.0107727,0.0134621,16.5161438,0.0012665
				c0.6585083-0.001461,0.9440384,0.2366104,0.9148026,0.9162941c-0.0386658,0.8987274-0.0526581,1.8022346-0.0048599,2.6998291
				c0.0406189,0.7629051-0.2318802,1.0353622-1.0072403,1.0255013
				C100.8543091,59.0794563,98.1185913,59.1007042,95.3831558,59.101181z"/>
			<path fill="#FFFFFF" d="M45.6767769,38.3663406c-2.7008133,0.0004845-5.4019356-0.022522-8.1022301,0.0150414
				c-0.771862,0.0107346-1.0653572-0.2590332-1.0353737-1.0157509c0.0356064-0.8988647,0.028904-1.8004494,0.008522-2.7001343
				c-0.0147476-0.6510239,0.2390137-0.9308128,0.916378-0.928997c5.5053482,0.0147438,11.0107765,0.0134621,16.5161438,0.0012665
				c0.6585159-0.0014572,0.9440422,0.2366104,0.9148026,0.9162941c-0.0386658,0.8987274-0.0526543,1.8022346-0.0048599,2.6998291
				c0.0406189,0.7629051-0.2318802,1.0353622-1.0072403,1.0255013
				C51.1479263,38.3446159,48.4122124,38.3658638,45.6767769,38.3663406z"/>
			<path fill="#FFFFFF" d="M45.6767769,59.101181c-2.7008133,0.0004845-5.4019356-0.022522-8.1022301,0.0150414
				c-0.771862,0.0107346-1.0653572-0.2590332-1.0353737-1.0157509c0.0356064-0.8988647,0.028904-1.8004494,0.008522-2.7001343
				c-0.0147476-0.6510239,0.2390137-0.9308128,0.916378-0.928997c5.5053482,0.0147438,11.0107765,0.0134621,16.5161438,0.0012665
				c0.6585159-0.001461,0.9440422,0.2366104,0.9148026,0.9162941c-0.0386658,0.8987274-0.0526543,1.8022346-0.0048599,2.6998291
				c0.0406189,0.7629051-0.2318802,1.0353622-1.0072403,1.0255013
				C51.1479263,59.0794563,48.4122124,59.1007042,45.6767769,59.101181z"/>
		</g>
	</g>
</g>
<g>
</g>
<g>
</g>
<g>
</g>
<g>
</g>
<g>
</g>
</svg>
