<?xml version="1.0" encoding="utf-8"?>
<!-- Generator: Adobe Illustrator 21.0.0, SVG Export Plug-In . SVG Version: 6.00 Build 0)  -->
<svg version="1.1" id="Capa_1" xmlns="http://www.w3.org/2000/svg" xmlns:xlink="http://www.w3.org/1999/xlink" x="0px" y="0px"
	 width="230px" height="60px" viewBox="0 0 230 60" style="enable-background:new 0 0 230 60;" xml:space="preserve">
<style type="text/css">
	.st0{fill-rule:evenodd;clip-rule:evenodd;}
	.st1{fill:#9F2F3F;}
</style>
<g>
	<path class="st0" d="M201.05626,21.49228c-0.95204,0-2.04839,0.05893-2.55603,0.10146v5.90483
		c0.79108,0.07218,1.85809,0.12737,2.63651,0.12737c4.90625,0,5.52197-1.71465,5.52197-3.07344
		C206.65871,22.99506,205.89063,21.49228,201.05626,21.49228z M201.13673,27.33992c-0.70885,0-1.62697-0.04053-2.36975-0.10752
		v-5.3785c0.46913-0.02099,0.85487-0.08051,2.28928-0.08051c4.58888,0,5.3213,1.34012,5.3213,2.77912
		C206.37756,25.79716,205.74863,27.33992,201.13673,27.33992z M175.85129,20.79779c-2.76183,0-5.6105,1.82878-5.6105,5.54122
		c0,3.68054,3.10509,5.5024,5.6105,5.5024c2.49162,0,5.66223-1.50481,5.66223-5.41589
		C181.51352,22.3325,178.32396,20.79779,175.85129,20.79779z M175.85129,31.55827c-2.1306,0-5.2989-1.704-5.2989-5.21926
		c0-3.46266,2.65608-5.2532,5.2989-5.2532c2.153,0,5.35696,1.4223,5.35696,5.33971
		C181.20825,30.15954,178.03824,31.55827,175.85129,31.55827z M214.42854,38.60374c-0.5824,0-0.82385-0.14603-1.39702-0.79395
		c-1.52409-1.72702-3.16656-4.12236-4.17555-5.96838c3.7438-1.40935,5.83931-4.04818,5.83931-7.51084
		c0-4.11229-2.5083-9.02684-14.45137-9.02684c-3.80069,0-7.64624,0.16498-11.4498,0.40214v2.18835h0.61343
		c1.07909,0,1.31651,0.2774,1.31651,1.38869v17.91748c0,1.24466-0.29205,1.42204-1.29526,1.42204h-0.63469v2.12742h11.93674
		v-2.12742h-0.54153c-0.93195,0-1.42233-0.186-1.42233-1.42204v-3.77338h2.38644c0.96986,2.66037,2.33926,5.05368,4.16115,7.32284
		H215v-2.14611H214.42854z M214.69528,40.46642h-9.2364c-1.72299-2.21193-3.18727-4.74756-4.09564-7.32084h-2.86301v4.09734
		c0,1.35448,0.59618,1.66349,1.56375,1.66349h0.36391v1.56001h-11.36932v-1.56001h0.44672
		c1.13831,0,1.48152-0.27106,1.48152-1.66349v-18.0681c0-1.17452-0.32655-1.55597-1.48152-1.55597h-0.44672v-1.65028
		c3.67651-0.22047,7.45595-0.38978,11.18535-0.38978c9.28471,0,14.16277,3.00329,14.16277,8.75177
		c0,3.47935-2.0863,5.98737-5.93817,7.34786c0.70251,1.64454,3.09586,4.95081,4.32156,6.3113
		c0.61398,0.6879,0.93996,0.91669,1.51544,0.91669h0.38977V40.46642z M175.94499,15.03495
		c-6.34291,0-12.80025,4.12033-12.80025,11.30406c0,7.26824,6.24808,11.10313,12.70654,11.10313
		c6.49583,0,12.7652-3.8349,12.7652-11.10313C188.61649,18.85115,182.16315,15.03495,175.94499,15.03495z M175.85129,37.16245
		c-6.16875,0-12.40416-3.71677-12.40416-10.82344c0-6.93594,6.38374-11.02266,12.49786-11.02266
		c6.04053,0,12.36618,3.82886,12.36618,11.02266C188.31117,33.44567,182.0591,37.16245,175.85129,37.16245z M151.85361,17.67404
		h0.5502c0.69446,0,1.01987,0.16528,1.01987,1.1938v14.8466c0,0.86151-0.22824,1.05207-0.99458,1.05207h-0.57549v2.05301h10.33679
		v-2.05301h-0.57146c-0.74968,0-0.99055-0.16902-0.99055-1.05207V18.83391c0-0.92903,0.26215-1.15986,0.99055-1.15986h0.57146
		v-2.0274h-10.33679V17.67404z M152.14107,15.92404h9.76131v1.47261h-0.36853c-0.72839,0-1.18947,0.26933-1.18947,1.37603v14.99925
		c0,0.95234,0.3576,1.27831,1.18947,1.27831h0.36853v1.47923h-9.76131v-1.47923h0.3622c0.84222,0,1.1958-0.33862,1.1958-1.25732
		V18.77268c0-1.17911-0.58411-1.37603-1.1958-1.37603h-0.3622V15.92404z M145.24393,23.68496l-4.93784-1.15986
		c-1.74829-0.41021-2.20937-0.70915-2.20937-1.11333c0-0.56972,1.27802-0.95231,3.71619-0.95231
		c3.46495,0,4.95052,0.56483,5.51564,2.59053l2.2496-0.74509l-1.47523-6.96323c-0.42772,0.18223-0.93535,0.42802-1.54419,0.42802
		c-1.0946,0-2.8452-0.63127-5.13504-0.63127c-6.83849,0-11.03932,2.55488-11.03932,6.95893
		c0,2.31543,1.08371,5.19197,5.94279,6.31333l4.73434,1.09634c1.8075,0.41939,2.19095,0.67321,2.19095,1.15786
		c0,0.66688-1.58731,1.15583-4.40605,1.15583c-3.19647,0-5.18161-0.60566-6.39639-2.63706l-1.92421,0.63065l1.56259,7.09863
		c0.50131-0.18023,0.99229-0.40241,1.64021-0.40241c1.37515,0,3.33501,0.93162,6.01062,0.93162
		c9.23183,0,11.10484-4.229,11.10484-7.71265C150.84407,26.64802,148.82732,24.52259,145.24393,23.68496z M139.73923,37.16245
		c-2.51004,0-4.79182-0.93998-6.01062-0.93998c-0.56342,0-1.04578,0.17823-1.43785,0.30701l-1.42-6.51655l1.50107-0.5059
		c1.39873,2.21626,3.73976,2.59915,6.47458,2.59915c2.13231,0,4.66821-0.34524,4.66821-1.44129
		c0-0.65196-0.35126-0.92503-2.37436-1.40135l-4.66705-1.09172c-3.76909-0.88912-5.80312-2.98204-5.80312-6.06985
		c0-4.25432,4.1945-6.68416,10.7536-6.68416c2.19038,0,4.09966,0.6353,5.07295,0.6353c0.60538,0,1.10268-0.20554,1.41602-0.30501
		l1.36711,6.35386l-1.70573,0.59041c-0.83189-2.05498-2.09096-2.52527-5.76112-2.52527c-1.83682,0-4.01688,0.23313-4.01688,1.26135
		c0,0.5545,0.42773,0.90575,2.44679,1.38466l4.97755,1.15556c3.47757,0.81061,5.35866,2.89695,5.35866,5.76081
		C150.57904,34.54231,146.9859,37.16245,139.73923,37.16245z M125.81907,31.07106h-7.06213V18.83391
		c0-0.95664,0.5243-1.15986,0.99-1.15986h0.55073v-2.04895h-10.39184v2.04895h0.54562c0.57574,0,1.01183,0.17361,1.01183,1.07535
		v14.87795c0,0.90837-0.35558,1.13917-0.99058,1.13917h-0.56686v2.05301h16.5393c0.93825,0,1.50567,0.13537,2.11509,0.44038
		l1.62123-7.44561l-2.25478-0.75572C127.60298,30.36046,127.0804,31.07106,125.81907,31.07106z M129.85948,30.01292
		l-1.50278,6.84655c-0.44442-0.22594-0.93539-0.32999-1.91158-0.32999h-16.25587v-1.47923h0.36164
		c0.58611,0,1.20673-0.14832,1.20673-1.32055V18.7494c0-1.17885-0.65196-1.35275-1.20673-1.35275h-0.36164v-1.47261h9.83304v1.47261
		h-0.37253c-0.49098,0-1.17914,0.16298-1.17914,1.35275v12.60535h7.5939c1.21075,0,1.78854-0.86984,2.04898-1.92994
		L129.85948,30.01292z M35.90641,21.89845c1.32055,0,2.01045,0.70683,2.36803,2.17169l2.26283-0.75142l-1.75286-8.12339
		c-0.66462,0.30298-1.13431,0.4513-2.53507,0.4513H15v2.27086h0.50593c0.95434,0,1.33953,0.24349,1.33953,1.44129v17.72318
		c0,1.25329-0.45707,1.52177-1.29326,1.52177H15v2.14611h21.39306c1.17252,0,1.73134,0.12878,2.39134,0.44238l1.75286-8.11247
		l-2.26283-0.74739c-0.34063,1.2786-0.92703,2.1717-2.33412,2.1717H24.90504v-4.33476
		c0.21962-0.1397,0.6071-0.30471,1.05381-0.30471c2.55688,0,4.32587,1.62555,7.67641,1.62555
		c3.56183,0,5.16177-2.42725,6.1903-5.25723l-1.42404-1.37977c-0.75142,0.87213-1.34183,1.07076-2.73885,1.07076
		c-2.33871,0-3.6932-1.45162-7.32487-1.45162c-1.29526,0-2.42148,0.30701-3.43275,0.95231v-3.52615H35.90641z M28.35474,24.6922
		c3.48365,0,5.00112,1.49848,7.33149,1.49848c1.28664,0,2.21797-0.29609,2.71527-0.95234l1.09834,1.05381
		c-0.97763,2.51005-2.34533,4.91687-5.84361,4.91687c-3.1384,0-5.19138-1.64884-7.68304-1.64884
		c-0.56283,0-1.08945,0.24119-1.35619,0.42546v4.80187h11.55155c1.31454,0,1.92594-0.85889,2.29447-2.09063l1.74597,0.58811
		l-1.62756,7.50713c-0.42313-0.20525-0.88879-0.3257-1.98113-0.3257H15.28372v-1.56001h0.36191
		c1.05581,0,1.48786-0.31763,1.48786-1.74397V19.24008c0-1.1935-0.449-1.62123-1.48786-1.62123h-0.36191v-1.69481h20.8423
		c1.52406,0,1.86701-0.07647,2.45542-0.32396l1.62756,7.51343l-1.74597,0.59244c-0.38981-1.26135-0.91008-2.09066-2.43617-2.09066
		H24.61701v4.33653C25.6964,25.13658,26.95399,24.6922,28.35474,24.6922z M104.62937,31.07106h-8.84893v-2.96509
		c0.12878-0.07818,0.43606-0.17735,0.74909-0.17735c2.06794,0,2.97598,1.33491,5.92612,1.33491
		c2.97169,0,4.38336-1.8877,5.3564-4.563l-1.25676-1.1596c-0.67092,0.52921-1.00521,0.85489-2.35538,0.85489
		c-2.02366,0-2.51867-1.28231-5.65993-1.28231c-1.15759,0-1.99349,0.30239-2.75954,0.77267v-2.49566h8.77072
		c1.23375,0,1.72675,0.40673,2.00413,1.72298l2.25822-0.74509l-1.54075-7.17307c-0.51223,0.24808-0.95664,0.4513-1.95149,0.4513
		H87.09449v2.0274h0.54614c0.6879,0,1.01616,0.16902,1.01616,1.1938v14.81958c0,0.95005-0.23112,1.07909-0.99517,1.07909h-0.56713
		v2.05301h18.16153c0.85889,0,1.44962,0.12675,2.13519,0.44038l1.62123-7.44561l-2.25191-0.75572
		C106.39001,30.49987,105.82114,31.07106,104.62937,31.07106z M108.68877,30.01292l-1.50052,6.84655
		c-0.47861-0.26818-1.17222-0.32999-1.93224-0.32999H87.37819v-1.47923h0.36449c0.7951,0,1.19724-0.27969,1.19724-1.25732V18.77268
		c0-1.1067-0.44871-1.37603-1.14061-1.37603h-0.42113v-1.47261h17.71455c0.93536,0,1.44359-0.07647,1.97451-0.32396l1.4203,6.56109
		l-1.7483,0.58814c-0.28573-1.13402-0.81262-1.64251-2.04836-1.64251h-9.19618v3.28902
		c0.95435-0.68987,1.90896-0.99458,3.04527-0.99458c3.0352,0,3.5052,1.2786,5.68522,1.2786
		c1.26365,0,1.77761-0.34928,2.31113-0.77297l0.95634,0.89138c-0.90978,2.39993-2.13749,4.16951-5.03703,4.18588
		c-2.89751,0.00892-3.67191-1.34354-5.92612-1.34354c-0.36794,0-0.76978,0.15262-1.03482,0.28802v3.42613h9.25941
		c1.29527,0,1.86671-0.68987,2.19068-1.92994L108.68877,30.01292z M63.65075,33.5854l-5.51967-7.32257l5.84334-8.0636
		c0.34321-0.47402,0.4467-0.52518,0.71144-0.52518h0.50561v-2.0274h-9.76301v2.0274h0.66862
		c0.16498,0,0.26674,0.07388,0.26674,0.20322c0,0.13511-0.22017,0.45763-0.3642,0.6939l-1.95552,3.09905l-2.04868-3.20051
		c-0.13108-0.21155-0.32196-0.50764-0.32196-0.6091c0-0.07847,0.02098-0.18656,0.26244-0.18656h0.73243v-2.0274H41.36456v2.0274
		h0.54817c0.77037,0,1.07479,0.16528,1.76293,1.09864l5.52197,7.37573l-5.60474,7.32516
		c-0.57549,0.85718-1.13198,1.29294-1.78162,1.29294h-0.52748v2.05301h10.5929v-2.05301h-0.73214
		c-0.16098,0-0.2202-0.0589-0.2202-0.12271c0-0.10149,0.10146-0.27051,0.26244-0.52921l2.03199-3.28932l2.08892,3.23009
		c0.18397,0.28546,0.26448,0.44871,0.26448,0.52059c0,0.11209-0.08251,0.19056-0.30068,0.19056h-0.75542v2.05301h11.34862v-2.05301
		h-0.51226C64.70222,34.76652,64.4464,34.64754,63.65075,33.5854z M65.60023,36.52948h-10.8197v-1.47923h0.52718
		c0.42313,0,0.57116-0.20781,0.57116-0.44238c0-0.22191-0.18194-0.45504-0.38919-0.77641l-2.27089-3.53251l-2.27286,3.67624
		c-0.15295,0.23687-0.33059,0.52889-0.33059,0.71286c0,0.24175,0.16731,0.3622,0.48665,0.3622h0.50793v1.47923H41.54679v-1.47923
		h0.36594c0.63068,0,1.28031-0.44238,1.84573-1.19377l5.76513-7.61922l-5.58779-7.58961
		c-0.6939-0.94802-1.14664-1.25099-1.94289-1.25099h-0.36391v-1.47261h10.77917v1.47261h-0.55276
		c-0.28343,0-0.50361,0.12074-0.50361,0.44268c0,0.17764,0.14833,0.38922,0.30498,0.63038l2.41085,3.69146l2.25394-3.61469
		c0.14773-0.23716,0.34465-0.55479,0.34465-0.68587c0-0.38722-0.2409-0.46396-0.56916-0.46396H55.6949v-1.47261h9.23212v1.47261
		h-0.2248c-0.46537,0-0.51597,0.02991-1.08942,0.82986l-5.82695,8.03632l5.80337,7.72902
		c0.67725,0.90578,1.12795,1.0584,1.64251,1.0584h0.3685V36.52948z M78.35794,20.75985c2.83572,0,4.6136,0.5887,5.18105,2.96335
		l2.25591-0.74538l-1.64651-7.63615c-0.36161,0.18223-1.01154,0.42802-1.58532,0.42802c-1.17855,0-2.4505-0.63127-5.87925-0.63127
		c-6.98855,0-12.17619,4.38077-12.17619,11.12441c0,6.61139,4.96114,11.17931,12.17619,11.17931
		c2.978,0,5.06893-0.66085,5.86459-0.66085c0.49931,0,1.15127,0.22018,1.59998,0.42543l1.64651-7.62955l-2.25591-0.75801
		c-0.64793,2.42351-2.28784,3.00156-5.18105,3.00156c-3.91969,0-6.52917-2.11247-6.52917-5.4817
		C71.82877,22.24167,75.25549,20.75985,78.35794,20.75985z M78.35794,32.10617c3.09413,0,4.6136-0.70456,5.40526-2.91419
		l1.72702,0.58811l-1.54046,7.04144c-0.29234-0.12937-0.96756-0.32367-1.36741-0.32367c-0.86351,0-2.97572,0.66459-5.89853,0.66459
		c-7.07132,0-11.91778-4.48282-11.91778-10.89962c0-6.51855,5.07096-10.84502,11.91778-10.84502
		c3.48135,0,4.48482,0.6353,5.87925,0.6353c0.37256,0,1.04318-0.13973,1.38669-0.32655l1.54046,7.044l-1.70344,0.58441
		c-0.92073-2.41344-2.66296-2.87681-5.42884-2.87681c-3.22117,0-6.79192,1.58155-6.79192,5.86086
		C71.56602,29.87552,74.29451,32.10617,78.35794,32.10617z"/>
	<path d="M152.52626,17.02871c1.0417,0,1.56659,0.59674,1.56659,1.74771v15.0165c0,1.14494-0.49957,1.62355-1.56659,1.62355v0.7468
		h9.02887v-0.7468c-1.09404,0-1.56145-0.50623-1.56145-1.62355v-15.0165c0-1.17222,0.49501-1.74771,1.56145-1.74771v-0.73443
		h-9.02887V17.02871z M145.09793,24.31131l-4.79184-1.11329c-1.82822-0.42746-2.8573-0.93365-2.8573-1.76955
		c0-0.90578,0.91008-1.62096,4.38136-1.62096c3.89842,0,5.15575,0.74939,5.96809,2.4402l1.07564-0.39152l-1.24066-5.66167
		c-0.26674,0.09976-0.71518,0.2225-1.04977,0.2225c-1.11932,0-2.74747-0.62635-5.13849-0.62635
		c-6.28601,0-10.39601,2.19239-10.39601,6.3113c0,3.3629,2.58191,5.0304,5.48518,5.70161l4.6274,1.07506
		c2.05643,0.48235,2.73427,0.81264,2.73427,1.78624c0,0.89338-1.04578,1.80749-5.03099,1.80749
		c-4.30029,0-5.7249-1.21909-6.59303-2.53534l-0.9733,0.32367l1.27397,5.82668c0.28976-0.10408,0.8681-0.22883,1.17915-0.22883
		c1.3372,0,3.4684,0.93536,6.00429,0.93536c6.89542,0,10.4742-2.36573,10.4742-7.06443
		C150.23009,27.15565,148.53526,25.11533,145.09793,24.31131z M126.08351,31.72328h-7.95322V18.7494
		c0-1.14291,0.54787-1.72069,1.53672-1.72069v-0.73443h-9.09027v0.73443c1.04317,0,1.55915,0.49298,1.55915,1.64048v15.14043
		c0,1.20039-0.54529,1.60686-1.55915,1.60686v0.7468h15.89655c0.6899,0,1.27398,0.05919,1.64021,0.22824l1.33723-6.13081
		l-1.05669-0.37053C127.92262,31.16445,127.21838,31.72328,126.08351,31.72328z M105.01656,31.72328h-9.8648v-4.0048
		c0.33892-0.20696,0.84885-0.44382,1.39473-0.44382c2.37924,0,3.0835,1.34557,5.93044,1.34557
		c2.3091,0,3.55118-1.17655,4.60728-3.71877l-0.54787-0.50564c-0.40647,0.30471-1.12795,0.65222-2.28581,0.65222
		c-2.21799,0-2.67533-1.28261-5.68466-1.28261c-1.36311,0-2.41721,0.48665-3.41409,1.40076v-4.41901h9.74206
		c1.12222,0,1.72701,0.40014,2.13348,1.53672l1.05207-0.3642l-1.25761-5.84994c-0.39352,0.13567-0.81895,0.2245-1.71006,0.2245
		H87.76108v0.73443c1.02249,0,1.56433,0.39555,1.56433,1.61893v15.14528c0,1.27457-0.47402,1.62355-1.56433,1.62355v0.7468h17.51993
		c0.51859,0,1.21509,0.04657,1.6615,0.22824l1.34209-6.13081l-1.06069-0.37053
		C106.80481,30.95261,106.21237,31.72328,105.01656,31.72328z M78.38555,20.11221c3.51926,0,4.72572,0.89712,5.62314,2.80237
		l1.07506-0.38949l-1.40102-6.33058c-0.18198,0.07877-0.68128,0.2225-1.0728,0.2225c-1.09834,0-2.57154-0.62635-5.91145-0.62635
		c-6.96297,0-11.54755,4.36379-11.54755,10.47216c0,6.32796,4.71595,10.53109,11.54755,10.53109
		c3.07747,0,4.92953-0.65623,5.91145-0.65623c0.39152,0,0.8825,0.1417,1.09405,0.22047l1.37977-6.33258l-1.07506-0.38519
		c-0.85921,1.888-2.10387,2.83198-5.62314,2.83198c-4.2224,0-7.16447-2.34907-7.16447-6.13337
		C71.22108,21.83749,74.91457,20.11221,78.38555,20.11221z M63.14252,33.97518l-5.78382-7.71235l5.70564-7.87763
		c0.67321-0.93336,0.78762-1.35649,1.51947-1.35649v-0.73443h-8.50801v0.73443c0.63068,0,0.99747,0.21558,0.99747,0.79166
		c0,0.20493-0.16787,0.50993-0.36046,0.82727l-2.60118,4.16548h-0.04398l-2.69629-4.16548
		c-0.20581-0.31734-0.3665-0.56283-0.3665-0.84885c0-0.51023,0.37024-0.77008,1.0584-0.77008v-0.73443H42.01017v0.73443
		c0.9141,0,1.46257,0.33662,2.21396,1.35649l5.78642,7.87763l-5.87148,7.71235c-0.72381,0.96268-1.52783,1.44129-2.20534,1.44129
		v0.7468h9.33358v-0.7468c-0.59677,0-0.99458-0.24549-0.99458-0.72843c0-0.28946,0.23684-0.65796,0.44841-1.00061l2.49766-4.03871
		h0.04227l2.35366,3.65325c0.3806,0.595,0.64734,0.97789,0.64734,1.30589c0,0.56313-0.4168,0.80861-1.09634,0.80861v0.7468h10.08701
		v-0.7468C64.40617,35.41647,63.93185,35.02037,63.14252,33.97518z M36.04611,21.25312c1.34787,0,2.17084,0.56283,2.70032,1.98713
		l1.0518-0.3639l-1.45595-6.80658c-0.30701,0.10146-0.6922,0.2245-1.8052,0.2245H15.66862v0.95664
		c1.21908,0,1.84573,0.52056,1.84573,1.98917v18.0638c0,1.53269-0.5864,1.97047-1.84573,1.97047v0.82986H36.431
		c0.62867,0,1.37577,0.00433,1.91128,0.21991l1.45595-6.79766l-1.0518-0.3602c-0.42772,1.05007-1.01154,1.98287-2.67933,1.98287
		H24.27436v-5.38601c0.38089-0.26418,0.99458-0.56742,1.72702-0.56742c2.53104,0,4.09275,1.64248,7.67212,1.64248
		c2.84202,0,4.36178-1.68016,5.3969-4.46124l-0.62894-0.63068c-0.48436,0.49098-1.36712,0.80861-2.73826,0.80861
		c-2.65634,0-3.58137-1.47549-7.32946-1.47549c-1.62756,0-2.90154,0.56083-4.09937,1.66147v-5.48774H36.04611z M212.50435,38.17398
		c-1.62297-1.96415-3.43507-4.3322-4.52682-6.71518c3.84727-1.21476,6.08653-3.62132,6.08653-7.12592
		c0-6.41538-6.36131-8.37723-13.79886-8.37723c-2.69229,0-8.16136,0.23887-10.82144,0.36191v0.93336
		c1.50221,0,1.93283,0.6433,1.93283,1.93024v18.0661c0,1.55771-0.52374,2.02711-1.93283,2.02711v0.82986h10.63518v-0.82986
		c-1.24471,0-1.92653-0.49672-1.92653-2.02711v-4.47449h3.49255c0.7813,2.38127,2.51462,5.46304,4.01743,7.33146h8.6644v-0.82986
		C213.43396,39.27436,213.09879,38.90183,212.50435,38.17398z M201.15343,27.98581c-0.90549,0-2.15417-0.04224-3.00102-0.1397
		v-6.593c0.73935-0.05493,1.95181-0.12678,2.92111-0.12678c5.13907,0,5.96864,1.70777,5.96864,3.42616
		C207.04216,26.0619,206.3356,27.98581,201.15343,27.98581z M175.968,15.68488c-5.9957,0-12.13739,4.09734-12.13739,10.65413
		c0,6.80658,6.03993,10.45491,12.03563,10.45491c6.01926,0,12.09599-3.62072,12.09599-10.45491
		C187.96223,19.58992,181.96193,15.68488,175.968,15.68488z M175.86624,32.21223c-2.71701,0-5.96808-1.99176-5.96808-5.87322
		c0-3.97059,3.02457-5.90312,5.96808-5.90312c2.72217,0,6.03017,1.6448,6.03017,5.98963
		C181.89641,30.52545,178.70915,32.21223,175.86624,32.21223z"/>
	<g>
		<g>
			<path class="st1" d="M66.83168,42.12359l0.66488,2.51405c0.13108,0.54991,0.26015,1.06273,0.35732,1.56977h0.02558
				c0.11642-0.49872,0.2768-1.02964,0.44238-1.55712l0.80832-2.52671h0.75139l0.76808,2.47179
				c0.18227,0.59217,0.32196,1.11332,0.43635,1.61204h0.02932c0.08453-0.49872,0.21587-1.01987,0.37888-1.60398l0.70483-2.47985
				h0.8865l-1.59132,4.9436H70.6775l-0.75568-2.35769c-0.17365-0.55447-0.31334-1.04315-0.43609-1.62323h-0.02099
				c-0.12301,0.5907-0.27536,1.10296-0.45071,1.63418l-0.79625,2.34674h-0.81464l-1.48986-4.9436H66.83168z"/>
			<path class="st1" d="M74.46353,42.12359l0.66862,2.51405c0.1334,0.54991,0.26274,1.06273,0.35587,1.56977h0.02961
				c0.11441-0.49872,0.2751-1.02964,0.44009-1.55712l0.80428-2.52671h0.75542l0.76405,2.47179
				c0.18629,0.59217,0.32829,1.11332,0.44038,1.61204h0.03165c0.08277-0.49872,0.21384-1.01987,0.37712-1.60398l0.70197-2.47985
				h0.89168l-1.59364,4.9436h-0.81924l-0.75368-2.35769c-0.17364-0.55447-0.31738-1.04315-0.43579-1.62323h-0.02128
				c-0.12245,0.5907-0.27711,1.10296-0.45071,1.63418l-0.79798,2.34674h-0.81262l-1.48985-4.9436H74.46353z"/>
			<path class="st1" d="M82.10201,42.12359l0.66203,2.51405c0.13337,0.54991,0.26674,1.06273,0.35987,1.56977h0.02991
				c0.10979-0.49872,0.2751-1.02964,0.43779-1.55712l0.80687-2.52671h0.75772l0.76175,2.47179
				c0.18398,0.59217,0.32597,1.11332,0.4398,1.61204h0.0299c0.08048-0.49872,0.21588-1.01987,0.37686-1.60398l0.70483-2.47985
				h0.88908l-1.59391,4.9436h-0.81521l-0.75516-2.35769c-0.17361-0.55447-0.31561-1.04315-0.43835-1.62323H84.7345
				c-0.12045,0.5907-0.2728,1.10296-0.44642,1.63418l-0.79969,2.34674h-0.81291l-1.49218-4.9436H82.10201z"/>
			<path class="st1" d="M88.64816,46.53397c0-0.36391,0.25352-0.64304,0.6094-0.64304s0.60539,0.26618,0.60539,0.64304
				c0,0.3662-0.24952,0.64331-0.62464,0.64331C88.89336,47.17728,88.64816,46.90017,88.64816,46.53397z"/>
			<path class="st1" d="M91.47556,44.76039c0.01695,1.21305,0.78101,1.71465,1.69308,1.71465
				c0.6413,0,1.04144-0.11471,1.36541-0.25841l0.1673,0.6433c-0.32196,0.14403-0.87213,0.31734-1.65572,0.31734
				c-1.5235,0-2.42899-1.00721-2.42899-2.4991c0-1.49015,0.87587-2.65434,2.31487-2.65434
				c1.62553,0,2.04263,1.40738,2.04263,2.31772c0,0.18426-0.01093,0.31507-0.02732,0.41883H91.47556z M94.10632,44.11476
				c0.01033-0.5608-0.23457-1.44962-1.24641-1.44962c-0.91669,0-1.30388,0.82759-1.37344,1.44962H94.10632z"/>
			<path class="st1" d="M96.47234,42.12359l0.70912,1.06443c0.1903,0.2751,0.34725,0.51856,0.50793,0.79795h0.02099
				c0.16098-0.28831,0.32825-0.54414,0.4996-0.80858l0.68153-1.05381h0.98222L98.189,44.5149l1.72701,2.55229h-1.01157
				l-0.73673-1.1133c-0.19056-0.28543-0.35558-0.56283-0.52918-0.85891h-0.01899c-0.16471,0.29609-0.32567,0.56283-0.52315,0.85891
				l-0.71259,1.1133h-0.98884l1.75259-2.52268l-1.67183-2.42092H96.47234z"/>
			<path class="st1" d="M104.14902,46.89384c-0.23313,0.11012-0.75572,0.28343-1.41857,0.28343
				c-1.48756,0-2.45456-1.00721-2.45456-2.52065c0-1.52179,1.03915-2.63279,2.65405-2.63279
				c0.52718,0,0.99861,0.13107,1.24007,0.26677l-0.20293,0.68354c-0.21387-0.11439-0.54847-0.23687-1.03715-0.23687
				c-1.13484,0-1.74827,0.84626-1.74827,1.86616c0,1.1475,0.73473,1.84602,1.71407,1.84602
				c0.51252,0,0.84685-0.12074,1.10526-0.23283L104.14902,46.89384z"/>
			<path class="st1" d="M105.64291,44.76039c0.02128,1.21305,0.78533,1.71465,1.6954,1.71465
				c0.64101,0,1.04115-0.11471,1.36481-0.25841l0.16557,0.6433c-0.31563,0.14403-0.8681,0.31734-1.65343,0.31734
				c-1.52147,0-2.42925-1.00721-2.42925-2.4991c0-1.49015,0.87817-2.65434,2.31743-2.65434
				c1.62152,0,2.04006,1.40738,2.04006,2.31772c0,0.18426-0.01036,0.31507-0.02932,0.41883H105.64291z M108.27597,44.11476
				c0.00863-0.5608-0.23283-1.44962-1.24466-1.44962c-0.9184,0-1.30762,0.82759-1.37774,1.44962H108.27597z"/>
			<path class="st1" d="M110.25481,39.82023h0.90145v7.24696h-0.90145V39.82023z"/>
			<path class="st1" d="M112.54266,46.15711c0.27507,0.16269,0.74706,0.34525,1.1981,0.34525
				c0.63871,0,0.94828-0.31534,0.94828-0.73447c0-0.42772-0.25438-0.65193-0.90804-0.89712
				c-0.90001-0.32626-1.31884-0.80429-1.31884-1.39732c0-0.79566,0.65396-1.44962,1.70573-1.44962
				c0.49989,0,0.93768,0.13107,1.20228,0.30671l-0.21343,0.65396c-0.19489-0.12475-0.55247-0.29809-1.01413-0.29809
				c-0.52689,0-0.81261,0.30901-0.81261,0.67466c0,0.40903,0.28572,0.591,0.93133,0.84481
				c0.84425,0.31993,1.29052,0.74939,1.29052,1.48153c0,0.87643-0.68112,1.48986-1.83237,1.48986
				c-0.54154,0-1.04344-0.1394-1.3884-0.34725L112.54266,46.15711z"/>
			<path class="st1" d="M117.70887,40.7349c0,0.30871-0.21384,0.55479-0.57146,0.55479c-0.32655,0-0.53984-0.24608-0.53984-0.55479
				c0-0.30298,0.22192-0.5568,0.56113-0.5568C117.48466,40.1781,117.70887,40.42186,117.70887,40.7349z M116.7074,47.06719v-4.9436
				h0.90201v4.9436H116.7074z"/>
			<path class="st1" d="M123.56716,44.55514c0,1.8308-1.27631,2.62214-2.45944,2.62214c-1.32458,0-2.36633-0.97763-2.36633-2.53963
				c0-1.64221,1.09234-2.61381,2.4445-2.61381C122.60879,42.02383,123.56716,43.05465,123.56716,44.55514z M119.65609,44.60344
				c0,1.08398,0.61572,1.89892,1.49416,1.89892c0.85718,0,1.49878-0.80199,1.49878-1.91761
				c0-0.83619-0.41736-1.89029-1.47979-1.89029C120.11772,42.69445,119.65609,43.67697,119.65609,44.60344z"/>
			<path class="st1" d="M124.70374,43.66634c0-0.58008-0.01266-1.07939-0.04198-1.54276h0.78245l0.04486,0.98163h0.02988
				c0.22135-0.65997,0.77843-1.08139,1.37747-1.08139c0.09084,0,0.16272,0.01065,0.24319,0.01899v0.84911
				c-0.09084-0.01954-0.17994-0.01954-0.30242-0.01954c-0.63526,0-1.08368,0.46596-1.20672,1.1409
				c-0.02125,0.12475-0.02528,0.2774-0.02528,0.4171v2.6368h-0.90145V43.66634z"/>
			<path class="st1" d="M127.28564,46.53397c0-0.36391,0.25411-0.64304,0.60995-0.64304c0.35934,0,0.60309,0.26618,0.60309,0.64304
				c0,0.3662-0.24374,0.64331-0.62263,0.64331C127.53169,47.17728,127.28564,46.90017,127.28564,46.53397z"/>
			<path class="st1" d="M133.13358,46.89384c-0.23515,0.11012-0.76004,0.28343-1.42001,0.28343
				c-1.49014,0-2.45944-1.00721-2.45944-2.52065c0-1.52179,1.04344-2.63279,2.65375-2.63279
				c0.52892,0,1.00151,0.13107,1.24466,0.26677l-0.20291,0.68354c-0.21617-0.11439-0.55479-0.23687-1.04175-0.23687
				c-1.13199,0-1.74367,0.84626-1.74367,1.86616c0,1.1475,0.73184,1.84602,1.71436,1.84602
				c0.50993,0,0.84685-0.12074,1.10037-0.23283L133.13358,46.89384z"/>
			<path class="st1" d="M138.59633,44.55514c0,1.8308-1.27861,2.62214-2.46175,2.62214c-1.32687,0-2.36803-0.97763-2.36803-2.53963
				c0-1.64221,1.09172-2.61381,2.45023-2.61381C137.63506,42.02383,138.59633,43.05465,138.59633,44.55514z M134.68526,44.60344
				c0,1.08398,0.61339,1.89892,1.48956,1.89892c0.85487,0,1.50281-0.80199,1.50281-1.91761
				c0-0.83619-0.41913-1.89029-1.48212-1.89029C135.144,42.69445,134.68526,43.67697,134.68526,44.60344z"/>
			<path class="st1" d="M139.73061,43.46312c0-0.52089-0.02357-0.92906-0.04256-1.33953h0.78532l0.04253,0.80832h0.02936
				c0.27307-0.46799,0.73413-0.90807,1.56142-0.90807c0.66287,0,1.17569,0.40847,1.38669,0.98825h0.02126
				c0.15465-0.28543,0.35587-0.48695,0.56285-0.6433c0.29434-0.22221,0.6134-0.34495,1.07965-0.34495
				c0.66458,0,1.63388,0.42946,1.63388,2.14382v2.89954h-0.87672v-2.78915c0-0.95664-0.35529-1.51976-1.07047-1.51976
				c-0.52089,0-0.91008,0.37656-1.07509,0.80458c-0.04024,0.13481-0.07243,0.28976-0.07243,0.45044v3.05389h-0.87155v-2.95873
				c0-0.78707-0.35184-1.35019-1.03311-1.35019c-0.55191,0-0.9733,0.45044-1.11301,0.89974
				c-0.05115,0.12016-0.07243,0.28543-0.07243,0.43779v2.97139h-0.87558V43.46312z"/>
			<path class="st1" d="M148.02704,46.53397c0-0.36391,0.25755-0.64304,0.61401-0.64304c0.35529,0,0.60077,0.26618,0.60077,0.64304
				c0,0.3662-0.24548,0.64331-0.62263,0.64331C148.27254,47.17728,148.02704,46.90017,148.02704,46.53397z"/>
			<path class="st1" d="M150.35483,43.46312c0-0.52089-0.02069-0.92906-0.03793-1.33953h0.78302l0.04198,0.80832h0.02988
				c0.27539-0.46799,0.73703-0.90807,1.56259-0.90807c0.66,0,1.17625,0.40847,1.3838,0.98825h0.02528
				c0.15236-0.28543,0.35588-0.48695,0.55884-0.6433c0.29605-0.22221,0.61398-0.34495,1.08194-0.34495
				c0.66229,0,1.63618,0.42946,1.63618,2.14382v2.89954h-0.87903v-2.78915c0-0.95664-0.35988-1.51976-1.07335-1.51976
				c-0.52029,0-0.90778,0.37656-1.07047,0.80458c-0.04254,0.13481-0.07185,0.28976-0.07185,0.45044v3.05389h-0.88075v-2.95873
				c0-0.78707-0.34322-1.35019-1.02852-1.35019c-0.54843,0-0.96928,0.45044-1.11301,0.89974
				c-0.04657,0.12016-0.07014,0.28543-0.07014,0.43779v2.97139h-0.87846V43.46312z"/>
			<path class="st1" d="M159.28598,42.12359l0.70485,1.06443c0.19315,0.2751,0.34721,0.51856,0.51222,0.79795h0.01955
				c0.16269-0.28831,0.32597-0.54414,0.49902-0.80858l0.68356-1.05381h0.98022l-1.68219,2.39131l1.72472,2.55229h-1.01183
				l-0.73473-1.1133c-0.19434-0.28543-0.35991-0.56283-0.53122-0.85891h-0.01895c-0.16272,0.29609-0.32771,0.56283-0.52203,0.85891
				l-0.71175,1.1133h-0.99284l1.7569-2.52268l-1.67413-2.42092H159.28598z"/>
		</g>
	</g>
</g>
<g>
</g>
<g>
</g>
<g>
</g>
<g>
</g>
<g>
</g>
<g>
</g>
</svg>
