<?xml version="1.0" encoding="utf-8"?>
<!-- Generator: Adobe Illustrator 21.0.0, SVG Export Plug-In . SVG Version: 6.00 Build 0)  -->
<svg version="1.1" id="Capa_1" xmlns="http://www.w3.org/2000/svg" xmlns:xlink="http://www.w3.org/1999/xlink" x="0px" y="0px"
	 width="283px" height="60px" viewBox="0 0 283 60" style="enable-background:new 0 0 283 60;" xml:space="preserve">
<style type="text/css">
	.st0{fill:#35B294;}
</style>
<g id="Layer_1_1_">
	<g>
		<g>
			<path d="M44.94191,44.61302h9.51293l5.10009-29.18987H50.042l-1.88088,10.45337h-8.24696l1.88088-10.45338h-9.51293
				l-5.10009,29.18987h9.51293l1.91706-10.9236h8.24696L44.94191,44.61302z"/>
		</g>
		<g>
			<path d="M64.94439,15.38698l-2.89367,16.24071c-0.2532,1.26598-0.36171,2.49579-0.36171,3.65326
				c0,8.60866,7.52354,9.91081,12.0449,9.91081c9.47676,0,13.56406-3.14686,15.04707-11.64701l3.18304-18.19394h-9.51293
				l-2.71281,15.2641c-0.8681,4.77455-1.48301,7.27034-5.02775,7.27034c-2.31493,0-3.43623-1.22981-3.43623-3.76177
				c0-0.97661,0.14468-2.17025,0.43404-3.65326l2.74899-15.11941h-9.51294V15.38698z"/>
		</g>
		<g>
			<path d="M142.2415,44.61302h9.51292l1.33833-7.52353h4.48518c8.28311,0,12.87682-4.48519,12.87682-12.6598
				c0-5.75116-3.97879-9.04271-10.95976-9.04271h-12.15341L142.2415,44.61302z M157.07155,29.89149h-2.74899l1.26598-6.87246
				h2.56815c2.0979,0,3.21919,1.04895,3.21919,2.96601C161.37587,28.40848,159.74818,29.89149,157.07155,29.89149z"/>
		</g>
		<g>
			<path d="M188.93806,14.77207c-10.34486,0-16.53008,6.69161-16.53008,17.94074c0,7.8129,4.91924,12.51511,13.16618,12.51511
				c10.34486,0,16.53006-6.69161,16.53006-17.94074C202.14043,19.43811,197.22118,14.77207,188.93806,14.77207z M186.15291,37.66822
				c-2.45961,0-3.90645-1.77237-3.90645-4.73838c0-1.1213,0.10851-2.09791,0.32553-3.21921
				c0.72342-3.83411,1.95323-7.34268,5.82352-7.34268c2.45961,0,3.90645,1.77237,3.90645,4.73838
				c0,1.1213-0.10852,2.09791-0.32555,3.21921C191.25299,34.12348,190.02319,37.66822,186.15291,37.66822z"/>
		</g>
		<g>
			<path d="M235.20056,44.61302h9.51294l3.76176-21.37697h7.16183l1.3745-7.8129h-24.34299l-1.3745,7.8129H238.89
				L235.20056,44.61302z"/>
		</g>
		<path d="M219.43008,26.20206c-3.00218-0.94044-4.23199-1.33832-4.23199-2.74898c0-0.94044,0.61491-2.06174,2.42345-2.06174
			c1.33833,0,2.45963,0.75959,2.89368,1.88088l8.39163-2.27876c-0.97661-4.12348-4.52135-6.22139-10.63423-6.22139
			c-11.50232,0-12.4066,7.70439-12.4066,10.0555c0,4.77455,2.53197,7.70439,8.02994,9.22357
			c1.44684,0.39788,3.11069,0.83193,3.11069,2.42345c0,1.26598-0.94043,2.06174-2.56813,2.06174
			c-1.48299,0-3.07452-0.8681-3.61708-2.38728l-8.28313,2.24259c0.90427,4.3405,4.99156,6.80012,11.39381,6.80012
			c4.88306,0,13.05766-1.30215,13.05766-10.12784C227.02597,30.65108,224.53017,27.75741,219.43008,26.20206z"/>
		<g>
			<path class="st0" d="M21.86491,44.61302l5.13626-29.18987H11.26686v29.18987H21.86491z"/>
		</g>
		<g>
			<path class="st0" d="M261.09891,15.42315l-5.10008,29.18987h15.73433V15.42315H261.09891z"/>
		</g>
		<polygon points="97.38965,15.38698 92.28956,44.61302 101.80249,44.61302 103.32166,36.00436 111.31542,36.00436 
			112.61758,28.66168 104.62382,28.66168 105.52808,23.23605 116.70488,23.23605 118.07937,15.38698 		"/>
		<polygon points="122.34753,15.38698 117.24744,44.61302 126.76037,44.61302 128.24338,36.00436 136.27332,36.00436 
			137.57545,28.66168 129.5817,28.66168 130.48598,23.23605 141.66277,23.23605 143.03725,15.38698 		"/>
	</g>
</g>
<g>
</g>
<g>
</g>
<g>
</g>
<g>
</g>
<g>
</g>
<g>
</g>
</svg>
