<?xml version="1.0" encoding="utf-8"?>
<!-- Generator: Adobe Illustrator 21.0.0, SVG Export Plug-In . SVG Version: 6.00 Build 0)  -->
<svg version="1.1" id="Capa_1" xmlns="http://www.w3.org/2000/svg" xmlns:xlink="http://www.w3.org/1999/xlink" x="0px" y="0px"
	 width="283px" height="60px" viewBox="0 0 283 60" style="enable-background:new 0 0 283 60;" xml:space="preserve">
<style type="text/css">
	.st0{fill:#020203;}
	.st1{fill:#FFDD08;}
</style>
<g>
	<g id="logo_svg_sdp">
		<path class="st0" d="M12.01868,34.14637v11.83338h3.05806l0.79776-2.92511c6.64797,6.64796,21.27349,4.12174,20.47573-5.58429
			c-0.53184-11.16858-18.08247-8.11052-19.2791-13.03001c-0.66479-2.9251,2.26031-4.78653,5.71725-4.78653
			c3.5899,0,7.71164,2.26031,8.90827,8.11052h3.05806V17.26054H32.2285l-1.19663,2.12735
			c-9.57307-6.91388-18.6143-1.06367-19.01318,5.05245c-0.6648,11.96634,16.61991,8.37644,18.88022,13.29593
			c3.19102,6.78093-14.22664,9.70603-15.6892-3.32398L12.01868,34.14637z"/>
		<path class="st0" d="M47.11994,20.31861v22.47012h6.11613c5.71725-0.26592,8.64235-5.05245,8.24348-12.49817
			c-0.26592-7.71164-4.65358-9.83899-7.71164-9.97195C53.7679,20.31861,47.11994,20.31861,47.11994,20.31861z M36.35023,20.18565
			v-3.19102h19.01318c5.05245,0.26592,13.29593,3.72286,13.03001,14.49257c-0.13296,9.97195-6.24909,14.22664-14.09369,14.3596
			h-17.9495v-2.92511h3.32398c0.66479,0,1.19663-0.13296,1.19663-0.79776V21.38228c0-0.53184,0-1.19663-0.93072-1.19663H36.35023z"
			/>
		<path class="st0" d="M78.49833,20.31861v9.17419h5.05245c2.12735,0,5.58429-1.06367,5.45133-4.52061
			c0-1.46255-0.26592-4.52062-5.31837-4.52062C82.08823,20.31861,78.49833,20.31861,78.49833,20.31861z M86.20997,32.94974h-7.71164
			v9.17419c0,0.79776,0.66479,0.79776,1.59551,0.79776h3.19102v3.19102H67.99454v-2.9251h3.32399
			c0.79775,0,1.19663,0,1.19663-0.79776V21.51524c0-0.53184-0.13296-1.19663-0.93072-1.19663h-3.5899v-3.19102h19.01318
			c5.05245,0.26592,8.24348,3.45694,8.37643,7.8446S91.12946,32.94974,86.20997,32.94974z"/>
	</g>
	<g id="logo_svg_noticias">
		<path class="st0" d="M204.54376,39.06587v7.1798h1.99438l0.53183-1.72847c4.25468,3.98878,13.03001,2.52623,12.63113-3.45694
			c-0.39888-6.78225-11.43451-3.85582-12.23225-7.97756c-0.39888-1.86143,1.86142-3.05806,3.98878-2.9251
			c2.2603,0,4.91948,1.32959,5.71725,4.91949h1.99438v-6.38205h-1.59554l-0.66479,1.32959
			c-6.11745-4.2547-11.83336-0.66479-12.10062,3.05806c-0.39888,6.91389,11.03563,5.18409,12.49817,8.11052
			c1.99438,4.12307-9.57307,5.98317-10.50378-2.12735H204.54376z"/>
		<path class="st0" d="M95.25121,28.69504v1.99439h3.05807c0.66479,0,0.66479,0.13296,0.66479,0.79776v11.56746
			c0,0.53051,0,1.32959-1.06367,1.32959h-2.52623v1.86143h10.37083v-1.99439h-2.79214c-0.6648,0-0.79776-0.6648-0.79776-1.1953
			v-8.24481c0-2.39326,2.65919-4.52061,5.31837-4.38766c1.86143,0,3.85582,0.93071,3.85582,3.45694v9.30715
			c0,0.79908-0.26591,1.06367-0.79775,1.06367h-2.52624v1.86143h10.37083v-1.99439h-2.9251
			c-0.39888,0-0.79775-0.39888-0.79775-0.79776v-9.04123c0-2.65919-1.46255-5.84888-5.85021-5.98317
			c-4.91949,0-6.78092,3.45694-6.78092,3.45694v-3.05806C102.03214,28.69504,95.25121,28.69504,95.25121,28.69504z"/>
		<path class="st0" d="M126.6296,29.89168c-4.52062,0.13296-5.85021,3.05807-5.85021,7.31276
			c0,5.85021,3.05807,7.44705,5.85021,7.44705c1.72848,0,6.38204-0.13429,6.24908-7.44705
			C132.87868,31.75311,130.75133,29.89168,126.6296,29.89168z M136.20267,37.20444
			c-0.13297,8.24348-6.11613,9.17419-9.70604,9.17419c-2.39326,0-9.17419-0.93072-9.17419-9.17419
			c0-5.18409,3.45694-8.90827,9.57307-8.90827C133.94235,28.29617,136.20267,33.21566,136.20267,37.20444z"/>
		<path class="st0" d="M135.67084,30.42351V28.828c0,0,4.12173-0.13296,4.12173-7.1798h1.99438v7.1798h5.18542v1.86143h-5.05246
			v11.83338c0,1.72847,0.66479,2.52623,1.99438,2.52623c1.46255,0,2.12735-0.93071,2.12735-2.65918v-3.05806h1.86143v3.19102
			c0,1.32959-0.53185,4.2547-4.2547,4.2547c-3.85582,0-4.78653-2.65919-4.78653-4.2547s0.13295-11.83338,0.13295-11.83338
			L135.67084,30.42351z"/>
		<g>
			<path class="st0" d="M147.77013,28.69504v1.86143h2.79214c0.53185,0,0.93071,0.26592,0.93071,0.93072v11.30154
				c0,0.79776-0.26591,1.19664-0.93071,1.19664h-2.39326v1.99439h10.37082V43.8524h-3.05806
				c-0.53185,0-0.53185-0.53051-0.53185-1.32959V28.69504H147.77013z"/>
			<path class="st0" d="M155.08289,23.24371c0,1.19663-0.93071,2.12735-2.12868,2.12735c-1.1953,0-2.12733-0.93072-2.12733-2.12735
				s0.93071-2.12735,2.12733-2.12735C154.15218,21.11636,155.08289,22.04708,155.08289,23.24371z"/>
		</g>
		<g>
			<path class="st0" d="M174.22903,28.69504v1.86143h2.79347c0.5305,0,0.92938,0.26592,0.92938,0.93072v11.30154
				c0,0.79776-0.26459,1.19664-0.92938,1.19664h-2.39461v1.99439h10.37216V43.8524h-3.05939
				c-0.5305,0-0.5305-0.53051-0.5305-1.32959V28.69504H174.22903z"/>
			<path class="st0" d="M181.40883,23.24371c0,1.19663-0.93071,2.12735-2.12868,2.12735c-1.19531,0-2.12735-0.93072-2.12735-2.12735
				s0.93071-2.12735,2.12735-2.12735C180.47812,21.11636,181.40883,22.04708,181.40883,23.24371z"/>
		</g>
		<path class="st0" d="M172.23465,32.55086c0.13428-2.9251-10.10492-4.78654-10.90266,3.5899
			c-0.39888,5.58429,2.12868,8.5094,5.18541,8.5094c3.32399,0.13296,5.58429-1.99439,5.71725-5.05378h2.12868
			c0,0-0.13429,7.04817-7.8446,6.91388c-7.71164-0.13296-8.5094-6.38205-8.37643-9.83766c0-3.32398,2.5249-8.5094,8.90826-8.5094
			c5.1841,0,7.04684,2.52623,7.31276,4.12174c0.3989,2.26031-0.40021,3.85582-2.2603,3.72419
			C169.84137,36.14076,169.70842,32.81678,172.23465,32.55086z"/>
		<path class="st0" d="M188.85455,42.12393c0.26591,3.05806,2.92509,3.32398,5.18541,2.26031
			c1.46255-0.66479,2.65918-2.12868,2.92509-3.05806v-4.38766C195.36955,38.13515,188.45567,38.53403,188.85455,42.12393z
			 M188.85455,31.48719c2.2603,0.6648,1.46388,3.5899-0.26591,3.72286c-2.92378,0.26592-2.65918-3.05807-1.46255-4.2547
			c1.19662-1.32959,3.8558-2.12735,6.515-2.12735c3.1897,0,6.38205,1.19663,6.38205,2.79214v11.83338
			c0,1.72847,2.92509,1.99439,3.05806-0.79776v-2.26031h1.86142c0,3.98878-0.79907,6.24909-3.98877,6.24909
			c-1.9944,0-3.19102-1.46388-3.32399-2.52623c0,0-2.2603,1.99439-5.05377,2.52623c-2.5249,0.53051-5.84888-0.13429-6.64796-2.52623
			c-1.06367-3.72286,0.66479-5.18541,2.39459-5.98317c1.72847-0.79776,8.50807-1.59551,8.77531-3.45694
			C198.42763,28.29617,189.38638,29.89168,188.85455,31.48719z"/>
	</g>
</g>
<g id="logo_svg_puntocom">
	<path class="st1" d="M229.80603,42.92169c0,2.12868-1.72849,3.85582-3.85449,3.85582c-2.12868,0-3.85582-1.72847-3.85582-3.85582
		s1.72847-3.85449,3.85582-3.85449C228.07755,39.06587,229.80603,40.79434,229.80603,42.92169z"/>
	<g>
		<path class="st0" d="M270.49155,39.59771v4.91949c0,0.26592,0,0.79908,0.53052,0.79908h1.46387v1.06367h-5.58426v-1.19663h1.59549
			c0.3989,0,0.53052-0.39888,0.53052-0.6648v-4.78653c0-1.32959-0.79776-2.65919-2.65918-2.65919
			c-2.259,0.13296-2.39328,2.12735-2.39328,2.26031v5.31837c0,0.13296,0.26593,0.39888,0.3989,0.39888h1.19662v1.1953h-5.58429
			V45.182h1.46387c0.3989,0,0.53052-0.13296,0.53052-0.53051v-5.45266c0-1.46255-1.19531-1.99439-2.26031-1.99439
			c-1.59418-0.13296-3.05807,1.19663-3.1897,2.65918v4.78654c0,0.26459,0,0.66479,0.3989,0.66479h1.59549v1.19664h-6.1161v-1.06367
			h1.46388c0.5305,0,0.5305-0.39888,0.5305-0.79776v-6.78093c0-0.26592,0-0.39888-0.39888-0.39888h-1.86143v-1.32959h3.98878
			v1.72847c0,0,1.06366-1.99439,3.98877-1.99439c1.72849,0,2.65918,0.93072,3.05807,1.99439c0,0,0.93069-2.12735,4.2547-1.8601
			C270.49155,36.14076,270.49155,38.79995,270.49155,39.59771z"/>
		<path class="st0" d="M247.09073,36.80556c-2.65918,0-3.45694,1.86143-3.45694,4.38765c0,3.45827,1.86142,4.38766,3.45694,4.38766
			c0.93071,0,3.72418,0,3.72418-4.38766C250.81358,37.86923,249.48398,36.80556,247.09073,36.80556z M252.67502,41.19321
			c-0.13297,4.91949-3.58989,5.45266-5.71725,5.45266c-1.46255,0-5.45134-0.53184-5.45134-5.45266
			c0-3.05806,1.99438-5.31837,5.58296-5.31837C251.34543,35.87484,252.67502,38.79995,252.67502,41.19321z"/>
		<path class="st0" d="M239.77797,38.26811c0.13295-1.72847-6.2491-2.92511-6.78093,2.12735
			c-0.26591,3.32398,1.32959,5.05245,3.19101,5.18408c1.9944,0.13429,3.45695-1.1953,3.58858-3.05806h1.32961
			c0,0,0,4.2547-4.78654,4.2547s-5.18541-3.85582-5.18541-5.98317c0-1.99439,1.5955-5.05245,5.45265-5.05245
			c3.1897,0,4.38766,1.59551,4.5193,2.5249c0.26591,1.32959-0.2646,2.26031-1.32961,2.26031
			C238.31541,40.39546,238.18245,38.53403,239.77797,38.26811z"/>
	</g>
</g>
<g>
</g>
<g>
</g>
<g>
</g>
<g>
</g>
<g>
</g>
<g>
</g>
</svg>
